<?xml version="1.0" standalone="no"?>
<!DOCTYPE svg PUBLIC "-//W3C//DTD SVG 1.1//EN" "http://www.w3.org/Graphics/SVG/1.1/DTD/svg11.dtd" >
<svg xmlns="http://www.w3.org/2000/svg">
<metadata></metadata>
<defs>
<font id="always_in_my_heartregular" horiz-adv-x="342" >
<font-face units-per-em="1000" ascent="800" descent="-200" />
<missing-glyph horiz-adv-x="271" />
<glyph unicode="&#xd;" horiz-adv-x="333" />
<glyph unicode=" "  horiz-adv-x="271" />
<glyph unicode="&#x09;" horiz-adv-x="271" />
<glyph unicode="&#xa0;" horiz-adv-x="271" />
<glyph unicode="!" horiz-adv-x="173" d="M423 619q-7 -80 -9 -209q-3 -186 -4 -212q-1 -11 -9 -18.5t-19 -7t-18.5 8.5t-7.5 19q1 29 4 210q2 130 9 213q1 12 9.5 19t20 6t18.5 -9.5t6 -19.5zM401 77q8 -8 8 -19t-8 -19t-19 -8t-19 8t-8 19t8 19t19 8t19 -8z" />
<glyph unicode="&#x22;" horiz-adv-x="331" d="M476 661q0 -34 -11 -102q-2 -11 -11 -17.5t-20 -5t-17.5 10.5t-5.5 20q11 64 11 94q0 11 8 19t19 8t19 -8t8 -19zM581 653q-9 -46 -14 -93q-1 -11 -10 -18t-20 -6t-18 10t-6 20q6 49 16 97q2 11 11 17.5t20 4t17.5 -11.5t3.5 -20z" />
<glyph unicode="#" horiz-adv-x="308" d="M437 356q5 82 5 119q0 11 8 19t19 8t19 -8t8 -19q0 -37 -4 -111q18 2 35 6q11 2 20.5 -4.5t11.5 -17.5t-4.5 -20.5t-17.5 -11.5q-24 -4 -48 -7q-2 -25 -2 -44q-1 -26 -1 -49q23 1 44 1q11 0 19 -8t8 -19t-8 -19t-19 -8q-20 0 -42 -1q4 -53 17 -93q3 -11 -2 -20.5t-16 -13 t-20.5 1.5t-13.5 16q-14 46 -19 107q-59 -3 -136 -10q-10 -47 -23 -89q-4 -11 -13.5 -16t-20.5 -1.5t-16 13t-2 20.5q10 32 18 67l-72 -8q-11 -1 -20 6t-10 18t6 20t18 10l89 9q7 42 12 86l-61 -5q-11 -1 -19.5 6.5t-9.5 18.5t6.5 19.5t18.5 9.5l69 5q2 44 2 90q0 11 8 19 t19 8t19 -8t8 -19q0 -44 -2 -85q66 6 115 12zM434 301q-49 -6 -116 -11q-4 -44 -10 -85q69 6 124 9q0 24 1 52q0 16 1 35z" />
<glyph unicode="$" horiz-adv-x="314" d="M492 432q-18 11 -53.5 13t-70.5 -7q-32 -10 -44 -25q-9 -13 1 -34q8 -15 45 -34q15 -7 44.5 -19.5t40.5 -17.5q26 -11 44 -22.5t38 -29.5t27 -43.5t0 -55.5q-10 -45 -61 -74q-42 -24 -100 -30q-58 -5 -111.5 12.5t-78.5 62.5q-5 10 -2 20.5t13 16t20.5 2.5t16.5 -13 q14 -26 52 -38.5t85 -8.5q46 4 79 23q30 17 35 39q6 28 -12.5 48.5t-66.5 41.5l-42 18q-30 13 -45 20q-53 26 -69 58q-26 50 4 90q22 30 72 44q39 13 88.5 10t78.5 -21q10 -6 12.5 -17t-3.5 -20.5t-17 -12t-20 3.5zM442 16l5 -33q1 -11 -5.5 -20t-17.5 -10.5t-20 5t-11 17.5 l-5 33q-1 11 5.5 20t17.5 10.5t20 -5t11 -17.5zM422 567l4 -28q1 -11 -5.5 -20t-17.5 -10.5t-20 5t-11 17.5l-4 28q-1 11 5.5 20t17.5 10.5t20 -5t11 -17.5z" />
<glyph unicode="%" horiz-adv-x="319" d="M570 513q-82 -159 -240 -508q-5 -10 -15.5 -14t-20.5 0.5t-14 15t0 20.5q159 351 242 510q5 10 16 13.5t20.5 -1.5t13 -16t-1.5 -20zM355 507q8 -8 8 -19t-8 -19t-19 -8t-19 8t-8 19t8 19t19 8t19 -8zM510 74q8 -8 8 -19t-8 -19t-19 -8t-19 8t-8 19t8 19t19 8t19 -8z" />
<glyph unicode="&#x26;" horiz-adv-x="333" d="M460 78q-69 69 -107 131q-40 -46 -57 -75q-28 -46 -15 -63q17 -22 54.5 -24.5t88.5 15.5q18 7 36 16zM547 70l62 -52q9 -6 10.5 -17.5t-5 -20t-18 -10t-19.5 5.5q-39 29 -76 63q-29 -16 -59 -27q-37 -14 -72.5 -18.5t-72 5.5t-58.5 38q-37 48 11 125q23 37 77 100 q-5 12 -9 24q-19 66 -14 121q9 88 80 104q52 12 88 -19q50 -43 8 -122q-22 -40 -89 -117q36 -68 116 -146q42 31 56 60q5 10 15.5 13.5t20.5 -1.5t13.5 -15.5t-1.5 -20.5q-18 -38 -64 -73zM368 309q47 56 64 87q22 40 4 56q-15 12 -40 7q-33 -8 -38 -57q-4 -41 10 -93z" />
<glyph unicode="'" horiz-adv-x="216" d="M467 660q-2 -12 -4.5 -48t-5.5 -55q-2 -11 -11 -17.5t-20 -5t-17.5 10.5t-5.5 20q3 19 6 53.5t4 47.5q1 11 10 18t20 6t18 -10t6 -20z" />
<glyph unicode="(" horiz-adv-x="200" d="M324 606q-30 -77 -48.5 -166t-22.5 -181.5t15 -182t61 -154.5q6 -10 3.5 -21t-12 -17t-20.5 -3.5t-17 11.5q-47 74 -68 171.5t-16 196.5t24 192t51 174q4 10 14 14.5t20.5 0.5t15 -14t0.5 -21z" />
<glyph unicode=")" horiz-adv-x="426" d="M295 -78q45 103 67 222t10 246q-11 127 -64 215q-6 10 -3 20.5t12.5 16.5t20 3t16.5 -12q45 -75 63.5 -173t11.5 -196.5t-28.5 -191.5t-55.5 -172q-5 -10 -15 -14t-20.5 0.5t-14.5 14.5t0 21z" />
<glyph unicode="*" horiz-adv-x="278" d="M439 439q-1 -21 -2 -33t-9 -19.5t-19.5 -6.5t-19 9t-6.5 19q1 15 2 39q-30 -20 -60 -36q-10 -5 -20.5 -2t-16 13t-2.5 20.5t13 16.5q33 17 67 40q-29 24 -54 41q-9 7 -10.5 18t5 20t17.5 10.5t20 -4.5l46 -35q-1 26 -4 50q-1 11 5.5 19.5t18 10t20 -5t10.5 -18.5 q3 -24 4 -52l43 33q9 6 20 4.5t17.5 -10.5t5 -20t-10.5 -18l-63 -47q38 -31 64 -50q9 -7 10.5 -18t-5 -20t-17.5 -10.5t-20 4.5z" />
<glyph unicode="+" horiz-adv-x="234" d="M272 262q26 1 65 1v55q0 11 8 19t19 8t19 -8t8 -19v-56q38 0 65 1q11 0 19.5 -7.5t8.5 -18.5t-7.5 -19.5t-18.5 -8.5q-27 -1 -66 -1v-50q0 -11 -8 -19t-19 -8t-19 8t-8 19v51q-38 0 -64 -1q-11 0 -19.5 7.5t-8.5 18.5t7.5 19.5t18.5 8.5z" />
<glyph unicode="," horiz-adv-x="130" d="M381 38q-5 -41 -21.5 -68.5t-49.5 -54.5q-9 -7 -20 -6t-18 10t-6 20t10 18q25 21 36.5 39.5t14.5 47.5q2 11 10.5 18t19.5 5.5t18 -10t6 -19.5z" />
<glyph unicode="-" horiz-adv-x="230" d="M310 232q13 -1 71.5 0t71.5 1q11 0 19 -8t8 -19t-8 -19t-19 -8q-13 0 -72.5 -1t-72.5 0q-11 0 -18.5 8.5t-7.5 19.5t8.5 18.5t19.5 7.5z" />
<glyph unicode="." horiz-adv-x="184" d="M346 46q8 -8 8 -19t-8 -19t-19 -8t-19 8t-8 19t8 19t19 8t19 -8z" />
<glyph unicode="/" horiz-adv-x="298" d="M219 0q152 250 279 538q5 10 15.5 14t20.5 -0.5t14 -15t0 -20.5q-126 -284 -283 -544q-6 -10 -17 -12.5t-20.5 3.5t-12 17t3.5 20z" />
<glyph unicode="0" horiz-adv-x="446" d="M508 458q-15 -1 -24 -4q-42 -16 -73 -84q-32 -70 -34 -150q-2 -84 30 -133q32 -51 97 -47q68 4 105.5 64t34.5 146q-2 83 -39.5 142t-96.5 66zM548 505q47 -15 81.5 -56.5t50.5 -92t18 -104.5q1 -47 -9.5 -91t-32 -83t-60 -64t-88.5 -28q-97 -6 -147 71q-40 64 -38 164 q2 93 39 172q41 88 104 111q9 4 23 6q6 3 13 3h5q13 1 15 2q16 2 26 -10z" />
<glyph unicode="1" horiz-adv-x="207" d="M457 471q-12 -280 -16 -447q0 -11 -8 -18.5t-19.5 -7.5t-19 8t-7.5 20q4 167 16 447q1 11 9 18.5t19 7t18.5 -8.5t7.5 -19z" />
<glyph unicode="2" horiz-adv-x="508" d="M428 433q32 36 84 58t100 21q58 -3 85 -41q29 -42 8 -113q-22 -72 -111 -164q-50 -51 -143 -129l-30 -25q21 1 137 5q107 5 174 1q12 -1 19.5 -9t6.5 -19.5t-9 -19t-19 -6.5q-65 4 -170 -1q-135 -5 -173 -5q-1 0 -6 -1q-10 -1 -14 -2q-33 -3 -44 22q-1 3 -1.5 7t-0.5 6.5 t0.5 4.5t1.5 3l1 1q1 3 2 5q1 1 2 3q1 0 2 1l1 1h1l2 3l10 8l28 23l45 36q91 76 138 124q80 82 98 143q14 46 0 66q-12 16 -43 18q-36 1 -77 -16.5t-65 -44.5q-7 -8 -18.5 -9t-19.5 6.5t-9 19t7 19.5z" />
<glyph unicode="3" horiz-adv-x="514" d="M403 432q22 17 62 37.5t81 32.5q52 16 90 13q53 -5 76 -44q36 -61 -33 -127q-16 -15 -38 -31q50 -9 83 -38q42 -38 42 -103q0 -72 -44 -115t-112 -58q-60 -12 -125 -1.5t-111 39.5q-9 6 -11.5 17t3.5 20.5t17 12t21 -3.5q36 -24 90 -32.5t105 1.5q53 11 83 41t30 79 q0 41 -24 63q-42 37 -125 24q-1 0 -19 -7q-23 -9 -42 -3q-9 3 -14 12q-9 13 -1 27q2 4 4.5 6.5t4.5 3.5l2 1q2 2 7 4q1 0 15 5q25 10 39 18q55 31 83 57q38 36 24 60q-9 16 -35 18q-27 2 -69 -10q-37 -11 -73 -29.5t-54 -31.5q-9 -7 -20 -5.5t-17.5 10.5t-5 20t10.5 17z" />
<glyph unicode="4" horiz-adv-x="500" d="M579 200l3 62q6 99 6 164q-32 -43 -103 -130l-71 -87l-4 -5h2q36 -2 101 -3q30 -1 66 -1zM640 505q4 -91 -4 -246l-3 -60h93q11 0 19 -8t8 -19t-8 -19t-19 -8h-96q-4 -75 -5 -128q0 -11 -8 -18.5t-19.5 -7.5t-19 8t-7.5 20q1 52 5 127q-35 0 -64 1q-61 1 -103 3 q-23 1 -34 3q-8 1 -13 2q-4 1 -8 3q-10 5 -14 14t-1 19q1 4 3 8q2 6 7 13q7 11 23 31l71 87q115 141 137 182q6 9 16 13q7 6 16 6q11 0 19 -7.5t9 -18.5z" />
<glyph unicode="5" horiz-adv-x="511" d="M674 443q-53 3 -180 0h-39h-6v-23q0 -10 1 -20.5t1.5 -17.5t0.5 -8q0 -3 0.5 -10.5t1 -19.5t0.5 -20v-11l7 2q49 11 82 14q133 12 191 -82q49 -79 22 -142q-24 -54 -96 -83q-60 -23 -136 -23.5t-126 20.5q-11 4 -15 14.5t0 21t14.5 14.5t20.5 0q40 -17 106 -17 q64 1 116 21t66 53q16 37 -18 93q-40 65 -141 57q-28 -3 -73 -14q-21 -4 -28 -6q-7 -1 -12 -1q-14 0 -22 7q-5 4 -8 10q-1 2 -1 4q0 1 -1 3v3v3q-1 3 -1 9q0 10 -1 28q0 8 -0.5 19.5t-1 19.5t-0.5 11v8q-1 7 -1.5 18t-1.5 20q0 21 1 35q0 9 2 16q2 11 8 18q3 3 6.5 5.5 t5.5 2.5l2 1h3l2 1h1h1h1h1h7h19h37q129 3 184 0q12 -1 19.5 -9t6.5 -19.5t-9 -19t-19 -6.5z" />
<glyph unicode="6" horiz-adv-x="488" d="M456 48q13 -14 31 -21q29 -12 70 -7q40 6 75 27q37 22 54 52t10 63q-8 37 -28 49q-17 10 -45 4t-58 -26.5t-49 -44.5q-40 -51 -55 -88q-2 -5 -5 -8zM614 453q-47 0 -96 -55.5t-75 -138.5q-27 -83 -16 -148v-1q16 29 47 68q24 30 61.5 55.5t76.5 34.5q48 10 83 -11 q40 -24 53 -83q12 -55 -14 -100t-74 -73q-45 -27 -96.5 -34t-96.5 10q-76 31 -93 125q-13 78 17 174q30 93 86 157q65 74 137 74q11 0 19 -8t8 -19t-8 -19t-19 -8z" />
<glyph unicode="7" horiz-adv-x="492" d="M441 494h114q70 -1 110 -4q25 -2 40 -6q10 -2 17 -5q12 -6 18 -16q4 -8 3 -17l-2 -6q0 -2 -2 -4q0 -1 -1 -2.5t-3 -3.5l-8 -10l-24 -30l-44 -54q-77 -95 -126 -166q-52 -76 -84 -154q-4 -11 -14.5 -15t-21 0t-14.5 14.5t0 20.5q35 84 89 164q50 73 129 170l44 54l9 11 q-5 0 -10 1q-38 3 -106 4h-112q-60 -1 -72 0q-11 1 -18.5 9.5t-6.5 19.5t9.5 18.5t19.5 6.5t67 0z" />
<glyph unicode="8" horiz-adv-x="468" d="M484 289q45 39 107 85l43 31q-51 32 -86 32q-18 0 -44.5 -7.5t-48.5 -20.5q-47 -28 -37 -60q6 -21 36 -42q12 -8 30 -18zM678 438h1q9 7 20 5.5t18 -10t5.5 -19.5t-9.5 -18l-39 -28l-51 -38q-53 -39 -88 -69q22 -12 37.5 -22t33.5 -26t28.5 -36t12.5 -43q4 -46 -26 -79.5 t-75 -48.5q-38 -15 -85 -12.5t-78 24.5q-32 24 -37 59q-5 31 12 67q23 47 84 106l-20 13q-44 32 -56 70q-12 40 7.5 71t53.5 52q29 16 62.5 25.5t58.5 9.5q24 0 48 -7.5t37 -15.5l36 -21q6 -4 9 -9zM492 223q-65 -60 -85 -103q-10 -21 -8 -35q2 -13 16 -23q18 -13 50 -14 q31 -2 63 9q33 11 50 30.5t15 42.5q-2 24 -24 44t-69 44z" />
<glyph unicode="9" horiz-adv-x="494" d="M666 416q-13 14 -32 21q-50 19 -98.5 -0.5t-78.5 -62.5q-28 -40 -23 -74q5 -33 44 -46q36 -13 64 2q27 15 67 58q32 34 51 93q2 5 6 9zM514 9q47 0 95 56t73 139q25 82 14 145q-19 -42 -47 -71l-23 -24q-9 -9 -25 -23t-30 -20.5t-32 -12t-37.5 -4.5t-41.5 8 q-70 25 -79 91q-8 55 32 112q38 55 104.5 82t136.5 0q77 -29 94 -124q15 -78 -15 -174q-28 -94 -83 -159q-64 -75 -136 -75q-11 0 -19 8t-8 19t8 19t19 8z" />
<glyph unicode=":" horiz-adv-x="208" d="M450 285q8 -8 8 -19t-8 -19t-19 -8t-19 8t-8 19t8 19t19 8t19 -8zM446 107q8 -8 8 -19t-8 -19t-19 -8t-19 8t-8 19t8 19t19 8t19 -8z" />
<glyph unicode=";" horiz-adv-x="205" d="M448 70q-8 -39 -23.5 -66t-45.5 -58q-7 -8 -18.5 -8t-19.5 7.5t-8 19t8 19.5q25 26 36.5 46t16.5 50q3 11 12 17.5t20 4t17.5 -11.5t4.5 -20zM447 309q8 -8 8 -19t-8 -19t-19 -8t-19 8t-8 19t8 19t19 8t19 -8z" />
<glyph unicode="&#x3c;" horiz-adv-x="262" d="M252 241l68 41q22 14 55.5 40.5t53.5 52.5q7 8 18 9.5t19.5 -5.5t10 -18t-5.5 -20q-30 -38 -70.5 -68t-96.5 -64l57 -17q22 -7 55 -16t53 -15l27 -8q10 -4 15 -14t1.5 -20.5t-13.5 -15.5t-21 -2q-7 3 -26 9l-52 14l-54 16q-51 15 -78 24q-17 6 -27 10l-10 5q-4 3 -7 5 q-7 7 -9 17q-2 18 12 30q6 5 16 8z" />
<glyph unicode="=" horiz-adv-x="267" d="M291 288h199q11 0 19 -8t8 -19t-8 -19t-19 -8h-199q-11 0 -19 8t-8 19t8 19t19 8zM289 195q118 3 200 3q11 0 19 -8t8 -19t-8 -19t-19 -8q-82 0 -198 -3q-11 0 -19.5 7.5t-8.5 18.5t7.5 19.5t18.5 8.5z" />
<glyph unicode="&#x3e;" horiz-adv-x="263" d="M246 163q11 10 22.5 19t26.5 18l25 15q10 6 28 15l25 12l28 12t25 11h1l-45 23l-132 64q-10 5 -13.5 15.5t1.5 20.5t15.5 13.5t20.5 -1.5l132 -64l68 -33l21 -12q5 -3 8 -5.5t6 -4.5q2 -3 4 -7q5 -10 1 -21q-9 -25 -41 -32q-6 -2 -11.5 -2.5t-8.5 -1.5t-5 -2 q-6 -2 -23 -9l-24 -11l-21 -10q-15 -7 -22 -11t-19.5 -10.5t-20.5 -12.5l-17 -13q-10 -7 -18.5 -14.5t-19.5 -7.5t-18.5 8.5t-7.5 19.5t9 19z" />
<glyph unicode="?" horiz-adv-x="354" d="M296 468q11 58 53.5 98.5t95.5 52.5q56 12 100 -10q50 -27 61 -88q7 -42 -28 -95q-12 -18 -69 -88q-47 -57 -72.5 -104t-25.5 -98q0 -11 -8 -19t-19 -8t-19 8t-8 19q0 45 19 92t39 76t52 68q55 67 66 84q23 35 19 55q-6 36 -32 50q-26 13 -63 5q-39 -9 -69.5 -38 t-37.5 -70q-2 -11 -11.5 -17.5t-20.5 -4.5t-17.5 11.5t-4.5 20.5zM410 51q8 -8 8 -19t-8 -19t-19 -8t-19 8t-8 19t8 19t19 8t19 -8z" />
<glyph unicode="@" horiz-adv-x="453" d="M456 315q-20 38 -39 34q-22 -6 -43 -47q-23 -44 -22 -89q1 -43 25 -56q9 -5 15 -3q9 4 19 17q19 25 30 64q4 11 11 59q1 14 4 21zM480 184q-12 -27 -26 -45q-19 -26 -42 -35q-30 -12 -61 5q-52 29 -53 103q-2 58 28 115q32 63 79 74q60 15 99 -61q12 -7 14 -20v-7v-7 q-1 -1 -1.5 -6t-1.5 -8q-3 -21 -2 -38q2 -45 34 -54q27 -8 49 28q25 39 20 76q-11 89 -50 136q-39 46 -100 54t-117 -22t-85 -85q-41 -80 -34 -194q5 -73 60.5 -124.5t133.5 -63.5q78 -13 143.5 24t90.5 124q3 11 13 16.5t20.5 2.5t16 -13t2.5 -20q-21 -74 -69.5 -120.5 t-106 -61.5t-119.5 -6q-93 15 -163 79.5t-76 158.5q-8 129 40 222q26 51 75 86t104.5 47.5t113.5 -4.5t99 -66q49 -58 62 -164q3 -25 -5 -55t-23 -56q-18 -29 -46.5 -45t-62.5 -6t-53 36z" />
<glyph unicode="A" horiz-adv-x="539" d="M397 210q69 5 140 16q-5 38 -8 86.5t-3.5 76.5t0 76.5t0.5 50.5v15l-37 -96zM375 154l-67 -164q-4 -10 -14.5 -14.5t-20.5 -0.5t-14.5 14.5t-0.5 20.5l57 141q-31 -1 -62 -1q-11 0 -19 8t-8 19t8 19t19 8q41 0 85 2l101 251q12 27 31.5 79t24.5 64l21 55q3 9 5 12 q6 11 17 13q15 4 26 -6q8 -7 12 -22q2 -8 3 -19q1 -18 2 -46v-30q0 -16 -0.5 -27.5t-0.5 -13.5q0 -4 -0.5 -51.5t0 -74.5t3 -73t8.5 -83l41 8q11 2 20.5 -4.5t11.5 -17.5t-4.5 -20.5t-17.5 -11.5l-41 -7q13 -53 34 -83q30 -45 79 -39q11 1 20 -6t10 -18t-6 -20t-18 -10 q-81 -9 -129 62q-28 40 -43 106q-89 -13 -173 -19z" />
<glyph unicode="B" horiz-adv-x="468" d="M277 335l47 18q64 23 106 44q117 59 129 124q6 32 -19 52q-50 38 -131 -4q-35 -17 -65 -44t-46 -54q-5 -31 -7 -46zM266 272q-17 -94 -36 -169q15 -21 50 -35.5t82 -19.5t91 1.5t67 22.5q45 28 47 77.5t-40 80.5q-23 18 -63.5 30.5t-76.5 16.5q-57 6 -121 -5zM410 329 q95 -15 149 -55q43 -32 56.5 -79.5t-4 -93.5t-61.5 -75q-34 -21 -86.5 -29t-107.5 -3q-91 9 -142 49l-8 -27q-3 -11 -13 -16t-21 -2t-16 13t-2 21q33 108 59 253q-4 13 5 24l19 124q3 17 8 49q0 2 1 5q18 111 18 169q0 11 8 19t19 8t19 -8t8 -19q0 -40 -5 -87q33 30 71 49 q31 15 61.5 22t65 2t61.5 -27q25 -18 35.5 -46t5.5 -58q-17 -92 -158 -162q-21 -10 -45 -20z" />
<glyph unicode="C" horiz-adv-x="471" d="M500 371q26 153 -2 215q-10 20 -23 26q-13 5 -32 -2q-51 -19 -104.5 -98t-74.5 -182q-22 -115 6 -184.5t84 -86.5q57 -17 128.5 21t132.5 134q6 10 17 12.5t20.5 -3.5t12 -17t-3.5 -20q-68 -108 -156 -155.5t-167 -23.5q-81 26 -116 115q-36 88 -10 218q23 115 84 205 q61 91 128 115q38 15 70 2q35 -13 53 -54q35 -77 7 -245q-2 -11 -11 -17.5t-20 -5t-17.5 10.5t-5.5 20z" />
<glyph unicode="D" horiz-adv-x="571" d="M284 87l9 51q-7 -2 -13 -4q-25 -9 -32 -18q-2 -4 5 -13q8 -10 31 -16zM595 88q-23 -12 -49 -22q-69 -26 -165 -35q-27 -3 -51 -3l-1 -7q-2 -11 -11 -17.5t-20 -5t-17.5 10.5t-5.5 20l1 5q-46 9 -67 37q-30 40 -5 76q17 23 57 38q18 7 41 12q55 329 68 420q-23 -2 -53 -8 q-11 -2 -20.5 4.5t-11.5 17.5t4.5 20.5t17.5 11.5q41 7 71 9l2 14q2 11 11 17.5t20 5t17.5 -10.5t5.5 -20l-1 -6q53 -4 103 -25q97 -42 153.5 -121.5t60.5 -170.5q3 -67 -24.5 -128.5t-83.5 -106.5q32 -25 55 -56q6 -9 4.5 -20t-10.5 -17.5t-20 -5t-18 10.5q-23 31 -58 56z M595 152q53 37 78.5 90t22.5 111q-4 75 -51 141.5t-131 102.5q-42 19 -89 21q-15 -102 -66 -412q8 1 15 1q117 5 221 -55zM538 121q-79 36 -162 32q-10 0 -27 -3l-11 -68q16 1 38 3q89 9 150 31q6 3 12 5z" />
<glyph unicode="E" horiz-adv-x="523" d="M542 510q47 25 43 47q-1 8 -11 17.5t-29 16.5q-21 7 -45.5 7t-51 -7t-52 -27.5t-44.5 -50.5q-32 -52 1 -82q16 -14 74 -22q20 0 41 -5q2 0 3 -1q1 0 3 -1q5 -2 9 -7q10 -11 6 -24q-3 -12 -14 -18q-4 -2 -10 -3h-4q-4 0 -11 1q-4 1 -22 3l-4 1q-34 -2 -67 -23 q-32 -21 -56 -57q-29 -43 -30 -87q-2 -45 26 -79q62 -70 175 -45q91 20 190 90q10 6 21 4.5t17 -11t4.5 -20.5t-10.5 -17q-109 -77 -210 -99q-144 -32 -227 62q-30 33 -37.5 76t3 82t33.5 74q31 47 76 75q-8 5 -15 11q-24 22 -31 50.5t-1 52.5q7 24 21 47q24 40 57 66 q34 26 69 36t68.5 9.5t62.5 -10.5q30 -11 51 -30.5t25 -46.5q9 -59 -71 -103q-10 -5 -20.5 -2t-16 13t-2.5 20.5t13 16.5z" />
<glyph unicode="F" horiz-adv-x="576" d="M383 305q87 28 150 2q13 -6 32 -16q1 8 2 26q4 64 7 89q11 81 44 170q-15 0 -36 2q-106 7 -136 7q-73 1 -124 -16t-83 -61q-7 -9 -18 -10.5t-20 5t-10.5 17.5t4.5 20q42 57 106 78.5t146 20.5q31 0 138 -7q46 -3 68 -3h10q24 0 43 2q10 1 21 4l20 5q8 3 22 8l23 8 q10 3 20 -2t13.5 -15.5t-1.5 -20.5t-16 -14l-21 -7q-14 -5 -24 -8t-24.5 -6.5t-26.5 -5.5q-17 -2 -36 -2q-37 -93 -48 -177q-4 -26 -7 -84q-2 -32 -4 -52q7 -3 13 -5q21 -8 35 -5q17 3 32 22q7 9 18 10t20 -6t10 -18t-6 -20q-27 -34 -63 -41q-29 -6 -64 7l-3 1 q-18 -91 -76 -149q-29 -29 -73 -48.5t-88 -23.5q-51 -3 -93 16.5t-62 66.5q-4 11 0 21.5t14.5 14.5t21 0t14.5 -14q24 -57 100 -51q36 3 71 18.5t57 37.5q50 51 64 136l-2 1q-33 19 -46 24q-43 19 -110 -4q-11 -3 -21 2t-13.5 15.5t1.5 20.5t15 14z" />
<glyph unicode="G" horiz-adv-x="564" d="M410 214q56 61 160 58q22 -1 81 -7q48 -6 73 -5q11 0 19.5 -7.5t8.5 -18.5t-7.5 -19.5t-18.5 -8.5q-28 -1 -71 4q-58 -120 -124 -169q-57 -42 -124 -34q-107 13 -145 104q-28 67 -15 170q6 49 30 115q23 65 57 124q92 155 202 152q37 -1 62.5 -25t36.5 -57 q7 -20 11 -44.5t4.5 -45.5t0.5 -44v-39q0 -11 -7.5 -19.5t-18.5 -8.5t-19.5 7.5t-8.5 18.5q0 21 -0.5 43t-0.5 40.5t-3 38t-8 35.5q-16 45 -51 46q-39 1 -78.5 -32t-75.5 -94q-31 -53 -53 -114q-21 -61 -26 -103q-11 -90 11 -143q26 -62 101 -71q46 -6 86 24q52 38 99 131 q-16 2 -30 2q-79 3 -118 -40q-8 -8 -19 -9t-19 7t-9 19t7 19z" />
<glyph unicode="H" horiz-adv-x="510" d="M313 237q12 65 19 139q-15 2 -31 2h-14h-12q-3 0 -8.5 -0.5t-8 -1t-5.5 -2.5t-7 -5q-31 -26 -21 -53q10 -28 53 -58q17 -11 35 -21zM564 171q-9 23 -20 42q-70 120 -159 151q-8 -80 -22 -151q90 -36 201 -42zM706 632q-41 -241 -47 -451v-10l21 2q11 1 19.5 -6t9.5 -18.5 t-6 -20t-19 -9.5l-25 -2v-29v-16v-16v-13v-14v-4v-2v-1l-1 -2v-4q-1 -3 -2 -5q-4 -7 -11 -11q-13 -7 -26 -3q-12 3 -20 15q-5 10 -7 27q-1 5 -2 23q-1 11 -1 14l-10 40q-125 4 -227 44q-22 -90 -56 -169q-5 -10 -15 -14t-20.5 0.5t-14.5 14.5t0 21q34 78 55 169 q-28 14 -53 32q-58 39 -74 84q-23 62 38 113q9 7 18.5 12t21 7t17 2.5t18.5 0t14 -0.5q18 0 35 -2q4 74 4 163q0 11 8 19t19 8t19 -8t8 -19q0 -95 -5 -173q117 -35 201 -179q9 -15 16 -31q8 201 46 430q2 11 11 17.5t20 5t17.5 -10.5t5.5 -20z" />
<glyph unicode="I" horiz-adv-x="374" d="M276 268v1q-3 37 6.5 104.5t29.5 127.5q25 75 61 112q50 52 112 32q52 -17 67 -83q9 -37 5 -92q-3 -41 -19 -116t-41 -146q-29 -86 -62 -139q-44 -70 -93 -80q-53 -11 -90 33q-26 30 -40 85q-11 41 -14 86q-1 18 -1 31q1 8 2 13q1 4 2 7q4 9 11 13.5t21 6.5q8 2 21 3 q10 0 22 1zM251 212q0 -7 1 -16q2 -39 12 -75q11 -43 29 -65q17 -19 37 -15q28 6 59 56q30 48 57 129q24 68 39.5 139t17.5 109q3 46 -4 76q-8 36 -30 43q-31 10 -57 -17q-28 -29 -49 -92q-18 -55 -27 -117t-6 -94v-3q69 2 74 3q12 1 20.5 -6t9.5 -18.5t-6 -20t-18 -9.5 q-8 -1 -68 -2q8 -23 35 -81q4 -10 0 -20.5t-14 -15t-20.5 -0.5t-15.5 14q-32 69 -41 101q-16 -1 -27 -2q-5 0 -8 -1z" />
<glyph unicode="J" horiz-adv-x="416" d="M506 219q-18 -176 -60 -273q-29 -66 -84 -109q-21 -17 -42.5 -26t-49.5 -6.5t-52 21.5q-57 45 -30 124q15 43 58 98q39 51 81 95q-74 -4 -116 33q-48 42 -45 125q2 69 35.5 143.5t79.5 118.5q31 30 68 47q63 29 98 -7q43 -44 58 -140q12 -77 6 -180q44 21 86 27 q11 1 20 -5.5t10.5 -17.5t-5 -20t-17.5 -11q-47 -7 -99 -37zM454 251h1l2 28q6 102 -5 175q-13 80 -43 111q-9 9 -37 -4q-29 -13 -53 -36q-39 -38 -68.5 -103t-30.5 -123q-2 -57 26 -83q35 -30 114 -14q16 3 31.5 10t24 12.5t30.5 22.5q4 3 8 4zM447 179q-81 -63 -159 -163 q-37 -49 -49 -83q-14 -44 13 -65q32 -25 77 11q44 35 67 89q32 73 51 211z" />
<glyph unicode="K" horiz-adv-x="468" d="M355 650q-8 -4 -18 -27q-12 -28 -27 -94v-4q3 3 7 6q34 30 47 69q11 31 0 42q-6 7 -9 8zM158 552q40 -50 85 -51h6l9 40q15 72 29 104q18 39 42 52q38 21 75 -17q33 -35 11 -98q-18 -52 -63 -92q-26 -23 -56 -34l-26 -147q31 20 61 43q1 1 3 2q72 57 130 124.5t88 136.5 q5 10 15 14t20.5 -0.5t14.5 -14.5t0 -21q-62 -142 -220 -269q2 -6 7 -16q15 -37 23 -55t23.5 -49.5t27.5 -48.5t30.5 -40t36.5 -36t42.5 -24.5t52.5 -16.5q11 -3 17.5 -12t4 -20t-11.5 -17.5t-20 -4.5q-27 6 -51.5 16t-44 21t-38.5 30l-32 33q-13 13 -29 38.5t-24 39.5 t-22 44l-18 42q-6 12 -18 42q-37 -27 -74 -48q-3 -2 -7 -3q-24 -132 -52 -223q-3 -11 -13 -16t-21 -2t-16 13t-2 21q29 93 57 251l29 164q-68 3 -123 71q-7 9 -6 20t10 18t20 6t18 -10z" />
<glyph unicode="L" horiz-adv-x="470" d="M556 541q24 2 45 9q17 5 31 22t19 39q5 19 0 31q-4 10 -16 13q-26 6 -53 -46q-14 -28 -26 -68zM366 99q-44 23 -99 15q-67 -9 -82 -58q-13 -41 14 -56q32 -17 72 6q54 30 95 93zM488 487q-71 6 -152 34q-10 4 -15 14t-1.5 20.5t13.5 15.5t21 2q79 -28 146 -33 q14 55 34 93q46 90 113 74q39 -9 54 -44q11 -29 3 -65q-8 -33 -31 -61.5t-56 -38.5q-34 -10 -74 -12q-2 -11 -10 -48l-12 -57q-4 -21 -11.5 -53t-15.5 -60t-17 -55q-20 -57 -41 -100q20 -19 47 -52q59 -72 67 -80q24 -26 44.5 -39t46.5 -18t53 7q11 4 21 -0.5t14 -15 t-0.5 -20.5t-14.5 -14q-26 -10 -51 -11.5t-45 3.5t-40 16.5t-35.5 24.5t-31.5 30q-10 11 -69 83l-34 38q-47 -71 -111 -107q-29 -16 -62.5 -18t-60.5 13q-30 16 -41.5 47t0.5 72q14 42 48 66t78 30q73 10 133 -22q18 37 34 84l15 50q8 25 16 58l10 47l12 57q9 42 9 45z" />
<glyph unicode="M" horiz-adv-x="620" d="M142 384q4 20 29 75q25 54 54 101q36 60 65 82q24 18 47 13q26 -6 38 -37q3 -7 5 -14q11 15 22 27q34 36 68 40q46 6 79 -39q15 -22 19 -68q2 -29 -1 -69q40 70 78 105q27 24 53 30q33 7 59 -15q35 -29 36 -101q1 -52 -14 -129q-10 -52 -30 -127l-24 -88 q-22 -101 -24 -167q-1 -39 9.5 -61t25.5 -29q37 -16 91 38q8 8 19 8t19 -8t8 -19t-8 -19q-37 -37 -75.5 -50t-74.5 1q-35 15 -52.5 52.5t-15.5 88.5q2 70 26 177q1 8 23 90q21 79 30 124q14 72 13 117q-1 47 -16 60q-7 6 -14 4q-12 -3 -28 -17q-35 -32 -74 -104 q-35 -65 -59 -133l-4 -14q-5 -31 -7 -45q-1 -3 -2 -11t-1 -10q-1 -9 -2.5 -13.5t-4.5 -7.5q-13 -19 -34 -9q-5 2 -8.5 5.5t-4.5 6.5l-1 3q-1 3 -1 6q-4 17 2 47q4 18 11 40q2 16 3 23q14 86 18 140q4 46 2 76q-2 31 -9 40q-14 19 -28 18q-15 -2 -36 -24q-18 -19 -33 -45.5 t-21 -46.5q0 -9 -1 -20q-6 -69 -29 -167q-32 -137 -88 -294q-3 -10 -13 -15t-20.5 -1.5t-15.5 13.5t-1 21q54 153 85 288q22 95 28 160q0 3 1 7q-2 5 0 11q0 3 1 6q2 57 -9 87q-1 1 -1 2l-1 -1q-21 -16 -52 -67q-27 -45 -50 -94q-23 -51 -27 -66q-2 -11 -11.5 -17 t-20.5 -3.5t-17 12t-3 20.5z" />
<glyph unicode="N" horiz-adv-x="503" d="M186 588q48 58 90 78q48 22 85 -2q48 -31 56 -128q28 42 56 72q53 54 98 58q63 4 91 -77q30 -86 -3 -265l-18 -86q-12 -62 -18 -100q-6 -36 -7 -68q-3 -72 21 -109q25 -38 83 -24q11 3 20.5 -3t12.5 -16.5t-3 -20t-16 -12.5q-96 -24 -142 47q-33 51 -30 140q1 33 7 74 q7 40 20 103.5t17 84.5q31 166 6 237q-7 18 -14.5 28t-12 11.5t-10.5 1.5q-25 -2 -63 -42q-33 -34 -62 -82.5t-39 -78.5q-9 -65 -33 -143t-45 -130l-55 -131q-5 -10 -15.5 -14t-20.5 0.5t-14 15t0 20.5l53 125q21 50 43.5 122t31.5 131q0 5 1 9q0 3 1 7q5 32 6 63 q2 56 -7 90q-10 35 -25 45q-12 8 -33 -2q-31 -15 -71 -63q-7 -9 -18.5 -10t-20 6t-9.5 18.5t6 19.5z" />
<glyph unicode="O" horiz-adv-x="500" d="M600 423q-74 -12 -148 14q-87 31 -118 97q-44 -75 -68 -172q-29 -116 -14 -201q16 -88 78 -112q74 -28 143 32q67 59 103 173q27 86 24 169zM594 477q-18 96 -83 132q-36 20 -86 18q-24 -7 -51 -36l2 -14q14 -61 94 -89q62 -22 124 -11zM442 681q56 -3 95 -24 q83 -46 108 -159l27 20q9 6 20 4.5t17.5 -10.5t5 -20t-10.5 -18q-39 -28 -51 -34q7 -99 -26 -203q-41 -128 -119 -196q-92 -82 -198 -42q-90 34 -111 153q-17 96 14 223q30 119 86 205q12 18 24 33q4 19 16 33q22 26 65 33q6 1 12 1q8 2 16 2q5 0 10 -1z" />
<glyph unicode="P" horiz-adv-x="500" d="M406 606q6 -9 3 -20q-28 -126 -44 -303q87 14 143 39q52 23 87 46q34 24 52 56q35 62 3 113q-30 50 -102 69q-68 18 -142 0zM162 536q210 172 400 122q92 -24 134 -93q48 -78 -1 -167q-17 -30 -48.5 -56.5t-55.5 -39.5q-25 -14 -61 -30q-65 -29 -170 -44l-9 -100 q-5 -66 -7 -96q-1 -11 -9.5 -18.5t-19.5 -6.5t-18.5 9.5t-6.5 19.5l9 106q6 81 9.5 119.5t10.5 103.5t16 119t20 106q-78 -30 -159 -96q-9 -7 -20 -6t-18 10t-6 20t10 18z" />
<glyph unicode="Q" horiz-adv-x="500" d="M600 423q-74 -12 -148 14q-87 31 -118 97q-44 -75 -68 -172q-29 -116 -14 -201q16 -88 78 -112q37 -14 74 -6l-38 47q-7 9 -5.5 20.5t10 18t20 5t17.5 -9.5q26 -34 47 -57q9 6 18 14q67 59 103 173q27 86 24 169zM594 477q-18 96 -83 132q-36 20 -86 18q-24 -7 -51 -36 l2 -14q14 -61 94 -89q62 -22 124 -11zM444 0q-65 -27 -134 -1q-90 34 -111 153q-17 96 14 223q30 119 86 205q12 18 24 33q4 19 16 33q22 26 65 33q6 1 12 1q8 2 16 2q5 0 10 -1q56 -3 95 -24q83 -46 108 -159l27 20q9 6 20 4.5t17.5 -10.5t5 -20t-10.5 -18q-39 -28 -51 -34 q7 -99 -26 -203q-41 -128 -119 -196q-7 -7 -15 -13q51 -46 102 -61q10 -3 15.5 -13t2.5 -20.5t-13 -16t-21 -2.5q-69 21 -135 85z" />
<glyph unicode="R" horiz-adv-x="535" d="M375 589q0 -3 -1 -7q-26 -117 -41 -273q73 11 124 34q88 42 113 89q27 51 2 96q-24 44 -81 60q-56 16 -116 1zM166 531q72 66 161.5 100t177.5 9q79 -23 115 -86q38 -71 -2 -148q-33 -61 -139 -111q-50 -23 -111 -35q5 -7 21 -32l22 -34l22 -32l23 -34q9 -12 23 -28 l25 -31q97 -109 211 -120q11 -1 18 -9.5t6 -20t-9.5 -18.5t-20.5 -6q-134 13 -245 138l-22 25q-11 13 -23 29l-18 27l-22 30l-18 27l-18 30q-15 23 -18 27l-8 -104q-6 -67 -8 -96q-1 -11 -9.5 -18.5t-19.5 -6.5t-18.5 9.5t-6.5 19.5l8 104q6 76 9.5 114t10 100t15 115 t18.5 104q-59 -28 -114 -78q-8 -7 -19 -7t-18.5 8.5t-7.5 19.5t9 19z" />
<glyph unicode="S" horiz-adv-x="436" d="M456 294q-62 -10 -115 -29q-33 -13 -70.5 -34.5t-60.5 -45.5q-25 -25 -25 -46q0 -23 32 -46q38 -28 81.5 -40t80.5 -7.5t66 21.5q28 17 43.5 43.5t13 68t-28.5 90.5q-5 10 -17 25zM594 567q-30 39 -90 62q-24 9 -60 5t-68 -21q-69 -35 -59 -89q1 -7 24 -33q18 -20 61 -63 q66 -66 76 -77q47 6 96 6q11 0 19 -8t8 -19t-8 -19t-19 -8q-28 0 -57 -2l4 -6q46 -94 31.5 -164.5t-79.5 -109.5q-57 -36 -138 -29t-150 57q-55 40 -54 91q0 42 40 83q29 29 71.5 54t80.5 38q42 16 90 26l-48 48q-46 45 -64 66q-34 37 -38 59q-8 49 18 87t71 60q40 21 86 27 q46 5 84 -9q75 -27 114 -78q7 -9 5.5 -20.5t-10 -18t-20 -5t-17.5 9.5z" />
<glyph unicode="T" horiz-adv-x="554" d="M283 404q-38 -5 -65.5 13.5t-38.5 50.5q-11 27 -4 61.5t32 58.5q28 25 93 42q45 11 126 21q5 1 129 13q70 7 98 12q20 5 73 22l34 12l12 3q3 1 5 2h6q4 0 8 -1q9 -3 15 -11q10 -16 2 -33q-3 -8 -11 -15q-4 -3 -6 -5t-3 -2.5t-1 -1t-1 -0.5q-65 -94 -86 -170 q-10 -39 -17 -125q-8 -105 -14 -141q-7 -38 -17.5 -69.5t-28.5 -62.5t-48 -55t-70 -38q-30 -11 -59 -11.5t-52.5 6.5t-48 22t-42.5 30.5t-38 36.5q-8 8 -8 19.5t8 19t19.5 7.5t18.5 -8q50 -51 92.5 -70t91.5 -2q59 22 88 67.5t40 116.5q6 34 14 136q6 89 19 135 q19 70 68 148q-34 -11 -53 -14q-30 -7 -103 -14q-104 -10 -128 -13q-74 -8 -119 -20q-51 -12 -68 -29q-14 -12 -17.5 -30t2.5 -32q11 -33 45 -28q11 1 20 -5.5t10.5 -17.5t-5 -20t-17.5 -11z" />
<glyph unicode="U" horiz-adv-x="471" d="M638 524l-10 -50q-7 -34 -10 -58l-8 -56q-5 -33 -7 -61q-8 -98 4 -163q12 -72 49 -100q8 -6 9.5 -17.5t-5 -20t-18 -10t-20.5 5.5q-52 40 -69 132q-9 55 -7 128q-35 -88 -71 -145q-54 -86 -110 -104q-76 -23 -122 40q-33 45 -36 112q-4 103 27 269.5t75 249.5 q6 10 16.5 13t20.5 -2.5t13 -16t-2 -20.5q-41 -75 -71 -234q-29 -160 -25 -257q2 -50 25.5 -82t62.5 -20q37 11 80 81q39 61 79 168q62 165 97 328q2 11 11.5 17t20.5 3.5t17 -12t3 -20.5v-2q0 -4 -1 -9t-8 -38t-10 -49z" />
<glyph unicode="V" horiz-adv-x="552" d="M155 429q21 68 58 128q27 44 56 61q46 25 84 -14q19 -21 38 -78q13 -41 28 -111q17 -80 36 -195q8 -54 12 -92l14 38q7 20 12.5 33.5t6.5 17.5q56 139 114 245t143 215q7 8 18 9.5t19.5 -5.5t10 -18t-5.5 -20q-83 -106 -138 -207q-56 -103 -111 -239q-1 -3 -13 -37 l-22 -57l-24 -59q-6 -13 -11 -21q-3 -5 -5 -9q-6 -7 -12 -11q-16 -8 -30 3q-6 4 -9 10q-2 4 -3 10q-1 7 -3 18q-2 16 -3 48q-2 46 -14 120q-21 131 -34 192q-14 64 -28 105q-14 46 -26 57q-8 10 -18 5q-16 -10 -37 -43q-32 -53 -51 -115q-3 -11 -13 -16t-21 -2t-16 13t-2 21 z" />
<glyph unicode="W" horiz-adv-x="694" d="M155 472q4 20 18.5 51t33.5 56q25 33 52 44q40 16 75 -12q8 -6 13 -19q4 -8 7 -19q6 -20 12 -54q9 -55 18 -146q15 -160 17 -245v-4v-10v-9v-9l33 79q29 68 46 103q12 23 20 36q6 8 11 13q13 12 29 10q12 -3 21 -15q5 -5 9 -14q7 -13 15 -37q6 -15 34 -102q22 -68 35 -98 q5 20 12 54q5 22 11 53l10 54q4 22 7 32q65 253 206 401q8 8 19.5 8t19.5 -7.5t8 -19t-7 -19.5q-132 -138 -194 -377l-7 -31q-4 -21 -9.5 -52t-10.5 -52q-10 -49 -17 -75q-5 -17 -10 -27q-4 -7 -8 -12q-9 -11 -22 -12q-14 -1 -26 9q-7 6 -13 15q-9 13 -19 37q-13 32 -36 102 q-27 84 -33 101l-3 7l-3 -6q-17 -34 -45 -100l-43 -102l-14 -34q-4 -7 -6 -11q-1 -3 -3 -5q-1 -3 -3 -5q-7 -6 -16 -8q-19 -2 -32 12q-7 8 -12 21q-5 16 -7 42q-1 18 -1 41v9v8v4q-2 84 -17 242q-9 89 -18 143q-5 30 -10 47q-2 8 -4 12v1q-9 6 -18 2q-14 -5 -30 -27 q-16 -20 -27.5 -45.5t-15.5 -40.5q-2 -11 -11.5 -17t-20.5 -3.5t-17 12t-3 20.5z" />
<glyph unicode="X" horiz-adv-x="433" d="M372 306l-11 22l-21 44l-23 44q-7 14 -19.5 42t-19.5 46l-16 45q-9 26 -15 50q-3 11 2.5 20.5t16.5 12.5t20.5 -2.5t12.5 -16.5q4 -17 10 -34t10 -29.5t12.5 -32t11.5 -27.5t14 -31.5t13.5 -28t16 -32t14.5 -30.5q79 155 184 289q7 9 18 10t20 -6t10 -18t-6 -20 q-115 -147 -196 -316q47 -95 88 -158t99 -114q8 -7 9 -18t-6.5 -19.5t-18.5 -9.5t-20 7q-56 48 -97.5 108.5t-81.5 139.5q-46 -105 -85 -227q-4 -11 -14 -16t-20.5 -1.5t-15.5 13.5t-2 20q47 149 106 274z" />
<glyph unicode="Y" horiz-adv-x="452" d="M345 569q-1 -9 -5 -27l-12 -46q-8 -29 -13 -52q-27 -109 -39 -191q-16 -110 -3 -164q6 -27 17 -37q10 -9 30 -6q70 11 141 144q37 69 90 219q9 27 39 150q1 6 5 33q2 11 3 14t1 5q2 5 6 9q8 9 20 9q15 0 23 -12l4 -11v-4v-4q-1 -43 -8.5 -90t-20.5 -108.5t-17 -84.5 q-8 -41 -34 -224q-1 -3 -5 -31.5t-5 -37t-5.5 -32.5t-8 -37.5t-9.5 -31.5q-6 -17 -13 -33q-52 -112 -176 -123q-76 -6 -135 20q-10 5 -14 15.5t0.5 20.5t15 14t20.5 0q47 -21 109 -16q93 8 131 91q5 11 9.5 23t7.5 27l6 24q3 11 6 29.5t4 26.5t4 30l4 29l17 120 q-13 -29 -26 -54q-83 -157 -181 -173q-44 -7 -74 19q-24 22 -34 66q-15 65 2 184q12 82 40 196l13 51l11 46l7 25q2 11 11 17.5t20 4t17.5 -11.5t3.5 -20z" />
<glyph unicode="Z" horiz-adv-x="581" d="M603 10q-32 3 -68 3q-66 0 -130 -13.5t-108 -35.5q-47 -24 -79 -60q-37 -39 -19 -65q26 -40 88 -37q63 3 141 46q58 32 104.5 75t70.5 87zM214 460q68 75 129 111q48 28 89 28q54 -1 89 -47q30 -40 20 -86q-7 -34 -39 -72q-21 -25 -63 -60q61 11 109.5 -8.5t80.5 -62.5 q31 -40 42.5 -95t4.5 -112q0 -3 -1 -5q74 -18 120 -58q8 -7 9 -18t-6.5 -19.5t-18.5 -9.5t-20 7q-37 31 -100 47q-26 -56 -82 -110q-55 -52 -122 -89q-91 -50 -165 -53q-93 -5 -137 61q-40 61 25 132q39 43 95 71q50 25 120 40t142 15q46 0 87 -5q14 103 -36 169 q-51 68 -146 49q-20 -5 -58 -23q-45 -23 -69 -28q-4 -1 -8 -1q-13 1 -21 10q-8 11 -5 24q1 4 4 8q2 5 8 10q7 7 22 19q4 4 22 19l24 20q10 9 31.5 26t39.5 33t31 32q23 27 27 48q5 22 -11 43q-18 24 -45 25q-26 0 -62 -21q-54 -32 -116 -100q-7 -8 -18.5 -9t-19.5 6.5t-9 19 t7 19.5z" />
<glyph unicode="[" horiz-adv-x="367" d="M418 347q10 29 20 54q21 51 47 77q38 40 83 25q65 -23 65 -112q0 -64 -34 -154q-30 -77 -71 -139q-20 -30 -38 -48q-25 -24 -48 -22q-8 1 -15 5q-3 2 -6 5q-4 4 -11 10l-29 30l-45 47q-5 5 -26 27l-31 34q-11 13 -27.5 33.5t-28 39.5t-18.5 38q-16 41 0.5 77.5t53 52 t75.5 3.5q46 -15 79 -73z" />
<glyph unicode="\" horiz-adv-x="312" d="M512 -17q-157 314 -308 521q-6 9 -4.5 20t10.5 17.5t20 5t18 -10.5q153 -211 312 -529q5 -10 1.5 -20.5t-13.5 -15.5t-20.5 -1.5t-15.5 13.5z" />
<glyph unicode="]" horiz-adv-x="350" d="M356 373q24 82 77 123q27 21 56.5 26t56.5 -6q28 -11 45 -36.5t20 -59.5q5 -68 -66 -198l-28 -49l-28 -49q-10 -19 -21 -42.5t-17 -41.5q-4 -10 -14 -15t-21 -2q-2 1 -3 2q-8 2 -13 8q-52 56 -133 113q-12 8 -37 21q-31 17 -42 24q-56 34 -72 81q-13 39 -2 77t38 60 t64 29.5t77 -14.5q30 -16 63 -51zM359 284q-12 6 -15 19q-43 55 -77 73q-30 13 -56 5.5t-40 -34.5t-3 -57q9 -29 48 -53q10 -6 40 -22q27 -15 41 -25q67 -46 118 -95q10 22 24 47l32 58l27 48q63 116 59 168q-3 38 -31 50q-29 12 -59 -12q-27 -21 -44.5 -57.5t-23.5 -76.5 l3 -3q6 -9 4.5 -20t-10.5 -18q-9 -6 -19.5 -5t-17.5 10z" />
<glyph unicode="^" horiz-adv-x="255" d="M294 423q11 36 39 107q15 41 26 64q7 14 12 22q4 7 9 10q12 12 28 8q9 -2 16 -10q4 -4 7 -10q6 -8 12 -22q11 -23 26 -61l23 -62q13 -36 14 -38q4 -11 -0.5 -21t-15 -14t-20.5 0.5t-14 14.5q-1 2 -14 38l-23 62l-18 44q-8 -18 -18 -44q-26 -68 -37 -104q-3 -10 -13 -15.5 t-20.5 -2.5t-16 13t-2.5 21z" />
<glyph unicode="_" horiz-adv-x="458" d="M356 -55q49 1 99 0t128.5 -4t98.5 -4q11 0 18.5 -8.5t7.5 -19.5t-8.5 -18.5t-19.5 -7.5q-22 1 -98 4t-125.5 4t-98.5 0q-12 0 -20 7.5t-8 19t7.5 19.5t18.5 8z" />
<glyph unicode="`" horiz-adv-x="193" d="M403 592l10 -20l5 -11l3 -7q3 -5 4 -6t6 -10l11 -18q6 -10 3 -20.5t-12.5 -16.5t-20 -3t-16.5 12q-5 9 -11 18l-7 12q-1 1 -4 7t-3.5 7.5t-6 11.5t-9.5 20q-5 10 -1.5 20.5t13.5 15.5t20.5 1.5t15.5 -13.5z" />
<glyph unicode="a" horiz-adv-x="372" d="M420 276q1 0 2 -1q8 -8 9 -20q1 -9 -3 -21q0 -2 -5 -12l-1 -5q-6 -32 -6 -33q-2 -17 -3 -34q-2 -19 -2 -22q0 -40 8 -64q11 -27 33 -33q20 -5 37 10q18 16 36 55q13 29 27 77q19 60 21 65q4 11 14 15.5t20.5 0.5t15 -14t0.5 -20q-1 -4 -19 -63q-15 -50 -30 -84 q-22 -49 -50 -73q-39 -34 -86 -21q-50 14 -69 67q-3 7 -5 16q-8 -14 -17 -25q-31 -42 -65 -52q-47 -14 -85 31q-28 33 -25 101q3 58 27 118q26 65 65 96q53 40 110 9q32 -19 41 -39q3 -9 5 -22v-3zM369 247q-1 7 -3 25q-1 7 -2 9q1 2 -16 11q-26 15 -51 -4q-28 -22 -48 -73 q-21 -50 -23 -101q-2 -47 13 -64t28 -13q16 5 37 33q19 25 35 60q16 34 22 55q1 4 2 7v7q3 26 6 42q0 3 1 5q0 1 -1 1z" />
<glyph unicode="b" horiz-adv-x="270" d="M271 410q29 28 49 53q51 61 60 103q4 24 -9 33q-12 9 -26 -4q-44 -39 -74 -185zM382 185q1 -16 0 -29q-4 -52 -27 -102q-36 -79 -94 -74q-33 3 -51 35q-11 20 -15 53q-2 18 0 92q3 115 32 253q39 186 103 240q23 20 49 22t48 -12q21 -14 30 -39.5t2 -54.5 q-12 -60 -80 -136q-41 -46 -108 -105q-3 -3 -6 -4q-14 -95 -16 -166q-2 -69 0 -84q2 -22 9 -33q3 -7 7 -7q21 -2 41 42q19 42 22 84q1 14 -2 36q0 1 -1 2.5t-3 5.5q-12 26 5 44q20 21 46 12q13 -4 29 -20q25 -24 32 -25q6 -1 18 4q34 14 35 14q11 3 21 -2.5t13 -16 t-2.5 -20.5t-15.5 -13q-5 -1 -9 -3l-10 -4q-6 -3 -11 -5q-26 -11 -47 -8q-22 4 -44 24z" />
<glyph unicode="c" horiz-adv-x="271" d="M354 244q-2 20 -6 33t-7 15l-4 3q-11 3 -35 -23q-30 -33 -48 -86q-18 -52 -9 -97q8 -42 55 -53q49 -11 83 19q62 55 96 187q3 11 12.5 16.5t20.5 2.5t16.5 -12.5t2.5 -20.5q-38 -148 -112 -213q-26 -23 -61.5 -31t-69.5 -1q-36 9 -62.5 33t-34.5 63q-11 59 11.5 123.5 t60.5 106.5q46 49 89 38q48 -14 56 -99q1 -11 -6 -19.5t-18.5 -9.5t-20 6t-9.5 19z" />
<glyph unicode="d" horiz-adv-x="374" d="M374 136q-5 19 -9 41q-11 54 -12 56q-1 4 -1 8q-23 31 -44 31q-24 0 -48 -39q-27 -44 -32 -98q-6 -54 15 -82q16 -22 46 -10q32 13 55 45q15 21 30 48zM399 249q5 -9 9 -21q0 -1 1 -2q28 105 49 250v5q0 6 1 22t1 24q2 27 -2 40q-4 20 -12 20q-11 1 -23 -19 q-28 -47 -32 -164q-3 -84 8 -155zM340 319q-5 57 -3 113q7 144 60 209q35 43 78 40q24 -1 41.5 -17t26.5 -43q7 -23 5 -61q0 -9 -1.5 -27t-1.5 -26q0 -5 -3 -11q-45 -231 -111 -366l8 -27q15 -42 31 -56q4 -4 8 -4q6 0 15 7q58 45 84 187q2 11 11.5 17.5t20.5 4.5 t17.5 -11.5t4.5 -20.5q-30 -162 -104 -219q-25 -19 -49 -19t-44 17q-22 20 -39 61l-7 -11q-32 -44 -79 -63q-25 -13 -56.5 -7t-53.5 35q-32 44 -25 120q7 67 40 121q40 63 94 64q16 0 32 -7z" />
<glyph unicode="e" horiz-adv-x="260" d="M242 157q24 -14 49 -6q31 11 54 46q22 34 20 64q-1 26 -24 33q-27 10 -56 -29q-33 -43 -43 -108zM241 99q3 -29 15 -47q25 -37 86 -23q50 12 78 65q10 19 18 39.5t17 47.5t16 46q4 10 14 14.5t20.5 0.5t15 -14t0.5 -21l-14 -42q-10 -28 -19 -52t-20 -45q-39 -74 -114 -91 q-97 -23 -142 45q-36 53 -23 140q11 81 53 136q23 30 53 44.5t64 3.5q57 -20 60 -82q3 -48 -29 -97q-33 -51 -82 -67q-34 -11 -67 -1z" />
<glyph unicode="f" horiz-adv-x="267" d="M358 503q-6 -5 -12 -15q-13 -20 -26 -56q-24 -61 -49 -173q-13 -56 -22 -104q69 67 105 225q9 39 8 89q-1 22 -4 34zM202 -226q11 1 21 22q12 24 18 68q11 79 1 136q-5 32 -12 51l-17 -103q-1 -3 -4 -17l-4 -27q-3 -14 -5.5 -33t-3.5 -35q-2 -38 3 -56zM178 67 q-6 5 -8 11q-4 11 0.5 21t14.5 14h1q16 88 32 158q26 111 51 180q15 42 31 65q20 33 44 41q20 8 38 -1q15 -8 23 -26q10 -21 11 -60q1 -56 -10 -102q-40 -179 -125 -257q26 -2 66 11q42 13 71 40q28 26 51 72q5 10 15.5 13.5t20.5 -1.5t13.5 -15.5t-1.5 -20.5 q-26 -53 -62 -88q-37 -35 -92 -52q-45 -14 -78 -13q6 -20 11 -49q10 -65 -2 -152q-7 -52 -22 -84q-24 -47 -64 -52q-24 -3 -41 12q-13 12 -19 32q-9 28 -6 75q1 18 4 38l5 35l6 29q2 14 2 15z" />
<glyph unicode="g" horiz-adv-x="330" d="M390 -88l-16 -8q-27 -15 -40 -26q-22 -18 -30 -52q-8 -31 10 -44q12 -9 21 -8q8 1 16 8q20 19 29 56q6 26 10 74zM397 65q-16 -27 -36 -46q-32 -32 -67 -37q-43 -5 -81 29q-45 41 -30 125q13 68 57 131q47 68 98 80q34 9 61 -10q22 -15 36 -46q1 0 2 -1q4 -4 6 -8l3 -8 l1 -2v-3q8 -87 3 -241q56 57 79 109q2 4 7 32l2 16q1 8 2 15t1 8q2 11 11 17.5t20 5t17.5 -10.5t5.5 -20q0 -1 -1 -8t-2.5 -15.5t-2.5 -15.5q-6 -36 -10 -46q-19 -42 -55.5 -86t-76.5 -77q-5 -86 -15 -126q-12 -53 -44 -83q-22 -20 -48 -23q-29 -3 -58 18q-47 34 -31 100 q13 52 49 82q17 13 48 30.5t42 25.5l4 3q2 40 3 86zM390 259q-10 25 -22 33q-7 5 -17 3q-31 -8 -67 -59q-37 -54 -48 -110q-10 -54 13 -75q19 -17 38 -15q17 2 36.5 21t34.5 47.5t21 52.5q7 32 13 86q0 2 1 10q-2 3 -3 6z" />
<glyph unicode="h" horiz-adv-x="371" d="M250 390q3 3 8 11q10 13 25 42t24 59q11 34 9 54q-1 15 -9 18q-15 5 -29 -27q-14 -31 -19 -72q-6 -40 -9 -85zM184 9q1 39 1 45q1 22 2 33q0 239 20 382q8 55 27 97q15 32 40.5 52t61.5 6q43 -15 47 -66q3 -34 -13 -83q-13 -38 -33 -76t-35 -57q-17 -21 -30 -29 q-6 -4 -26 -12q-2 -37 -3 -78l11 18q28 45 57 68q41 34 80 24q42 -10 50 -75q3 -24 1 -101q-1 -63 5 -89q6 -25 19 -26q33 -4 67 53q13 22 30 66q5 14 14 45q10 32 16 49q4 11 14 15.5t20.5 0.5t15 -14t0.5 -20q-5 -15 -14 -46q-9 -33 -16 -50q-18 -47 -34 -74 q-52 -86 -119 -79q-51 6 -65 68q-8 33 -7 102q2 72 -1 94q-4 30 -10 29q-12 3 -32 -13q-22 -18 -46 -56q-21 -33 -37 -69t-21 -55v-2v-82q0 -11 -8 -19t-19 -8q-15 0 -23 13q-7 8 -7 19z" />
<glyph unicode="i" horiz-adv-x="148" d="M264 308q-1 -8 -10 -62q-9 -50 -13 -88q-6 -50 -5 -79q2 -32 8 -39t10 -8q3 0 9 4q19 14 43 60q23 45 59 149q4 10 14 15t20.5 1.5t15.5 -13.5t2 -21q-38 -108 -63 -156q-30 -57 -59 -78q-23 -17 -46 -14q-25 2 -45 25q-19 22 -22 72q-1 35 5 89q4 34 13 88t10 61 q2 12 10.5 18.5t20 5t18 -10t5.5 -19.5zM270 475q8 -8 8 -19t-8 -19t-19 -8t-19 8t-8 19t8 19t19 8t19 -8z" />
<glyph unicode="j" horiz-adv-x="160" d="M189 -16q4 54 6 162.5t5 162.5q1 11 9.5 18.5t19.5 6.5t18.5 -9.5t6.5 -19.5q-3 -47 -4.5 -139t-3.5 -129q105 104 112 177q1 11 10 18t20 6t18 -10t6 -20q-4 -34 -19.5 -68t-42.5 -67.5t-50.5 -58t-58.5 -56.5q-8 -86 -25 -154q0 -2 -3.5 -17t-6 -23.5t-8 -21.5 t-13.5 -22q-17 -23 -43.5 -32.5t-52.5 -1.5q-28 9 -43 35.5t-13 63.5q3 45 58 105q23 26 98 94zM180 -97q-30 -23 -49 -40q-42 -37 -44 -59q-2 -30 18.5 -35t37.5 12q4 5 7 11t4.5 10.5t4.5 14.5l5 17q10 33 16 69zM249 479q8 -8 8 -19t-8 -19t-19 -8t-19 8t-8 19t8 19t19 8 t19 -8z" />
<glyph unicode="k" horiz-adv-x="329" d="M263 383q3 4 8 12q9 15 22 48.5t22 67.5q10 38 8 61q-1 17 -8 21q-14 6 -27 -31q-12 -35 -17 -82q-5 -46 -8 -97zM255 191q-1 -21 -1 -45h1q50 6 98 39q50 34 46 70q-2 16 -12 24q-30 24 -73 -9q-40 -32 -59 -79zM285 97q62 -62 127 -47q36 9 77 89q30 61 50 132 q3 11 12.5 16.5t20.5 2.5t16.5 -12.5t2.5 -20.5q-21 -77 -54 -142q-53 -103 -113 -117q-89 -21 -170 54v-29q0 -11 -8 -19t-19 -8t-19 8t-8 19q0 117 0.5 163t5 137.5t14.5 164.5q8 55 27 97q15 32 40.5 52t61.5 6q43 -15 47 -66q3 -34 -13 -83q-13 -38 -33 -76t-35 -57 q-17 -21 -30 -29q-6 -4 -26 -12l-2 -29q12 12 24 21q20 16 41.5 24.5t48 6t50.5 -21.5q28 -22 32 -60q7 -68 -70 -121q-45 -30 -98 -43z" />
<glyph unicode="l" horiz-adv-x="229" d="M226 224q86 121 122 279q7 32 3 59q-1 13 -5 18q-2 2 -6 1q-5 -1 -15 -14q-12 -15 -24 -42q-17 -36 -33 -90q-28 -93 -39 -185q-2 -13 -3 -26zM238 140q4 -48 18 -74q18 -29 38 -35q28 -8 50 5q20 13 37 46q28 54 37 141q1 11 10 18t20.5 6t18.5 -10t6 -20 q-10 -96 -42 -159q-23 -46 -57 -67q-43 -27 -96 -12q-41 12 -69 61q-41 69 -21 218q13 106 47 208q20 62 41 104q17 35 34 56q26 30 53 35q36 5 58 -20q15 -17 19 -47q6 -39 -6 -83q-49 -208 -188 -365q-3 -4 -8 -6z" />
<glyph unicode="m" horiz-adv-x="543" d="M404 262q33 62 84 80q37 12 65 -8q25 -18 31 -53q3 -12 3.5 -31t-0.5 -32l-3 -40q-2 -28 -2 -35q-3 -43 -1 -67q2 -28 10 -38q7 -10 17 -8q16 4 38 24q21 18 40 43t26 40q21 45 27 92q2 11 10.5 18t19.5 5.5t18 -10t6 -19.5q-7 -55 -33 -110q-9 -19 -31 -49 q-22 -29 -47 -51q-33 -29 -63 -36q-44 -9 -72 29q-16 23 -20 65q-2 28 1 75q1 12 2.5 37.5t2.5 37t0.5 26.5t-1.5 24q-3 14 -10 19q-6 4 -16 0q-45 -15 -75 -99q-8 -23 -14.5 -48t-12.5 -56.5t-8.5 -41t-4.5 -12.5q-1 -3 -2 -5q-5 -7 -13 -10q-10 -4 -19 0q-8 3 -13 10 q-3 5 -4 10q-1 4 -1 9l4 28q9 67 9 70q5 45 2 81q-4 47 -19 64q-5 -1 -13 -1q-34 -3 -61 -49q-17 -31 -27 -72q-6 -59 -17 -144q-1 -4 -1 -6q-1 -4 -2 -7.5t-3 -6.5q-2 -2 -4.5 -4t-11 -6t-16.5 1q-6 2 -10 6.5t-5 7t-1 3.5q-1 2 -1 5v5v4q1 11 3 35q7 63 11 93q2 11 5 23 q5 57 6 107q0 11 8 18.5t20 7.5q14 0 21 -12q36 41 82 45q39 3 57 -17q20 -23 29 -64zM393 45v-1v1z" />
<glyph unicode="n" horiz-adv-x="379" d="M351 288q-4 -2 -11 -8q-19 -15 -42 -53q-19 -32 -36 -66q-16 -35 -20 -48q-2 -5 -4 -15q-7 -42 -15 -82q0 -4 -1 -6q0 -4 -2 -8q-2 -3 -5 -6q-14 -14 -31 -6q-11 5 -14 17q-1 2 -1 5v5v5q1 9 5 29q6 34 11 57q13 88 19 179q1 11 9.5 18.5t19.5 6.5t18.5 -9.5t6.5 -19.5 t-1 -21q25 40 47 59q43 37 78 11q18 -13 25 -41q5 -19 6 -48q0 -18 -1.5 -59t-1.5 -49q-1 -61 9 -87q4 -12 10.5 -16.5t19.5 -3.5q20 2 30 10q7 7 23 32q22 34 42 84l6 17v2l1 8q1 1 1.5 2.5t0.5 2.5l4 7l20 48q5 10 15 14t20.5 -0.5t14.5 -14.5t0 -21l-12 -27v-2 q-2 -7 -21 -56q-22 -55 -46 -94q-20 -31 -34 -43q-23 -19 -61 -23q-32 -3 -55 13q-20 14 -30 42q-13 35 -12 107q1 9 2 48t1 58q-1 23 -4 35q-2 8 -4 11z" />
<glyph unicode="o" d="M334 29l-4 4q-32 37 -51.5 87.5t-18.5 99.5q-16 -30 -25 -61q-17 -56 -7 -95q10 -35 45 -43q35 -7 61 8zM371 69q22 39 24 98q3 69 -20 108q-8 16 -18 19q-8 4 -20 -3q-1 0 -2 -2q-3 -6 -7 -15q-22 -44 -8.5 -102t51.5 -103zM367 348l10 -4q27 -10 45 -42q31 -54 27 -138 q-3 -78 -36 -131q15 -8 30 -9q36 -2 64 48q7 12 12.5 24t8.5 20t7 22.5t6 20.5t6 24.5t6 25.5q2 11 11.5 17t20.5 3.5t17 -12t3 -20.5q-1 -6 -5.5 -25t-6 -26t-6 -23t-8.5 -26t-10.5 -24t-13.5 -27q-45 -79 -115 -76q-32 2 -64 22q-48 -37 -113 -23q-68 13 -87 81 q-14 54 7 125q20 66 61 117q46 57 98 66q15 2 25 -10z" />
<glyph unicode="p" horiz-adv-x="355" d="M239 61q4 0 8 -2q102 -36 144 20q18 24 23 61.5t-4 73.5q-8 37 -23.5 58.5t-31.5 23.5q-17 3 -38 -18q-32 -29 -62 -97q-4 -7 -10 -12q-3 -30 -4 -51zM364 -2q-54 -16 -127 8q-1 -43 -1 -146t-2 -159q0 -11 -8.5 -18.5t-19.5 -7.5t-18.5 8.5t-7.5 19.5q1 50 2 194.5 t5 222.5q1 25 6.5 82t6.5 87q0 11 8.5 18.5t19.5 7.5t18.5 -8t7.5 -18q13 17 26 29q40 38 83 32q39 -6 64.5 -41.5t35.5 -82.5q10 -39 5 -86t-26 -82q32 8 51 30q5 7 10.5 16t9.5 16.5t9.5 23.5t8.5 24t10.5 31t10.5 34q4 10 14 15t20.5 1.5t15.5 -13.5t2 -21l-10 -31 l-12 -32l-10 -28q-6 -17 -11 -27t-12 -22.5t-15 -21.5q-26 -31 -66.5 -44t-103.5 -11z" />
<glyph unicode="q" horiz-adv-x="328" d="M395 -25q-9 -45 -14 -83q-10 -77 -6 -123q5 -44 20 -50l8 -2q2 1 4 4q10 16 13 56q4 49 -4 127q-4 41 -21 71zM344 -4q-7 -3 -44 -12q-34 -9 -67.5 8.5t-48.5 51.5q-21 50 3 122q21 63 65 113q48 56 95 63q32 4 56 -15q14 -11 24 -30q12 -1 19 -9q5 -5 7 -12q0 -4 1 -8 q0 -7 -2 -21q-3 -17 -7 -45q-6 -34 -9 -46q-7 -24 -11 -43l-15 -67l5 -5q1 0 2.5 -1.5t2.5 -1.5q15 -2 23 2q33 16 53 74q14 40 23 108q2 11 10.5 17.5t20 5t18 -10t5.5 -20.5q-10 -73 -26 -118q-27 -79 -80 -104q-8 -4 -17 -6q16 -34 20 -76q8 -83 4 -138q-5 -53 -21 -79 q-13 -21 -33 -28q-22 -7 -47 4q-44 19 -51 95q-6 52 5 135q6 43 17 97zM386 255q-7 22 -17 29q-6 5 -15 4q-26 -4 -61 -44q-37 -43 -55 -95q-17 -53 -4 -83q7 -17 23 -25t31 -5q5 2 13 3.5t11.5 2.5t7.5 2t6.5 2.5t4.5 3.5q25 25 40 99q2 7 8.5 44t10.5 55q-2 3 -4 7z" />
<glyph unicode="r" horiz-adv-x="296" d="M265 354q42 -10 83 -13h1q2 1 9 1q24 3 36 -14q6 -8 6 -20q0 -5 -1 -13q-1 -9 -5 -27l-10 -37q-7 -26 -10 -39q-12 -49 -16 -81q-6 -39 0 -56q4 -13 13 -21t20 -7q36 2 68 71q25 53 40 123q1 11 10.5 17.5t19.5 4t16.5 -12t3.5 -19.5q-16 -77 -43 -136q-45 -98 -113 -102 q-31 -2 -54 18.5t-31.5 48t-1.5 78.5q4 35 17 87q4 13 10 39l9 36l2 8q-33 2 -64 8l-4 -22q-3 -13 -5 -19q-1 -4 -3 -9l-7 -20q-5 -13 -11 -27q-4 -11 -13.5 -15.5t-19.5 -0.5t-14.5 14t-0.5 20q5 15 9.5 27.5t6.5 17t3 8.5t3 15l8 36q0 2 1 4q0 5 1 9q2 11 11 17t20 3z" />
<glyph unicode="s" horiz-adv-x="367" d="M289 28l-18 16q-20 20 -35 30q-19 15 -32 18q-9 3 -14 -1q-7 -6 -1 -17q13 -23 45 -37q29 -13 55 -9zM200 237q1 2 22 52l14 32q3 8 5 12q2 2 3 4t2 3q3 5 8 8q22 14 46 -4q12 -9 25 -28q20 -31 40 -84q20 -50 29 -95q12 -54 2 -78q-4 -10 -8 -19l18 -5q55 -18 99 48 q26 38 62 139q3 10 13 15t20.5 1.5t15.5 -13.5t1 -21q-37 -107 -67 -152q-67 -99 -160 -69l-17 5l-23 8q-17 -13 -38 -19q-47 -13 -100 11q-48 21 -70 59q-12 18 -10 43.5t24 42.5q27 21 62 11q23 -6 51 -26q16 -13 39 -34q20 -19 22.5 -21t5.5 -4q6 9 10 20q3 9 -5 47 q-8 40 -26 87q-18 48 -35 73l-8 -18q-22 -52 -24 -55q-5 -10 -15.5 -13.5t-20.5 1.5t-13.5 15.5t1.5 20.5z" />
<glyph unicode="t" horiz-adv-x="208" d="M214 361q-33 3 -70 12q-11 2 -17 11.5t-3.5 20.5t12 17t20.5 3q37 -8 69 -11q19 82 46 174q3 10 13 15.5t20.5 2.5t16 -13t2.5 -21q-25 -82 -42 -158q32 2 69 10q11 3 20.5 -3t12 -17t-3.5 -20.5t-17 -11.5q-49 -11 -93 -13q-34 -165 -23 -256q4 -33 15.5 -52.5 t24.5 -24.5q30 -11 63 44q36 60 57 171q3 11 12 17.5t20 4t17.5 -11.5t4.5 -20q-24 -121 -65 -189q-26 -43 -59.5 -61.5t-68.5 -5.5q-31 12 -51 45q-19 33 -24 77q-12 99 22 264z" />
<glyph unicode="u" horiz-adv-x="378" d="M272 308q-21 -82 -22 -168q0 -55 12 -81q9 -20 28 -17q34 5 62 67q19 43 34 112q0 3 11 63q3 19 5 25q0 4 1 6q2 5 6 9q8 9 21 9q15 -1 23 -14l3 -11v-2v-2v-6q-1 -10 -8 -56q-9 -49 -12 -80q-5 -48 -2 -76q2 -30 10 -38q19 -18 36 -9q20 10 42 48q19 33 33.5 76.5 t18.5 69.5q2 11 11 17.5t20 5t17.5 -10.5t5.5 -20q-5 -31 -21 -79t-38 -86q-30 -52 -65 -70q-50 -25 -96 18q-17 16 -24 45q-36 -56 -86 -65q-59 -10 -85 48q-17 38 -17 105q1 92 24 181q3 11 12.5 16.5t20.5 2.5t16.5 -12.5t2.5 -20.5z" />
<glyph unicode="v" horiz-adv-x="371" d="M403 310q-2 -3 -4 -9q-9 -31 7 -69q5 -12 12 -21q5 24 6 44q1 44 -16 53q-3 1 -5 2zM279 310q-21 -89 -23 -158q-2 -49 7 -81q9 -30 25 -38q28 -13 62 15q37 31 65 94l5 11q-30 21 -47 58q-24 56 -9 105q8 28 30 41q26 14 58 -1q50 -23 47 -102q-1 -32 -10 -69 q42 0 98 44q10 7 21.5 6t18.5 -10t6 -20t-10 -18q-83 -65 -152 -55l-5 -11q-33 -74 -79 -114q-63 -51 -124 -22q-39 19 -55 72q-10 39 -8 97q3 74 25 168q2 11 12 17t21 3.5t17.5 -12t3.5 -20.5z" />
<glyph unicode="w" horiz-adv-x="528" d="M605 310q-11 -1 -19 -5q-16 -9 -18 -29q-11 -46 29 -79q8 -8 18 -13v3q11 34 3 84q-6 25 -13 39zM305 322l-10 -31l-11 -31q-4 -12 -9 -31l-10 -32q-3 -13 -6.5 -30.5t-4.5 -31.5t-1 -29t2 -29q6 -40 29 -47q23 -8 51 22q6 6 12 14l9 12q4 6 9 16l8 15q2 3 9.5 17t8.5 17 q2 17 11 43q8 29 9 44q1 11 9.5 18.5t19.5 6.5t18.5 -9.5t6.5 -19.5q-1 -20 -12 -55q-6 -22 -8 -34q0 -4 -1 -8v-2q-3 -51 17 -86q12 -20 26 -18q44 9 77 73q14 27 23 59q-23 14 -39 41q-25 41 -19 94q3 32 20 50q21 26 56 25q29 0 42 -34q6 -18 9 -46q4 -45 -1 -77 q-2 -9 -3 -18h2q33 0 86 23q11 4 21 0t14.5 -14.5t0.5 -20.5t-14 -14q-63 -27 -108 -27q-8 0 -15 1q-11 -36 -27 -66q-44 -87 -115 -100q-28 -6 -49 8t-33 35q-9 15 -15 33q-12 -18 -25 -32q-51 -55 -108 -37q-26 9 -43.5 33t-22.5 57q-2 17 -2 35t1.5 35t5 36.5t7.5 34 t10 35.5l10 33l10 32l10 27q4 11 14 16t20.5 1.5t15.5 -13t2 -19.5z" />
<glyph unicode="x" horiz-adv-x="341" d="M233 327q4 16 19 21q11 3 21 -2.5t13 -15.5q26 -89 39 -127q30 61 64 139q5 10 15 14t20.5 -0.5t15 -14.5t0.5 -21q-47 -107 -90 -187q28 -67 53 -94q13 -14 24.5 -15t26.5 11q46 39 103 184q4 10 14.5 14.5t21 0.5t15 -14t0.5 -21q-61 -158 -120 -205q-32 -27 -67 -23 q-30 3 -58 31q-24 25 -46 72q-32 -54 -64 -100q-6 -9 -17.5 -11t-21 4.5t-11.5 17.5t5 21q43 61 82 131l-2 4q-10 28 -22 65q-9 -17 -28 -13q-12 2 -18.5 11.5t-3.5 19.5l5 28q3 13 4.5 18.5t2 8.5t2.5 39q0 5 3 9z" />
<glyph unicode="y" horiz-adv-x="329" d="M380 -82l-28 -20q-54 -42 -59 -86q-2 -13 3.5 -21t12.5 -10q4 -1 10 0.5t16.5 11.5t19.5 30q16 35 25 95zM268 292q-25 -115 -29 -173t6 -85q4 -10 9 -13q4 -3 13 -1q12 3 27 22q15 20 31 56q18 38 43 116q6 19 17 62q5 18 6 24q2 5 3 8q2 6 7 11q8 7 17 7q14 1 23 -10 q2 -3 3.5 -6.5t2.5 -5.5v-2v-19q-1 -9 -2 -27q-3 -40 -3 -46q-1 -24 -0.5 -83t-0.5 -96q35 36 53.5 79.5t35.5 112.5q2 11 11.5 17t20.5 3.5t17 -12t3 -20.5q-19 -82 -44 -136t-78 -100q-10 -9 -22 -18q-8 -101 -35 -158q-19 -40 -47 -58.5t-59 -11.5q-29 6 -45.5 32 t-12.5 57q8 67 80 123q16 12 57 39l10 7q0 10 1 21q1 38 1 98l-13 -31q-19 -41 -39 -66q-27 -35 -57 -41q-31 -7 -54 7q-20 13 -30 41q-14 37 -10 106q4 63 31 182q2 11 11.5 17t20.5 3.5t17 -12t3 -20.5z" />
<glyph unicode="z" horiz-adv-x="345" d="M417 -59q-5 -1 -12 -2q-3 0 -31 -4q-29 -4 -44 -6q-81 -13 -96 -45q-14 -30 2 -42q17 -12 56 -5q41 8 77 35t48 69zM210 281q32 62 95 67q42 3 67 -22q62 -61 0 -153q-5 -6 -10 -13q5 -1 10 -3q87 -34 101 -139q7 4 13 9t10 9t13 14.5t16 17.5q8 9 19 9t19.5 -7.5 t8.5 -18.5t-7 -19q-6 -6 -16.5 -18t-15 -16.5t-13.5 -12.5t-19.5 -14t-24.5 -13l-2 -1v-3q-9 -78 -59 -129t-112 -65q-65 -14 -103 18q-44 39 -16 112q25 66 135 89q15 3 45 7.5t32 5.5q15 2 25 5q-2 39 -19.5 68t-49.5 42q-11 4 -22 4l-7 -7q-9 -8 -16 -10q-11 -5 -22 -1 q-12 5 -18 17q-5 12 1 24q1 3 4 6q2 2 5 6l14 15q23 24 36 43q37 54 7 84q-8 7 -25 6q-33 -3 -51 -38q-8 -14 -18 -42q-12 -35 -17 -47q-5 -10 -15.5 -14t-20.5 0.5t-14 15t0.5 20.5t16.5 43t20 49z" />
<glyph unicode="{" horiz-adv-x="190" d="M318 544q-44 0 -75 -45q-30 -45 -21 -94q0 -4 1 -7.5t3.5 -7.5t4 -7t5.5 -8.5t5.5 -8t7 -9.5t7.5 -10q36 -51 31 -90q-5 -33 -44 -59q38 -27 46 -52q8 -26 -3 -51q-3 -6 -9 -17l-8 -13q-38 -81 -32 -121q7 -45 77 -73q10 -4 14.5 -14t0.5 -20.5t-14 -15t-21 -0.5 q-99 39 -110 115q-9 57 37 153q3 6 9 17q5 8 6 11q3 6 1 13q-2 8 -27 25q-1 1 -21 14q-6 4 -9 6.5t-5 4.5q-8 10 -6.5 22.5t12.5 21.5q4 3 10 6q2 1 6 4l7 4q4 2 7 4q21 14 22 23q3 17 -21 50q-1 2 -8 11l-8 12q-3 3 -8.5 11.5t-8.5 15t-6 14.5t-5 16q-13 71 31 135 q46 68 119 68q11 0 19 -8t8 -19t-8 -19t-19 -8z" />
<glyph unicode="|" horiz-adv-x="150" d="M400 549q-2 -86 -2 -183.5t1 -216.5t1 -184q0 -11 -8 -19t-19 -8t-19 8t-8 19q0 65 -1 184.5t-1 217t2 184.5q0 11 8 18.5t19.5 7.5t19 -8t7.5 -20z" />
<glyph unicode="}" horiz-adv-x="280" d="M255 -122q43 -4 76 38q35 43 29 92q-1 15 -30 61q-32 54 -23 93q7 32 48 54q-37 30 -42 56q-6 25 8 51q3 6 10 16q6 9 7 12q45 79 42 118q-3 46 -71 79q-10 5 -13.5 15.5t1.5 20.5t15.5 13.5t20.5 -1.5q96 -46 101 -123q3 -56 -48 -148q-3 -6 -10 -16q-6 -8 -8 -12 q-4 -8 -3 -13q2 -8 26 -27l20 -15l9 -7q3 -3 5 -6q7 -11 4 -23q-2 -12 -14 -20q-4 -2 -11 -6l-21 -10q-22 -12 -24 -20q-4 -17 18 -53q1 -2 6.5 -10.5t8.5 -12.5l6 -14q5 -8 7.5 -14.5t5 -15t3.5 -16.5q8 -71 -40 -132q-23 -29 -55.5 -45.5t-69.5 -12.5q-11 1 -18 10t-6 20 t10 18t20 6z" />
<glyph unicode="~" horiz-adv-x="237" d="M103 396q15 47 47 81q50 54 104 30q25 -12 41 -41l10 -23q8 -18 9 -21q9 -20 20 -30.5t34 -12.5t41 24q13 20 28 66q4 11 14 16t20.5 1.5t15.5 -13.5t2 -20q-18 -54 -36 -81q-36 -52 -91 -47q-40 4 -62 24.5t-36 51.5q-1 3 -9 22l-8 18q-7 13 -15 16q-19 9 -42 -16 q-24 -26 -35 -61q-4 -11 -14 -16t-20.5 -1.5t-15.5 13.5t-2 20z" />
<glyph unicode="&#xa1;" horiz-adv-x="250" d="M498 354q-7 -80 -9 -209q-3 -186 -4 -212q-1 -11 -9 -18.5t-19 -7t-18.5 8.5t-7.5 19q1 29 4 210q2 130 9 213q1 12 9.5 19t20 6t18.5 -9.5t6 -19.5zM492 480q8 -8 8 -19t-8 -19t-19 -8t-19 8t-8 19t8 19t19 8t19 -8z" />
<glyph unicode="&#xa2;" horiz-adv-x="231" d="M306 128q5 174 3 228q-1 0 -2 -1q-35 -12 -53 -64q-17 -49 -2.5 -97t54.5 -66zM361 407q39 -12 78 -47q8 -8 9 -19t-7 -19t-19 -9t-19 7q-21 19 -40 28q1 -52 -3 -229q32 2 78 36q9 6 20 4.5t17.5 -10.5t5 -20t-10.5 -18q-62 -44 -112 -46v-41q0 -11 -8 -19t-19 -8t-19 8 t-8 19v48q-39 10 -65.5 37t-36.5 61.5t-9.5 70t10.5 67.5q26 77 87 98q8 3 17 5q-2 29 -5 57q-1 11 6 20t18 10t20 -6t10 -18q3 -33 5 -67z" />
<glyph unicode="&#xa3;" horiz-adv-x="394" d="M477 510q-17 21 -27 26q-8 3 -21 -8q-46 -39 -58 -161q-2 -22 -3 -42q29 0 54 1q11 1 19 -6.5t9 -19t-6.5 -19.5t-19.5 -9q-26 -1 -58 -1v-10q-1 -70 -4 -96q-4 -39 -11 -71q38 11 65 3q25 -7 63 -31q37 -25 48 -30q19 -8 30 -3q18 6 36 41q6 10 16.5 13t20.5 -2.5 t13 -16t-2 -20.5q-28 -52 -64 -66q-33 -12 -72 5q-15 7 -56 33q-30 20 -47 25q-9 3 -26 0t-28 -9q-2 -2 -3.5 -5.5t-2.5 -4.5q-6 -10 -13 -15q-9 -7 -19 -6q-12 0 -21 8q-21 20 -5 50l4 7q1 3 2 4t1.5 2t0.5 2q11 40 16 93q3 24 4 91v9q-8 1 -29.5 1.5t-33.5 0.5 q-11 0 -18.5 8t-7.5 19.5t8 19t20 7.5t33.5 -0.5t29.5 -1.5q1 25 3 47q13 144 78 198q37 31 76 16q23 -10 48 -42q7 -9 5.5 -20t-10 -18t-19.5 -5.5t-18 9.5z" />
<glyph unicode="&#xa4;" horiz-adv-x="464" d="M354 361l-2 2l-46 44q-8 8 -8 19.5t7.5 19.5t19 8t19.5 -7l43 -43q12 11 24 18l4 2q4 5 10 8q78 41 145 13q35 -15 60 -45l38 37q8 8 19.5 8t19 -8t7.5 -19.5t-8 -18.5l-47 -46l1 -1q22 -47 16.5 -107.5t-40.5 -106.5q20 -19 43 -45q8 -9 7 -20t-9.5 -18.5t-19.5 -6.5 t-18 9q-21 24 -41 42q0 1 -1 2l-2 -2q-31 -22 -72 -28t-77 4q-27 6 -49 18l-38 -55q-6 -9 -17 -11.5t-20 4t-11.5 17.5t4.5 20l40 59q-18 21 -27 47q-20 61 5 137q8 27 21 50zM439 376q-36 -21 -55 -81t-4 -105q15 -48 78 -63q62 -15 105 16q45 32 57 87t-10 100 q-21 48 -60 65q-45 18 -101 -11q-1 -1 -2 -1q-4 -4 -8 -7z" />
<glyph unicode="&#xa5;" horiz-adv-x="355" d="M312 520q22 -52 77 -165l45 -90l1 -1l1 2q12 32 32 94l32 103q16 54 22 68q4 11 14.5 15t21 0t14.5 -14.5t0 -20.5q-5 -12 -21 -64l-32 -104q-20 -63 -33 -97l-2 -5q46 1 96 1q11 0 19 -8t8 -19t-8 -19t-19 -8q-64 0 -120 -2v-52q53 4 93 4q11 0 19 -8t8 -19t-8 -19 t-19 -8q-41 0 -92 -4v-62q0 -11 -8 -19t-19 -8t-19 8t-8 19v57q-75 -7 -105 -9q-11 -1 -19.5 6.5t-9.5 18.5t6.5 19.5t18.5 9.5q30 2 108 9v55q-60 -2 -117 -7q-11 -1 -19.5 6.5t-9.5 18.5t6.5 19.5t18.5 9.5q50 4 103 7l-1 1q-16 29 -47 93q-60 124 -78 168q-4 10 0 20.5 t14.5 14.5t21 0t14.5 -15z" />
<glyph unicode="&#xa6;" horiz-adv-x="208" d="M459 452q-2 -22 -5 -85q-2 -55 -6 -88q-2 -11 -10.5 -18t-19.5 -5.5t-18 10t-6 19.5q3 26 6 84q3 65 5 87q1 11 9.5 18.5t19.5 6.5t18.5 -9.5t6.5 -19.5zM442 172q0 -81 -5 -155q-1 -11 -9.5 -18.5t-19.5 -6.5t-18.5 9.5t-6.5 19.5q5 72 5 151q0 11 8 19t19 8t19 -8 t8 -19z" />
<glyph unicode="&#xa7;" horiz-adv-x="266" d="M414 289q-24 7 -48 5t-32 -13q-10 -16 -4 -31q5 -13 21 -29q6 0 12 -2q3 -2 12 -5l10 -5l9 -3q6 -3 9.5 -3.5t9 -2t10.5 -1.5h11q18 0 27 15t0 30q-11 20 -47 45zM464 440q-14 26 -32 32q-14 4 -29 -6q-17 -10 -24.5 -30t-0.5 -38q10 -25 53 -56q1 0 10 -6l10 -8l10 -6 q7 -6 10 -9l10 -9q6 -5 10 -9.5t8.5 -10.5t7.5 -12q26 -44 0.5 -85t-72.5 -42q20 -21 29 -39q27 -56 12 -93q-14 -36 -61 -46q-33 -7 -75 2t-73 27q-9 5 -12 16t2.5 20.5t16.5 12.5t21 -3q23 -13 55 -20t54 -2q18 4 22 13q6 15 -10 49q-8 15 -35 40l-26 22q-20 17 -29 26 q-35 32 -46 60q-17 42 10 81q18 27 57 35q-12 15 -19 32q-15 39 -0.5 76.5t46.5 57.5q36 22 73 12q41 -12 65 -60q5 -10 1.5 -20.5t-13.5 -15.5t-20.5 -1.5t-15.5 13.5z" />
<glyph unicode="&#xa8;" horiz-adv-x="300" d="M408 454q8 -8 8 -19t-8 -19t-19 -8t-19 8t-8 19t8 19t19 8t19 -8zM542 451q8 -8 8 -19t-8 -19t-19 -8t-19 8t-8 19t8 19t19 8t19 -8z" />
<glyph unicode="&#xa9;" horiz-adv-x="473" d="M407 524q-45 -23 -81 -96q-45 -90 -49 -200q-5 -115 39 -177q47 -67 144 -50q70 12 123.5 68.5t76.5 132.5t11 148q-9 60 -50 107t-99 65.5t-115 1.5zM426 583q104 17 193 -51t106 -174q9 -61 -4 -128t-45 -126t-86 -102t-120 -55q-131 -22 -198 73q-54 78 -49 210 q5 120 55 222q45 91 106 121q1 0 2 1q14 6 28 9q6 2 12 0zM479 354q-6 21 -13 27q-1 2 -3 1q-7 -2 -17 -13t-18 -28q-34 -75 -18 -157q9 -47 32 -51t50 34q6 9 17 11.5t20 -4t11.5 -17.5t-4.5 -20q-20 -30 -47 -46t-56 -12q-30 5 -49.5 30.5t-27.5 64.5q-8 45 -2.5 96 t24.5 93q12 25 30 45t40 26q30 8 53 -12q20 -17 30 -54q3 -11 -2.5 -20.5t-16.5 -12.5t-20.5 2.5t-12.5 16.5z" />
<glyph unicode="&#xaa;" horiz-adv-x="414" d="M508 310q-2 -3 -4 -5q-30 -39 -72 -55q-60 -23 -100 22q-32 35 -17 95q11 49 46 92q38 47 80 57q57 14 89 -41q11 -18 -4 -33q13 2 22 -8q7 -7 9 -19q1 -5 1 -12q0 -4 -1 -24q-2 -35 2 -53q5 -23 19 -30q20 -12 67 1q10 3 20 -2.5t13 -16t-2.5 -20.5t-16.5 -13 q-68 -19 -108 3q-33 19 -43 62zM484 447q-13 21 -30 17q-25 -6 -51 -39q-27 -33 -36 -70q-8 -33 5 -47q16 -17 41 -7q27 10 49 38q6 8 24 48l12 28q3 7 5 10t3.5 5t3.5 4q-18 -2 -26 13z" />
<glyph unicode="&#xab;" horiz-adv-x="442" d="M537 285q-68 -81 -110 -123q-4 -4 -15 -12q3 -5 7 -11q11 -13 31 -32q13 -12 66 -54q9 -7 10 -18t-6 -20t-18 -10t-20 6q-54 43 -68 57q-24 21 -37 38q-20 26 -21 47t19 37l9 6q3 2 5 4q40 40 106 119q7 9 18.5 10t20 -6t9.5 -18.5t-6 -19.5zM677 281q-30 -53 -66 -93 l-10 -11q-7 -7 -9 -10l-2 -1q4 -5 12 -14l84 -90q8 -8 7 -19.5t-9 -19t-19.5 -6.5t-18.5 9l-84 90q-15 16 -21 27q-9 17 -5 34q3 13 15 26l10 10q7 7 10 12q32 35 60 82q5 10 16 13t20.5 -2.5t12.5 -16.5t-3 -20z" />
<glyph unicode="&#xac;" horiz-adv-x="446" d="M325 329q15 0 166 7l102 4q22 1 33 2h10h3h1h1h2q4 0 9 -3q39 -19 43 -87q2 -19 0 -45q-1 -31 -1 -32q0 -11 -8 -19t-19 -8t-19 8t-8 19q0 3 1 34q2 24 1 39q-2 30 -10 40h-4q-11 -1 -33 -2l-102 -4q-152 -7 -168 -7q-11 0 -19 8t-8 19t8 19t19 8z" />
<glyph unicode="&#xae;" horiz-adv-x="473" d="M407 524q-45 -23 -81 -96q-45 -90 -49 -200q-5 -115 39 -177q47 -67 144 -50q70 12 123.5 68.5t76.5 132.5t11 148q-9 60 -50 107t-99 65.5t-115 1.5zM426 583q104 17 193 -51t106 -174q9 -61 -4 -128t-45 -126t-86 -102t-120 -55q-131 -22 -198 73q-54 78 -49 210 q5 120 55 222q45 91 106 121q1 0 2 1q14 6 28 9q6 2 12 0zM428 381q0 -62 -2 -112l15 11q23 17 41 34q49 51 37 88q-6 18 -35 12q-17 -3 -32.5 -12t-21.5 -18q-1 -2 -2 -3zM373 380v6q0 3 0.5 7.5t0.5 7.5v8v1v1v3q1 2 1 4q1 2 3 5q5 8 14 11q7 3 14 2q29 24 67 31 q31 6 59 -5q28 -10 39 -44q22 -68 -51 -142q-20 -20 -47 -40l-1 -1v-1q10 -11 33 -34q61 -59 66 -66q7 -9 5.5 -20t-10.5 -17.5t-20 -5t-17 10.5l-61 59q-25 24 -37 38l-7 9q-3 -64 -8 -121q-1 -11 -9.5 -18t-20 -6t-18.5 9.5t-6 20.5q11 117 12 278q-1 4 -1 9z" />
<glyph unicode="&#xaf;" horiz-adv-x="441" d="M353 574q32 0 142 1.5t170 0.5q11 0 18.5 -8t7.5 -19.5t-8 -19t-20 -7.5q-59 1 -168.5 -0.5t-141.5 -1.5q-11 0 -19 8t-8 19t8 19t19 8z" />
<glyph unicode="&#xb0;" horiz-adv-x="327" d="M428 496q0 11 7.5 19t18.5 8q55 2 87 -32q33 -34 41 -81q8 -45 -7 -83q-17 -45 -57 -56q-50 -14 -85 18q-28 26 -36 73q-7 35 1 72t30 62zM475 466q-15 -10 -22.5 -37.5t-2.5 -57.5q5 -29 19 -42q13 -12 35 -6q13 4 21 24q9 24 4 54q-9 55 -52 66q-1 -1 -2 -1z" />
<glyph unicode="&#xb1;" d="M337 346q30 2 68 2q1 37 3 61q1 11 9.5 18.5t19.5 6.5t18.5 -9.5t6.5 -19.5q-2 -24 -3 -58q50 -1 71 -1q11 0 19 -8t8 -19t-8 -19t-19 -8q-21 0 -72 1q-2 -38 -4 -65q-1 -12 -9.5 -19t-20 -6t-18.5 9.5t-6 19.5q2 27 4 62q-36 0 -65 -2q-11 -1 -19 6.5t-9 19t6.5 19.5 t19.5 9zM249 140q62 6 160 5q125 -1 156 0q11 0 19.5 -7.5t8.5 -18.5t-7.5 -19.5t-18.5 -8.5q-33 -1 -158 0q-98 1 -154 -5q-12 -1 -20.5 6t-9.5 18.5t6 20t18 9.5z" />
<glyph unicode="&#xb2;" horiz-adv-x="325" d="M369 464q24 30 58.5 46t66.5 12q40 -5 56 -40q15 -33 1 -84q-11 -40 -67 -101q-13 -16 -47 -50q15 2 118 7q11 1 19 -6.5t9 -19t-6.5 -19.5t-19.5 -9q-120 -6 -151 -12h-2q-1 0 -1.5 -0.5t-3.5 -1.5t-7 -2q-28 -9 -43 10q-12 16 -4 34q3 7 11 14q1 1 8 7l3 2q9 10 36 38 t41 44q48 52 55 79q9 32 2 47q-4 8 -14 10q-16 2 -38 -8.5t-38 -30.5q-7 -9 -18 -10t-20 6t-10 18t6 20z" />
<glyph unicode="&#xb3;" horiz-adv-x="323" d="M349 442q19 35 59 57q56 29 95 -7q27 -25 16 -63q-6 -23 -27 -51l-1 -1q51 -2 70 -34q26 -42 9 -81q-13 -29 -51 -51q-52 -30 -121 -38q-11 -1 -20 6t-10 18t6 20t18 10q58 7 100 31q23 13 28 26q6 13 -5 31q-6 10 -40 8q-14 0 -30 -3q-4 -1 -9 -2l-3 -1h-1l-1 -1h-1h-1 h-3h-5q-10 2 -17 11t-5 21q1 4 3 8q1 2 3 5l5 5l10 12q18 18 29 32q14 20 18 33q2 7 0 9q-12 11 -33 -1q-26 -14 -37 -35q-5 -10 -16 -13t-21 2t-13 16t2 21z" />
<glyph unicode="&#xb4;" horiz-adv-x="306" d="M554 480q-22 -40 -75 -106q-7 -9 -18 -10t-20 6t-10 18t6 20q50 62 69 98q5 10 16 13t21 -2t13 -16t-2 -21z" />
<glyph unicode="&#xb5;" horiz-adv-x="484" d="M409 342q4 -58 0 -121q1 -20 3 -40q11 -109 55 -150q13 -14 38 -10q72 9 98 130q7 33 11 71.5t6.5 82t3.5 59.5q1 11 9.5 18t20 6t18.5 -9.5t6 -20.5q-1 -14 -3 -56q-3 -44 -7.5 -85.5t-11.5 -76.5q-1 -5 -3 -10q8 -44 19 -63q13 -24 45 -33q11 -3 16.5 -13t2.5 -20.5 t-13 -16t-20 -2.5q-53 15 -78 58q-2 3 -3 6q-39 -69 -109 -79q-21 -3 -44.5 3t-39.5 21q-26 26 -42 63q-18 -88 -49 -188q-4 -11 -13.5 -16t-20.5 -1.5t-16 13t-2 20.5q59 189 69 340q-1 18 -2 53q-3 60 -6 85q-1 11 5.5 19.5t18 10t20 -5t10.5 -18.5q0 -3 1 -8q6 -7 7 -16z " />
<glyph unicode="&#xb6;" horiz-adv-x="422" d="M565 235q27 -1 59 1q2 139 -1 233q-20 15 -45 22q-9 -172 -13 -256zM510 186q-9 2 -17 4q-97 23 -160 88q-71 73 -40 150q25 64 108 100q39 17 82 23t88.5 -2.5t80.5 -33.5q19 -2 23 -21q14 -14 24 -31q6 -10 3.5 -20.5t-12.5 -16.5q-6 -3 -12 -4q2 -84 -0.5 -239 t-2.5 -204q0 -11 -8 -19t-19 -8t-19 8t-8 19q0 56 2 203q-32 -2 -59 -1q-4 -107 -4 -199q0 -11 -8 -19t-19 -8t-19 8t-8 19q0 94 4 204zM524 500q-52 1 -101 -21q-63 -28 -80 -71q-18 -45 28 -92q53 -54 134 -74q3 0 7 -1q3 85 12 255v4z" />
<glyph unicode="&#xb7;" horiz-adv-x="212" d="M454 241q8 -8 8 -19t-8 -19t-19 -8t-19 8t-8 19t8 19t19 8t19 -8z" />
<glyph unicode="&#xb8;" horiz-adv-x="254" d="M452 -125q0 -3 2 -1q-1 1 -2 1zM464 -17q-20 -25 -31 -40q-3 -6 -6 -10q15 -1 21 -2q25 -3 39 -14q25 -19 16 -52q-8 -30 -42 -43q-19 -7 -44 -8q-1 0 -33 2q-11 1 -18.5 9.5t-6.5 19.5t9.5 18.5t19.5 6.5q5 0 13.5 -1t13.5 -1q16 1 27 5q4 1 6 3q-3 1 -7 1q-6 1 -16 1.5 t-14 1.5q-10 1 -17 3q-14 4 -21 13q-9 12 -7 27q1 9 5 19q5 13 18 31q11 17 33 44q7 9 18 10t20 -6t10 -18t-6 -20z" />
<glyph unicode="&#xb9;" horiz-adv-x="245" d="M497 493q0 -133 -22 -252q-3 -11 -12 -17.5t-20 -4t-17.5 11.5t-4.5 20q22 114 22 242q0 11 8 19t19 8t19 -8t8 -19z" />
<glyph unicode="&#xba;" horiz-adv-x="327" d="M465 531q13 15 31 7q57 -25 78 -81.5t8 -112.5q-14 -59 -56 -87q-49 -33 -111 -7q-42 18 -55 62.5t-4 91.5q9 46 36.5 83.5t69.5 43.5h3zM470 477q-19 -2 -36.5 -25t-24.5 -58t1 -60.5t27 -33.5q34 -15 59 2q24 16 33 55q9 37 -3 73t-42 53q-6 -5 -14 -6z" />
<glyph unicode="&#xbb;" horiz-adv-x="445" d="M422 333q3 -4 27 -28l47 -49l45 -49q10 -13 15 -21q4 -6 6 -10q4 -11 2 -20q0 -4 -2 -7.5t-3 -5.5l-2 -1q-2 -3 -5 -6q-5 -6 -15 -15l-42 -39l-28 -26l-27 -24q-10 -9 -13 -11q-8 -8 -19.5 -8t-19 8t-7.5 19.5t8 18.5q3 3 14 13l27 24l29 26l41 38l5 5l-6 7 q-14 17 -42 47l-47 48l-30 30q-7 9 -6 20t9.5 18.5t19.5 6.5t19 -9zM545 324l79 -77q32 -31 46 -47q10 -12 16 -20q4 -5 6 -10q5 -9 4 -18q-1 -10 -9 -22q-4 -6 -12 -16q-13 -16 -35 -39q-40 -43 -62 -63q-8 -7 -19 -7t-18.5 8.5t-7.5 19.5t9 19q19 18 58 60q21 22 33 36 l5 6q-4 4 -8 10l-44 45l-79 77q-8 8 -8 19t8 19t19 8t19 -8z" />
<glyph unicode="&#xbc;" horiz-adv-x="580" d="M734 159l-1 18q-3 48 -6 82l-32 -44l-35 -52q18 -2 44 -3q14 0 30 -1zM428 487q-1 -33 -5 -109t-4 -117q0 -11 -8 -19t-19 -8t-19 8t-8 19q0 41 4 118t5 110q0 11 8 18.5t19.5 7.5t19 -8t7.5 -20zM662 524q-146 -326 -213 -532q-4 -11 -14 -16t-20.5 -1.5t-15.5 13.5 t-2 20q69 210 215 538q5 10 15.5 14t20.5 -0.5t14 -15t0 -20.5zM772 329q10 -59 15 -149q0 -10 1 -23h15q11 0 19 -8t8 -19t-8 -19t-19 -8h-13q2 -39 5 -68q1 -11 -6 -19.5t-18.5 -9.5t-20 6t-9.5 19q-3 30 -5 74q-18 1 -34 1q-37 2 -59 4q-13 1 -20 1q-5 1 -8 2q-3 0 -6 1 q-8 3 -13 11q-6 8 -5 19q0 4 2 8q1 4 4 10l13 23l41 60l67 95q9 12 25 11q10 1 18.5 -5.5t10.5 -16.5z" />
<glyph unicode="&#xbd;" horiz-adv-x="550" d="M428 487q-1 -33 -5 -109t-4 -117q0 -11 -8 -19t-19 -8t-19 8t-8 19q0 41 4 118t5 110q0 11 8 18.5t19.5 7.5t19 -8t7.5 -20zM662 524q-146 -326 -213 -532q-4 -11 -14 -16t-20.5 -1.5t-15.5 13.5t-2 20q69 210 215 538q5 10 15.5 14t20.5 -0.5t14 -15t0 -20.5zM616 244 q19 31 51.5 49.5t63.5 18.5q40 0 59 -27q19 -29 3 -74q-7 -20 -43 -56l-64 -61q-38 -36 -51 -55q-2 -4 -4 -7h4h4q55 -4 123 3q11 1 20 -6t10 -18t-6 -20t-18 -10q-73 -8 -133 -3h-5q-9 -1 -12 -1q-24 0 -36 16q-14 18 -8 43q4 15 17 34q17 24 58 63l63 60q28 28 31 36 q6 19 2 25q-3 4 -14 4q-17 0 -37 -11.5t-32 -30.5q-6 -9 -16.5 -12t-20 3t-12.5 16.5t3 20.5z" />
<glyph unicode="&#xbe;" horiz-adv-x="580" d="M735 159l-1 18q-3 48 -6 82l-32 -44l-35 -52q18 -2 44 -3q14 0 30 -1zM663 524q-146 -326 -213 -532q-4 -11 -14 -16t-20.5 -1.5t-15.5 13.5t-2 20q69 210 215 538q5 10 15.5 14t20.5 -0.5t14 -15t0 -20.5zM773 329q10 -59 15 -149q0 -10 1 -23h15q11 0 19 -8t8 -19 t-8 -19t-19 -8h-13q2 -39 5 -68q1 -11 -6 -19.5t-18.5 -9.5t-20 6t-9.5 19q-3 30 -5 74q-18 1 -34 1q-37 2 -59 4q-13 1 -20 1q-5 1 -8 2q-3 0 -6 1q-8 3 -13 11q-6 8 -5 19q0 4 2 8q1 4 4 10l13 23l41 60l67 95q9 12 25 11q10 1 18.5 -5.5t10.5 -16.5zM336 526q47 12 85 9 q33 -2 51 -17q26 -23 15 -63q-5 -16 -27 -33l-8 -6q15 -10 25 -28q27 -45 5 -81q-16 -27 -58 -41q-55 -20 -124 -16q-12 1 -19.5 9t-6.5 19.5t9 19t19 6.5q59 -3 104 13q24 8 30 18q5 8 -5 25q-11 18 -29 15q-4 0 -10 -2q-1 0 -3.5 -1t-4 -1t-3.5 -1q-10 -2 -18 -1 q-11 3 -18 11q-6 8 -6 19q-1 13 12 23q1 0 2 1h1h1v1h1l2 1l10 5q16 8 30 16q18 10 29 18q3 3 5 4.5t3 2.5l1 1v5q-5 3 -19 4q-29 2 -67 -7q-11 -3 -20.5 3t-12.5 16.5t3 20t16 12.5z" />
<glyph unicode="&#xbf;" horiz-adv-x="427" d="M685 -20q-9 -59 -51 -100.5t-95 -54.5q-56 -14 -100 8q-51 25 -63 86q-8 42 26 96q12 20 67 90q46 57 70 104.5t22 98.5q0 11 7.5 19.5t18.5 8.5t19.5 -7.5t8.5 -18.5q1 -46 -16 -93t-36.5 -76.5t-50.5 -69.5q-54 -68 -64 -85q-23 -35 -18 -57q6 -35 33 -48q26 -13 63 -4 q39 10 69 40t36 71q2 11 11 17.5t20 5t17.5 -10.5t5.5 -20zM618 466q8 -8 8 -19t-8 -19t-19 -8t-19 8t-8 19t8 19t19 8t19 -8z" />
<glyph unicode="&#xc0;" horiz-adv-x="694" d="M597 210q69 5 140 16q-5 38 -8 86.5t-3.5 76.5t0 76.5t0.5 50.5v15l-37 -96zM575 154l-67 -164q-4 -10 -14.5 -14.5t-20.5 -0.5t-14.5 14.5t-0.5 20.5l57 141q-31 -1 -62 -1q-11 0 -19 8t-8 19t8 19t19 8q41 0 85 2l101 251q12 27 31.5 79t24.5 64l21 55q3 9 5 12 q6 11 17 13q15 4 26 -6q8 -7 12 -22q2 -8 3 -19q1 -18 2 -46v-30q0 -16 -0.5 -27.5t-0.5 -13.5q0 -4 -0.5 -51.5t0 -74.5t3 -73t8.5 -83l41 8q11 2 20.5 -4.5t11.5 -17.5t-4.5 -20.5t-17.5 -11.5l-41 -7q13 -53 34 -83q30 -45 79 -39q11 1 20 -6t10 -18t-6 -20t-18 -10 q-81 -9 -129 62q-28 40 -43 106q-89 -13 -173 -19zM726 790l71 -58q9 -6 10.5 -17.5t-5 -20t-18 -10t-19.5 5.5l-73 58q-9 7 -10 18.5t6 20t18.5 9.5t19.5 -6z" />
<glyph unicode="&#xc1;" horiz-adv-x="694" d="M597 210q69 5 140 16q-5 38 -8 86.5t-3.5 76.5t0 76.5t0.5 50.5v15l-37 -96zM575 154l-67 -164q-4 -10 -14.5 -14.5t-20.5 -0.5t-14.5 14.5t-0.5 20.5l57 141q-31 -1 -62 -1q-11 0 -19 8t-8 19t8 19t19 8q41 0 85 2l101 251q12 27 31.5 79t24.5 64l21 55q3 9 5 12 q6 11 17 13q15 4 26 -6q8 -7 12 -22q2 -8 3 -19q1 -18 2 -46v-30q0 -16 -0.5 -27.5t-0.5 -13.5q0 -4 -0.5 -51.5t0 -74.5t3 -73t8.5 -83l41 8q11 2 20.5 -4.5t11.5 -17.5t-4.5 -20.5t-17.5 -11.5l-41 -7q13 -53 34 -83q30 -45 79 -39q11 1 20 -6t10 -18t-6 -20t-18 -10 q-81 -9 -129 62q-28 40 -43 106q-89 -13 -173 -19zM668 728q73 42 93 56q10 6 21 3.5t17 -12t3.5 -20.5t-11.5 -17q-22 -14 -97 -56q-9 -6 -20 -3t-16.5 12.5t-2.5 20.5t13 16z" />
<glyph unicode="&#xc2;" horiz-adv-x="694" d="M597 210q69 5 140 16q-5 38 -8 86.5t-3.5 76.5t0 76.5t0.5 50.5v15l-37 -96zM575 154l-67 -164q-4 -10 -14.5 -14.5t-20.5 -0.5t-14.5 14.5t-0.5 20.5l57 141q-31 -1 -62 -1q-11 0 -19 8t-8 19t8 19t19 8q41 0 85 2l101 251q12 27 31.5 79t24.5 64l21 55q3 9 5 12 q6 11 17 13q15 4 26 -6q8 -7 12 -22q2 -8 3 -19q1 -18 2 -46v-30q0 -16 -0.5 -27.5t-0.5 -13.5q0 -4 -0.5 -51.5t0 -74.5t3 -73t8.5 -83l41 8q11 2 20.5 -4.5t11.5 -17.5t-4.5 -20.5t-17.5 -11.5l-41 -7q13 -53 34 -83q30 -45 79 -39q11 1 20 -6t10 -18t-6 -20t-18 -10 q-81 -9 -129 62q-28 40 -43 106q-89 -13 -173 -19zM667 725q10 9 19 18l18 17l11 11q11 10 19 15q14 9 28.5 7t26.5 -15q6 -7 14 -21q4 -7 15 -29l21 -38q5 -10 2 -20.5t-13 -16t-20.5 -2.5t-16.5 13l-19 38q-12 22 -16 29l-2 2l-1 -1q-4 -3 -13 -12l-18 -17l-19 -18 q-8 -8 -19.5 -7t-19 9t-6.5 19.5t9 18.5z" />
<glyph unicode="&#xc3;" horiz-adv-x="694" d="M597 210q69 5 140 16q-5 38 -8 86.5t-3.5 76.5t0 76.5t0.5 50.5v15l-37 -96zM575 154l-67 -164q-4 -10 -14.5 -14.5t-20.5 -0.5t-14.5 14.5t-0.5 20.5l57 141q-31 -1 -62 -1q-11 0 -19 8t-8 19t8 19t19 8q41 0 85 2l101 251q12 27 31.5 79t24.5 64l21 55q3 9 5 12 q6 11 17 13q15 4 26 -6q8 -7 12 -22q2 -8 3 -19q1 -18 2 -46v-30q0 -16 -0.5 -27.5t-0.5 -13.5q0 -4 -0.5 -51.5t0 -74.5t3 -73t8.5 -83l41 8q11 2 20.5 -4.5t11.5 -17.5t-4.5 -20.5t-17.5 -11.5l-41 -7q13 -53 34 -83q30 -45 79 -39q11 1 20 -6t10 -18t-6 -20t-18 -10 q-81 -9 -129 62q-28 40 -43 106q-89 -13 -173 -19zM662 737q21 32 31 42q15 17 31 23q26 11 48 -6q14 -10 19 -32l2 -10q4 -6 7 -10q6 7 12 21q5 10 15.5 14t20.5 -0.5t14 -15t0 -20.5q-18 -40 -43 -51q-40 -17 -72 34q-5 8 -8 23l-6 -6q-7 -7 -25 -36q-7 -9 -17.5 -11.5 t-20 4t-12 17t3.5 20.5z" />
<glyph unicode="&#xc4;" horiz-adv-x="694" d="M597 210q69 5 140 16q-5 38 -8 86.5t-3.5 76.5t0 76.5t0.5 50.5v15l-37 -96zM575 154l-67 -164q-4 -10 -14.5 -14.5t-20.5 -0.5t-14.5 14.5t-0.5 20.5l57 141q-31 -1 -62 -1q-11 0 -19 8t-8 19t8 19t19 8q41 0 85 2l101 251q12 27 31.5 79t24.5 64l21 55q3 9 5 12 q6 11 17 13q15 4 26 -6q8 -7 12 -22q2 -8 3 -19q1 -18 2 -46v-30q0 -16 -0.5 -27.5t-0.5 -13.5q0 -4 -0.5 -51.5t0 -74.5t3 -73t8.5 -83l41 8q11 2 20.5 -4.5t11.5 -17.5t-4.5 -20.5t-17.5 -11.5l-41 -7q13 -53 34 -83q30 -45 79 -39q11 1 20 -6t10 -18t-6 -20t-18 -10 q-81 -9 -129 62q-28 40 -43 106q-89 -13 -173 -19zM725 765q8 -8 8 -19t-8 -19t-19 -8t-19 8t-8 19t8 19t19 8t19 -8zM812 762q8 -8 8 -19t-8 -19t-19 -8t-19 8t-8 19t8 19t19 8t19 -8z" />
<glyph unicode="&#xc5;" horiz-adv-x="694" d="M750 681q21 11 31.5 27t9.5 29q-2 27 -50 25q-21 -1 -32 -12t-12 -26q-2 -33 31 -49q5 4 10.5 5.5t11.5 0.5zM597 210q69 5 140 16q-5 38 -8 86.5t-3.5 76.5t0 76.5t0.5 50.5v15l-37 -96zM575 154l-67 -164q-4 -10 -14.5 -14.5t-20.5 -0.5t-14.5 14.5t-0.5 20.5l57 141 q-31 -1 -62 -1q-11 0 -19 8t-8 19t8 19t19 8q41 0 85 2l101 251q12 27 31.5 79t24.5 64l10 26q-31 15 -47.5 43t-14.5 58q2 36 28 61.5t68 27.5q45 2 74 -18.5t32 -56.5q2 -30 -16 -59t-50 -47v-2q1 -18 2 -46v-30q0 -16 -0.5 -27.5t-0.5 -13.5q0 -4 -0.5 -51.5t0 -74.5 t3 -73t8.5 -83l41 8q11 2 20.5 -4.5t11.5 -17.5t-4.5 -20.5t-17.5 -11.5l-41 -7q13 -53 34 -83q30 -45 79 -39q11 1 20 -6t10 -18t-6 -20t-18 -10q-81 -9 -129 62q-28 40 -43 106q-89 -13 -173 -19z" />
<glyph unicode="&#xc6;" horiz-adv-x="617" d="M395 274q47 3 97 9q-2 31 -2.5 62.5t0 71.5t0.5 48v11q0 7 0.5 18.5t0.5 20.5l-38 -98zM372 219l-100 -247q-4 -10 -14.5 -14.5t-20.5 -0.5t-14.5 14.5t-0.5 20.5l91 224h-32q-11 0 -19 8t-8 19t8 19t19 8q27 0 54 1l68 168q12 27 31.5 79t24.5 64l21 55q3 9 5 12 q6 11 17 13q8 2 16 0q119 3 195 14q11 1 20 -5.5t10.5 -17.5t-5 -20t-17.5 -11q-73 -10 -177 -13q1 -21 1 -54q1 -23 0 -55.5t-1 -34.5q0 -151 1 -175q94 13 199 35q11 3 20.5 -3t12 -17t-3.5 -20.5t-17 -11.5q-109 -23 -206 -37q3 -15 6 -34q27 -149 125 -165 q18 -1 28 -1.5t31 3.5t33 7t33 9t32 8q10 3 20 -3t12.5 -16.5t-3.5 -20.5t-17 -12q-6 -2 -27.5 -8t-35 -9t-39 -8t-39.5 -4.5t-38 1.5q-134 24 -169 209q-3 18 -5 37q-65 -7 -125 -10z" />
<glyph unicode="&#xc7;" horiz-adv-x="589" d="M699 365q26 156 -3 220q-9 21 -23 26q-12 5 -31 -2q-51 -19 -105 -100q-52 -80 -73 -186q-23 -117 6 -187q29 -71 85 -89q22 -6 46 -5q6 2 11 1q51 6 104 46.5t98 115.5q6 9 16.5 12t20 -3t12.5 -16.5t-3 -20.5q-44 -74 -99 -121q-55 -46 -113 -61q13 -41 2 -73 q-14 -42 -76 -74q-9 -5 -20 -1.5t-16 13t-1.5 20.5t13.5 16q41 22 49 44q6 17 -6 47q-28 1 -54 9q-81 26 -117.5 116.5t-11.5 220.5q23 116 84.5 208.5t128.5 118.5q38 14 71 1q34 -13 52 -55q34 -78 7 -249q-2 -11 -11 -17.5t-20 -5t-17.5 10.5t-5.5 20z" />
<glyph unicode="&#xc8;" horiz-adv-x="596" d="M690 510q47 25 43 47q-1 8 -11 17.5t-29 16.5q-21 7 -45.5 7t-51 -7t-52 -27.5t-44.5 -50.5q-32 -52 1 -82q16 -14 74 -22q20 0 41 -5q2 0 3 -1q1 0 3 -1q5 -2 9 -7q10 -11 6 -24q-3 -12 -14 -18q-4 -2 -10 -3h-4q-4 0 -11 1q-4 1 -22 3l-4 1q-34 -2 -67 -23 q-32 -21 -56 -57q-29 -43 -30 -87q-2 -45 26 -79q62 -70 175 -45q91 20 190 90q10 6 21 4.5t17 -11t4.5 -20.5t-10.5 -17q-109 -77 -210 -99q-144 -32 -227 62q-30 33 -37.5 76t3 82t33.5 74q31 47 76 75q-8 5 -15 11q-24 22 -31 50.5t-1 52.5q7 24 21 47q24 40 57 66 q34 26 69 36t68.5 9.5t62.5 -10.5q30 -11 51 -30.5t25 -46.5q9 -59 -71 -103q-10 -5 -20.5 -2t-16 13t-2.5 20.5t13 16.5zM561 767q39 -13 95 -47q9 -5 12 -16t-2.5 -20.5t-16.5 -12.5t-21 3q-51 30 -85 41q-10 4 -15 14t-1.5 20.5t13.5 15.5t21 2z" />
<glyph unicode="&#xc9;" horiz-adv-x="596" d="M690 510q47 25 43 47q-1 8 -11 17.5t-29 16.5q-21 7 -45.5 7t-51 -7t-52 -27.5t-44.5 -50.5q-32 -52 1 -82q16 -14 74 -22q20 0 41 -5q2 0 3 -1q1 0 3 -1q5 -2 9 -7q10 -11 6 -24q-3 -12 -14 -18q-4 -2 -10 -3h-4q-4 0 -11 1q-4 1 -22 3l-4 1q-34 -2 -67 -23 q-32 -21 -56 -57q-29 -43 -30 -87q-2 -45 26 -79q62 -70 175 -45q91 20 190 90q10 6 21 4.5t17 -11t4.5 -20.5t-10.5 -17q-109 -77 -210 -99q-144 -32 -227 62q-30 33 -37.5 76t3 82t33.5 74q31 47 76 75q-8 5 -15 11q-24 22 -31 50.5t-1 52.5q7 24 21 47q24 40 57 66 q34 26 69 36t68.5 9.5t62.5 -10.5q30 -11 51 -30.5t25 -46.5q9 -59 -71 -103q-10 -5 -20.5 -2t-16 13t-2.5 20.5t13 16.5zM549 716q39 27 84 62q9 7 20.5 5.5t18 -10t5 -20t-9.5 -17.5q-47 -37 -88 -64q-9 -7 -20 -4.5t-17.5 11.5t-4 20t11.5 17z" />
<glyph unicode="&#xca;" horiz-adv-x="596" d="M690 510q47 25 43 47q-1 8 -11 17.5t-29 16.5q-21 7 -45.5 7t-51 -7t-52 -27.5t-44.5 -50.5q-32 -52 1 -82q16 -14 74 -22q20 0 41 -5q2 0 3 -1q1 0 3 -1q5 -2 9 -7q10 -11 6 -24q-3 -12 -14 -18q-4 -2 -10 -3h-4q-4 0 -11 1q-4 1 -22 3l-4 1q-34 -2 -67 -23 q-32 -21 -56 -57q-29 -43 -30 -87q-2 -45 26 -79q62 -70 175 -45q91 20 190 90q10 6 21 4.5t17 -11t4.5 -20.5t-10.5 -17q-109 -77 -210 -99q-144 -32 -227 62q-30 33 -37.5 76t3 82t33.5 74q31 47 76 75q-8 5 -15 11q-24 22 -31 50.5t-1 52.5q7 24 21 47q24 40 57 66 q34 26 69 36t68.5 9.5t62.5 -10.5q30 -11 51 -30.5t25 -46.5q9 -59 -71 -103q-10 -5 -20.5 -2t-16 13t-2.5 20.5t13 16.5zM533 718q37 43 50 55q28 26 53 24t48 -33q12 -16 42 -65q6 -10 3 -20.5t-12.5 -16.5t-20 -3t-16.5 12q-28 47 -39 60q-5 8 -10 11q-4 -2 -11 -9 q-11 -10 -47 -51q-7 -8 -18 -9t-19.5 6.5t-9.5 18.5t7 20z" />
<glyph unicode="&#xcb;" horiz-adv-x="596" d="M690 510q47 25 43 47q-1 8 -11 17.5t-29 16.5q-21 7 -45.5 7t-51 -7t-52 -27.5t-44.5 -50.5q-32 -52 1 -82q16 -14 74 -22q20 0 41 -5q2 0 3 -1q1 0 3 -1q5 -2 9 -7q10 -11 6 -24q-3 -12 -14 -18q-4 -2 -10 -3h-4q-4 0 -11 1q-4 1 -22 3l-4 1q-34 -2 -67 -23 q-32 -21 -56 -57q-29 -43 -30 -87q-2 -45 26 -79q62 -70 175 -45q91 20 190 90q10 6 21 4.5t17 -11t4.5 -20.5t-10.5 -17q-109 -77 -210 -99q-144 -32 -227 62q-30 33 -37.5 76t3 82t33.5 74q31 47 76 75q-8 5 -15 11q-24 22 -31 50.5t-1 52.5q7 24 21 47q24 40 57 66 q34 26 69 36t68.5 9.5t62.5 -10.5q30 -11 51 -30.5t25 -46.5q9 -59 -71 -103q-10 -5 -20.5 -2t-16 13t-2.5 20.5t13 16.5zM608 727q8 -8 8 -19t-8 -19t-19 -8t-19 8t-8 19t8 19t19 8t19 -8zM707 729q8 -8 8 -19t-8 -19t-19 -8t-19 8t-8 19t8 19t19 8t19 -8z" />
<glyph unicode="&#xcc;" horiz-adv-x="463" d="M431 268v1q-3 37 6.5 104.5t29.5 127.5q25 75 61 112q50 52 112 32q52 -17 67 -83q9 -37 5 -92q-3 -41 -19 -116t-41 -146q-29 -86 -62 -139q-44 -70 -93 -80q-53 -11 -90 33q-26 30 -40 85q-11 41 -14 86q-1 18 -1 31q1 8 2 13q1 4 2 7q4 9 11 13.5t21 6.5q8 2 21 3 q10 0 22 1zM406 212q0 -7 1 -16q2 -39 12 -75q11 -43 29 -65q17 -19 37 -15q28 6 59 56q30 48 57 129q24 68 39.5 139t17.5 109q3 46 -4 76q-8 36 -30 43q-31 10 -57 -17q-28 -29 -49 -92q-18 -55 -27 -117t-6 -94v-3q69 2 74 3q12 1 20.5 -6t9.5 -18.5t-6 -20t-18 -9.5 q-8 -1 -68 -2q8 -23 35 -81q4 -10 0 -20.5t-14 -15t-20.5 -0.5t-15.5 14q-32 69 -41 101q-16 -1 -27 -2q-5 0 -8 -1zM591 749q9 -3 17 -6.5t17 -8.5l15 -8q5 -3 16 -10l13 -9q3 -2 14.5 -10.5t13.5 -9.5q9 -6 10.5 -17t-4.5 -20.5t-17 -11t-21 4.5q-63 45 -92 56 q-11 4 -15.5 14t-0.5 20.5t14 15t20 0.5z" />
<glyph unicode="&#xcd;" horiz-adv-x="463" d="M431 268v1q-3 37 6.5 104.5t29.5 127.5q25 75 61 112q50 52 112 32q52 -17 67 -83q9 -37 5 -92q-3 -41 -19 -116t-41 -146q-29 -86 -62 -139q-44 -70 -93 -80q-53 -11 -90 33q-26 30 -40 85q-11 41 -14 86q-1 18 -1 31q1 8 2 13q1 4 2 7q4 9 11 13.5t21 6.5q8 2 21 3 q10 0 22 1zM406 212q0 -7 1 -16q2 -39 12 -75q11 -43 29 -65q17 -19 37 -15q28 6 59 56q30 48 57 129q24 68 39.5 139t17.5 109q3 46 -4 76q-8 36 -30 43q-31 10 -57 -17q-28 -29 -49 -92q-18 -55 -27 -117t-6 -94v-3q69 2 74 3q12 1 20.5 -6t9.5 -18.5t-6 -20t-18 -9.5 q-8 -1 -68 -2q8 -23 35 -81q4 -10 0 -20.5t-14 -15t-20.5 -0.5t-15.5 14q-32 69 -41 101q-16 -1 -27 -2q-5 0 -8 -1zM541 696q19 13 51 37.5t42 31.5q9 6 20 4.5t17.5 -10.5t5 -20t-10.5 -18q-10 -7 -42 -31l-51 -38q-10 -7 -21 -5t-17.5 11.5t-4.5 20.5t11 17z" />
<glyph unicode="&#xce;" horiz-adv-x="467" d="M431 268v1q-3 37 6.5 104.5t29.5 127.5q25 75 61 112q50 52 112 32q52 -17 67 -83q9 -37 5 -92q-3 -41 -19 -116t-41 -146q-29 -86 -62 -139q-44 -70 -93 -80q-53 -11 -90 33q-26 30 -40 85q-11 41 -14 86q-1 18 -1 31q1 8 2 13q1 4 2 7q4 9 11 13.5t21 6.5q8 2 21 3 q10 0 22 1zM406 212q0 -7 1 -16q2 -39 12 -75q11 -43 29 -65q17 -19 37 -15q28 6 59 56q30 48 57 129q24 68 39.5 139t17.5 109q3 46 -4 76q-8 36 -30 43q-31 10 -57 -17q-28 -29 -49 -92q-18 -55 -27 -117t-6 -94v-3q69 2 74 3q12 1 20.5 -6t9.5 -18.5t-6 -20t-18 -9.5 q-8 -1 -68 -2q8 -23 35 -81q4 -10 0 -20.5t-14 -15t-20.5 -0.5t-15.5 14q-32 69 -41 101q-16 -1 -27 -2q-5 0 -8 -1zM626 744q-2 3 -3 4l-5 -2q-2 -2 8 -2zM535 710q18 18 52 57q11 13 18 19q13 11 27 12q17 1 31 -14q6 -7 14 -21q3 -7 15 -30l22 -41q5 -10 2 -20.5t-13 -16 t-20.5 -2.5t-16.5 13l-35 69l-3 -3q-35 -40 -55 -60q-8 -8 -19 -8t-19 8t-8 19t8 19z" />
<glyph unicode="&#xcf;" horiz-adv-x="463" d="M431 268v1q-3 37 6.5 104.5t29.5 127.5q25 75 61 112q50 52 112 32q52 -17 67 -83q9 -37 5 -92q-3 -41 -19 -116t-41 -146q-29 -86 -62 -139q-44 -70 -93 -80q-53 -11 -90 33q-26 30 -40 85q-11 41 -14 86q-1 18 -1 31q1 8 2 13q1 4 2 7q4 9 11 13.5t21 6.5q8 2 21 3 q10 0 22 1zM406 212q0 -7 1 -16q2 -39 12 -75q11 -43 29 -65q17 -19 37 -15q28 6 59 56q30 48 57 129q24 68 39.5 139t17.5 109q3 46 -4 76q-8 36 -30 43q-31 10 -57 -17q-28 -29 -49 -92q-18 -55 -27 -117t-6 -94v-3q69 2 74 3q12 1 20.5 -6t9.5 -18.5t-6 -20t-18 -9.5 q-8 -1 -68 -2q8 -23 35 -81q4 -10 0 -20.5t-14 -15t-20.5 -0.5t-15.5 14q-32 69 -41 101q-16 -1 -27 -2q-5 0 -8 -1zM604 730q8 -8 8 -19t-8 -19t-19 -8t-19 8t-8 19t8 19t19 8t19 -8zM700 727q8 -8 8 -19t-8 -19t-19 -8t-19 8t-8 19t8 19t19 8t19 -8z" />
<glyph unicode="&#xd0;" horiz-adv-x="675" d="M484 87l9 51q-7 -2 -13 -4q-25 -9 -32 -18q-2 -4 5 -13q8 -10 31 -16zM795 152q53 37 78.5 90t22.5 111q-4 75 -51 141.5t-131 102.5q-42 19 -89 21q-14 -100 -39 -247q26 -1 66 -3q12 -1 19.5 -9t6.5 -19.5t-9 -19t-19 -6.5q-45 2 -73 3l-18 -111q8 1 15 1 q117 5 221 -55zM738 121q-79 36 -162 32q-10 0 -27 -3l-11 -68q16 1 38 3q89 9 150 31q6 3 12 5zM470 371q29 1 62 1q24 146 38 245q-23 -2 -53 -8q-11 -2 -20.5 4.5t-11.5 17.5t4.5 20.5t17.5 11.5q41 7 71 9l2 14q2 11 11 17.5t20 5t17.5 -10.5t5.5 -20l-1 -6 q53 -4 103 -25q97 -42 153.5 -121.5t60.5 -170.5q3 -67 -24.5 -128.5t-83.5 -106.5q32 -25 55 -56q6 -9 4.5 -20t-10.5 -17.5t-20 -5t-18 10.5q-23 31 -58 56q-23 -12 -49 -22q-69 -26 -165 -35q-27 -3 -51 -3l-1 -7q-2 -11 -11 -17.5t-20 -5t-17.5 10.5t-5.5 20l1 5 q-46 9 -67 37q-30 40 -5 76q17 23 57 38q18 7 41 12l21 121q-27 0 -51 -1q-11 -1 -19 7t-9 19t7 19t19 9z" />
<glyph unicode="&#xd1;" horiz-adv-x="703" d="M386 588q48 58 90 78q48 22 85 -2q48 -31 56 -128q28 42 56 72q53 54 98 58q63 4 91 -77q30 -86 -3 -265l-18 -86q-12 -62 -18 -100q-6 -36 -7 -68q-3 -72 21 -109q25 -38 83 -24q11 3 20.5 -3t12.5 -16.5t-3 -20t-16 -12.5q-96 -24 -142 47q-33 51 -30 140q1 33 7 74 q7 40 20 103.5t17 84.5q31 166 6 237q-7 18 -14.5 28t-12 11.5t-10.5 1.5q-25 -2 -63 -42q-33 -34 -62 -82.5t-39 -78.5q-9 -65 -33 -143t-45 -130l-55 -131q-5 -10 -15.5 -14t-20.5 0.5t-14 15t0 20.5l53 125q21 50 43.5 122t31.5 131q0 5 1 9q0 3 1 7q5 32 6 63 q2 56 -7 90q-10 35 -25 45q-12 8 -33 -2q-31 -15 -71 -63q-7 -9 -18.5 -10t-20 6t-9.5 18.5t6 19.5zM650 733q30 39 62 43q22 2 51 -16q18 -12 25 -13q12 -1 31 14q9 7 20 6t18 -10t6 -20t-10 -18q-37 -29 -71 -25q-19 2 -48 20q-13 8 -16 8q-9 -1 -26 -23q-6 -8 -17.5 -9.5 t-20 5t-10 18t5.5 20.5z" />
<glyph unicode="&#xd2;" horiz-adv-x="648" d="M800 423q-74 -12 -148 14q-87 31 -118 97q-44 -75 -68 -172q-29 -116 -14 -201q16 -88 78 -112q74 -28 143 32q67 59 103 173q27 86 24 169zM794 477q-18 96 -83 132q-36 20 -86 18q-24 -7 -51 -36l2 -14q14 -61 94 -89q62 -22 124 -11zM642 681q56 -3 95 -24 q83 -46 108 -159l27 20q9 6 20 4.5t17.5 -10.5t5 -20t-10.5 -18q-39 -28 -51 -34q7 -99 -26 -203q-41 -128 -119 -196q-92 -82 -198 -42q-90 34 -111 153q-17 96 14 223q30 119 86 205q12 18 24 33q4 19 16 33q22 26 65 33q6 1 12 1q8 2 16 2q5 0 10 -1zM621 777l88 -41 q10 -5 14 -15.5t-0.5 -20.5t-15 -14t-20.5 0l-88 41q-10 5 -14 15.5t0.5 20.5t15 14t20.5 0z" />
<glyph unicode="&#xd3;" horiz-adv-x="648" d="M800 423q-74 -12 -148 14q-87 31 -118 97q-44 -75 -68 -172q-29 -116 -14 -201q16 -88 78 -112q74 -28 143 32q67 59 103 173q27 86 24 169zM794 477q-18 96 -83 132q-36 20 -86 18q-24 -7 -51 -36l2 -14q14 -61 94 -89q62 -22 124 -11zM642 681q56 -3 95 -24 q83 -46 108 -159l27 20q9 6 20 4.5t17.5 -10.5t5 -20t-10.5 -18q-39 -28 -51 -34q7 -99 -26 -203q-41 -128 -119 -196q-92 -82 -198 -42q-90 34 -111 153q-17 96 14 223q30 119 86 205q12 18 24 33q4 19 16 33q22 26 65 33q6 1 12 1q8 2 16 2q5 0 10 -1zM613 757 q32 13 79 40q10 6 21 3t16.5 -12.5t2.5 -20.5t-12 -16q-52 -30 -87 -44q-11 -4 -21 0.5t-14 15t0.5 20.5t14.5 14z" />
<glyph unicode="&#xd4;" horiz-adv-x="648" d="M800 423q-74 -12 -148 14q-87 31 -118 97q-44 -75 -68 -172q-29 -116 -14 -201q16 -88 78 -112q74 -28 143 32q67 59 103 173q27 86 24 169zM794 477q-18 96 -83 132q-36 20 -86 18q-24 -7 -51 -36l2 -14q14 -61 94 -89q62 -22 124 -11zM642 681q56 -3 95 -24 q83 -46 108 -159l27 20q9 6 20 4.5t17.5 -10.5t5 -20t-10.5 -18q-39 -28 -51 -34q7 -99 -26 -203q-41 -128 -119 -196q-92 -82 -198 -42q-90 34 -111 153q-17 96 14 223q30 119 86 205q12 18 24 33q4 19 16 33q22 26 65 33q6 1 12 1q8 2 16 2q5 0 10 -1zM556 738 q40 41 55 53q29 22 55 12q16 -6 40 -34q31 -36 48 -53q8 -8 8 -19t-8 -19t-19 -8t-19 8q-19 19 -51 56q-11 13 -16 17q-2 -1 -5 -3q-12 -9 -48 -48q-8 -8 -19.5 -8t-19.5 7.5t-8 19t7 19.5z" />
<glyph unicode="&#xd5;" horiz-adv-x="648" d="M800 423q-74 -12 -148 14q-87 31 -118 97q-44 -75 -68 -172q-29 -116 -14 -201q16 -88 78 -112q74 -28 143 32q67 59 103 173q27 86 24 169zM794 477q-18 96 -83 132q-36 20 -86 18q-24 -7 -51 -36l2 -14q14 -61 94 -89q62 -22 124 -11zM642 681q56 -3 95 -24 q83 -46 108 -159l27 20q9 6 20 4.5t17.5 -10.5t5 -20t-10.5 -18q-39 -28 -51 -34q7 -99 -26 -203q-41 -128 -119 -196q-92 -82 -198 -42q-90 34 -111 153q-17 96 14 223q30 119 86 205q12 18 24 33q4 19 16 33q22 26 65 33q6 1 12 1q8 2 16 2q5 0 10 -1zM526 740 q31 42 60 50q28 7 57 -14l17 -14q11 -9 15 -11.5t11 -4.5t15 0q4 2 16 11q1 0 25 19q9 7 20 6t18 -10t6 -20t-10 -18q-25 -20 -26 -21q-25 -18 -39 -21q-12 -3 -25 -0.5t-21.5 5t-18.5 8.5t-15 11l-12 10q-7 5 -8 6q-8 6 -11 5q-11 -2 -30 -29q-7 -9 -18 -10.5t-20 5 t-10.5 17.5t4.5 20z" />
<glyph unicode="&#xd6;" horiz-adv-x="648" d="M800 423q-74 -12 -148 14q-87 31 -118 97q-44 -75 -68 -172q-29 -116 -14 -201q16 -88 78 -112q74 -28 143 32q67 59 103 173q27 86 24 169zM794 477q-18 96 -83 132q-36 20 -86 18q-24 -7 -51 -36l2 -14q14 -61 94 -89q62 -22 124 -11zM642 681q56 -3 95 -24 q83 -46 108 -159l27 20q9 6 20 4.5t17.5 -10.5t5 -20t-10.5 -18q-39 -28 -51 -34q7 -99 -26 -203q-41 -128 -119 -196q-92 -82 -198 -42q-90 34 -111 153q-17 96 14 223q30 119 86 205q12 18 24 33q4 19 16 33q22 26 65 33q6 1 12 1q8 2 16 2q5 0 10 -1zM603 751q8 -8 8 -19 t-8 -19t-19 -8t-19 8t-8 19t8 19t19 8t19 -8zM714 748q8 -8 8 -19t-8 -19t-19 -8t-19 8t-8 19t8 19t19 8t19 -8z" />
<glyph unicode="&#xd7;" horiz-adv-x="356" d="M469 246q-34 37 -56 65q-6 9 -4.5 20t10.5 17.5t20 5t18 -10.5q18 -24 47 -56l36 46q7 9 18 10.5t20 -5t10.5 -17.5t-4.5 -20l-42 -54q38 -41 59 -67q7 -9 5.5 -20t-10 -18t-19.5 -5.5t-18 9.5q-20 25 -53 61q-31 -34 -65 -64q-9 -8 -20 -7t-18.5 9.5t-6.5 19.5t9 18 q32 29 64 63z" />
<glyph unicode="&#xd8;" horiz-adv-x="648" d="M663 485l65 100q-15 15 -32 24q-36 20 -86 18q-24 -7 -51 -36l2 -14q14 -61 94 -89q4 -1 8 -3zM720 475q31 -3 59 2q-6 33 -18 60zM688 424l-215 -346q17 -20 42 -29q74 -28 143 32q67 59 103 173q27 86 24 169q-47 -7 -97 1zM633 438q-83 31 -114 96q-44 -75 -68 -172 q-29 -116 -14 -201q3 -15 7 -28zM444 31l-46 -72q-6 -9 -17 -11.5t-20.5 3.5t-12 17t3.5 21l57 88q-17 33 -25 75q-17 96 14 223q30 119 86 205q12 18 24 33q4 19 16 33q22 26 65 33q6 1 12 1q8 2 16 2q5 0 10 -1q56 -3 95 -24q19 -11 36 -26l43 63q6 10 17 12t20.5 -4.5 t11.5 -17.5t-5 -20l-51 -76q25 -38 36 -90l27 20q9 6 20 4.5t17.5 -10.5t5 -20t-10.5 -18q-39 -28 -51 -34q7 -99 -26 -203q-41 -128 -119 -196q-92 -82 -198 -42q-29 11 -51 32z" />
<glyph unicode="&#xd9;" horiz-adv-x="570" d="M796 524l-10 -50q-7 -34 -10 -58l-8 -56q-5 -33 -7 -61q-8 -98 4 -163q12 -72 49 -100q8 -6 9.5 -17.5t-5 -20t-18 -10t-20.5 5.5q-52 40 -69 132q-9 55 -7 128q-35 -88 -71 -145q-54 -86 -110 -104q-76 -23 -122 40q-33 45 -36 112q-4 103 27 269.5t75 249.5 q6 10 16.5 13t20.5 -2.5t13 -16t-2 -20.5q-41 -75 -71 -234q-29 -160 -25 -257q2 -50 25.5 -82t62.5 -20q37 11 80 81q39 61 79 168q62 165 97 328q2 11 11.5 17t20.5 3.5t17 -12t3 -20.5v-2q0 -4 -1 -9t-8 -38t-10 -49zM653 781q29 -26 74 -63q9 -7 10 -18t-6 -20t-18 -10 t-20 6q-47 38 -76 65q-8 8 -9 19t7 19t19 9t19 -7z" />
<glyph unicode="&#xda;" horiz-adv-x="570" d="M796 524l-10 -50q-7 -34 -10 -58l-8 -56q-5 -33 -7 -61q-8 -98 4 -163q12 -72 49 -100q8 -6 9.5 -17.5t-5 -20t-18 -10t-20.5 5.5q-52 40 -69 132q-9 55 -7 128q-35 -88 -71 -145q-54 -86 -110 -104q-76 -23 -122 40q-33 45 -36 112q-4 103 27 269.5t75 249.5 q6 10 16.5 13t20.5 -2.5t13 -16t-2 -20.5q-41 -75 -71 -234q-29 -160 -25 -257q2 -50 25.5 -82t62.5 -20q37 11 80 81q39 61 79 168q62 165 97 328q2 11 11.5 17t20.5 3.5t17 -12t3 -20.5v-2q0 -4 -1 -9t-8 -38t-10 -49zM618 720q15 11 40 34q26 23 39 33q9 7 20 6t18 -10 t6 -20t-10 -18q-14 -11 -39 -33q-26 -23 -40 -34q-9 -7 -20 -5.5t-18 10t-5.5 19.5t9.5 18z" />
<glyph unicode="&#xdb;" horiz-adv-x="570" d="M796 524l-10 -50q-7 -34 -10 -58l-8 -56q-5 -33 -7 -61q-8 -98 4 -163q12 -72 49 -100q8 -6 9.5 -17.5t-5 -20t-18 -10t-20.5 5.5q-52 40 -69 132q-9 55 -7 128q-35 -88 -71 -145q-54 -86 -110 -104q-76 -23 -122 40q-33 45 -36 112q-4 103 27 269.5t75 249.5 q6 10 16.5 13t20.5 -2.5t13 -16t-2 -20.5q-41 -75 -71 -234q-29 -160 -25 -257q2 -50 25.5 -82t62.5 -20q37 11 80 81q39 61 79 168q62 165 97 328q2 11 11.5 17t20.5 3.5t17 -12t3 -20.5v-2q0 -4 -1 -9t-8 -38t-10 -49zM571 731q32 43 38 50q23 28 43 35q32 11 58 -17 q20 -20 40 -67q4 -11 0 -21t-14.5 -14.5t-20.5 -0.5t-15 14q-16 39 -29 52l-2 2q-7 -3 -18 -17q-5 -6 -36 -48q-7 -9 -18 -10.5t-20 5t-10.5 17.5t4.5 20z" />
<glyph unicode="&#xdc;" horiz-adv-x="570" d="M796 524l-10 -50q-7 -34 -10 -58l-8 -56q-5 -33 -7 -61q-8 -98 4 -163q12 -72 49 -100q8 -6 9.5 -17.5t-5 -20t-18 -10t-20.5 5.5q-52 40 -69 132q-9 55 -7 128q-35 -88 -71 -145q-54 -86 -110 -104q-76 -23 -122 40q-33 45 -36 112q-4 103 27 269.5t75 249.5 q6 10 16.5 13t20.5 -2.5t13 -16t-2 -20.5q-41 -75 -71 -234q-29 -160 -25 -257q2 -50 25.5 -82t62.5 -20q37 11 80 81q39 61 79 168q62 165 97 328q2 11 11.5 17t20.5 3.5t17 -12t3 -20.5v-2q0 -4 -1 -9t-8 -38t-10 -49zM608 748q8 -8 8 -19t-8 -19t-19 -8t-19 8t-8 19t8 19 t19 8t19 -8zM719 744q8 -8 8 -19t-8 -19t-19 -8t-19 8t-8 19t8 19t19 8t19 -8z" />
<glyph unicode="&#xdd;" horiz-adv-x="545" d="M493 569q-1 -9 -5 -27l-12 -46q-8 -29 -13 -52q-27 -109 -39 -191q-16 -110 -3 -164q6 -27 17 -37q10 -9 30 -6q70 11 141 144q37 69 90 219q9 27 39 150q1 6 5 33q2 11 3 14t1 5q2 5 6 9q8 9 20 9q15 0 23 -12l4 -11v-4v-4q-1 -43 -8.5 -90t-20.5 -108.5t-17 -84.5 q-8 -41 -34 -224q-1 -3 -5 -31.5t-5 -37t-5.5 -32.5t-8 -37.5t-9.5 -31.5q-6 -17 -13 -33q-52 -112 -176 -123q-76 -6 -135 20q-10 5 -14 15.5t0.5 20.5t15 14t20.5 0q47 -21 109 -16q93 8 131 91q5 11 9.5 23t7.5 27l6 24q3 11 6 29.5t4 26.5t4 30l4 29l17 120 q-13 -29 -26 -54q-83 -157 -181 -173q-44 -7 -74 19q-24 22 -34 66q-15 65 2 184q12 82 40 196l13 51l11 46l7 25q2 11 11 17.5t20 4t17.5 -11.5t3.5 -20zM569 645l82 66q8 7 19.5 6t18.5 -9.5t6 -20t-10 -18.5l-82 -66q-9 -7 -20 -6t-18 10t-6 20t10 18z" />
<glyph unicode="&#xde;" horiz-adv-x="519" d="M428 89l-19 -151q-1 -11 -10 -18t-20 -6t-18 10t-6 20q7 58 29 216.5t32.5 268.5t10.5 215q0 11 8 19t19 8t19 -8t8 -19q0 -94 -10 -206q67 58 132 79t108 -3q52 -29 59 -114q10 -114 -116 -211q-50 -38 -108 -65q-59 -26 -109 -35h-9zM463 354q-9 -75 -27 -210 q43 9 93 32t92 55q102 79 95 165q-5 56 -31 71q-23 13 -65 -1q-41 -14 -85 -46t-68 -62z" />
<glyph unicode="&#xdf;" horiz-adv-x="552" d="M389 -32q2 58 2 129.5t-1 134t8.5 135.5t29.5 135q27 79 68 126q62 71 144 50q64 -16 70 -79q4 -41 -22 -105q-10 -26 -45 -95q-11 -23 -15 -34l-4 -10q2 -7 27 -20q3 -2 36 -19q25 -12 41 -23q51 -33 67 -77q21 -57 -12 -134q-18 -41 -47 -70t-60 -40.5t-63.5 -14.5 t-58.5 7q-28 9 -48.5 28t-23.5 47q-5 57 73 103q10 6 21 3t16.5 -12.5t2.5 -20.5t-12 -16q-49 -29 -47 -52q2 -18 34 -28q17 -7 40 -5t45 10.5t43.5 30t34.5 52.5q25 57 12 93q-10 28 -47 51q-13 9 -36 20l-37 19q-50 28 -55 61q-2 14 7 37l18 38q34 68 43 91q21 52 18 80 q-2 25 -30 32q-49 13 -90 -34q-33 -38 -56 -108q-20 -58 -28.5 -126t-7.5 -127.5t1 -130t-2 -136.5q-1 -11 -9 -18.5t-19.5 -6.5t-19 9t-6.5 20z" />
<glyph unicode="&#xe0;" horiz-adv-x="372" d="M420 276q1 0 2 -1q8 -8 9 -20q1 -9 -3 -21q0 -2 -5 -12l-1 -5q-6 -32 -6 -33q-2 -17 -3 -34q-2 -19 -2 -22q0 -40 8 -64q11 -27 33 -33q20 -5 37 10q18 16 36 55q13 29 27 77q19 60 21 65q4 11 14 15.5t20.5 0.5t15 -14t0.5 -20q-1 -4 -19 -63q-15 -50 -30 -84 q-22 -49 -50 -73q-39 -34 -86 -21q-50 14 -69 67q-3 7 -5 16q-8 -14 -17 -25q-31 -42 -65 -52q-47 -14 -85 31q-28 33 -25 101q3 58 27 118q26 65 65 96q53 40 110 9q32 -19 41 -39q3 -9 5 -22v-3zM369 247q-1 7 -3 25q-1 7 -2 9q1 2 -16 11q-26 15 -51 -4q-28 -22 -48 -73 q-21 -50 -23 -101q-2 -47 13 -64t28 -13q16 5 37 33q19 25 35 60q16 34 22 55q1 4 2 7v7q3 26 6 42q0 3 1 5q0 1 -1 1zM313 494q62 -42 85 -55q10 -6 13 -16.5t-2.5 -20.5t-16 -13t-20.5 2q-26 15 -89 59q-10 6 -12 17t4.5 20.5t17.5 11.5t20 -5z" />
<glyph unicode="&#xe1;" horiz-adv-x="372" d="M420 276q1 0 2 -1q8 -8 9 -20q1 -9 -3 -21q0 -2 -5 -12l-1 -5q-6 -32 -6 -33q-2 -17 -3 -34q-2 -19 -2 -22q0 -40 8 -64q11 -27 33 -33q20 -5 37 10q18 16 36 55q13 29 27 77q19 60 21 65q4 11 14 15.5t20.5 0.5t15 -14t0.5 -20q-1 -4 -19 -63q-15 -50 -30 -84 q-22 -49 -50 -73q-39 -34 -86 -21q-50 14 -69 67q-3 7 -5 16q-8 -14 -17 -25q-31 -42 -65 -52q-47 -14 -85 31q-28 33 -25 101q3 58 27 118q26 65 65 96q53 40 110 9q32 -19 41 -39q3 -9 5 -22v-3zM369 247q-1 7 -3 25q-1 7 -2 9q1 2 -16 11q-26 15 -51 -4q-28 -22 -48 -73 q-21 -50 -23 -101q-2 -47 13 -64t28 -13q16 5 37 33q19 25 35 60q16 34 22 55q1 4 2 7v7q3 26 6 42q0 3 1 5q0 1 -1 1zM279 432q21 16 56 42q38 27 44 31q9 6 20 4.5t17.5 -10.5t5 -20t-10.5 -18q-6 -4 -42 -30q-34 -24 -56 -41q-9 -7 -20 -6t-18 10t-6 20t10 18z" />
<glyph unicode="&#xe2;" horiz-adv-x="372" d="M420 276q1 0 2 -1q8 -8 9 -20q1 -9 -3 -21q0 -2 -5 -12l-1 -5q-6 -32 -6 -33q-2 -17 -3 -34q-2 -19 -2 -22q0 -40 8 -64q11 -27 33 -33q20 -5 37 10q18 16 36 55q13 29 27 77q19 60 21 65q4 11 14 15.5t20.5 0.5t15 -14t0.5 -20q-1 -4 -19 -63q-15 -50 -30 -84 q-22 -49 -50 -73q-39 -34 -86 -21q-50 14 -69 67q-3 7 -5 16q-8 -14 -17 -25q-31 -42 -65 -52q-47 -14 -85 31q-28 33 -25 101q3 58 27 118q26 65 65 96q53 40 110 9q32 -19 41 -39q3 -9 5 -22v-3zM369 247q-1 7 -3 25q-1 7 -2 9q1 2 -16 11q-26 15 -51 -4q-28 -22 -48 -73 q-21 -50 -23 -101q-2 -47 13 -64t28 -13q16 5 37 33q19 25 35 60q16 34 22 55q1 4 2 7v7q3 26 6 42q0 3 1 5q0 1 -1 1zM229 445q17 16 53 54q11 12 18 18q13 11 27 11q17 1 30 -13q7 -7 15 -22q4 -6 17 -29l22 -41q6 -9 3 -20t-12.5 -16.5t-20.5 -2.5t-16 13l-22 39l-17 30 l-1 1l-4 -4q-36 -40 -54 -58q-8 -7 -19.5 -7t-19 8t-7.5 19.5t8 19.5z" />
<glyph unicode="&#xe3;" horiz-adv-x="372" d="M420 276q1 0 2 -1q8 -8 9 -20q1 -9 -3 -21q0 -2 -5 -12l-1 -5q-6 -32 -6 -33q-2 -17 -3 -34q-2 -19 -2 -22q0 -40 8 -64q11 -27 33 -33q20 -5 37 10q18 16 36 55q13 29 27 77q19 60 21 65q4 11 14 15.5t20.5 0.5t15 -14t0.5 -20q-1 -4 -19 -63q-15 -50 -30 -84 q-22 -49 -50 -73q-39 -34 -86 -21q-50 14 -69 67q-3 7 -5 16q-8 -14 -17 -25q-31 -42 -65 -52q-47 -14 -85 31q-28 33 -25 101q3 58 27 118q26 65 65 96q53 40 110 9q32 -19 41 -39q3 -9 5 -22v-3zM369 247q-1 7 -3 25q-1 7 -2 9q1 2 -16 11q-26 15 -51 -4q-28 -22 -48 -73 q-21 -50 -23 -101q-2 -47 13 -64t28 -13q16 5 37 33q19 25 35 60q16 34 22 55q1 4 2 7v7q3 26 6 42q0 3 1 5q0 1 -1 1zM236 448q16 29 31 42q19 18 41 15q17 -3 32 -18q5 -5 17 -21l13 -15q9 3 31 37q6 10 17 12.5t20.5 -3.5t12 -17t-3.5 -20q-39 -63 -77 -63q-28 0 -56 36 q-9 13 -12 16q-8 -8 -20 -27q-5 -10 -16 -13t-20.5 2.5t-12.5 16.5t3 20z" />
<glyph unicode="&#xe4;" horiz-adv-x="372" d="M420 276q1 0 2 -1q8 -8 9 -20q1 -9 -3 -21q0 -2 -5 -12l-1 -5q-6 -32 -6 -33q-2 -17 -3 -34q-2 -19 -2 -22q0 -40 8 -64q11 -27 33 -33q20 -5 37 10q18 16 36 55q13 29 27 77q19 60 21 65q4 11 14 15.5t20.5 0.5t15 -14t0.5 -20q-1 -4 -19 -63q-15 -50 -30 -84 q-22 -49 -50 -73q-39 -34 -86 -21q-50 14 -69 67q-3 7 -5 16q-8 -14 -17 -25q-31 -42 -65 -52q-47 -14 -85 31q-28 33 -25 101q3 58 27 118q26 65 65 96q53 40 110 9q32 -19 41 -39q3 -9 5 -22v-3zM369 247q-1 7 -3 25q-1 7 -2 9q1 2 -16 11q-26 15 -51 -4q-28 -22 -48 -73 q-21 -50 -23 -101q-2 -47 13 -64t28 -13q16 5 37 33q19 25 35 60q16 34 22 55q1 4 2 7v7q3 26 6 42q0 3 1 5q0 1 -1 1zM301 457q8 -8 8 -19t-8 -19t-19 -8t-19 8t-8 19t8 19t19 8t19 -8zM390 452q8 -8 8 -19t-8 -19t-19 -8t-19 8t-8 19t8 19t19 8t19 -8z" />
<glyph unicode="&#xe5;" horiz-adv-x="372" d="M420 276q1 0 2 -1q8 -8 9 -20q1 -9 -3 -21q0 -2 -5 -12l-1 -5q-6 -32 -6 -33q-2 -17 -3 -34q-2 -19 -2 -22q0 -40 8 -64q11 -27 33 -33q20 -5 37 10q18 16 36 55q13 29 27 77q19 60 21 65q4 11 14 15.5t20.5 0.5t15 -14t0.5 -20q-1 -4 -19 -63q-15 -50 -30 -84 q-22 -49 -50 -73q-39 -34 -86 -21q-50 14 -69 67q-3 7 -5 16q-8 -14 -17 -25q-31 -42 -65 -52q-47 -14 -85 31q-28 33 -25 101q3 58 27 118q26 65 65 96q53 40 110 9q32 -19 41 -39q3 -8 5 -22v-3zM321 458q19 -4 31 0.5t16 17.5q5 16 -0.5 29.5t-14.5 15.5q-11 3 -21 -3.5 t-16 -21.5q-9 -23 5 -38zM264 448q-12 33 2 68q11 30 39 48t62 9q36 -10 49.5 -45t3.5 -68q-13 -39 -50 -53q-18 -7 -41 -5q-12 -5 -23 1q-6 3 -11 6q-8 3 -15 6q-10 4 -14.5 13.5t-1.5 19.5zM369 247q-1 7 -3 25q-1 7 -2 9q1 2 -16 11q-26 15 -51 -4q-28 -22 -48 -73 q-21 -50 -23 -101q-2 -47 13 -64t28 -13q16 5 37 33q19 25 35 60q16 34 22 55q1 4 2 7v7q3 26 6 42q0 3 1 5q0 1 -1 1z" />
<glyph unicode="&#xe6;" horiz-adv-x="529" d="M573 238q12 42 4 60q-2 4 -4 4q-4 2 -11 -1q-28 -11 -55 -58.5t-28 -120.5q-1 -41 25 -64q10 15 21 38q13 29 27 77l9 29q0 4 2 8l3 8q4 13 7 20zM420 276q1 0 2 -1q8 -8 9 -20q1 -9 -3 -21q0 -2 -5 -12l-1 -5q-6 -32 -6 -33q-2 -17 -3 -34q-2 -19 -2 -22q0 -40 8 -64 q11 -27 33 -33q2 0 4 -1q-32 38 -31 92q2 87 36.5 149.5t81.5 79.5q25 10 48 3q25 -9 36 -35q18 -43 -10 -119l-13 -43q-16 -54 -30 -84q-10 -21 -21 -38q59 -9 103 29q8 7 15 15.5t13.5 20t10.5 20t10 24.5l8 22q2 7 8 26t8 24q4 11 14 16t20.5 1.5t15.5 -13.5t2 -20 l-8 -26l-11 -33q-3 -9 -12 -30t-16 -33t-18.5 -27.5t-23.5 -26.5q-35 -30 -81 -40t-86 2q-7 2 -13 5q-34 -23 -74 -12q-50 14 -69 67q-3 7 -5 16q-8 -14 -17 -25q-31 -42 -65 -52q-47 -14 -85 31q-28 33 -25 101q3 58 27 118q26 65 65 96q53 40 110 9q32 -19 41 -39 q3 -9 5 -22v-3zM369 247q-1 7 -3 25q-1 7 -2 9q1 2 -16 11q-26 15 -51 -4q-28 -22 -48 -73q-21 -50 -23 -101q-2 -47 13 -64t28 -13q16 5 37 33q19 25 35 60q16 34 22 55q1 4 2 7v7q3 26 6 42q0 3 1 5q0 1 -1 1z" />
<glyph unicode="&#xe7;" horiz-adv-x="271" d="M354 244q-2 20 -6 33t-7 15l-4 3q-11 3 -35 -23q-30 -33 -48 -86q-18 -52 -9 -97q8 -42 55 -53q49 -11 83 19q62 55 96 187q3 11 12.5 16.5t20.5 2.5t16.5 -12.5t2.5 -20.5q-38 -148 -112 -213q-34 -31 -83 -35q9 -24 2 -46q-10 -35 -60 -55q-10 -4 -20.5 0t-14.5 14.5 t0 21t15 14.5q25 10 28 20t-12 33q-2 3 -4 7q-66 24 -79 90q-11 59 11.5 123.5t60.5 106.5q46 49 89 38q48 -14 56 -99q1 -11 -6 -19.5t-18.5 -9.5t-20 6t-9.5 19z" />
<glyph unicode="&#xe8;" horiz-adv-x="260" d="M242 157q24 -14 49 -6q31 11 54 46q22 34 20 64q-1 26 -24 33q-27 10 -56 -29q-33 -43 -43 -108zM241 99q3 -29 15 -47q25 -37 86 -23q50 12 78 65q10 19 18 39.5t17 47.5t16 46q4 10 14 14.5t20.5 0.5t15 -14t0.5 -21l-14 -42q-10 -28 -19 -52t-20 -45q-39 -74 -114 -91 q-97 -23 -142 45q-36 53 -23 140q11 81 53 136q23 30 53 44.5t64 3.5q57 -20 60 -82q3 -48 -29 -97q-33 -51 -82 -67q-34 -11 -67 -1zM320 491q27 -29 78 -60q10 -6 12.5 -16.5t-3.5 -20.5t-16.5 -12.5t-20.5 3.5q-57 35 -90 68q-7 8 -7 19.5t8 19t19.5 7.5t19.5 -8z" />
<glyph unicode="&#xe9;" horiz-adv-x="260" d="M242 157q24 -14 49 -6q31 11 54 46q22 34 20 64q-1 26 -24 33q-27 10 -56 -29q-33 -43 -43 -108zM241 99q3 -29 15 -47q25 -37 86 -23q50 12 78 65q10 19 18 39.5t17 47.5t16 46q4 10 14 14.5t20.5 0.5t15 -14t0.5 -21l-14 -42q-10 -28 -19 -52t-20 -45q-39 -74 -114 -91 q-97 -23 -142 45q-36 53 -23 140q11 81 53 136q23 30 53 44.5t64 3.5q57 -20 60 -82q3 -48 -29 -97q-33 -51 -82 -67q-34 -11 -67 -1zM278 440q68 53 90 78q7 8 18.5 9t19.5 -6.5t9 -19t-7 -19.5q-25 -28 -96 -84q-9 -7 -20 -5.5t-18 10t-5.5 19.5t9.5 18z" />
<glyph unicode="&#xea;" horiz-adv-x="260" d="M242 157q24 -14 49 -6q31 11 54 46q22 34 20 64q-1 26 -24 33q-27 10 -56 -29q-33 -43 -43 -108zM241 99q3 -29 15 -47q25 -37 86 -23q50 12 78 65q10 19 18 39.5t17 47.5t16 46q4 10 14 14.5t20.5 0.5t15 -14t0.5 -21l-14 -42q-10 -28 -19 -52t-20 -45q-39 -74 -114 -91 q-97 -23 -142 45q-36 53 -23 140q11 81 53 136q23 30 53 44.5t64 3.5q57 -20 60 -82q3 -48 -29 -97q-33 -51 -82 -67q-34 -11 -67 -1zM251 431q7 14 37 64q15 24 25 38q6 9 10 14l6 6q10 9 23 8q10 -1 18 -9q3 -3 6 -7q3 -5 9 -14l21 -39q23 -47 32 -69q4 -10 0 -20.5 t-14.5 -14.5t-21 0t-14.5 15q-5 13 -31 64l-10 20l-13 -20q-29 -47 -35 -60q-4 -10 -14.5 -13.5t-21 1t-14 15t1.5 21.5z" />
<glyph unicode="&#xeb;" horiz-adv-x="260" d="M242 157q24 -14 49 -6q31 11 54 46q22 34 20 64q-1 26 -24 33q-27 10 -56 -29q-33 -43 -43 -108zM241 99q3 -29 15 -47q25 -37 86 -23q50 12 78 65q10 19 18 39.5t17 47.5t16 46q4 10 14 14.5t20.5 0.5t15 -14t0.5 -21l-14 -42q-10 -28 -19 -52t-20 -45q-39 -74 -114 -91 q-97 -23 -142 45q-36 53 -23 140q11 81 53 136q23 30 53 44.5t64 3.5q57 -20 60 -82q3 -48 -29 -97q-33 -51 -82 -67q-34 -11 -67 -1zM317 465q8 -8 8 -19t-8 -19t-19 -8t-19 8t-8 19t8 19t19 8t19 -8zM400 463q8 -8 8 -19t-8 -19t-19 -8t-19 8t-8 19t8 19t19 8t19 -8z" />
<glyph unicode="&#xec;" horiz-adv-x="148" d="M266 308q-1 -8 -10 -62q-9 -50 -13 -88q-6 -50 -5 -79q2 -32 8 -39t10 -8q3 0 9 4q19 14 43 60q23 45 59 149q4 10 14 15t20.5 1.5t15.5 -13.5t2 -21q-38 -108 -63 -156q-30 -57 -59 -78q-23 -17 -46 -14q-25 2 -45 25q-19 22 -22 72q-1 35 5 89q4 34 13 88t10 61 q2 12 10.5 18.5t20 5t18 -10t5.5 -19.5zM218 473q11 -5 45 -23q28 -15 43 -21q10 -5 14 -15t-0.5 -20.5t-14.5 -14.5t-21 0q-18 8 -46 23q-37 20 -44 23q-10 5 -13.5 15.5t1.5 20.5t15.5 13.5t20.5 -1.5z" />
<glyph unicode="&#xed;" horiz-adv-x="152" d="M264 308q-1 -8 -10 -62q-9 -50 -13 -88q-6 -50 -5 -79q2 -32 8 -39t10 -8q3 0 9 4q19 14 43 60q23 45 59 149q4 10 14 15t20.5 1.5t15.5 -13.5t2 -21q-38 -108 -63 -156q-30 -57 -59 -78q-23 -17 -46 -14q-25 2 -45 25q-19 22 -22 72q-1 35 5 89q4 34 13 88t10 61 q2 12 10.5 18.5t20 5t18 -10t5.5 -19.5zM202 434q10 5 20 11.5t16.5 11.5t19 15.5t18.5 14.5q9 7 20.5 5.5t18 -10t5 -20t-9.5 -17.5l-19 -15l-20 -16l-20 -14q-12 -8 -23 -14q-10 -5 -20.5 -2t-16 13t-2.5 20.5t13 16.5z" />
<glyph unicode="&#xee;" horiz-adv-x="152" d="M265 308q-1 -8 -10 -62q-9 -50 -13 -88q-6 -50 -5 -79q2 -32 8 -39t10 -8q3 0 9 4q19 14 43 60q23 45 59 149q4 10 14 15t20.5 1.5t15.5 -13.5t2 -21q-38 -108 -63 -156q-30 -57 -59 -78q-23 -17 -46 -14q-25 2 -45 25q-19 22 -22 72q-1 35 5 89q4 34 13 88t10 61 q2 12 10.5 18.5t20 5t18 -10t5.5 -19.5zM174 416q36 60 51 76q13 16 26 18q15 3 26 -6q7 -5 10 -14q4 -7 6 -21q4 -20 4 -22q7 -29 18 -47q6 -9 3.5 -20t-12 -17t-20.5 -3.5t-17 12.5q-15 24 -23 57l-26 -41q-6 -10 -17 -12.5t-20.5 3.5t-12 17t3.5 20z" />
<glyph unicode="&#xef;" horiz-adv-x="152" d="M264 308q-1 -8 -10 -62q-9 -50 -13 -88q-6 -50 -5 -79q2 -32 8 -39t10 -8q3 0 9 4q19 14 43 60q23 45 59 149q4 10 14 15t20.5 1.5t15.5 -13.5t2 -21q-38 -108 -63 -156q-30 -57 -59 -78q-23 -17 -46 -14q-25 2 -45 25q-19 22 -22 72q-1 35 5 89q4 34 13 88t10 61 q2 12 10.5 18.5t20 5t18 -10t5.5 -19.5zM234 460q8 -8 8 -19t-8 -19t-19 -8t-19 8t-8 19t8 19t19 8t19 -8zM307 455q8 -8 8 -19t-8 -19t-19 -8t-19 8t-8 19t8 19t19 8t19 -8z" />
<glyph unicode="&#xf0;" horiz-adv-x="462" d="M625 284q-32 -15 -61 -34q-92 -57 -112 -110q-17 -46 2 -83q19 -35 63 -30q63 7 96 66q32 59 22 141q-3 26 -10 50zM549 406q-43 -36 -80 -56q-10 -5 -20.5 -2t-16 13t-2.5 20.5t13 16.5q28 15 59 39q-32 16 -69 21q-11 2 -17.5 11t-5 20t10.5 17.5t20 5.5q57 -8 105 -37 q43 38 59 51q9 7 20 6t18 -10t6 -20t-10 -18q-14 -11 -49 -43q39 -35 64 -85q28 11 51 17q11 3 20.5 -2.5t12.5 -16.5t-2.5 -20.5t-16.5 -12.5q-20 -5 -44 -15q10 -31 14 -65q8 -63 -6 -119q-15 -57 -56 -99.5t-104 -49.5q-40 -5 -70 11q-31 17 -47 48q-31 59 -4 128 q26 68 133 136q34 22 69 38q-22 42 -55 72z" />
<glyph unicode="&#xf1;" horiz-adv-x="373" d="M350 288q-3 -2 -10 -8q-19 -15 -42 -53q-19 -32 -36 -66q-16 -35 -20 -48q-2 -5 -4 -15q-7 -42 -15 -82q0 -4 -1 -6q0 -4 -2 -8q-2 -3 -5 -6q-14 -14 -31 -6q-11 5 -14 17q-1 2 -1 5v5v5q1 9 5 29q6 34 11 57q13 88 19 179q1 11 9.5 18.5t19.5 6.5t18.5 -9.5t6.5 -19.5 t-1 -21q25 40 47 59q43 37 78 11q25 -19 29 -72q1 -20 -1 -90q-1 -57 3 -86q5 -37 19 -50q11 -10 21 -9q10 2 23 14q25 22 47 67q33 68 47 116q3 11 13 16.5t20.5 2.5t16 -13t2.5 -20q-15 -53 -51 -126q-27 -54 -58 -83q-26 -24 -53 -27q-35 -5 -64 22q-29 26 -36 82 q-5 34 -4 96q2 66 1 84q-2 24 -7 32zM226 416q23 66 62 70q17 1 36 -10q9 -6 23 -18q22 -19 28 -20q1 -1 2.5 -0.5t6.5 6.5t12 18q6 10 16.5 13t20.5 -2.5t13 -16t-2 -20.5q-32 -57 -75 -52q-23 3 -57 33q-12 10 -17 13q-1 1 -2 1q-7 -8 -17 -33q-3 -11 -13.5 -15.5t-21 -1 t-15 14t-0.5 20.5z" />
<glyph unicode="&#xf2;" d="M334 29l-4 4q-32 37 -51.5 87.5t-18.5 99.5q-16 -30 -25 -61q-17 -56 -7 -95q10 -35 45 -43q35 -7 61 8zM371 69q22 39 24 98q3 69 -20 108q-8 16 -18 19q-8 4 -20 -3q-1 0 -2 -2q-3 -6 -7 -15q-22 -44 -8.5 -102t51.5 -103zM367 348l10 -4q27 -10 45 -42q31 -54 27 -138 q-3 -78 -36 -131q15 -8 30 -9q36 -2 64 48q7 12 12.5 24t8.5 20t7 22.5t6 20.5t6 24.5t6 25.5q2 11 11.5 17t20.5 3.5t17 -12t3 -20.5q-1 -6 -5.5 -25t-6 -26t-6 -23t-8.5 -26t-10.5 -24t-13.5 -27q-45 -79 -115 -76q-32 2 -64 22q-48 -37 -113 -23q-68 13 -87 81 q-14 54 7 125q20 66 61 117q46 57 98 66q15 2 25 -10zM323 480q61 -44 95 -62q10 -5 13.5 -16t-1.5 -20.5t-16 -13t-20 1.5q-38 20 -103 66q-9 7 -10.5 18t5 20t17.5 10.5t20 -4.5z" />
<glyph unicode="&#xf3;" d="M334 29l-4 4q-32 37 -51.5 87.5t-18.5 99.5q-16 -30 -25 -61q-17 -56 -7 -95q10 -35 45 -43q35 -7 61 8zM371 69q22 39 24 98q3 69 -20 108q-8 16 -18 19q-8 4 -20 -3q-1 0 -2 -2q-3 -6 -7 -15q-22 -44 -8.5 -102t51.5 -103zM367 348l10 -4q27 -10 45 -42q31 -54 27 -138 q-3 -78 -36 -131q15 -8 30 -9q36 -2 64 48q7 12 12.5 24t8.5 20t7 22.5t6 20.5t6 24.5t6 25.5q2 11 11.5 17t20.5 3.5t17 -12t3 -20.5q-1 -6 -5.5 -25t-6 -26t-6 -23t-8.5 -26t-10.5 -24t-13.5 -27q-45 -79 -115 -76q-32 2 -64 22q-48 -37 -113 -23q-68 13 -87 81 q-14 54 7 125q20 66 61 117q46 57 98 66q15 2 25 -10zM291 424q24 31 65 76q8 8 19 9t19 -7t9 -19t-7 -19q-40 -44 -63 -74q-6 -8 -17.5 -9.5t-20 5t-10 18t5.5 20.5z" />
<glyph unicode="&#xf4;" d="M334 29l-4 4q-32 37 -51.5 87.5t-18.5 99.5q-16 -30 -25 -61q-17 -56 -7 -95q10 -35 45 -43q35 -7 61 8zM371 69q22 39 24 98q3 69 -20 108q-8 16 -18 19q-8 4 -20 -3q-1 0 -2 -2q-3 -6 -7 -15q-22 -44 -8.5 -102t51.5 -103zM367 348l10 -4q27 -10 45 -42q31 -54 27 -138 q-3 -78 -36 -131q15 -8 30 -9q36 -2 64 48q7 12 12.5 24t8.5 20t7 22.5t6 20.5t6 24.5t6 25.5q2 11 11.5 17t20.5 3.5t17 -12t3 -20.5q-1 -6 -5.5 -25t-6 -26t-6 -23t-8.5 -26t-10.5 -24t-13.5 -27q-45 -79 -115 -76q-32 2 -64 22q-48 -37 -113 -23q-68 13 -87 81 q-14 54 7 125q20 66 61 117q46 57 98 66q15 2 25 -10zM279 437q38 51 39 52q22 27 43 28q24 1 46 -27l36 -54q6 -10 3.5 -21t-12 -17t-20.5 -3.5t-17 11.5q-27 43 -33 51l-1 1l-3 -3q0 -1 -37 -50q-7 -9 -18 -10.5t-20 5t-10.5 17.5t4.5 20z" />
<glyph unicode="&#xf5;" d="M334 29l-4 4q-32 37 -51.5 87.5t-18.5 99.5q-16 -30 -25 -61q-17 -56 -7 -95q10 -35 45 -43q35 -7 61 8zM371 69q22 39 24 98q3 69 -20 108q-8 16 -18 19q-8 4 -20 -3q-1 0 -2 -2q-3 -6 -7 -15q-22 -44 -8.5 -102t51.5 -103zM367 348l10 -4q27 -10 45 -42q31 -54 27 -138 q-3 -78 -36 -131q15 -8 30 -9q36 -2 64 48q7 12 12.5 24t8.5 20t7 22.5t6 20.5t6 24.5t6 25.5q2 11 11.5 17t20.5 3.5t17 -12t3 -20.5q-1 -6 -5.5 -25t-6 -26t-6 -23t-8.5 -26t-10.5 -24t-13.5 -27q-45 -79 -115 -76q-32 2 -64 22q-48 -37 -113 -23q-68 13 -87 81 q-14 54 7 125q20 66 61 117q46 57 98 66q15 2 25 -10zM254 422q28 61 66 62q17 0 34 -12l20 -18q9 -10 13 -13q8 8 17 31q4 10 14.5 14t21 0t14.5 -14.5t0 -21.5q-27 -62 -64 -64q-17 -1 -34 11q-8 6 -20 18q-10 10 -14 13l-1 1q-8 -7 -17 -29q-5 -10 -15.5 -14t-20.5 0.5 t-14 15t0 20.5z" />
<glyph unicode="&#xf6;" d="M334 29l-4 4q-32 37 -51.5 87.5t-18.5 99.5q-16 -30 -25 -61q-17 -56 -7 -95q10 -35 45 -43q35 -7 61 8zM371 69q22 39 24 98q3 69 -20 108q-8 16 -18 19q-8 4 -20 -3q-1 0 -2 -2q-3 -6 -7 -15q-22 -44 -8.5 -102t51.5 -103zM367 348l10 -4q27 -10 45 -42q31 -54 27 -138 q-3 -78 -36 -131q15 -8 30 -9q36 -2 64 48q7 12 12.5 24t8.5 20t7 22.5t6 20.5t6 24.5t6 25.5q2 11 11.5 17t20.5 3.5t17 -12t3 -20.5q-1 -6 -5.5 -25t-6 -26t-6 -23t-8.5 -26t-10.5 -24t-13.5 -27q-45 -79 -115 -76q-32 2 -64 22q-48 -37 -113 -23q-68 13 -87 81 q-14 54 7 125q20 66 61 117q46 57 98 66q15 2 25 -10zM318 463q8 -8 8 -19t-8 -19t-19 -8t-19 8t-8 19t8 19t19 8t19 -8zM408 460q8 -8 8 -19t-8 -19t-19 -8t-19 8t-8 19t8 19t19 8t19 -8z" />
<glyph unicode="&#xf7;" horiz-adv-x="258" d="M285 243q8 0 195 4q12 0 20 -7.5t8 -19t-7.5 -19.5t-18.5 -8q-189 -4 -197 -4q-11 0 -19 8t-8 19t8 19t19 8zM401 319q8 -8 8 -19t-8 -19t-19 -8t-19 8t-8 19t8 19t19 8t19 -8zM400 164q8 -8 8 -19t-8 -19t-19 -8t-19 8t-8 19t8 19t19 8t19 -8z" />
<glyph unicode="&#xf8;" d="M308 163l62 94q-4 10 -9 18q-8 16 -18 19q-8 4 -20 -3q-1 0 -2 -2q-3 -6 -7 -15q-24 -45 -6 -111zM332 103q11 -19 25 -34q22 40 24 98q1 5 1 10l-34 -51zM270 108q-25 57 -24 112q-16 -30 -25 -61q-17 -56 -7 -95q3 -11 9 -19q22 28 47 63zM299 56l-27 -36q27 -3 48 9 l-4 4q-9 11 -17 23zM233 -27q-31 -35 -62 -64q-8 -7 -19 -6.5t-18.5 8.5t-7 19t8.5 19q26 24 52 53q-17 20 -25 48q-14 54 7 125q20 66 61 117q46 57 98 66q15 2 25 -10l10 -4q25 -9 42 -36q30 42 56 74q7 9 18 10t20 -6t10 -18t-6 -20q-34 -42 -74 -101q8 -38 6 -83 q-3 -77 -36 -131q15 -8 30 -9q36 -2 64 48q7 12 12.5 24t8.5 20t7 22.5t6 20.5t6 24.5t6 25.5q2 11 11.5 17t20.5 3.5t17 -12t3 -20.5q-1 -6 -5.5 -25t-6 -26t-6 -23t-8.5 -26t-10.5 -24t-13.5 -27q-45 -79 -115 -76q-32 2 -64 22q-48 -37 -113 -23q-8 1 -16 4z" />
<glyph unicode="&#xf9;" horiz-adv-x="378" d="M333 489q6 -7 16 -20t15.5 -19.5t14 -15.5t16.5 -16q9 -7 10 -18t-6 -20t-18 -10t-20 6q-10 9 -21 20t-17.5 18.5t-16.5 21.5l-15 19q-7 9 -6 20t10 18t20 6t18 -10zM272 308q-21 -82 -22 -168q0 -55 12 -81q9 -20 28 -17q34 5 62 67q19 43 34 112q0 3 11 63q3 19 5 25 q0 4 1 6q2 5 6 9q8 9 21 9q15 -1 23 -14l3 -11v-2v-2v-6q-1 -10 -8 -56q-9 -49 -12 -80q-5 -48 -2 -76q2 -30 10 -38q19 -18 36 -9q20 10 42 48q19 33 33.5 76.5t18.5 69.5q2 11 11 17.5t20 5t17.5 -10.5t5.5 -20q-5 -31 -21 -79t-38 -86q-30 -52 -65 -70q-50 -25 -96 18 q-17 16 -24 45q-36 -56 -86 -65q-59 -10 -85 48q-17 38 -17 105q1 92 24 181q3 11 12.5 16.5t20.5 2.5t16.5 -12.5t2.5 -20.5z" />
<glyph unicode="&#xfa;" horiz-adv-x="378" d="M309 414l51 44q32 28 37 33q9 8 20 7t18.5 -9.5t6.5 -19.5t-9 -18q-5 -5 -39 -35l-51 -44q-9 -7 -20 -6t-18 10t-6 20t10 18zM272 308q-21 -82 -22 -168q0 -55 12 -81q9 -20 28 -17q34 5 62 67q19 43 34 112q0 3 11 63q3 19 5 25q0 4 1 6q2 5 6 9q8 9 21 9q15 -1 23 -14 l3 -11v-2v-2v-6q-1 -10 -8 -56q-9 -49 -12 -80q-5 -48 -2 -76q2 -30 10 -38q19 -18 36 -9q20 10 42 48q19 33 33.5 76.5t18.5 69.5q2 11 11 17.5t20 5t17.5 -10.5t5.5 -20q-5 -31 -21 -79t-38 -86q-30 -52 -65 -70q-50 -25 -96 18q-17 16 -24 45q-36 -56 -86 -65 q-59 -10 -85 48q-17 38 -17 105q1 92 24 181q3 11 12.5 16.5t20.5 2.5t16.5 -12.5t2.5 -20.5z" />
<glyph unicode="&#xfb;" horiz-adv-x="378" d="M275 420l25 28q14 17 16 18q9 11 16 16q12 10 25 10q23 2 43 -27q2 -2 35 -53q6 -10 3.5 -21t-12 -17t-20.5 -3.5t-17 11.5q-5 9 -12 20l-11 18l-8 12l-2 -2l-41 -46q-8 -9 -19 -9t-19.5 7.5t-8.5 18.5t7 19zM272 308q-21 -82 -22 -168q0 -55 12 -81q9 -20 28 -17 q34 5 62 67q19 43 34 112q0 3 11 63q3 19 5 25q0 4 1 6q2 5 6 9q8 9 21 9q15 -1 23 -14l3 -11v-2v-2v-6q-1 -10 -8 -56q-9 -49 -12 -80q-5 -48 -2 -76q2 -30 10 -38q19 -18 36 -9q20 10 42 48q19 33 33.5 76.5t18.5 69.5q2 11 11 17.5t20 5t17.5 -10.5t5.5 -20 q-5 -31 -21 -79t-38 -86q-30 -52 -65 -70q-50 -25 -96 18q-17 16 -24 45q-36 -56 -86 -65q-59 -10 -85 48q-17 38 -17 105q1 92 24 181q3 11 12.5 16.5t20.5 2.5t16.5 -12.5t2.5 -20.5z" />
<glyph unicode="&#xfc;" horiz-adv-x="378" d="M272 308q-21 -82 -22 -168q0 -55 12 -81q9 -20 28 -17q34 5 62 67q19 43 34 112q0 3 11 63q3 19 5 25q0 4 1 6q2 5 6 9q8 9 21 9q15 -1 23 -14l3 -11v-2v-2v-6q-1 -10 -8 -56q-9 -49 -12 -80q-5 -48 -2 -76q2 -30 10 -38q19 -18 36 -9q20 10 42 48q19 33 33.5 76.5 t18.5 69.5q2 11 11 17.5t20 5t17.5 -10.5t5.5 -20q-5 -31 -21 -79t-38 -86q-30 -52 -65 -70q-50 -25 -96 18q-17 16 -24 45q-36 -56 -86 -65q-59 -10 -85 48q-17 38 -17 105q1 92 24 181q3 11 12.5 16.5t20.5 2.5t16.5 -12.5t2.5 -20.5zM344 473q8 -8 8 -19t-8 -19t-19 -8 t-19 8t-8 19t8 19t19 8t19 -8zM422 462q8 -8 8 -19t-8 -19t-19 -8t-19 8t-8 19t8 19t19 8t19 -8z" />
<glyph unicode="&#xfd;" horiz-adv-x="329" d="M380 -82l-28 -20q-54 -42 -59 -86q-2 -13 3.5 -21t12.5 -10q4 -1 10 0.5t16.5 11.5t19.5 30q16 35 25 95zM268 292q-25 -115 -29 -173t6 -85q4 -10 9 -13q4 -3 13 -1q12 3 27 22q15 20 31 56q18 38 43 116q6 19 17 62q5 18 6 24q2 5 3 8q2 6 7 11q8 7 17 7q14 1 23 -10 q2 -3 3.5 -6.5t2.5 -5.5v-2v-19q-1 -9 -2 -27q-3 -40 -3 -46q-1 -24 -0.5 -83t-0.5 -96q35 36 53.5 79.5t35.5 112.5q2 11 11.5 17t20.5 3.5t17 -12t3 -20.5q-19 -82 -44 -136t-78 -100q-10 -9 -22 -18q-8 -101 -35 -158q-19 -40 -47 -58.5t-59 -11.5q-29 6 -45.5 32 t-12.5 57q8 67 80 123q16 12 57 39l10 7q0 10 1 21q1 38 1 98l-13 -31q-19 -41 -39 -66q-27 -35 -57 -41q-31 -7 -54 7q-20 13 -30 41q-14 37 -10 106q4 63 31 182q2 11 11.5 17t20.5 3.5t17 -12t3 -20.5zM310 373l74 80q7 8 18 9t19.5 -6.5t9.5 -18.5t-7 -20l-74 -82 q-8 -8 -19 -8t-19.5 7.5t-8.5 18.5t7 20z" />
<glyph unicode="&#xfe;" horiz-adv-x="549" d="M474 -8l-12 -2q-27 -5 -44 -6h-13q-6 -50 -13 -100q-2 -11 -11 -17.5t-20 -5t-17.5 10.5t-5.5 20q43 299 43 583q0 11 8 19t19 8t19 -8t8 -19q0 -76 -3 -153q35 30 80 37q52 9 94.5 -20t56.5 -92q12 -51 -5 -103.5t-55 -91.5q100 25 144 159q4 10 14 15t20.5 1.5 t15.5 -13.5t2 -21q-61 -182 -215 -199q-8 -1 -104 -2h-6zM469 46q38 8 46 11q51 20 79.5 73t16.5 105q-10 42 -35 59t-56 12q-32 -5 -57.5 -29.5t-31.5 -60.5q-2 -6 -5 -11q-6 -80 -14 -160h9q17 1 48 1z" />
<glyph unicode="&#xff;" horiz-adv-x="329" d="M380 -82l-28 -20q-54 -42 -59 -86q-2 -13 3.5 -21t12.5 -10q4 -1 10 0.5t16.5 11.5t19.5 30q16 35 25 95zM268 292q-25 -115 -29 -173t6 -85q4 -10 9 -13q4 -3 13 -1q12 3 27 22q15 20 31 56q18 38 43 116q6 19 17 62q5 18 6 24q2 5 3 8q2 6 7 11q8 7 17 7q14 1 23 -10 q2 -3 3.5 -6.5t2.5 -5.5v-2v-19q-1 -9 -2 -27q-3 -40 -3 -46q-1 -24 -0.5 -83t-0.5 -96q35 36 53.5 79.5t35.5 112.5q2 11 11.5 17t20.5 3.5t17 -12t3 -20.5q-19 -82 -44 -136t-78 -100q-10 -9 -22 -18q-8 -101 -35 -158q-19 -40 -47 -58.5t-59 -11.5q-29 6 -45.5 32 t-12.5 57q8 67 80 123q16 12 57 39l10 7q0 10 1 21q1 38 1 98l-13 -31q-19 -41 -39 -66q-27 -35 -57 -41q-31 -7 -54 7q-20 13 -30 41q-14 37 -10 106q4 63 31 182q2 11 11.5 17t20.5 3.5t17 -12t3 -20.5zM329 402q8 -8 8 -19t-8 -19t-19 -8t-19 8t-8 19t8 19t19 8t19 -8z M402 404q8 -8 8 -19t-8 -19t-19 -8t-19 8t-8 19t8 19t19 8t19 -8z" />
<glyph unicode="&#x152;" horiz-adv-x="470" d="M492 420q-74 -12 -148 14q-87 31 -118 97q-44 -75 -68 -172q-29 -116 -14 -201q16 -88 78 -112q74 -28 143 32q67 59 103 173q27 86 24 169zM486 474q-18 96 -83 132q-36 20 -86 18q-24 -7 -51 -36l2 -14q14 -61 94 -89q62 -22 124 -11zM454 640q24 0 67 -1t56 -1 q71 -1 119 4q12 1 20.5 -6t9.5 -18.5t-6 -20t-18 -9.5q-53 -5 -126 -4q-14 0 -42.5 0.5t-32.5 1.5q25 -39 36 -91l27 20q9 6 20 4.5t17.5 -10.5t5 -20t-10.5 -18q-39 -28 -51 -34q5 -62 -8 -130q76 -6 155 2q12 1 20.5 -6t9.5 -18.5t-6 -20t-18 -9.5q-89 -8 -173 -1l-6 -20 q-39 -124 -114 -193q137 3 306 -2q11 0 18.5 -8.5t7.5 -19.5t-8.5 -18.5t-19.5 -7.5q-224 6 -398 0q-5 0 -9 1q-50 -9 -100 10q-90 34 -111 153q-17 96 14 223q30 119 86 205q12 18 24 33q4 19 16 33q22 26 65 33q6 1 12 1q8 2 16 2q5 0 10 -1q56 -3 95 -24l22 -14h3z" />
<glyph unicode="&#x153;" horiz-adv-x="260" d="M230 157q24 -14 49 -6q31 11 54 46q22 34 20 64q-1 26 -24 33q-27 10 -56 -29q-33 -43 -43 -108zM203 252q-49 42 -91 38q-38 -3 -63 -41q-27 -39 -27.5 -91t27.5 -92q15 -19 36 -29.5t41 -9.5q40 0 54 38q-11 43 -3 97q6 48 26 90zM231 299q52 68 116 47q57 -20 60 -82 q3 -48 -29 -97q-33 -51 -82 -67q-34 -11 -67 -1q3 -29 15 -47q25 -37 86 -23q50 12 78 65q10 19 18 39.5t17 47.5t16 46q4 10 14 14.5t20.5 0.5t15 -14t0.5 -21l-14 -42q-10 -28 -19 -52t-20 -45q-39 -74 -114 -91q-87 -20 -133 32q-32 -36 -82 -36q-34 -1 -66 15.5 t-54 45.5q-40 57 -39 125t36 121q40 58 103 64q61 5 124 -45z" />
<glyph unicode="&#x2018;" horiz-adv-x="259" d="M511 666q-15 -45 -39 -95q-4 -10 -15 -13.5t-21 1t-13.5 15.5t1.5 21q22 46 35 87q4 11 14 16t20.5 1.5t15.5 -13.5t2 -20z" />
<glyph unicode="&#x2019;" horiz-adv-x="217" d="M452 685q16 -49 18 -112q0 -11 -7.5 -19.5t-18.5 -8.5t-19.5 7.5t-8.5 18.5q-2 55 -16 98q-3 10 2 20t15.5 13.5t20.5 -1.5t14 -16z" />
<glyph unicode="&#x201c;" horiz-adv-x="333" d="M513 658q-40 -93 -41 -94q-4 -10 -14 -14.5t-20.5 -0.5t-15 14t-0.5 21q1 2 41 96q5 10 15 14t20.5 -0.5t14.5 -14.5t0 -21zM586 651q-7 -18 -19 -46q-15 -36 -18 -44q-4 -10 -14 -14.5t-20.5 -0.5t-15 14t-0.5 21q0 1 19 45q11 26 16 43q4 10 14 15t20.5 1.5t15.5 -13.5 t2 -21z" />
<glyph unicode="&#x201d;" horiz-adv-x="339" d="M488 660q5 -19 15 -48q14 -39 18 -52q3 -11 -2.5 -21t-16 -13t-20.5 2.5t-13 15.5q-3 12 -17 50q-11 32 -16 54q-3 11 3 20.5t17 12t20.5 -3.5t11.5 -17zM558 678q1 -5 14 -42.5t19 -56.5q3 -11 -2.5 -21t-16 -13t-20.5 2.5t-13 15.5q-6 20 -18.5 56t-14.5 41q-3 11 2 21 t15.5 13.5t20.5 -1.5t14 -15z" />
<glyph unicode="&#x2030;" horiz-adv-x="364" d="M570 513q-82 -159 -240 -508q-5 -10 -15.5 -14t-20.5 0.5t-14 15t0 20.5q159 351 242 510q5 10 16 13.5t20.5 -1.5t13 -16t-1.5 -20zM355 507q8 -8 8 -19t-8 -19t-19 -8t-19 8t-8 19t8 19t19 8t19 -8zM610 70q8 -8 8 -19t-8 -19t-19 -8t-19 8t-8 19t8 19t19 8t19 -8z M510 74q8 -8 8 -19t-8 -19t-19 -8t-19 8t-8 19t8 19t19 8t19 -8z" />
<glyph unicode="&#x20ac;" horiz-adv-x="589" d="M674 375q25 150 -3 210q-9 20 -23 26q-13 5 -32 -3q-43 -15 -90 -75.5t-73 -142.5q33 2 61 10q10 3 20 -2.5t13 -16t-2.5 -20.5t-16.5 -13q-40 -12 -89 -12l-1 -1q-6 -35 -8 -66q42 2 74 2q11 0 19 -8t8 -19t-8 -19t-19 -8q-32 0 -74 -2q6 -61 33 -98t66 -48 q57 -17 129 20.5t131 131.5q6 10 17 12.5t20.5 -3.5t12 -17t-3.5 -20q-67 -106 -155 -153q-86 -47 -166 -23q-58 17 -94 67q-36 51 -43 128q-44 -3 -70 -4q-11 0 -19.5 7.5t-8.5 18.5t7.5 19.5t18.5 8.5q26 1 71 4q1 34 8 72q-33 3 -65 11q-11 2 -17 11.5t-3.5 20.5t12 17 t20.5 3q33 -7 66 -10q28 97 84.5 171.5t115.5 96.5q39 14 71 2q34 -13 52 -53q35 -77 8 -241q-2 -11 -11 -17.5t-20 -5t-17.5 10.5t-5.5 20z" />
<glyph unicode="&#x2122;" horiz-adv-x="526" d="M58 524q25 -1 41.5 5.5t45.5 26.5l1 2l5 4q17 18 37 13q5 -1 9 -3.5t5 -4.5l2 -2q2 -2 3 -5q3 -4 6 -10q7 -12 15 -31q20 -46 37 -95q22 -61 29 -105q11 -62 -8 -89q-20 -27 -78 -45q-51 -16 -95 -15q-26 1 -42 9q-27 14 -25 44q2 21 25 46q20 22 58 50q9 6 20 4.5 t17.5 -10.5t5 -20t-10.5 -18q-34 -24 -50 -42q-4 -5 -7 -8q5 -1 11 -1q34 -1 77 12q41 13 50 26q6 8 -1 48q-7 38 -27 97q-16 48 -35 90l-6 12q-33 -22 -57 -31t-60 -8q-11 0 -18.5 8.5t-7.5 19.5t8.5 18.5t19.5 7.5zM332 585q12 -11 40 -45l52 -61l28 -32v27q3 124 14 135 l1 4q1 9 1 11q2 11 7 19q6 9 16 12q11 3 21 -1q7 -3 12 -9q1 -1 2 -3l2 -4q1 -2 2 -6q2 -6 6 -16l16 -49l12 -33l9 -30t4 -12q65 -169 180 -204q11 -3 16 -13t2 -21t-13 -16t-21 -2q-140 43 -214 236l-18 55q-2 -24 -3 -54v-59v-19q-1 -5 -1 -7v-4q-1 -2 -1 -4 q-3 -10 -14 -16q-12 -7 -27 0q-5 2 -11 7q-8 6 -20 18q-18 18 -49 54l-24 29q37 -143 39 -227q0 -11 -7.5 -19.5t-18.5 -8.5t-19.5 7.5t-8.5 18.5q-1 49 -10 98t-28.5 123.5t-25.5 100.5q-3 11 3 20.5t17 11.5q14 4 25 -7q4 -2 7 -5z" />
<glyph unicode="&#x25fc;" horiz-adv-x="360" d="M0 360h360v-360h-360v360z" />
<glyph unicode="&#x3000;" horiz-adv-x="1000" />
<glyph unicode="&#xf8ff;" horiz-adv-x="636" d="M95 347q0 4 -1 7q-13 97 10 178q30 107 115 139q11 4 21 -0.5t14 -15t-0.5 -20.5t-14.5 -14q-61 -23 -83 -104q-20 -70 -8 -155q1 -7 5 -26l10 -37l8 -39q3 -23 0 -36q-2 -15 -15 -21q-15 -8 -29 2q-6 4 -13 13l-7 11q-3 5 -4 6q-14 18 -53 83q-2 4 -11.5 19.5t-12.5 20 t-11.5 19t-11.5 20.5t-10.5 19.5t-11.5 21.5l-9 20q-6 12 -9 22l-8 22l-9 23q-3 11 2 20.5t16 13t20.5 -1.5t13.5 -16q9 -31 25 -64.5t28 -54.5l37 -62q5 -9 7 -13zM-20 107q19 -29 75 -94q13 20 21 40q15 43 14 64q-1 24 -25 35q-31 14 -75 -33zM322 -28q-53 -1 -105 -19 q-55 -19 -83 -48q13 -24 21 -48q3 -9 -1 -18.5t-13 -13.5q12 -5 32 -1q37 7 76 38q63 49 73 110zM142 21q0 -8 -4 -15q-8 -14 -44 -40l11 -14q36 32 94 52t116 22q-14 28 -57 29q-50 2 -97 -24zM826 379q1 15 -3 38q-7 32 -23 67q-1 -27 5 -56q5 -22 20 -47zM801 169 q2 1 5 4q-2 -2 -5 -4zM375 234q-14 3 -20 16q-15 31 -27 41l-2 -4q-10 -18 -7 -56.5t19 -67.5q12 -20 22 -33q12 -15 21 -19q4 9 6 30q2 30 -4 80q-5 7 -8 13zM375 321q2 2 5 3q16 9 31 -2q6 -5 10 -14q7 -15 14 -68q9 -13 21 -26q23 -25 41 -34q2 14 -12 39l-9 16 q-7 10 -10 17q-12 25 -7 47q3 13 14 20q13 7 26 1q7 -3 15 -11l7 -7q2 -2 3 -3.5t2 -1.5q38 -28 45 -31q17 -8 25 0q10 8 7 52q-2 30 -11 72q-4 16 -17 45l-8 17q-3 5 -3.5 8t-1.5 7q-1 14 11 23q14 10 29 2l6 -4q13 -12 24 -32q0 14 1 27q4 85 42 117q45 37 97 4l6 -4 q24 41 66 77q9 8 20 7t18.5 -9.5t6.5 -19.5t-9 -18q-44 -38 -63 -78q12 -15 21 -32q28 -49 38 -99q12 -60 -9 -90q-10 -14 -24 -19q-16 -6 -32 1q-18 8 -33 34q-19 32 -25 62q-15 73 3 132q-7 7 -13 11q-19 11 -34 -1q-19 -16 -22 -78q-3 -51 8 -112l18 -21q42 -48 63 -77 q38 -53 53 -82q9 -18 11 -30t-3 -21q-7 -16 -25 -18q-59 -7 -106 64q-29 44 -49 111q-1 -47 -23 -68q-35 -33 -86 -9l-3 2q13 -37 -3 -71q-11 -22 -35 -24q-16 -2 -34 8q-15 7 -32 21v-16q-3 -37 -15 -56q-10 -17 -26 -22q-17 -7 -36 1q-4 1 -8 3q10 -14 15 -31l2 -10 q79 -12 119 -62q7 -9 6 -20t-10 -18t-20 -6t-18 10q-24 30 -74 41q-6 -42 -32 -80.5t-62 -67.5q-49 -38 -99 -48q-62 -12 -95 27q-45 52 -18 109q-17 25 -50 64q-55 63 -72 87q-9 -19 -12 -32q-2 -11 -11.5 -17t-20.5 -3.5t-17 12t-3 20.5q7 32 32 73q-4 10 -0.5 20t13.5 15 q7 4 15 3l7 7q70 75 136 46q55 -25 57 -82q1 -17 -3 -38q58 29 118 27q34 -1 60 -14l-1 1q-13 16 -26 41q-23 39 -26.5 89.5t10.5 80.5q8 20 24.5 33t39.5 5q18 -5 35 -24zM270 369q8 -8 8 -19t-8 -19t-19 -8t-19 8t-8 19t8 19t19 8t19 -8z" />
<glyph horiz-adv-x="0" />
</font>
</defs>
</svg>
