<?xml version="1.0" standalone="no"?>
<!DOCTYPE svg PUBLIC "-//W3C//DTD SVG 1.1//EN" "http://www.w3.org/Graphics/SVG/1.1/DTD/svg11.dtd" >
<svg xmlns="http://www.w3.org/2000/svg">
<metadata></metadata>
<defs>
<font id="canterbold" horiz-adv-x="684" >
<font-face units-per-em="2048" ascent="1536" descent="-512" />
<missing-glyph horiz-adv-x="325" />
<glyph horiz-adv-x="2048" />
<glyph horiz-adv-x="2048" />
<glyph unicode="&#xd;" horiz-adv-x="2048" />
<glyph unicode=" "  horiz-adv-x="325" />
<glyph unicode="&#x09;" horiz-adv-x="325" />
<glyph unicode="&#xa0;" horiz-adv-x="325" />
<glyph unicode="!" horiz-adv-x="323" d="M109 1436h106l-2 -1157h-102zM111 0v178h100v-178h-100z" />
<glyph unicode="$" horiz-adv-x="614" d="M72 236v118h108v-118q-3 -53 19.5 -94t66.5 -54v383q-98 57 -145.5 107t-48.5 120v213q0 102 49 167.5t145 72.5v106h64v-108q82 -12 128 -76t46 -158v-157h-103v155q0 114 -71 136v-498q104 -60 137 -90q69 -60 68 -135v-93q0 -100 -53 -168t-152 -75v-109h-64v111 q-88 11 -141.5 77.5t-52.5 166.5zM182 702q2 -53 84 -112v461q-39 -8 -61.5 -43.5t-22.5 -96.5v-209zM330 86q49 7 74.5 47t25.5 100v86q0 32 -24.5 57.5t-75.5 57.5v-348z" />
<glyph unicode="&#x26;" horiz-adv-x="696" d="M68 1059v82q0 130 67.5 213.5t194.5 83.5q120 0 185 -80t65 -215v-121h-103v121q0 198 -147 198q-75 0 -115.5 -53t-40.5 -147v-80q0 -96 40 -156.5t130 -60.5h12v-94h-10q-72 -4 -112.5 -62.5t-40.5 -140.5v-293q0 -85 40.5 -129.5t104.5 -44.5q75 0 117.5 47.5 t42.5 128.5v504q-2 0 -14 -1t-19 -2t-20 -6t-25 -14l-8 101q30 22 66 24t65 -6t67.5 -4t71.5 29l4 -107q-42 -29 -86 -29v-491q0 -61 -16 -109t-41.5 -77.5t-61 -49t-70.5 -27t-73 -7.5q-110 0 -181 68.5t-71 201.5v293q0 161 111 244q-129 76 -129 268z" />
<glyph unicode="," horiz-adv-x="221" d="M61 -141v317h103v-168l-25 -149h-78z" />
<glyph unicode="-" horiz-adv-x="460" d="M61 365v88h340v-88h-340z" />
<glyph unicode="." horiz-adv-x="229" d="M61 0v188h103v-188h-103z" />
<glyph unicode="/" horiz-adv-x="524" d="M33 0l346 1444h96l-342 -1444h-100z" />
<glyph unicode="0" horiz-adv-x="751" d="M90 283v866q0 123 75.5 210t209.5 87q124 0 198 -87t74 -212v-862q0 -123 -71.5 -211t-200.5 -88q-130 0 -207.5 85.5t-77.5 211.5zM199 283q0 -71 30 -123l217 1173q-34 17 -71 17q-87 0 -131.5 -56.5t-44.5 -144.5v-866zM297 98q32 -14 78 -14q81 0 124.5 57t43.5 144 v862q0 72 -33 125z" />
<glyph unicode="1" horiz-adv-x="366" d="M31 1337v97h225v-1434h-104v1337h-121z" />
<glyph unicode="2" horiz-adv-x="677" d="M74 0v401q2 43 23.5 88t59 89t74 79t86.5 76q11 9 36 30t37 31.5t32 29t30.5 31.5t22 29.5t16.5 31.5t5 30v219q0 91 -45.5 132.5t-110.5 41.5q-74 0 -115 -49.5t-41 -130.5v-104h-100v108q0 69 22 123t59.5 85.5t81.5 47t93 15.5q45 0 88 -14.5t83 -44t64.5 -83.5 t24.5 -125v-221q0 -24 -5.5 -46.5t-19 -45.5t-24.5 -38.5t-36.5 -40t-38.5 -36t-46 -39t-45 -38.5q-95 -82 -147.5 -143t-55.5 -118v-303h418v-98h-526z" />
<glyph unicode="3" horiz-adv-x="696" d="M55 279v120h103v-120q0 -90 47 -143.5t129 -53.5q77 0 121.5 55t44.5 144v77q0 97 -40 158.5t-130 61.5h-80v98h78q72 4 112.5 60t40.5 136v295q0 85 -40 129.5t-103 44.5q-76 0 -119 -48t-43 -128v-106h-104v108q0 75 24 130t64.5 84t84.5 42t93 13q108 0 179 -68 t71 -199v-297q0 -165 -123 -241q139 -75 139 -271v-79q0 -128 -72.5 -213.5t-197.5 -85.5q-123 0 -201 83t-78 214z" />
<glyph unicode="4" d="M43 391v74l233 1005h103l-227 -989h272v895h104v-895h97v-90h-97v-391h-104v391h-381z" />
<glyph unicode="5" horiz-adv-x="727" d="M94 274v95h107v-95q0 -84 47 -138t129 -54q81 0 123.5 53t42.5 139v170q0 203 -166 203q-54 0 -107.5 -43t-70.5 -106h-105v934h520v-95h-413v-682q30 40 79.5 64t96.5 24q127 0 198.5 -74t71.5 -225v-170q0 -126 -71 -208t-199 -82q-133 0 -208 82.5t-75 207.5z" />
<glyph unicode="6" horiz-adv-x="733" d="M90 283v872q0 131 78 212t205 81q125 0 194.5 -80t69.5 -215v-72h-105v72q0 92 -40 146.5t-119 54.5t-126 -53t-50 -146v-524q29 48 79.5 74t98.5 26q124 0 196 -77.5t72 -219.5v-151q-3 -132 -73 -213.5t-199 -81.5q-130 0 -205.5 84t-75.5 211zM199 283 q0 -82 45.5 -138.5t126.5 -56.5q80 0 124 56.5t44 140.5v149q0 203 -164 203q-81 0 -128.5 -59t-47.5 -148v-147z" />
<glyph unicode="7" horiz-adv-x="622" d="M41 1341v93h518v-80l-205 -869h103v-88h-125v2q-4 -15 -37 -161l-19 -82q-5 -26 -17 -78t-17 -78h-111l94 397h-106v88h127q56 244 100 420l105 436h-410z" />
<glyph unicode="8" horiz-adv-x="722" d="M76 279v147q0 164 129 246q-60 45 -94.5 121.5t-34.5 158.5v164q0 145 71.5 238.5t206.5 93.5q132 0 202.5 -89t70.5 -243v-164q-8 -208 -119 -280q56 -41 87.5 -106.5t31.5 -139.5v-152q-3 -127 -76.5 -206.5t-194.5 -79.5q-124 0 -202 80.5t-78 210.5zM178 952 q0 -55 19 -107t61 -90t98 -38q80 0 123 71t43 164v164q0 109 -41.5 173.5t-126.5 64.5q-82 0 -129 -65.5t-47 -172.5v-164zM182 279q0 -87 46 -140t128 -53q77 0 121.5 52t44.5 141v147q0 87 -43.5 137.5t-122.5 54.5q-77 0 -125.5 -53.5t-48.5 -138.5v-147z" />
<glyph unicode="9" horiz-adv-x="716" d="M59 885v200q0 67 16 128t48.5 112.5t88.5 82t128 30.5q71 0 125 -29t85.5 -79.5t46.5 -112.5t15 -134v-798q0 -131 -75.5 -214t-204.5 -83q-122 0 -196.5 87t-74.5 212v69h105v-69q0 -87 43.5 -143t122.5 -56q86 0 132 55t46 142v362q-24 -55 -73 -89t-109 -34 q-57 0 -103.5 21.5t-76.5 57t-50.5 83t-29.5 97.5t-9 102zM166 885q0 -44 7.5 -85t25 -83.5t54 -68t87.5 -25.5q56 0 95.5 44.5t55 102t15.5 117.5v196q0 50 -8 92.5t-25.5 81t-51.5 60.5t-81 22q-59 0 -100 -39t-57.5 -94t-16.5 -121v-200z" />
<glyph unicode=":" horiz-adv-x="223" d="M61 0v188h103v-188h-103zM61 457v188h103v-188h-103z" />
<glyph unicode=";" horiz-adv-x="223" d="M61 -143v317h103v-168l-17 -149h-86zM61 457v188h103v-188h-103z" />
<glyph unicode="?" horiz-adv-x="628" d="M55 1069v109q0 69 22 123t58.5 85t80 46.5t91.5 15.5q45 0 86 -14t77 -43.5t57.5 -83.5t21.5 -125v-221q-4 -171 -125 -285q-54 -48 -71 -108t-17 -152v-142h-103v142q0 106 25.5 184t101.5 145q80 86 84 216v219q0 93 -38 133.5t-99 40.5q-73 0 -110 -49t-37 -131v-105 h-105zM236 0v174h100v-174h-100z" />
<glyph unicode="A" d="M53 0l221 1434h125l224 -1434h-107l-59 385v-2h-236v2l-59 -385h-109zM233 481h211l-55 348l-51 424l-51 -424z" />
<glyph unicode="B" horiz-adv-x="747" d="M106 0v1434h256q135 0 209 -77.5t74 -209.5l-2 -410q0 -151 -119 -225q123 -40 123 -188v-101q0 -111 -63.5 -167t-149.5 -56h-328zM215 96h219q33 0 56 13.5t33 36t14 41t4 36.5v101q0 59 -37 89.5t-98 32.5h-191v-350zM215 541h152q62 0 118 56t56 142v408 q0 185 -179 188h-147v-794z" />
<glyph unicode="C" horiz-adv-x="745" d="M90 291v852q0 138 77 221.5t206 83.5q127 0 201.5 -81t74.5 -222v-131h-102v129q0 207 -172 207q-78 0 -127 -56t-49 -151v-854q0 -83 46.5 -144t129.5 -61t126.5 58.5t43.5 144.5v123h104v-123q0 -57 -17 -109.5t-49 -96t-86 -69.5t-122 -26q-130 0 -207.5 87.5 t-77.5 217.5z" />
<glyph unicode="D" horiz-adv-x="768" d="M111 0v1434h266q35 0 61.5 -2t58 -8.5t54.5 -18.5t46 -33.5t37 -51.5t23 -74.5t9 -100.5v-862q0 -59 -13.5 -106t-31.5 -76t-48.5 -50t-53.5 -30.5t-57 -14.5t-47.5 -5.5t-37.5 -0.5h-266zM219 100h158q38 0 65 5.5t57 22.5t46 56t16 99v862q0 52 -10 89t-25 56.5 t-41 30.5t-49 13.5t-59 2.5h-158v-1237z" />
<glyph unicode="E" horiz-adv-x="669" d="M109 0v1434h497v-95h-389v-862h309v-94h-309v-287h389v-96h-497z" />
<glyph unicode="F" horiz-adv-x="630" d="M106 0v1434h478v-95h-369v-864h313v-96h-313v-379h-109z" />
<glyph unicode="G" horiz-adv-x="722" d="M90 287v850q0 129 76 216t203 87q128 0 203 -83.5t75 -217.5v-131h-102v131q0 91 -43 147.5t-131 56.5q-77 0 -124.5 -57.5t-47.5 -148.5v-850q0 -93 45 -147t129 -54q79 0 123.5 49.5t44.5 149.5v106h-209v94h313v-200q0 -131 -73 -214t-199 -83q-128 0 -205.5 79.5 t-77.5 219.5z" />
<glyph unicode="H" horiz-adv-x="786" d="M111 0v1434h108v-971h344v971h105v-1434h-105v367h-344v-367h-108z" />
<glyph unicode="I" horiz-adv-x="323" d="M109 0v1434h108v-1434h-108z" />
<glyph unicode="J" horiz-adv-x="714" d="M53 287v114h109v-114q0 -97 45.5 -151t132.5 -54q80 0 124 55.5t44 149.5l-2 1147h106v-1147q0 -134 -69.5 -217.5t-202.5 -83.5t-210 78.5t-77 222.5z" />
<glyph unicode="K" horiz-adv-x="731" d="M106 0v1434h109v-885l96 237l281 648h117l-398 -908q24 -33 59 -77.5t135.5 -173t215.5 -275.5h-135l-332 418l-39 -74v-344h-109z" />
<glyph unicode="L" horiz-adv-x="589" d="M106 0v1434h109v-1338h313v-96h-422z" />
<glyph unicode="M" horiz-adv-x="917" d="M88 0l55 1436h140l125 -824l55 -413l61 413l127 824h133l56 -1436h-109l-29 702l3 451h-5l-69 -440l-115 -690h-115l-112 690l-60 438h-4l-6 -449l-26 -702h-105z" />
<glyph unicode="N" horiz-adv-x="811" d="M111 0v1434h102l307 -902l82 -284l-16 297v889h106v-1434h-100l-301 874l-88 300l16 -312v-862h-108z" />
<glyph unicode="O" horiz-adv-x="749" d="M90 283v866q0 123 75.5 210t209.5 87q124 0 198 -87t74 -212v-862q0 -123 -71.5 -211t-200.5 -88q-130 0 -207.5 85.5t-77.5 211.5zM199 283q0 -84 45 -141.5t131 -57.5q81 0 124.5 57t43.5 144v862q0 83 -43 143t-125 60q-87 0 -131.5 -56.5t-44.5 -144.5v-866z" />
<glyph unicode="P" horiz-adv-x="753" d="M106 0v1434h279q41 0 79.5 -9.5t75 -31t64 -54t44 -82t16.5 -110.5v-469q0 -115 -76 -203t-203 -88h-170v-387h-109zM215 483h170q70 0 122 53.5t52 141.5v469q0 90 -45.5 140t-128.5 50h-170v-854z" />
<glyph unicode="Q" horiz-adv-x="749" d="M90 283v866q0 123 75.5 210t209.5 87q124 0 198 -87t74 -212v-862q0 -109 -57.5 -193t-161.5 -102v-168h-104v168q-108 17 -171 99t-63 194zM199 283q0 -84 45 -141.5t131 -57.5q81 0 124.5 57t43.5 144v862q0 83 -43 143t-125 60q-87 0 -131.5 -56.5t-44.5 -144.5v-866z " />
<glyph unicode="R" horiz-adv-x="745" d="M106 0v1434h261q127 -2 203 -72q73 -68 73 -208v-11v-477q0 -63 -31 -127t-86 -99q62 -24 93.5 -74.5t31.5 -113.5v-252h-106v252q0 56 -34 89.5t-93 33.5h-203v-375h-109zM215 471h152q63 0 117.5 53.5t54.5 141.5v477q0 91 -43.5 142.5t-128.5 51.5h-152v-866z" />
<glyph unicode="S" horiz-adv-x="733" d="M86 287v139h107v-139v-10q-1 -78 43 -136q46 -61 135 -61q82 0 126 57t44 146v96q0 15 -2.5 29t-9.5 26.5t-13 22t-19.5 21t-21.5 18t-26.5 18t-27 16.5t-31.5 17.5t-32 17.5q-112 63 -148 91q-111 86 -120 206v287q0 130 66.5 212.5t195.5 82.5q119 0 186.5 -81.5 t67.5 -209.5v-186h-104v184q0 87 -36.5 141t-113.5 54q-71 0 -112 -50t-41 -147v-283q4 -63 49 -106t125 -88q10 -6 42 -24t42.5 -24t37.5 -22t37 -24t31 -24.5t29 -27.5t21 -28.5t18 -33.5t9.5 -36t4.5 -41v-104q0 -128 -70.5 -213.5t-203.5 -85.5q-127 0 -206.5 83.5 t-78.5 219.5z" />
<glyph unicode="T" horiz-adv-x="581" d="M31 1339v95h504v-95h-199v-1339h-105v1339h-200z" />
<glyph unicode="U" horiz-adv-x="776" d="M102 287v1147h109v-1147q0 -85 42.5 -146t127.5 -61q91 0 132.5 57t41.5 148v1149h104v-1149q0 -58 -17.5 -111t-50.5 -96t-87.5 -68.5t-122.5 -25.5q-126 0 -202.5 87.5t-76.5 215.5z" />
<glyph unicode="V" horiz-adv-x="696" d="M57 1436h109l125 -809l49 -434h4l51 434l125 809h111l-225 -1436h-130z" />
<glyph unicode="W" horiz-adv-x="1118" d="M51 1436h109l114 -815l52 -457h6l53 457l123 815h106l125 -813l62 -461h4l51 461l115 813h104l-201 -1436h-135l-143 946l-33 273l-28 -273l-140 -946h-139z" />
<glyph unicode="X" horiz-adv-x="671" d="M16 1436h113l80 -287l113 -467l122 469l82 285h111l-258 -899l174 -537h-111l-120 387l-134 -387h-110l190 535z" />
<glyph unicode="Y" horiz-adv-x="722" d="M33 1436h108l135 -527l82 -389l84 391q113 440 133 525h113l-276 -1078v-358h-107v358z" />
<glyph unicode="Z" horiz-adv-x="620" d="M29 0v82l432 1255h-385v97h493v-78l-426 -1256h422v-100h-536z" />
<glyph unicode="\" horiz-adv-x="524" d="M37 1423h102l338 -1423h-98z" />
<glyph unicode="`" horiz-adv-x="270" d="M18 1436h117l76 -179h-92z" />
<glyph unicode="a" horiz-adv-x="575" d="M47 0l176 1145h117l178 -1145h-106l-45 301v-2h-166l-47 -299h-107zM209 389h143l-24 170l-45 369l-47 -369z" />
<glyph unicode="b" horiz-adv-x="626" d="M90 0v1145h211q105 0 169.5 -59t64.5 -175l-3 -321q0 -51 -23.5 -100t-74.5 -74q49 -18 73.5 -59t24.5 -91v-82q0 -91 -51.5 -137.5t-122.5 -46.5h-268zM199 98h159q40 0 56 28t16 58v82q0 39 -27.5 66.5t-66.5 27.5h-137v-262zM199 446h106q44 0 84.5 41t40.5 105v319 q0 68 -34 102t-95 34h-102v-601z" />
<glyph unicode="c" horiz-adv-x="624" d="M76 238v669q0 111 64 179.5t169 68.5t166.5 -66t61.5 -182v-112h-103v112q0 70 -31.5 111t-91.5 41q-56 0 -91.5 -39.5t-35.5 -112.5v-669q0 -68 33 -109t94 -41q121 0 121 148v104h107v-104q0 -107 -58.5 -177.5t-169.5 -70.5q-109 0 -172 68t-63 182z" />
<glyph unicode="d" horiz-adv-x="643" d="M92 0v1145h221q49 0 87.5 -9t74.5 -33t56 -73t20 -121v-676q0 -64 -20.5 -110.5t-47 -69t-64 -35.5t-59.5 -15.5t-47 -2.5h-221zM201 100h112q56 0 94.5 29.5t38.5 103.5v676q-3 85 -36 112.5t-97 27.5h-112v-949z" />
<glyph unicode="e" horiz-adv-x="565" d="M90 0v1145h414v-94h-305v-656h243v-96h-243v-201h305v-98h-414z" />
<glyph unicode="f" horiz-adv-x="532" d="M88 0v1145h395v-94h-284v-656h241v-98h-241v-297h-111z" />
<glyph unicode="g" horiz-adv-x="606" d="M76 236v673q0 107 61.5 176.5t175.5 69.5q100 0 162 -68.5t62 -177.5v-112h-101v112q0 66 -32 109t-91 43q-63 0 -96 -42t-33 -110v-673q0 -66 32 -106t91 -40t94 37.5t35 108.5v73h-151v92h250v-165q0 -110 -61 -178t-167 -68q-104 0 -167.5 66.5t-63.5 179.5z" />
<glyph unicode="h" horiz-adv-x="657" d="M92 0v1145h109v-760h245v760h107v-1145h-107v287h-245v-287h-109z" />
<glyph unicode="i" horiz-adv-x="286" d="M90 0v1145h107v-1145h-107z" />
<glyph unicode="j" horiz-adv-x="600" d="M47 236v98h109v-98q0 -61 33.5 -105.5t93.5 -44.5q56 0 88 44t32 106v909h105v-909q0 -103 -58 -175.5t-167 -72.5q-105 0 -170.5 72t-65.5 176z" />
<glyph unicode="k" horiz-adv-x="614" d="M90 0v1145h109v-369l-11 -317l129 315q29 69 86 200t74 171h113l-309 -705l323 -440h-129l-164 211l-88 129l-24 -47v-293h-109z" />
<glyph unicode="l" horiz-adv-x="499" d="M90 0v1145h107v-1049h245v-96h-352z" />
<glyph unicode="m" horiz-adv-x="780" d="M72 0l43 1147h121l129 -721l24 -240l27 238l116 723h125l43 -1147h-104l-23 518l11 361h-4l-52 -353l-88 -499h-104l-88 493l-47 365h-4l-4 -369l-21 -516h-100z" />
<glyph unicode="n" horiz-adv-x="677" d="M92 0v1145h101l206 -615l88 -299l-22 312v602h108v-1145h-100l-209 606l-82 291l19 -297v-600h-109z" />
<glyph unicode="o" horiz-adv-x="628" d="M76 233v678q0 102 61.5 173t171.5 71q103 0 165.5 -71t62.5 -173v-675q0 -102 -60 -175t-168 -73q-106 0 -169.5 70.5t-63.5 174.5zM184 233q0 -62 32.5 -103.5t92.5 -41.5t90.5 41.5t30.5 106.5v675q0 62 -30.5 105t-90.5 43t-92.5 -41.5t-32.5 -106.5v-678z" />
<glyph unicode="p" horiz-adv-x="630" d="M88 0v1145h231q42 0 81 -13t73.5 -39t55 -73t20.5 -109v-368q0 -97 -63 -168.5t-167 -71.5h-120v-303h-111zM199 401h120q50 0 87.5 39t37.5 103v368q0 65 -32.5 101.5t-92.5 36.5h-120v-648z" />
<glyph unicode="q" horiz-adv-x="628" d="M76 233v678q0 102 61.5 173t171.5 71q103 0 165.5 -71t62.5 -173v-675q0 -89 -46 -157t-129 -85v-162h-102v160q-86 15 -135 81.5t-49 159.5zM184 233q0 -62 32.5 -103.5t92.5 -41.5t90.5 41.5t30.5 106.5v675q0 62 -30.5 105t-90.5 43t-92.5 -41.5t-32.5 -106.5v-678z " />
<glyph unicode="r" horiz-adv-x="624" d="M88 0v1145h217q91 0 159 -59t68 -179v-375q0 -124 -77 -176q86 -45 86 -147v-209h-109v209q0 38 -23 61t-63 23h-147v-293h-111zM199 389h106q45 0 84 39.5t39 103.5v375q0 66 -33.5 104t-89.5 38h-106v-660z" />
<glyph unicode="s" horiz-adv-x="614" d="M72 236v118h108v-118v-10q0 -56 30 -98q33 -44 95 -44q61 0 93 41.5t32 107.5v86q0 37 -29.5 64t-99.5 68q-62 37 -92 56.5t-67.5 51.5t-53 65t-16.5 74v213q0 108 56.5 175t164.5 67q99 0 155 -66t56 -172v-157h-103v155q0 63 -26.5 102.5t-81.5 39.5q-50 0 -80.5 -36.5 t-30.5 -107.5v-209q3 -41 38 -73.5t114 -79.5q104 -61 140 -93q62 -59 61 -130v-93q0 -106 -59 -175.5t-171 -69.5q-103 0 -168.5 68.5t-64.5 179.5z" />
<glyph unicode="t" horiz-adv-x="493" d="M31 1051v94h415v-94h-155v-1051h-103v1051h-157z" />
<glyph unicode="u" horiz-adv-x="649" d="M86 236v909h109v-909q0 -63 30 -107.5t90 -44.5q125 0 125 152v909h107v-909q0 -103 -60.5 -175.5t-171.5 -72.5q-103 0 -166 71t-63 177z" />
<glyph unicode="v" horiz-adv-x="585" d="M51 1147h107l98 -641l29 -348h4l26 350l99 639h106l-176 -1147h-121z" />
<glyph unicode="w" horiz-adv-x="923" d="M49 1147h105l71 -541l49 -420h2l50 422l84 529h108l78 -537l61 -420h2l35 426q10 70 35.5 256.5t38.5 284.5h109l-154 -1147h-129l-102 680q-11 69 -29 260q-11 -168 -25 -264l-104 -676h-121z" />
<glyph unicode="x" horiz-adv-x="565" d="M14 1147h111l94 -346l51 -246q0 44 52 246l98 346h112l-208 -717l141 -430h-107l-49 147l-41 160l-43 -157l-49 -150h-115l154 430z" />
<glyph unicode="y" horiz-adv-x="606" d="M31 1147h104l109 -414l55 -278l53 276l107 416h112l-221 -858v-289h-106v289z" />
<glyph unicode="z" horiz-adv-x="524" d="M29 0v78l338 971h-304v96h412v-74l-334 -971h328v-100h-440z" />
<glyph unicode="&#xa1;" horiz-adv-x="323" d="M109 -276l2 1159h102l2 -1159h-106zM113 973v174h100v-174h-100z" />
<glyph unicode="&#xa5;" horiz-adv-x="589" d="M23 1147h104l109 -414l55 -278l53 276l107 416h112l-198 -768h92v-70h-111l-4 -20v-51h115v-68h-115v-170h-106v170h-113v68h113v51l-7 20h-106v70h90z" />
<glyph unicode="&#xa8;" horiz-adv-x="337" d="M47 1270v166h88v-166h-88zM211 1270v166h86v-166h-86z" />
<glyph unicode="&#xad;" horiz-adv-x="460" d="M61 365v88h340v-88h-340z" />
<glyph unicode="&#xaf;" horiz-adv-x="368" d="M43 1350v82h279v-82h-279z" />
<glyph unicode="&#xb4;" horiz-adv-x="251" d="M39 1257l80 177h114l-104 -177h-90z" />
<glyph unicode="&#xb8;" horiz-adv-x="432" d="M76 -170h80q1 -19 13 -29t28 -10h41q26 0 37 22.5t0.5 45t-37.5 22.5h-88l47 170h77l-26 -100q79 1 110.5 -58t-3.5 -118.5t-115 -59.5h-43q-52 0 -85 27.5t-36 87.5z" />
<glyph unicode="&#xbf;" horiz-adv-x="628" d="M66 -37v221q2 81 29 151t95 134q54 48 71.5 108.5t17.5 151.5v141h102v-141q0 -106 -25.5 -184.5t-101.5 -145.5q-80 -86 -84 -215v-219q0 -93 38 -133.5t99 -40.5q74 0 111 49t37 131v105h104v-109q0 -69 -22 -123t-58.5 -85t-80 -46.5t-91.5 -15.5q-45 0 -86 14 t-76.5 43.5t-57 83.5t-21.5 125zM279 971v174h100v-174h-100z" />
<glyph unicode="&#xc0;" d="M53 0l221 1434h125l224 -1434h-107l-59 385v-2h-236v2l-59 -385h-109zM193 1686h122l82 -168h-98zM233 481h211l-55 348l-51 424l-51 -424z" />
<glyph unicode="&#xc1;" d="M53 0l221 1434h125l224 -1434h-107l-59 385v-2h-236v2l-59 -385h-109zM233 481h211l-55 348l-51 424l-51 -424zM283 1520l86 174h120l-110 -174h-96z" />
<glyph unicode="&#xc2;" d="M53 0l221 1434h125l224 -1434h-107l-59 385v-2h-236v2l-59 -385h-109zM150 1511l145 150h88l143 -150h-98l-90 78l-88 -78h-100zM233 481h211l-55 348l-51 424l-51 -424z" />
<glyph unicode="&#xc3;" d="M53 0l221 1434h125l224 -1434h-107l-59 385v-2h-236v2l-59 -385h-109zM193 1511v80q30 36 75 42t78 -19q75 -49 141 20v-80q-30 -36 -75 -41.5t-78 19.5q-75 48 -141 -21zM233 481h211l-55 348l-51 424l-51 -424z" />
<glyph unicode="&#xc4;" d="M53 0l221 1434h125l224 -1434h-107l-59 385v-2h-236v2l-59 -385h-109zM213 1505v166h88v-166h-88zM233 481h211l-55 348l-51 424l-51 -424zM377 1505v166h86v-166h-86z" />
<glyph unicode="&#xc5;" d="M53 0l213 1386q-59 30 -59 99q0 54 38.5 84t92.5 30q53 0 92 -29.5t39 -86.5q0 -72 -63 -99l217 -1384h-107l-59 385v-2h-236l-59 -383h-109zM233 481h211l-55 348l-51 441l-51 -441zM281 1483q0 -23 16.5 -36t40.5 -13t40.5 13t16.5 36q0 26 -16.5 39.5t-40.5 13.5 t-40.5 -13.5t-16.5 -39.5z" />
<glyph unicode="&#xc6;" horiz-adv-x="843" d="M53 0l346 1434h377v-88h-258v-869h223v-88h-223v-295h258v-94h-366v383h-150v2l-98 -385h-109zM274 477h136v246l18 436h-6z" />
<glyph unicode="&#xc7;" horiz-adv-x="745" d="M90 291v852q0 138 77 221.5t206 83.5q127 0 201.5 -81t74.5 -222v-131h-102v129q0 207 -172 207q-78 0 -127 -56t-49 -151v-854q0 -83 46.5 -144t129.5 -61t126.5 58.5t43.5 144.5v123h104v-123q0 -108 -57.5 -193.5t-165.5 -103.5l-20 -82q79 1 110 -58t-4 -118.5 t-115 -59.5h-43q-52 0 -85 27.5t-36 87.5h80q1 -19 13 -29t28 -10h41q26 0 37 22.5t0.5 45t-37.5 22.5h-88l41 150q-120 9 -189 94t-69 209z" />
<glyph unicode="&#xc8;" horiz-adv-x="669" d="M109 0v1434h497v-95h-389v-862h309v-94h-309v-287h389v-96h-497zM236 1694h116l76 -178h-92z" />
<glyph unicode="&#xc9;" horiz-adv-x="669" d="M109 0v1434h497v-95h-389v-862h309v-94h-309v-287h389v-96h-497zM307 1516l80 176h115l-105 -176h-90z" />
<glyph unicode="&#xca;" horiz-adv-x="669" d="M109 0v1434h497v-95h-389v-862h309v-94h-309v-287h389v-96h-497zM166 1520l147 137h86l146 -137h-99l-90 73l-90 -73h-100z" />
<glyph unicode="&#xcb;" horiz-adv-x="669" d="M109 0v1434h497v-95h-389v-862h309v-94h-309v-287h389v-96h-497zM242 1513v166h88v-166h-88zM406 1513v166h86v-166h-86z" />
<glyph unicode="&#xcc;" horiz-adv-x="323" d="M27 1694h116l76 -178h-92zM109 0v1434h108v-1434h-108z" />
<glyph unicode="&#xcd;" horiz-adv-x="323" d="M106 1516l80 176h115l-104 -176h-91zM109 0v1434h108v-1434h-108z" />
<glyph unicode="&#xce;" horiz-adv-x="323" d="M-31 1511l150 158h88l147 -158h-100l-92 84l-90 -84h-103zM109 0v1434h108v-1434h-108z" />
<glyph unicode="&#xcf;" horiz-adv-x="323" d="M39 1505v166h88v-166h-88zM109 0v1434h108v-1434h-108zM203 1505v166h86v-166h-86z" />
<glyph unicode="&#xd0;" horiz-adv-x="768" d="M12 373v92h99v969h264q51 0 86 -4t77 -20.5t67.5 -46.5t43 -85.5t17.5 -132.5v-862q0 -46 -8 -85t-20 -66.5t-32.5 -49.5t-38 -35.5t-43.5 -23t-42.5 -14t-42.5 -7t-35.5 -2.5h-28.5h-264v373h-99zM219 100h156q30 0 52.5 2.5t49 13.5t43 30t28 54t11.5 83v862 q-1 65 -14.5 105.5t-41.5 58.5t-55 23t-73 5h-156v-872h143v-92h-143v-273z" />
<glyph unicode="&#xd1;" horiz-adv-x="811" d="M111 0v1434h102l307 -902l82 -284l-16 297v889h106v-1434h-100l-301 874l-88 300l16 -312v-862h-108zM256 1511v80q30 36 75.5 42t78.5 -19q75 -49 141 20v-80q-30 -36 -75.5 -41.5t-78.5 19.5q-75 48 -141 -21z" />
<glyph unicode="&#xd2;" horiz-adv-x="749" d="M90 283v866q0 123 75.5 210t209.5 87q124 0 198 -87t74 -212v-862q0 -123 -71.5 -211t-200.5 -88q-130 0 -207.5 85.5t-77.5 211.5zM199 283q0 -84 45 -141.5t131 -57.5q81 0 124.5 57t43.5 144v862q0 83 -43 143t-125 60q-87 0 -131.5 -56.5t-44.5 -144.5v-866z M252 1663h117l75 -178h-92z" />
<glyph unicode="&#xd3;" horiz-adv-x="749" d="M90 283v866q0 123 75.5 210t209.5 87q124 0 198 -87t74 -212v-862q0 -123 -71.5 -211t-200.5 -88q-130 0 -207.5 85.5t-77.5 211.5zM199 283q0 -84 45 -141.5t131 -57.5q81 0 124.5 57t43.5 144v862q0 83 -43 143t-125 60q-87 0 -131.5 -56.5t-44.5 -144.5v-866z M315 1520l80 176h115l-104 -176h-91z" />
<glyph unicode="&#xd4;" horiz-adv-x="749" d="M90 283v866q0 123 75.5 210t209.5 87q124 0 198 -87t74 -212v-862q0 -123 -71.5 -211t-200.5 -88q-130 0 -207.5 85.5t-77.5 211.5zM182 1518l150 157h88l147 -157h-100l-92 84l-90 -84h-103zM199 283q0 -84 45 -141.5t131 -57.5q81 0 124.5 57t43.5 144v862 q0 83 -43 143t-125 60q-87 0 -131.5 -56.5t-44.5 -144.5v-866z" />
<glyph unicode="&#xd5;" horiz-adv-x="749" d="M90 283v866q0 123 75.5 210t209.5 87q124 0 198 -87t74 -212v-862q0 -123 -71.5 -211t-200.5 -88q-130 0 -207.5 85.5t-77.5 211.5zM199 283q0 -84 45 -141.5t131 -57.5q81 0 124.5 57t43.5 144v862q0 83 -43 143t-125 60q-87 0 -131.5 -56.5t-44.5 -144.5v-866z M229 1522v80q30 36 75.5 41.5t78.5 -19.5q75 -48 141 21v-80q-30 -36 -75 -42t-78 19q-76 49 -142 -20z" />
<glyph unicode="&#xd6;" horiz-adv-x="749" d="M90 283v866q0 123 75.5 210t209.5 87q124 0 198 -87t74 -212v-862q0 -123 -71.5 -211t-200.5 -88q-130 0 -207.5 85.5t-77.5 211.5zM199 283q0 -84 45 -141.5t131 -57.5q81 0 124.5 57t43.5 144v862q0 83 -43 143t-125 60q-87 0 -131.5 -56.5t-44.5 -144.5v-866z M248 1518v165h88v-165h-88zM412 1518v165h86v-165h-86z" />
<glyph unicode="&#xd8;" horiz-adv-x="749" d="M90 283v866q0 123 75.5 210t209.5 87q57 0 104 -21l25 111h82l-33 -158q94 -88 94 -231v-862q0 -123 -71.5 -211t-200.5 -88q-60 0 -115 20l-20 -96h-86l30 143q-94 85 -94 230zM199 283q0 -52 14 -90l246 1134q-38 23 -84 23q-87 0 -131.5 -56.5t-44.5 -144.5v-866z M281 109q42 -25 94 -25q81 0 124.5 57t43.5 144v862q0 51 -19 100z" />
<glyph unicode="&#xd9;" horiz-adv-x="776" d="M102 287v1147h109v-1147q0 -85 42.5 -146t127.5 -61q91 0 132.5 57t41.5 148v1149h104v-1149q0 -58 -17.5 -111t-50.5 -96t-87.5 -68.5t-122.5 -25.5q-126 0 -202.5 87.5t-76.5 215.5zM256 1690h117l76 -179h-93z" />
<glyph unicode="&#xda;" horiz-adv-x="776" d="M102 287v1147h109v-1147q0 -85 42.5 -146t127.5 -61q91 0 132.5 57t41.5 148v1149h104v-1149q0 -58 -17.5 -111t-50.5 -96t-87.5 -68.5t-122.5 -25.5q-126 0 -202.5 87.5t-76.5 215.5zM328 1511l80 177h114l-104 -177h-90z" />
<glyph unicode="&#xdb;" horiz-adv-x="776" d="M102 287v1147h109v-1147q0 -85 42.5 -146t127.5 -61q91 0 132.5 57t41.5 148v1149h104v-1149q0 -58 -17.5 -111t-50.5 -96t-87.5 -68.5t-122.5 -25.5q-126 0 -202.5 87.5t-76.5 215.5zM188 1520l150 157h88l147 -157h-100l-92 84l-90 -84h-103z" />
<glyph unicode="&#xdc;" horiz-adv-x="776" d="M102 287v1147h109v-1147q0 -85 42.5 -146t127.5 -61q91 0 132.5 57t41.5 148v1149h104v-1149q0 -58 -17.5 -111t-50.5 -96t-87.5 -68.5t-122.5 -25.5q-126 0 -202.5 87.5t-76.5 215.5zM256 1507v166h88v-166h-88zM420 1507v166h86v-166h-86z" />
<glyph unicode="&#xdd;" horiz-adv-x="722" d="M33 1436h108l135 -527l82 -389l84 391q113 440 133 525h113l-276 -1078v-358h-107v358zM299 1513l80 177h115l-105 -177h-90z" />
<glyph unicode="&#xde;" horiz-adv-x="753" d="M106 0v1436h109v-199h170q41 0 79.5 -9.5t75 -31t64 -54t44 -82t16.5 -110.5v-458q0 -118 -76 -205.5t-203 -87.5h-170v-199h-109zM215 295h170q70 0 122 53.5t52 143.5v458q0 91 -45.5 141t-128.5 50h-170v-846z" />
<glyph unicode="&#xe0;" horiz-adv-x="559" d="M39 0l176 1145h117l178 -1145h-107l-45 301v-2h-165l-48 -299h-106zM145 1409h117l76 -178h-92zM201 389h143l-25 170l-45 369l-47 -369z" />
<glyph unicode="&#xe1;" horiz-adv-x="559" d="M39 0l176 1145h117l178 -1145h-107l-45 301v-2h-165l-48 -299h-106zM201 389h143l-25 170l-45 369l-47 -369zM219 1231l80 176h115l-105 -176h-90z" />
<glyph unicode="&#xe2;" horiz-adv-x="559" d="M39 0l176 1145h117l178 -1145h-107l-45 301v-2h-165l-48 -299h-106zM94 1245l139 164h84l138 -164h-95l-86 88l-84 -88h-96zM201 389h143l-25 170l-45 369l-47 -369z" />
<glyph unicode="&#xe3;" horiz-adv-x="559" d="M39 0l176 1145h117l178 -1145h-107l-45 301v-2h-165l-48 -299h-106zM143 1274v80q27 36 68.5 41.5t71.5 -19.5q67 -49 127 21v-80q-27 -36 -68.5 -42t-71.5 19q-67 49 -127 -20zM201 389h143l-25 170l-45 369l-47 -369z" />
<glyph unicode="&#xe4;" horiz-adv-x="559" d="M39 0l176 1145h117l178 -1145h-107l-45 301v-2h-165l-48 -299h-106zM147 1251v166h89v-166h-89zM201 389h143l-25 170l-45 369l-47 -369zM311 1251v166h86v-166h-86z" />
<glyph unicode="&#xe5;" horiz-adv-x="559" d="M39 0l176 1145h117l178 -1145h-107l-45 301v-2h-165l-48 -299h-106zM147 1325q0 51 38 80t89 29t90 -28.5t39 -82.5q0 -53 -39 -79.5t-92 -26.5q-51 0 -88 28.5t-37 79.5zM201 389h143l-25 170l-45 369l-47 -369zM219 1323q0 -22 16.5 -33.5t38.5 -11.5q24 0 41 11.5 t17 33.5q0 25 -17 38t-41 13q-22 0 -38.5 -13t-16.5 -38z" />
<glyph unicode="&#xe6;" horiz-adv-x="681" d="M37 0l246 1145h342v-92h-203v-658h176v-92h-176v-207h203v-96h-299v299h-117l-59 -299h-113zM227 395h99v158l16 418h-4z" />
<glyph unicode="&#xe7;" horiz-adv-x="624" d="M76 238v669q0 111 64 179.5t169 68.5t166.5 -66t61.5 -182v-112h-103v112q0 70 -31.5 111t-91.5 41q-56 0 -91.5 -39.5t-35.5 -112.5v-669q0 -68 33 -109t94 -41q121 0 121 148v104h107v-104q0 -92 -44 -158.5t-128 -83.5l-21 -78q79 1 110.5 -58t-3.5 -118t-115 -59h-43 q-116 0 -121 114h80q1 -19 13 -29t28 -10h41q26 0 37 22.5t0.5 45t-37.5 22.5h-88l39 144q-99 7 -155 74t-56 174z" />
<glyph unicode="&#xe8;" horiz-adv-x="548" d="M82 0v1145h414v-94h-306v-656h244v-96h-244v-201h306v-98h-414zM168 1417h117l75 -178h-92z" />
<glyph unicode="&#xe9;" horiz-adv-x="548" d="M82 0v1145h414v-94h-306v-656h244v-96h-244v-201h306v-98h-414zM229 1237l80 176h115l-105 -176h-90z" />
<glyph unicode="&#xea;" horiz-adv-x="548" d="M82 0v1145h414v-94h-306v-656h244v-96h-244v-201h306v-98h-414zM115 1247l137 166h80l135 -166h-92l-84 88l-82 -88h-94z" />
<glyph unicode="&#xeb;" horiz-adv-x="548" d="M82 0v1145h414v-94h-306v-656h244v-96h-244v-201h306v-98h-414zM168 1247v166h88v-166h-88zM332 1247v166h86v-166h-86z" />
<glyph unicode="&#xec;" horiz-adv-x="270" d="M12 1417h109l74 -178h-89zM82 0v1145h106v-1145h-106z" />
<glyph unicode="&#xed;" horiz-adv-x="270" d="M72 1235l71 176h103l-94 -176h-80zM82 0v1145h106v-1145h-106z" />
<glyph unicode="&#xee;" horiz-adv-x="270" d="M-27 1235l125 182h72l123 -182h-84l-76 96l-74 -96h-86zM82 0v1145h106v-1145h-106z" />
<glyph unicode="&#xef;" horiz-adv-x="270" d="M8 1251v166h88v-166h-88zM82 0v1145h106v-1145h-106zM172 1251v166h86v-166h-86z" />
<glyph unicode="&#xf0;" horiz-adv-x="624" d="M70 233v646q0 105 59.5 172t146.5 67q30 0 58 -4l-60 115l-65 -39l-29 49l70 41l-84 156h117l51 -109l80 49l30 -47l-84 -49l127 -246q43 -93 43 -155v-643q0 -102 -59 -175t-166 -73t-171 70t-64 175zM178 233q0 -62 33 -103.5t94 -41.5q59 0 89 41.5t30 106.5v643 q0 61 -30 104t-89 43q-63 0 -95 -38.5t-32 -108.5v-646z" />
<glyph unicode="&#xf1;" horiz-adv-x="661" d="M84 0v1145h100l207 -615l88 -299l-22 312v602h108v-1145h-100l-209 606l-82 291l19 -297v-600h-109zM182 1272v80q30 36 75.5 41.5t78.5 -19.5q75 -48 141 21v-80q-30 -36 -75 -42t-78 19q-76 49 -142 -20z" />
<glyph unicode="&#xf2;" horiz-adv-x="612" d="M68 233v678q0 102 61.5 173t171.5 71q102 0 164.5 -71t62.5 -173v-675q0 -103 -59.5 -175.5t-167.5 -72.5q-106 0 -169.5 70.5t-63.5 174.5zM170 1415h117l75 -178h-92zM176 233q0 -62 32.5 -103.5t92.5 -41.5t90.5 41.5t30.5 106.5v675q0 62 -30.5 105t-90.5 43 t-92.5 -41.5t-32.5 -106.5v-678z" />
<glyph unicode="&#xf3;" horiz-adv-x="612" d="M68 233v678q0 102 61.5 173t171.5 71q102 0 164.5 -71t62.5 -173v-675q0 -103 -59.5 -175.5t-167.5 -72.5q-106 0 -169.5 70.5t-63.5 174.5zM176 233q0 -62 32.5 -103.5t92.5 -41.5t90.5 41.5t30.5 106.5v675q0 62 -30.5 105t-90.5 43t-92.5 -41.5t-32.5 -106.5v-678z M236 1237l79 176h115l-104 -176h-90z" />
<glyph unicode="&#xf4;" horiz-adv-x="612" d="M68 233v678q0 102 61.5 173t171.5 71q102 0 164.5 -71t62.5 -173v-675q0 -103 -59.5 -175.5t-167.5 -72.5q-106 0 -169.5 70.5t-63.5 174.5zM109 1260l149 157h88l148 -157h-101l-92 83l-90 -83h-102zM176 233q0 -62 32.5 -103.5t92.5 -41.5t90.5 41.5t30.5 106.5v675 q0 62 -30.5 105t-90.5 43t-92.5 -41.5t-32.5 -106.5v-678z" />
<glyph unicode="&#xf5;" horiz-adv-x="612" d="M68 233v678q0 102 61.5 173t171.5 71q102 0 164.5 -71t62.5 -173v-675q0 -103 -59.5 -175.5t-167.5 -72.5q-106 0 -169.5 70.5t-63.5 174.5zM160 1284v80q30 36 75 41.5t78 -19.5q75 -49 142 21v-80q-30 -36 -75.5 -41.5t-78.5 19.5q-75 48 -141 -21zM176 233 q0 -62 32.5 -103.5t92.5 -41.5t90.5 41.5t30.5 106.5v675q0 62 -30.5 105t-90.5 43t-92.5 -41.5t-32.5 -106.5v-678z" />
<glyph unicode="&#xf6;" horiz-adv-x="612" d="M68 233v678q0 102 61.5 173t171.5 71q102 0 164.5 -71t62.5 -173v-675q0 -103 -59.5 -175.5t-167.5 -72.5q-106 0 -169.5 70.5t-63.5 174.5zM176 233q0 -62 32.5 -103.5t92.5 -41.5t90.5 41.5t30.5 106.5v675q0 62 -30.5 105t-90.5 43t-92.5 -41.5t-32.5 -106.5v-678z M178 1257v166h88v-166h-88zM342 1257v166h86v-166h-86z" />
<glyph unicode="&#xf8;" horiz-adv-x="628" d="M76 233v678q0 102 61.5 173t171.5 71q29 0 56 -6l18 106h72l-23 -135q49 -32 77 -88t28 -121v-675q0 -102 -60 -175t-168 -73q-40 0 -67 8l-17 -96h-73l20 127q-96 71 -96 206zM184 233q0 -35 13 -67l151 887q-18 6 -39 6q-60 0 -92.5 -41.5t-32.5 -106.5v-678zM258 96 q19 -8 51 -8q60 0 90.5 41.5t30.5 106.5v675q0 49 -18 86z" />
<glyph unicode="&#xf9;" horiz-adv-x="632" d="M78 236v909h108v-909q0 -63 30.5 -107.5t90.5 -44.5q125 0 125 152v909h107v-909q0 -103 -60.5 -175.5t-171.5 -72.5q-103 0 -166 71t-63 177zM182 1413h117l76 -178h-92z" />
<glyph unicode="&#xfa;" horiz-adv-x="632" d="M78 236v909h108v-909q0 -63 30.5 -107.5t90.5 -44.5q125 0 125 152v909h107v-909q0 -103 -60.5 -175.5t-171.5 -72.5q-103 0 -166 71t-63 177zM250 1241l80 176h114l-104 -176h-90z" />
<glyph unicode="&#xfb;" horiz-adv-x="632" d="M78 236v909h108v-909q0 -63 30.5 -107.5t90.5 -44.5q125 0 125 152v909h107v-909q0 -103 -60.5 -175.5t-171.5 -72.5q-103 0 -166 71t-63 177zM119 1251l149 158h88l148 -158h-101l-92 84l-90 -84h-102z" />
<glyph unicode="&#xfc;" horiz-adv-x="632" d="M78 236v909h108v-909q0 -63 30.5 -107.5t90.5 -44.5q125 0 125 152v909h107v-909q0 -103 -60.5 -175.5t-171.5 -72.5q-103 0 -166 71t-63 177zM182 1253v166h88v-166h-88zM346 1253v166h86v-166h-86z" />
<glyph unicode="&#xfd;" horiz-adv-x="589" d="M23 1147h104l109 -414l55 -278l53 276l107 416h112l-221 -858v-289h-106v289zM236 1241l79 176h115l-104 -176h-90z" />
<glyph unicode="&#xfe;" horiz-adv-x="614" d="M80 0v1145h110v-156h121q43 0 82 -12.5t73.5 -39t54.5 -73t20 -108.5v-367q0 -99 -63 -170.5t-167 -71.5h-121v-147h-110zM190 246h121q50 0 87.5 38.5t37.5 104.5v367q0 65 -32.5 101t-92.5 36h-121v-647z" />
<glyph unicode="&#xff;" horiz-adv-x="589" d="M23 1147h104l109 -414l55 -278l53 276l107 416h112l-221 -858v-289h-106v289zM164 1251v166h88v-166h-88zM328 1251v166h86v-166h-86z" />
<glyph unicode="&#x152;" horiz-adv-x="894" d="M92 283v866q0 123 75.5 210t209.5 87q49 0 86 -12h368v-95h-296v-862h237v-94h-237v-287h296v-96h-368q-37 -12 -86 -12q-131 0 -208 84.5t-77 210.5zM201 283q0 -84 45 -141.5t131 -57.5h14q25 0 37 4v1258q-21 6 -51 6q-86 0 -131 -57t-45 -146v-866z" />
<glyph unicode="&#x153;" horiz-adv-x="722" d="M72 233v678q0 120 58.5 182t174.5 62q47 0 80 -10h279v-94h-222v-656h176v-94h-176v-203h222v-98h-279q-59 -16 -115.5 -8.5t-100.5 32t-70.5 78.5t-26.5 131zM176 233q0 -88 47 -123.5t121 -21.5v969q-16 4 -39 4q-65 0 -97 -36t-32 -114v-678z" />
<glyph unicode="&#x178;" horiz-adv-x="722" d="M33 1436h108l135 -527l82 -389l84 391q113 440 133 525h113l-276 -1078v-358h-107v358zM233 1507v166h89v-166h-89zM397 1507v166h86v-166h-86z" />
<glyph unicode="&#x2c6;" horiz-adv-x="378" d="M-4 1278l149 158h88l148 -158h-100l-93 84l-90 -84h-102z" />
<glyph unicode="&#x2dc;" horiz-adv-x="407" d="M66 1313v80q30 36 75 41.5t78 -19.5q75 -48 141 21v-80q-30 -36 -75 -42t-78 19q-75 49 -141 -20z" />
<glyph unicode="&#x2000;" horiz-adv-x="848" />
<glyph unicode="&#x2001;" horiz-adv-x="1696" />
<glyph unicode="&#x2002;" horiz-adv-x="848" />
<glyph unicode="&#x2003;" horiz-adv-x="1696" />
<glyph unicode="&#x2004;" horiz-adv-x="565" />
<glyph unicode="&#x2005;" horiz-adv-x="424" />
<glyph unicode="&#x2006;" horiz-adv-x="282" />
<glyph unicode="&#x2007;" horiz-adv-x="282" />
<glyph unicode="&#x2008;" horiz-adv-x="212" />
<glyph unicode="&#x2009;" horiz-adv-x="339" />
<glyph unicode="&#x200a;" horiz-adv-x="94" />
<glyph unicode="&#x2010;" horiz-adv-x="460" d="M61 365v88h340v-88h-340z" />
<glyph unicode="&#x2011;" horiz-adv-x="460" d="M61 365v88h340v-88h-340z" />
<glyph unicode="&#x2012;" horiz-adv-x="460" d="M61 365v88h340v-88h-340z" />
<glyph unicode="&#x2013;" horiz-adv-x="1144" d="M61 365v88h1024v-88h-1024z" />
<glyph unicode="&#x2014;" horiz-adv-x="2168" d="M61 365v88h2048v-88h-2048z" />
<glyph unicode="&#x202f;" horiz-adv-x="339" />
<glyph unicode="&#x205f;" horiz-adv-x="424" />
<glyph unicode="&#x20ac;" horiz-adv-x="608" d="M4 385v66h64v69h-64v68h64v315q0 104 64.5 176t166.5 72q106 0 167.5 -69t61.5 -193h-102q0 166 -123 166q-56 0 -91.5 -39.5t-35.5 -112.5v-315h184v-68h-184v-69h184v-66h-184v-147q0 -61 33.5 -105.5t93.5 -44.5q125 0 125 170h102q0 -130 -56 -200t-171 -70 q-107 0 -171 72t-64 178v147h-64z" />
<glyph unicode="&#x25fc;" horiz-adv-x="1146" d="M0 0v1147h1147v-1147h-1147z" />
</font>
</defs>
</svg>
