<?xml version="1.0" standalone="no"?>
<!DOCTYPE svg PUBLIC "-//W3C//DTD SVG 1.1//EN" "http://www.w3.org/Graphics/SVG/1.1/DTD/svg11.dtd" >
<svg xmlns="http://www.w3.org/2000/svg">
<metadata></metadata>
<defs>
<font id="canteroutline" horiz-adv-x="671" >
<font-face units-per-em="2048" ascent="1536" descent="-512" />
<missing-glyph horiz-adv-x="311" />
<glyph horiz-adv-x="2048" />
<glyph horiz-adv-x="2048" />
<glyph unicode="&#xd;" horiz-adv-x="2048" />
<glyph unicode=" "  horiz-adv-x="311" />
<glyph unicode="&#x09;" horiz-adv-x="311" />
<glyph unicode="&#xa0;" horiz-adv-x="311" />
<glyph unicode="!" horiz-adv-x="243" d="M86 0v199h107v-199h-107zM86 256v1178h107v-1178h-107zM96 10h88v178h-88v-178zM96 266h88v1157h-88v-1157zM115 29v141h51v-141h-51zM115 285v1120h51v-1120h-51z" />
<glyph unicode="$" horiz-adv-x="524" d="M78 242v127h104v-129q0 -86 56 -127v356q-80 53 -119.5 102t-40.5 119v225q0 100 41 162.5t119 77.5v78h92v-78q71 -17 110 -81.5t39 -155.5v-164h-106v161q0 89 -43 121v-495q85 -48 129.5 -96.5t44.5 -125.5v-79q0 -96 -44.5 -164.5t-127.5 -85.5v-96h-96v102 q-74 17 -116 82.5t-42 163.5zM86 242q0 -89 45.5 -154t114.5 -84v-100h76v96q87 10 130.5 75.5t43.5 164.5v79q0 39 -13 71t-40.5 58.5t-53 44.5t-67.5 42v516q61 -26 61 -136v-151h86v154q0 95 -39.5 153t-107.5 76v78h-76v-78q-79 -10 -119.5 -73t-40.5 -159v-225 q1 -65 42 -115t118 -102v-375q-37 13 -55.5 52.5t-18.5 91.5v116h-86v-116zM104 242v96h52v-96q0 -66 27 -114t81 -58v415q-79 53 -119 98.5t-41 106.5v225q0 92 40.5 150.5t119.5 64.5v74h39v-74q71 -9 109.5 -66.5t38.5 -145.5v-136h-52v133q0 146 -96 162v-555 q42 -25 65.5 -40.5t52.5 -41.5t42.5 -55.5t13.5 -65.5v-79q0 -95 -44.5 -157t-129.5 -65v-94h-39v99q-71 8 -115.5 67t-44.5 152zM156 692q1 -47 27 -77t81 -66v528q-51 -6 -79.5 -47.5t-28.5 -114.5v-223zM174 692v223q0 101 72 138v-469q-26 19 -37.5 29t-22.5 30.5 t-12 48.5zM184 692q0 -32 12.5 -50.5t41.5 -39.5v434q-54 -29 -54 -121v-223zM303 68q61 4 93 52t32 120v73q0 49 -30.5 80.5t-94.5 69.5v-395zM322 90v338q31 -21 46.5 -33.5t29.5 -34.5t14 -47v-73q0 -58 -23 -99t-67 -51zM330 104q71 28 71 136v73q0 30 -17.5 52 t-53.5 47v-308z" />
<glyph unicode="&#x26;" horiz-adv-x="630" d="M78 1065v82q0 131 66 217t186 86q116 0 177.5 -82t61.5 -219v-127h-104v127q0 86 -32.5 138t-102.5 52q-69 0 -105.5 -51t-36.5 -141v-80q0 -94 37 -152.5t119 -58.5h29v-106h-27q-66 0 -102.5 -57.5t-36.5 -137.5v-293q0 -83 36.5 -125.5t94.5 -42.5q69 0 108 46t39 124 v494q-31 0 -75 -39l-9 121q45 28 84 28q21 0 66 -10q16 -1 29 -2.5t35 8.5t51 33l6 -121q-48 -38 -82 -35v-479q0 -78 -22.5 -134.5t-61 -86.5t-80 -43.5t-88.5 -13.5q-104 0 -172 70.5t-68 205.5v295q0 87 22 142.5t75 99.5q-117 69 -117 268zM90 1065q0 -106 29 -168.5 t94 -99.5q-57 -41 -80.5 -100t-23.5 -142v-295q0 -131 64.5 -198.5t164.5 -67.5q45 0 85.5 13t77.5 42t59 83.5t22 129.5v492q40 -6 80 26l-5 97q-36 -28 -62.5 -32t-45.5 5q-36 8 -64 8q-41 0 -73 -24l4 -97q45 34 80 31v-504q0 -83 -42 -131.5t-116 -48.5 q-62 0 -101.5 45.5t-39.5 132.5v293q0 83 39.5 143t109.5 60h19v90h-21q-88 0 -127 61t-39 158v80q0 94 39 147.5t113 53.5q75 0 110 -54t35 -145v-119h86v119q0 133 -59.5 213t-171.5 80q-116 0 -178 -84t-62 -211v-82zM109 1065v82q0 119 57.5 196.5t163.5 77.5 q102 0 156.5 -74t54.5 -198v-98h-47v98q0 100 -39.5 159.5t-124.5 59.5q-83 0 -126.5 -59t-43.5 -162v-80q0 -106 44 -173t140 -67h6v-49h-6q-78 0 -122 -66t-44 -157v-293q0 -97 44.5 -146.5t115.5 -49.5q83 0 129.5 53.5t46.5 144.5v522q-21 7 -41 6t-39 -18l-4 47 q25 17 50.5 20t45.5 -2.5t39.5 -11.5t38.5 -4.5t35 15.5l4 -47q-28 -26 -82 -15v-514q0 -69 -20 -119.5t-54 -77.5t-71 -39t-78 -12q-92 0 -151.5 62.5t-59.5 183.5v295q0 170 127 244q-145 54 -145 266z" />
<glyph unicode="," horiz-adv-x="147" d="M43 -111v277h102v-143l-16 -134h-86zM53 -100h68l14 123v135h-82v-258zM70 -82v223h49v-116l-13 -107h-36z" />
<glyph unicode="-" horiz-adv-x="385" d="M76 371v80h295v-80h-295zM82 377h283v67h-283v-67zM98 391v41h248v-41h-248z" />
<glyph unicode="." horiz-adv-x="149" d="M43 0v156h94v-156h-94zM51 10h78v137h-78v-137zM68 27v104h47v-104h-47z" />
<glyph unicode="/" horiz-adv-x="456" d="M45 0l315 1434h105l-315 -1434h-105zM57 10h86l310 1413h-86zM80 29l301 1376h47l-299 -1376h-49z" />
<glyph unicode="0" horiz-adv-x="673" d="M102 287v862q0 133 75 218t192 85q115 0 186.5 -85t71.5 -218v-860q0 -127 -69 -214t-189 -91q-114 0 -190.5 89t-76.5 214zM113 287q0 -121 73.5 -207t182.5 -86q115 4 181 88.5t66 206.5v860q0 128 -69 211.5t-178 83.5q-112 0 -184 -83t-72 -212v-862zM131 286v1v1v1 v1v1v1v1v1v1v1v1v1v1v1v1v1v1v1v1v1v1v1v1v1v1v1v1v1v1v1v1v1v1v1v1v1v1v1v1v1v1v1v1v1v1v1v1v1v1v1v1v1v1v1v1v1v1v1v1v1v1v1v1v1v1v1v1v1v1v1v1v1v1v1v1v1v1v1v1v1v1v1v1v1v1v1v1v1v1v1v1v1v1v1v1v1v1v1v1v1v1v1v1v1v1v1v1v1v1v1v1v1v1v1v1v1v1v1v1v1v1v1v1v1v1v1v1v1v1v1 v1v1v1v1v1v1v1v1v1v1v1v1v1v1v1v1v1v1v1v1v1v1v1v1v1v1v1v1v1v1v1v1v1v1v1v1v1v1v1v1v1v1v1v1v1v1v1v1v1v1v1v1v1v1v1v1v1v1v1v1v1v1v1v1v1v1v1v1v1v1v1v1v1v1v1v1v1v1v1v1v1v1v1v1v1v1v1v1v1v1v1v1v1v1v1v1v1v1v1v1v1v1v1v1v1v1v1v1v1v1v1v1v1v1v1v1v1v1v1v1v1v1v1v1v1v1v1 v1v1v1v1v1v1v1v1v1v1v1v1v1v1v1v1v1v1v1v1v1v1v1v1v1v1v1v1v1v1v1v1v1v1v1v1v1v1v1v1v1v1v1v1v1v1v1v1v1v1v1v1v1v1v1v1v1v1v1v1v1v1v1v1v1v1v1v1v1v1v1v1v1v1v1v1v1v1v1v1v1v1v1v1v1v1v1v1v1v1v1v1v1v1v1v1v1v1v1v1v1v1v1v1v1v1v1v1v1v1v1v1v1v1v1v1v1v1v1v1v1v1v1v1v1v1v1 v1v1v1v1v1v1v1v1v1v1v1v1v1v1v1v1v1v1v1v1v1v1v1v1v1v1v1v1v1v1v1v1v1v1v1v1v1v1v1v1v1v1v1v1v1v1v1v1v1v1v1v1v1v1v1v1v1v1v1v1v1v1v1v1v1v1v1v1v1v1v1v1v1v1v1v1v1v1v1v1v1v1v1v1v1v1v1v1v1v1v1v1v1v1v1v1v1v1v1v1v1v1v1v1v1v1v1v1v1v1v1v1v1v1v1v1v1v1v1v1v1v1v1v1v1v1v1 v1v1v1v1v1v1v1v1v1v1v1v1v1v1v1v1v1v1v1v1v1v1v1v1v1v1v1v1v1v1v1v1v1v1v1v1v1v1v1v1v1v1v1v1v1v1v1v1v1v1v1v1v1v1v1v1v1v1v1v1v1v1v1v1v1v1v1v1v1v1v1v1v1v1v1v1v1v1v1v1v1v1v1v1v1v1v1v1v1v1v1v1v1v1v1v1v1v1v1v1v1v1v1v1v1v1v1v1v1v1v1v1v1v1v1v1v1v1v1v1v1v1v1v1v1v1v1 v1v1v1v1v1v1v1v1v1v1v1v1v1v1v1v1v1v1v1v1v1v1v1v1v1v1v1v1v1v1v1v1v1v1v1v1v1v1v1v1v1v1v1v1v1v1v1v1v1v1v1v1v1v1v1v1v1v1v1v1v1v1v1v1v1v1v1v1v1v1v1v1v1v1v1v1v1v1v1v1v1v1v1v1v1v1v1v1v1v1v1v1v1v1v1v1v1v1v1v1v1v1v1v1v1v1v1v1v1v1v1v1v1v1v1v1v1v1v1v1v1v1v1v1v1v1v1 v1v1v1v1v1v1v1v1v1v1v1v1v1v1v1v1v1v1v1v1v1v1v1v1v1v1v1v1v1v1v1v1v1v1v1v1v1v1v1v1v1v1v1v1v1v1v1v1v1v1v1v1v1v1v1v1v1v1v1v1v1v1v1v1v1v1v1v1v1v1v1v1v1v1v1v1v1v1v1v1v1v1v1v1v1v1v1v1v10q0 120 67 197t171 77q102 0 165.5 -77t63.5 -197v-860q0 -113 -61.5 -192 t-167.5 -83q-102 0 -170 79.5t-68 193.5v-1zM182 287q0 -119 72 -176l184 1241q-30 18 -69 18q-85 0 -136 -60.5t-51 -158.5v-864zM201 287v864q0 89 46.5 144t121.5 55q25 0 49 -9q-31 -220 -93 -620.5t-87 -568.5q-37 50 -37 135zM211 287q0 -75 22 -113 q31 216 91.5 604.5t85.5 556.5q-18 6 -41 6q-72 0 -115 -52.5t-43 -137.5v-864zM299 80q50 -12 70 -12q82 0 129.5 64t50.5 157v860q0 50 -15.5 98.5t-48.5 75.5zM322 94q139 946 176 1188q32 -47 32 -133v-860q-3 -87 -45 -145t-116 -58q-23 0 -47 8zM330 102q18 -6 39 -6 q70 0 109 55.5t42 137.5v860q0 60 -18 102z" />
<glyph unicode="1" horiz-adv-x="299" d="M49 1323v111h197v-1434h-109v1323h-88zM57 1333h90v-1323h89v1413h-179v-90zM74 1354v51h143v-1376h-51v1325h-92z" />
<glyph unicode="2" horiz-adv-x="604" d="M86 0v410q2 46 20.5 91t53.5 89t67.5 76.5t81.5 76.5q162 145 164 207v219q0 88 -38 127t-95 39q-67 0 -103 -47t-36 -125v-110h-105v114q0 71 21.5 127t57.5 88t78 48t87 16q42 0 82.5 -15t77 -46t58.5 -86t22 -128v-221q-1 -37 -15.5 -73t-49 -76.5t-58.5 -65 t-76 -73.5q-88 -81 -135.5 -140t-50.5 -114v-295h385v-113h-494zM96 10h473v92h-385v308q1 30 15.5 60.5t48.5 69.5t54.5 59.5t70.5 68.5q49 45 75.5 71.5t59 65.5t47 74t14.5 71v221q0 70 -21.5 124t-56 83t-73 43.5t-78.5 14.5q-44 0 -84.5 -16t-74.5 -47t-54.5 -84.5 t-20.5 -121.5v-104h84v100q0 82 39 132.5t111 50.5q61 0 103 -42t42 -135v-219q-2 -64 -168 -213q-99 -89 -158 -167.5t-63 -159.5v-400zM115 29v381q2 42 19.5 82.5t52 83t63 71t78.5 74.5q174 158 176 229v219q0 105 -47.5 151t-116.5 46q-81 0 -124.5 -56t-43.5 -147v-80 h-47v84q0 123 64.5 186.5t150.5 63.5q38 0 73.5 -13.5t68 -41t52 -77t19.5 -114.5v-221q0 -22 -6.5 -44t-23.5 -47t-28.5 -41.5t-42 -46.5t-42 -41t-48.5 -46q-49 -46 -73.5 -70.5t-57.5 -63.5t-48.5 -72.5t-16.5 -67.5v-328h387v-53h-438z" />
<glyph unicode="3" horiz-adv-x="622" d="M70 285v129h104v-129q0 -86 42 -137.5t116 -51.5q70 0 110.5 52.5t40.5 138.5v80q0 92 -36.5 150t-118.5 58h-80v113h78q66 4 102.5 58.5t36.5 132.5v292q0 83 -35.5 125.5t-93.5 42.5q-70 0 -109 -46t-39 -124v-112h-102v114q0 78 22.5 134.5t60 86t79 43t88.5 13.5 q102 0 169.5 -70t67.5 -204v-295q0 -89 -23.5 -142t-76.5 -98q117 -66 117 -272v-80q0 -130 -69.5 -217.5t-188.5 -87.5q-115 0 -188.5 84.5t-73.5 218.5zM80 285q0 -129 71 -211t181 -82q115 0 181.5 84t66.5 211v80q0 200 -123 270q106 79 106 242v295q0 130 -64.5 198 t-162.5 68q-45 0 -85 -13t-76 -42.5t-57.5 -84t-21.5 -129.5v-104h84v102q0 83 41 131t115 48q61 0 100 -45t39 -132v-292q0 -82 -39 -139.5t-110 -61.5h-68v-92h70q86 0 126 -61t40 -158v-80q0 -89 -44 -145t-118 -56q-79 0 -123.5 54.5t-44.5 144.5v118h-84v-118zM98 285 v98h47v-98q0 -99 50 -158t137 -59q84 0 132 60.5t48 158.5v80q0 105 -44 172t-140 67h-52v53h52q78 3 122 66t44 154v292q0 96 -44 146.5t-114 50.5q-82 0 -128 -53.5t-46 -145.5v-82h-47v84q0 69 20 119.5t53.5 77.5t70 39t77.5 12q91 0 150 -62t59 -183v-295 q0 -169 -129 -244q145 -55 145 -268v-80q0 -118 -61.5 -196.5t-167.5 -78.5q-103 0 -168.5 76t-65.5 197z" />
<glyph unicode="4" horiz-adv-x="616" d="M55 391v82l224 1012h112l-219 -987h244v891h104v-891h90v-107h-90v-391h-104v391h-361zM68 401h356v-391h86v391h90v86h-90v891h-86v-891h-264l219 988h-92l-219 -1004v-70zM86 420v49l215 987h53l-217 -987h305v891h50v-891h90v-49h-90v-391h-50v391h-356z" />
<glyph unicode="5" horiz-adv-x="651" d="M106 281v106h105v-106q0 -80 43.5 -132.5t116.5 -52.5q75 0 113 51.5t38 133.5v163q0 92 -38.5 142.5t-112.5 50.5q-51 0 -100 -43t-64 -105h-101v945h490v-107h-385v-643q72 66 160 66q118 0 187 -82t69 -224v-163q0 -128 -67.5 -212.5t-188.5 -84.5q-124 0 -194.5 85 t-70.5 212zM117 281q0 -126 66.5 -206.5t187.5 -80.5q117 0 182 81t65 206v163q0 137 -67 216t-180 79q-95 0 -168 -73v669h383v88h-469v-923h84q13 61 64.5 104t105.5 43q79 0 120 -52.5t41 -150.5v-163q0 -87 -41 -141t-120 -54t-123.5 54.5t-44.5 140.5v96h-86v-96z M133 281v75h51v1v-1v-1v-1v-1v-1v-1v-1v-1v-1v-1v-1v-1v-1v-1v-1v-1v-1v-1v-1v-1v-1v-1v-1v-1v-1v-1v-1v-1v-1v-1v-1v-1v-1v-1v-1v-1v-1v-1v-1v-1v-1v-1v-1v-1v-1v-1v-1v-1v-1v-1v-1v-1v-1v-1v-1v-1v-1v-1v-1v-1v-1v-1v-1v-1v-1v-1v-10q0 -93 50 -153t137 -60q88 0 133 58.5 t45 154.5v163q0 107 -45 164.5t-133 57.5q-60 0 -116 -42.5t-71 -105.5h-51v885h434v-47h-383v-744q33 51 83.5 79t103.5 28q105 0 167 -73.5t62 -201.5v-163q0 -115 -60.5 -191t-168.5 -76q-112 0 -175 76t-63 191z" />
<glyph unicode="6" horiz-adv-x="657" d="M102 289v856q0 130 73.5 215.5t191.5 85.5q120 0 185.5 -82.5t65.5 -220.5v-78h-104v78q0 88 -38 141t-109 53q-72 0 -113.5 -51t-44.5 -141v-465q32 30 75.5 47.5t84.5 17.5q118 0 187 -79t69 -224v-153q-3 -132 -71 -216.5t-189 -84.5q-122 0 -192.5 85.5t-70.5 215.5z M113 289q0 -127 67 -209t185 -82t182 80.5t67 210.5v153q0 139 -66.5 216t-178.5 77q-96 0 -170 -80v490q3 94 47.5 147.5t120.5 53.5t115.5 -55.5t39.5 -147.5v-68h86v68q0 133 -63 213t-178 80q-114 0 -184 -82.5t-70 -208.5v-856zM131 289v856q0 117 65 194.5t171 77.5 t164.5 -75t58.5 -199v-49h-49v49q0 102 -44.5 162.5t-129.5 60.5t-134.5 -59t-52.5 -162v-543q31 53 83.5 83t105.5 30q104 0 165.5 -71.5t61.5 -201.5v-153q-3 -121 -62.5 -196t-168.5 -75t-171.5 76.5t-62.5 194.5zM182 289q0 -92 48.5 -153.5t134.5 -61.5 q87 0 134.5 61.5t47.5 155.5v151q0 222 -178 222q-85 0 -136 -63t-51 -157v-1v-1v-1v-1v-1v-1v-1v-1v-1v-1v-1v-1v-1v-1v-1v-1v-1v-1v-1v-1v-1v-1v-1v-1v-1v-1v-1v-1v-1v-1v-1v-1v-1v-1v-1v-1v-1v-1v-1v-1v-1v-1v-1v-1v-1v-1v-1v-1v-1v-1v-1v-1v-1v-1v-1v-1v-1v-1v-2v-1v-1 v-1v-1v-1v-1v-1v-1v-1v-2v-1v-1v-1v-1v-1v-1v-2v-1v-1v-1v-1v-1v-1v-2v-1v-1v-1v-1v-1v-2v-1v-1v-1v-1v-2v-1v-1v-1v-1v-2v-1v-1v-1v-1v-2v-1v-1v-1v-1v-1v-2v-1v-1v-1v-1v-2v-1v-1v-1v-1v-1v-2v-1v-1v-1v-1v-1v-2v-1v-1v-1v-1v-1v-1v-10zM201 289v155q0 86 45.5 143.5 t122.5 57.5q159 0 159 -203v-151q0 -86 -42.5 -142.5t-120.5 -56.5t-121 56.5t-43 140.5zM209 289q0 -79 42 -133t114 -54q73 0 113 54t40 135v151q0 193 -149 193q-73 0 -116.5 -54.5t-43.5 -136.5v-155z" />
<glyph unicode="7" horiz-adv-x="552" d="M55 1323v111h488v-88l-189 -846h95v-103h-117l-88 -397h-107l86 397h-96v103h121l182 823h-375zM66 1331h374q-31 -149 -93 -425t-91 -414h-119v-86h99l-89 -398h91l86 398h116v86h-96l188 856v75h-466v-92zM84 1352v53h430v-53l-195 -881h101v-45h-111l-86 -397h-51 l86 397h-102v45h114l195 881h-381z" />
<glyph unicode="8" horiz-adv-x="647" d="M88 285v147q0 155 115 244q-53 49 -84 125t-31 155v154q0 145 68 241.5t194 96.5q125 0 191.5 -91.5t66.5 -248.5v-154q-8 -186 -108 -278q61 -49 84.5 -108.5t23.5 -135.5v-151q-3 -130 -71 -211.5t-185 -81.5q-116 0 -190 82t-74 215zM98 285q0 -129 70.5 -208 t183.5 -79t179 79t69 204v151q0 157 -115 244q107 86 115 280v152q0 153 -64.5 241.5t-185.5 88.5q-122 0 -187 -93t-65 -235v-154q0 -80 32.5 -157.5t88.5 -122.5q-121 -83 -121 -244v-147zM117 285v147q0 166 137 244q-66 37 -101.5 114t-35.5 166v154q0 134 60 221.5 t173 87.5q112 0 172 -84t60 -227v-152q-8 -207 -131 -280q62 -33 96.5 -98t34.5 -146v-151q-3 -117 -64 -190t-166 -73q-104 0 -169.5 73.5t-65.5 193.5zM164 956q0 -60 19.5 -116t64 -97t104.5 -41q58 0 100.5 39.5t61 95.5t18.5 119v152q0 119 -45.5 189.5t-136.5 70.5 q-87 0 -136.5 -70.5t-49.5 -187.5v-154zM168 285q0 -96 49 -154.5t135 -58.5q83 0 131.5 57.5t48.5 155.5v147q0 96 -48 153.5t-132 61.5q-83 0 -133.5 -59.5t-50.5 -155.5v-147zM182 956v154q0 107 45 172.5t123 65.5q81 0 122.5 -66t41.5 -174v-152q0 -92 -42.5 -163.5 t-119.5 -71.5q-54 0 -94.5 38t-58 90t-17.5 107zM184 285v147q0 87 47 141t121 54q77 -5 119.5 -56t42.5 -139v-147q0 -89 -44 -142t-118 -53q-78 0 -123 53.5t-45 141.5zM190 956q0 -53 17 -103t55.5 -86t89.5 -36q49 0 85 35.5t51.5 85t15.5 104.5v152q0 106 -38 168.5 t-116 62.5q-74 0 -117 -63t-43 -166v-154zM195 285q0 -83 42 -134t115 -51q69 0 110.5 49.5t41.5 135.5v147q0 83 -41 131t-113 53q-70 -1 -112.5 -51.5t-42.5 -132.5v-147z" />
<glyph unicode="9" horiz-adv-x="641" d="M74 293v78h104v-78q0 -82 41 -136.5t111 -54.5q79 0 121.5 53t42.5 136v311q-73 -80 -156 -80q-59 0 -106 22t-76 58t-48 85t-26.5 99t-7.5 105v201q0 68 15 130t45.5 114t83 83t120.5 31q89 0 149 -52t84.5 -130.5t24.5 -177.5v-799q0 -133 -71.5 -218t-194.5 -85 q-115 0 -185.5 89t-70.5 216zM82 891q0 -53 7.5 -102t25.5 -97t46.5 -82.5t73.5 -56t103 -21.5q47 0 90.5 27.5t73.5 69.5v-338q0 -87 -44.5 -143t-127.5 -56q-75 0 -117.5 57t-42.5 144v69h-86v-69q0 -123 67.5 -209t178.5 -86q119 0 187.5 82t68.5 211v799q0 71 -14 132 t-43 111t-78 78.5t-113 28.5q-66 0 -117 -30t-80.5 -80.5t-44 -110.5t-14.5 -127v-201zM100 891v201q0 85 23 157t78.5 122t136.5 50q79 0 133 -48t76 -120t22 -163v-799q0 -120 -64 -196.5t-175 -76.5q-102 0 -165 80.5t-63 194.5v49h50v-49q0 -96 47 -157.5t131 -61.5 q92 0 141 61t49 156v416q-21 -66 -70 -110t-112 -44q-66 0 -114.5 30t-74 80.5t-37.5 107t-12 120.5zM152 891q0 -48 7.5 -92t26.5 -90t58 -73.5t94 -27.5q45 0 81 27.5t56 71.5t30.5 91.5t10.5 94.5v197q0 53 -8.5 99t-27.5 87.5t-55 65.5t-87 24q-64 0 -107.5 -42.5 t-61 -102t-17.5 -129.5v-201zM170 891v201q0 65 16 120t55.5 94.5t96.5 39.5q60 0 98 -40.5t51 -94.5t13 -121v-197q0 -59 -16 -117.5t-54.5 -103.5t-91.5 -45q-50 0 -85.5 26t-52 69t-23.5 84t-7 85zM180 891q0 -43 6.5 -82t22 -80.5t49 -66.5t80.5 -25q50 0 85.5 43.5 t50.5 99.5t15 113v197q0 48 -7 89t-23.5 78t-47 58.5t-73.5 21.5q-41 0 -72.5 -21.5t-49.5 -57.5t-27 -78t-9 -88v-201z" />
<glyph unicode=":" horiz-adv-x="147" d="M43 0v156h94v-156h-94zM43 459v155h94v-155h-94zM51 10h78v137h-78v-137zM51 469h78v137h-78v-137zM68 27v104h47v-104h-47zM68 485v105h47v-105h-47z" />
<glyph unicode=";" horiz-adv-x="159" d="M43 -115v281h102v-146l-16 -135h-86zM43 459v155h94v-155h-94zM51 469h78v137h-78v-137zM53 -104h68l14 124v138h-82v-262zM68 485v105h47v-105h-47zM70 -86v227h49v-118l-13 -109h-36z" />
<glyph unicode="?" horiz-adv-x="555" d="M72 1053v114q0 140 67 209.5t164 69.5q91 0 158 -67.5t67 -207.5v-221q-1 -46 -4 -75t-13.5 -68.5t-34 -75.5t-60.5 -72q-37 -34 -55.5 -74.5t-21.5 -69t-3 -77.5v-28v-162h-105v162q0 112 21.5 188t95.5 145q33 31 51 72.5t21.5 69t3.5 65.5v219q0 88 -34 127t-87 39 q-66 0 -98.5 -46.5t-32.5 -125.5v-110h-100zM80 1063h84v100q0 83 35 133t104 50q59 0 95 -41.5t36 -135.5v-219q-2 -72 -16.5 -118.5t-61.5 -94.5q-74 -68 -94 -141t-20 -186v-152h84v152v28q0 51 3 81.5t22.5 72.5t56.5 76q69 66 88.5 128.5t21.5 153.5v221 q0 136 -63.5 200.5t-151.5 64.5q-92 0 -157.5 -68t-65.5 -201v-104zM98 1083v84q0 123 60 186.5t145 63.5q37 0 70 -13.5t62.5 -41t47 -77t17.5 -114.5v-221q0 -83 -20 -143t-85 -123q-18 -16 -31.5 -34t-22.5 -32.5t-15.5 -35.5t-10 -33t-5.5 -35.5t-2 -33t-0.5 -36 t-0.5 -34.5l-2 -134h-47v134q0 108 19.5 177t89.5 134q25 22 42 49.5t25 45t12.5 50.5t5 41.5t1.5 42.5v219q0 106 -42 151.5t-108 45.5q-79 0 -118.5 -55.5t-39.5 -147.5v-80h-47zM231 0v203h103v-203h-103zM242 10h82v183h-82v-183zM260 29v143h45v-143h-45z" />
<glyph unicode="A" horiz-adv-x="612" d="M66 0l206 1434h121l213 -1434h-112l-50 379h-215q-5 -38 -25 -174.5t-28 -204.5h-110zM78 10h90l53 379h232l51 -379h90l-209 1413h-104zM100 29l197 1376h72l204 -1376h-51l-55 379h-262l-53 -379h-52zM211 461h248l-125 862zM231 481l103 707q18 -126 50 -345.5 t52 -361.5h-205zM242 492h186q-17 120 -45 302.5t-49 327.5z" />
<glyph unicode="B" horiz-adv-x="667" d="M117 0v1434h237q115 0 191 -75.5t76 -215.5l-3 -406q0 -124 -92 -219q1 0 35 -29q57 -60 57 -161v-101q0 -113 -58.5 -170t-137.5 -57h-305zM127 10h295q77 0 131.5 54t54.5 163v101q0 99 -53 155q-14 17 -43 33q42 44 69 103t27 118l2 406q0 130 -72.5 205t-183.5 75 h-227v-1413zM145 29v1376h209q101 0 169.5 -72.5t68.5 -189.5l-2 -406q0 -67 -31.5 -128t-85.5 -99q42 -13 68 -41q49 -52 49 -141v-101q0 -98 -49.5 -148t-118.5 -50h-277zM197 80h225q31 0 54.5 11.5t35.5 27.5t19.5 38t9.5 38t2 32v101q0 64 -37 104q-39 39 -111 39h-198 v-391zM197 522h161q65 0 125 61.5t60 155.5v404q0 92 -51 150t-138 59h-157v-830zM213 100v353h182q64 0 99 -35q30 -30 30 -90v-101q0 -18 -3.5 -36t-12.5 -40.5t-31.5 -36.5t-54.5 -14h-209zM213 543v788h141q79 -1 124.5 -52.5t45.5 -135.5v-404q0 -86 -53 -141t-113 -55 h-145zM223 111h199q29 0 49 12.5t28.5 33t11.5 37t3 33.5v101q0 52 -27 82q-32 32 -92 32h-172v-331zM223 551h135q56 0 106 53t50 135v404q0 79 -43 128t-117 50h-131v-770z" />
<glyph unicode="C" horiz-adv-x="667" d="M102 293v842q0 129 73 218t190 89q116 0 188 -88t72 -217v-142h-103l-2 140q0 82 -40 139t-111 57q-72 0 -116 -52.5t-44 -143.5v-842q0 -79 42.5 -137t117.5 -58q74 0 112.5 55.5t38.5 137.5v129h107v-129q0 -58 -16 -111.5t-46.5 -97t-81 -70t-114.5 -26.5 q-121 0 -194 88t-73 219zM113 293q0 -129 69 -213t187 -84q119 0 183 87.5t64 207.5v121h-86v-121q0 -88 -41 -145.5t-120 -57.5q-80 0 -124 61t-44 144v842q0 95 46.5 149.5t121.5 54.5q76 0 118.5 -59t42.5 -145l2 -129h84v131q0 126 -69.5 210.5t-181.5 84.5 q-113 0 -182.5 -86t-69.5 -211v-842zM131 292v1v1v1v1v1v1v1v1v1v1v1v1v1v1v1v1v1v1v1v1v1v1v1v1v1v1v1v1v1v1v1v1v1v1v1v1v1v1v1v1v1v1v1v1v1v1v1v1v1v1v1v1v1v1v1v1v1v1v1v1v1v1v1v1v1v1v1v1v1v1v1v1v1v1v1v1v1v1v1v1v1v1v1v1v1v1v1v1v1v1v1v1v1v1v1v1v1v1v1v1v1v1v1v1v1 v1v1v1v1v1v1v1v1v1v1v1v1v1v1v1v1v1v1v1v1v1v1v1v1v1v1v1v1v1v1v1v1v1v1v1v1v1v1v1v1v1v1v1v1v1v1v1v1v1v1v1v1v1v1v1v1v1v1v1v1v1v1v1v1v1v1v1v1v1v1v1v1v1v1v1v1v1v1v1v1v1v1v1v1v1v1v1v1v1v1v1v1v1v1v1v1v1v1v1v1v1v1v1v1v1v1v1v1v1v1v1v1v1v1v1v1v1v1v1v1v1v1v1v1v1v1v1 v1v1v1v1v1v1v1v1v1v1v1v1v1v1v1v1v1v1v1v1v1v1v1v1v1v1v1v1v1v1v1v1v1v1v1v1v1v1v1v1v1v1v1v1v1v1v1v1v1v1v1v1v1v1v1v1v1v1v1v1v1v1v1v1v1v1v1v1v1v1v1v1v1v1v1v1v1v1v1v1v1v1v1v1v1v1v1v1v1v1v1v1v1v1v1v1v1v1v1v1v1v1v1v1v1v1v1v1v1v1v1v1v1v1v1v1v1v1v1v1v1v1v1v1v1v1v1 v1v1v1v1v1v1v1v1v1v1v1v1v1v1v1v1v1v1v1v1v1v1v1v1v1v1v1v1v1v1v1v1v1v1v1v1v1v1v1v1v1v1v1v1v1v1v1v1v1v1v1v1v1v1v1v1v1v1v1v1v1v1v1v1v1v1v1v1v1v1v1v1v1v1v1v1v1v1v1v1v1v1v1v1v1v1v1v1v1v1v1v1v1v1v1v1v1v1v1v1v1v1v1v1v1v1v1v1v1v1v1v1v1v1v1v1v1v1v1v1v1v1v1v1v1v1v1 v1v1v1v1v1v1v1v1v1v1v1v1v1v1v1v1v1v1v1v1v1v1v1v1v1v1v1v1v1v1v1v1v1v1v1v1v1v1v1v1v1v1v1v1v1v1v1v1v1v1v1v1v1v1v1v1v1v1v1v1v1v1v1v1v1v1v1v1v1v1v1v1v1v1v1v1v1v1v1v1v1v1v1v1v1v1v1v1v1v1v1v1v1v1v1v1v1v1v1v1v1v1v1v1v1v1v1v1v1v1v1v1v1v1v1v1v1v1v1v1v1v1v1v1v1v1v1 v1v1v1v1v1v1v1v1v1v1v1v1v1v1v1v1v1v1v1v1v1v1v1v1v1v1v1v1v1v1v1v1v1v1v1v1v1v1v1v1v1v1v1v1v1v1v1v1v1v1v1v1v1v1v1v1v1v1v1v1v1v1v1v1v1v1v1v1v1v1v1v1v1v1v1v1v1v1v1v1v1v1v1v1v1v1v1v1v1v1v1v1v1v1v1v1v1v1v1v1v1v1v1v1v1v1v1v1v1v1v1v1v1v1v1v1v1v1v1v1v1v1v1v1v1v1v1 v1v1v1v1v1v1v1v1v1v1v1v1v1v1v1v1v1v1v1v1v1v1v1v1v1v1v1v1v1v1v1v1v1v1v1v1v1v1v1v1v1v1v1v1v1v1v1v1v1v1v1v1v1v1v1v1v1v1v1v1v1v1v1v1v1v1v1v1v1v1v1v1v1v1v1v1v1v1v1v1v1v1v1v1v1v1v1v1v1v1v1v1v1v1v9q0 117 64.5 197.5t169.5 80.5q104 0 168.5 -79.5t64.5 -196.5v-111 h-47l-2 109q0 95 -47.5 160t-132.5 65q-84 0 -135.5 -60.5t-51.5 -164.5v-842q0 -92 49 -157.5t138 -65.5q88 0 134 63t46 158v100h49v-100q0 -71 -23.5 -131.5t-77 -102t-128.5 -41.5q-109 0 -173.5 79t-64.5 198v-1z" />
<glyph unicode="D" horiz-adv-x="688" d="M121 0v1434h248q39 0 67 -3t62 -12.5t57.5 -29.5t44 -51t31 -81t10.5 -116v-854q0 -60 -12.5 -107.5t-30 -77t-46 -50.5t-50 -31t-53.5 -15t-45 -5.5t-35 -0.5h-248zM131 10h238h24.5t32 2.5t38.5 7t38.5 14t39 22.5t34 34.5t29.5 48t18.5 65t7.5 83.5v854 q0 64 -10 112.5t-30 78.5t-42 49t-55 27.5t-60 11.5t-65 3h-238v-1413zM150 29v1376h219q43 0 72.5 -3.5t64.5 -18.5t56 -42.5t35.5 -78t14.5 -121.5v-854q0 -53 -10.5 -95.5t-26 -69t-40 -45.5t-44 -28t-47 -14t-40.5 -5.5t-32 -0.5h-3h-219zM201 84h168q32 0 55.5 3t51 15 t45.5 33t30 59.5t12 92.5v854q-1 58 -12 98.5t-26 62.5t-42.5 34t-51.5 15t-62 3h-168v-1270zM219 104v1229h150q34 0 56 -2.5t46.5 -13.5t38.5 -31t24 -56t11 -89v-854q0 -48 -11 -83t-27.5 -54t-41.5 -30t-46.5 -13.5t-49.5 -2.5h-150zM227 115h142q27 0 47 2.5t44 12.5 t39 27.5t25.5 50.5t10.5 79v854q-1 62 -13.5 100.5t-38 55.5t-49.5 21.5t-65 4.5h-142v-1208z" />
<glyph unicode="E" horiz-adv-x="591" d="M117 0v1434h461v-109h-355v-838h281v-108h-281v-268h357v-111h-463zM127 10h442v90h-356v289h283v88h-283v858h356v88h-442v-1413zM145 29v1376h406v-49h-354v-899h280v-49h-280v-328h354v-51h-406z" />
<glyph unicode="F" horiz-adv-x="555" d="M115 0v1434h438v-109h-334v-842h285v-106h-285v-377h-104zM125 10h86v375h285v90h-285v860h334v90h-420v-1415zM143 29v1376h383v-49h-333v-901h284v-49h-284v-377h-50z" />
<glyph unicode="G" horiz-adv-x="647" d="M102 291v844q0 130 70.5 217.5t187.5 87.5q116 0 190.5 -85t74.5 -218v-142h-105v142q0 83 -42.5 138.5t-115.5 55.5q-68 0 -109.5 -54.5t-41.5 -141.5v-844q0 -77 41.5 -134t112.5 -57q68 0 109.5 55t41.5 134v98h-192v109h299v-207q0 -121 -71 -211t-187 -90t-189.5 87 t-73.5 216zM113 291q0 -126 70.5 -209.5t181.5 -83.5q75 0 132.5 43t86 108.5t28.5 139.5v196h-278v-88h192v-108q0 -84 -44.5 -141.5t-116.5 -57.5q-77 0 -120.5 59.5t-43.5 141.5v844q0 91 44 147.5t117 56.5q77 0 122.5 -58t45.5 -144v-131h84v131q0 129 -71.5 211 t-182.5 82q-114 0 -180.5 -84t-66.5 -211v-844zM131 291v844q0 118 62.5 197t166.5 79q103 0 169.5 -77t66.5 -197v-111h-47v111q0 95 -51 159t-136 64q-81 0 -130.5 -62.5t-49.5 -162.5v-844q0 -90 49 -154.5t134 -64.5q81 0 130.5 62.5t49.5 154.5v127h-193v49h242v-176 q0 -108 -62.5 -189.5t-166.5 -81.5q-103 0 -168.5 78t-65.5 195z" />
<glyph unicode="H" horiz-adv-x="704" d="M121 0v1434h108v-961h308v961h106v-1434h-106v362h-308v-362h-108zM131 10h88v363h328v-363h86v1413h-86v-960h-328v960h-88v-1413zM150 29v1376h51v-961h364v961h49v-1376h-49v364h-364v-364h-51z" />
<glyph unicode="I" horiz-adv-x="290" d="M121 0v1434h108v-1434h-108zM131 10h88v1413h-88v-1413zM150 29v1376h51v-1376h-51z" />
<glyph unicode="J" horiz-adv-x="641" d="M70 291v121h108v-121q0 -79 41.5 -137t116.5 -58q69 0 109 57.5t40 137.5v1143h107v-1143q0 -126 -67 -215.5t-189 -89.5q-119 0 -192.5 88t-73.5 217zM80 291q0 -126 70.5 -210.5t185.5 -84.5q118 0 183 87t65 208v1132h-88v-1132q0 -85 -43 -145t-117 -60 q-80 0 -124 61.5t-44 143.5v112h-88v-112zM98 291v92h52v-92q0 -91 49 -157t137 -66q83 0 131.5 65.5t48.5 157.5l-2 1114h51v-1114q0 -113 -60 -194t-169 -81q-106 0 -172 79t-66 196z" />
<glyph unicode="K" horiz-adv-x="659" d="M117 0v1434h108v-842l348 842h115l-373 -906q65 -89 202 -273.5t188 -254.5h-136l-305 416l-39 -78v-338h-108zM127 10h88v328q28 55 47 96l311 -424h111q-39 53 -117.5 159.5t-144 196t-117.5 162.5l369 895h-92q-67 -162 -194 -464.5t-173 -413.5v878h-88v-1413z M145 29v1376h52v-954l395 954h53l-360 -881l362 -495h-63l-326 442l-61 -127v-315h-52z" />
<glyph unicode="L" horiz-adv-x="509" d="M113 0v1434h104v-1323h281v-111h-385zM123 10h364v90h-280v1323h-84v-1413zM141 29v1376h49v-1325h281v-51h-330z" />
<glyph unicode="M" horiz-adv-x="841" d="M100 0l58 1436h125l163 -1123l166 1123h131l54 -1436h-109l-37 950q-17 -114 -65.5 -439.5t-75.5 -510.5h-129l-135 940l-33 -940h-113zM113 10h90l37 1043l149 -1043h113l153 1045l41 -1045h90l-51 1415h-114l-175 -1177l-172 1177h-108zM131 29l53 1378h74l188 -1290 l191 1290h80l51 -1378h-53l-47 1237l-183 -1237h-79l-177 1237l-45 -1237h-53z" />
<glyph unicode="N" horiz-adv-x="729" d="M121 0v1434h100l340 -1072v1072h107v-1434h-99l-340 1059v-1059h-108zM131 10h88v1112l356 -1112h82v1413h-86v-1122l-358 1122h-82v-1413zM150 29v1376h51l389 -1223v1223h49v-1376h-49l-389 1208v-1208h-51z" />
<glyph unicode="O" d="M102 287v858q0 126 70 213.5t195 87.5q118 0 188 -87.5t70 -213.5v-856q0 -126 -68 -214.5t-190 -88.5q-120 0 -192.5 86.5t-72.5 214.5zM113 287q0 -125 68.5 -208t185.5 -83q118 0 182.5 86t64.5 207v856q0 122 -67 206.5t-180 84.5q-120 0 -187 -84.5t-67 -206.5v-858 zM131 287v858q0 114 62 193t174 79q105 0 167 -79t62 -193v-856q0 -113 -60 -193t-169 -80q-107 0 -171.5 77.5t-64.5 193.5zM182 287q0 -94 47 -155.5t138 -61.5q87 0 133.5 62t46.5 157v856q0 90 -46 155.5t-134 65.5q-91 0 -138 -61.5t-47 -159.5v-858zM201 287v858 q0 88 42.5 145.5t123.5 57.5q79 0 120 -60.5t41 -142.5v-856q0 -88 -41.5 -144.5t-119.5 -56.5q-81 0 -123.5 57t-42.5 142zM211 287q0 -81 39.5 -136t116.5 -55q73 0 112 55t39 138v856q0 79 -38.5 135.5t-112.5 56.5q-78 0 -117 -53.5t-39 -138.5v-858z" />
<glyph unicode="P" horiz-adv-x="673" d="M117 0v1434h260q48 0 92.5 -16t84 -48.5t63.5 -91t24 -135.5v-463q0 -120 -71.5 -208.5t-192.5 -88.5h-152v-383h-108zM127 10h88v383h162q115 0 183.5 86t68.5 201v463q0 60 -15 108.5t-39.5 80t-57.5 52.5t-68 30t-72 9h-250v-1413zM145 29v1376h232q43 0 82.5 -14.5 t74.5 -44t55.5 -82t20.5 -121.5v-463q0 -108 -62.5 -188t-170.5 -80h-180v-383h-52zM197 463h180q74 0 129 60t55 157v463q0 99 -48.5 155t-135.5 56h-180v-891zM215 483v850h162q78 0 122 -50t44 -140v-463q0 -90 -49 -143.5t-117 -53.5h-162zM225 494h152q64 0 109.5 50.5 t45.5 135.5v463q0 86 -40 133t-115 47h-152v-829z" />
<glyph unicode="Q" d="M102 289v860q0 126 70.5 214.5t194.5 88.5q117 0 186.5 -88.5t69.5 -216.5v-856q0 -110 -53 -195t-150 -104v-131h-107v129q-99 20 -155 102t-56 197zM113 289q0 -116 55.5 -196t155.5 -93v-131h86v131q99 14 151.5 96.5t52.5 194.5v856q0 124 -67 209.5t-180 85.5 q-120 0 -187 -85.5t-67 -207.5v-860zM131 289v860q0 114 62 193t174 79q105 0 167 -78.5t62 -195.5v-856q0 -107 -53.5 -186.5t-149.5 -86.5v-129h-51v129q-98 7 -154.5 83.5t-56.5 187.5zM182 289q0 -94 47.5 -156.5t137.5 -62.5q87 0 133.5 62.5t46.5 158.5v856 q0 92 -46 157.5t-134 65.5q-91 0 -138 -61.5t-47 -159.5v-860zM201 289v860q0 88 42.5 145.5t123.5 57.5q79 0 120 -61t41 -144v-856q0 -88 -41.5 -145.5t-119.5 -57.5q-80 0 -123 58t-43 143zM209 289q0 -82 40 -136.5t118 -54.5q73 0 112 55t39 138v856q0 81 -38 137.5 t-113 56.5q-78 0 -118 -53.5t-40 -138.5v-860z" />
<glyph unicode="R" horiz-adv-x="665" d="M117 0v1434h241q48 0 92 -16t83 -49.5t62 -92.5t23 -137v-473q0 -138 -92 -217q101 -58 101 -191v-258h-109v258q0 52 -29.5 82.5t-82.5 30.5h-181v-371h-108zM127 10h88v371h191q58 0 90 -33.5t32 -89.5v-248h88v248q0 136 -106 188q98 80 98 220v473q0 75 -22 132 t-59.5 89t-80 47.5t-88.5 15.5h-231v-1413zM145 29v1376h213q43 0 82.5 -14.5t74 -44.5t55 -83.5t20.5 -123.5v-473q0 -68 -30 -127t-91 -99q60 -17 94.5 -66.5t34.5 -115.5v-229h-51v229q0 65 -38 104t-103 39h-209v-372h-52zM197 453h161q66 0 124.5 59t58.5 154v473 q0 98 -50 156.5t-133 58.5h-161v-901zM215 471v862h143q74 0 119 -52t45 -142v-473q0 -87 -52 -141t-112 -54h-143zM223 481h135q57 0 106.5 51.5t49.5 133.5v473q0 86 -42.5 135t-113.5 49h-135v-842z" />
<glyph unicode="S" horiz-adv-x="657" d="M98 291v147h107v-147v-11q0 -74 39 -128q42 -58 118 -58q75 0 114.5 53t39.5 140v96q0 30 -11 54.5t-35.5 45.5t-47 35.5t-60.5 36.5l-36 23q-49 30 -83 54.5t-70 60t-55 77.5t-20 90v285q0 132 64 216.5t184 84.5q114 0 178 -83t64 -214v-193h-107v191q0 83 -33 134.5 t-102 51.5q-64 0 -102.5 -48t-38.5 -140v-279q1 -23 7 -42.5t20.5 -37.5t24 -29.5t34.5 -29t35 -24t41 -25.5l30 -19h-2q57 -33 86 -52.5t68 -54t56.5 -74t17.5 -87.5v-104q0 -131 -67.5 -217t-193.5 -86q-117 0 -190.5 84.5t-73.5 222.5zM109 291q-1 -133 69.5 -215 t183.5 -82q123 0 186.5 83t63.5 210v104q0 31 -7.5 58.5t-27 53t-34 42.5t-48 40.5t-48.5 33.5t-54 34l-31 17q-48 29 -78 51.5t-57 61.5t-30 83v279q0 97 40.5 146.5t108.5 49.5q74 0 110 -54t36 -140v-180h86v182q0 126 -62 206.5t-170 80.5q-115 0 -176 -81t-61 -210 v-285q1 -38 14 -73.5t32 -61.5t50 -53t57.5 -45t65.5 -41l39 -25q41 -23 62 -36.5t47.5 -36t38 -48t11.5 -57.5v-96q0 -90 -42.5 -146.5t-121.5 -56.5q-82 0 -126 60q-41 56 -41 136v11v137h-86v-137zM127 291v119h49v-119v-11q0 -88 46 -149q49 -65 140 -65 q88 0 135.5 61.5t47.5 159.5v96q0 24 -5 44.5t-18.5 39t-24.5 31.5t-34.5 29.5t-37 25t-44 26t-43.5 25.5q-46 27 -78 50t-65 54.5t-50 70t-18 81.5v285q0 119 56.5 194.5t162.5 75.5q100 0 156.5 -74t56.5 -192v-162h-49v160q0 97 -40 156t-124 59q-76 0 -122 -56t-46 -161 v-281q2 -40 15.5 -71t43 -57.5t51.5 -41.5t66 -41q9 -5 42 -25.5t44 -27.5t38.5 -26t38.5 -30t30 -31t26.5 -37t14 -39t6.5 -46v-104q0 -118 -59.5 -195.5t-172.5 -77.5q-105 0 -170.5 76t-64.5 201z" />
<glyph unicode="T" horiz-adv-x="514" d="M49 1325v109h465v-109h-180v-1325h-105v1325h-180zM59 1335h181v-1325h84v1325h182v88h-447v-88zM76 1356v49h411v-49h-180v-1327h-49v1327h-182z" />
<glyph unicode="U" horiz-adv-x="694" d="M115 291v1143h104v-1143q0 -80 40 -138.5t116 -58.5q80 0 117.5 54t37.5 141v1145h105v-1145q0 -81 -28 -148.5t-88.5 -112t-143.5 -44.5q-118 0 -189 88t-71 219zM123 291q0 -128 69 -212.5t183 -84.5q120 0 186 86.5t66 208.5v1136h-88v-1136q0 -92 -39.5 -148.5 t-124.5 -56.5q-82 0 -123 61.5t-41 145.5v1134h-88v-1134zM141 291v1114h52v-1114q0 -93 46 -159t136 -66q94 0 138 62t44 161v1116h49v-1116q0 -73 -24 -133.5t-78 -101t-129 -40.5q-106 0 -170 79t-64 198z" />
<glyph unicode="V" horiz-adv-x="624" d="M70 1436h108l160 -1123l162 1123h110l-211 -1436h-125zM82 1425l201 -1415h108l207 1415h-90l-170 -1175l-168 1175h-88zM102 1407h52l184 -1288l186 1288h51l-200 -1378h-76z" />
<glyph unicode="W" horiz-adv-x="1048" d="M72 1436h112l148 -1110l170 1110h102l168 -1114q79 574 152 1114h110l-194 -1436h-131l-156 1077l-156 -1077h-133zM82 1425l190 -1415h117l164 1133l164 -1133h114l193 1415h-92q-30 -227 -90 -662t-70 -509l-176 1171h-86q-16 -108 -178 -1167l-156 1167h-94zM104 1407 h56l170 -1288l196 1288h52l196 -1288l176 1288h51l-186 -1378h-80l-182 1247l-184 -1247h-78z" />
<glyph unicode="X" horiz-adv-x="606" d="M33 1436h112l177 -715l190 715h111l-242 -897l164 -539h-111l-112 383l-121 -383h-113l178 537zM45 1425q33 -126 112 -429t119 -459l-172 -527h89q70 221 129 400l118 -400h92l-161 529l239 886h-92l-196 -735l-185 735h-92zM70 1407h53l199 -793l210 793h52l-234 -868 l156 -510h-51l-133 444l-142 -444h-53l168 510z" />
<glyph unicode="Y" horiz-adv-x="657" d="M47 1436h113l196 -832l201 832h113l-258 -1078v-358h-109v358q-157 656 -256 1078zM59 1425q35 -149 254 -1063v-352h88v352l256 1063h-92l-209 -864l-204 864h-93zM84 1407h51l221 -926l224 926h55l-252 -1040v-338h-51v338z" />
<glyph unicode="Z" horiz-adv-x="552" d="M47 0v90l389 1233h-346v111h461v-86l-387 -1233h383v-115h-500zM57 10h480v94h-387l393 1248v71h-445v-90h353l-394 -1247v-76zM76 29v57l399 1268h-358v51h407v-53l-397 -1268h391v-55h-442z" />
<glyph unicode="\" horiz-adv-x="456" d="M49 1434h107l311 -1434h-105zM61 1423l310 -1413h84l-308 1413h-86zM84 1405h49l299 -1376h-47z" />
<glyph unicode="`" horiz-adv-x="192" d="M31 1434h94l61 -127h-80zM43 1427l68 -114h65l-55 114h-78zM70 1413h41l43 -86h-33z" />
<glyph unicode="a" horiz-adv-x="505" d="M59 0l164 1145h111l166 -1145h-107l-39 297h-147l-43 -297h-105zM70 10h86q8 51 23 155.5t20 139.5h161l41 -295h88l-161 1127h-99zM92 29l154 1087h65l158 -1087h-51l-41 295h-193l-43 -295h-49zM186 369h185l-92 653zM209 389l70 504l69 -504h-139zM219 397h119 q-30 212 -59 428z" />
<glyph unicode="b" horiz-adv-x="546" d="M100 0v1145h193q96 0 155.5 -60t59.5 -178l-2 -317q0 -45 -18 -91.5t-52 -78.5q32 -22 51 -63t19 -87v-80q0 -94 -48 -142t-112 -48h-246zM109 10h237q62 0 107 45t45 135v80q0 47 -20.5 88.5t-55.5 59.5q76 70 76 172l2 317q0 113 -57 170.5t-150 57.5h-184v-1125z M127 29v1087h166q84 0 136 -53t52 -156l-2 -317q0 -54 -26.5 -105t-75.5 -73q48 -4 75 -44.5t27 -97.5v-80q0 -80 -40 -120.5t-93 -40.5h-219zM176 82h170q27 0 45.5 11.5t27 30.5t12 35t3.5 31v80q0 49 -31.5 77t-76.5 28h-150v-293zM176 428h121q48 0 92.5 46t44.5 118 v315q0 77 -37 116.5t-104 39.5h-117v-635zM195 100v256h131q38 0 64 -23t26 -63v-80q0 -18 -4 -36t-21 -36t-45 -18h-151zM195 446v598h98q58 0 90.5 -34.5t32.5 -102.5v-315q0 -64 -38 -105t-81 -41h-102zM205 111h141q24 0 39 16t19 32t4 31v80q0 35 -24 55.5t-58 20.5 h-121v-235zM205 457h92q40 0 75.5 37.5t35.5 97.5v315q0 63 -30 95t-85 32h-88v-577z" />
<glyph unicode="c" horiz-adv-x="546" d="M88 242v659q0 105 59 177.5t154 72.5q96 0 153.5 -70t57.5 -180v-119h-98v119q0 58 -29 100.5t-80 42.5q-50 0 -81 -39t-31 -104v-659q0 -57 29 -99.5t83 -42.5q53 0 80 40t27 100v110h102v-110q0 -101 -54 -175.5t-155 -74.5q-99 0 -158 71.5t-59 180.5zM98 242 q0 -106 55.5 -175t151.5 -69t148.5 72t52.5 170v102h-86v-102q0 -64 -29.5 -106t-85.5 -42q-57 0 -89 44.5t-32 105.5v659q0 68 34 110t87 42q55 0 86 -44.5t31 -107.5v-110h82v110q0 104 -55.5 173t-147.5 69q-90 0 -146.5 -70t-56.5 -172v-659zM115 242v659 q0 94 51.5 157.5t134.5 63.5t133.5 -62.5t50.5 -158.5v-92h-45v92q0 71 -35.5 120.5t-99.5 49.5q-61 0 -100 -46.5t-39 -123.5v-659q0 -69 37 -119.5t102 -50.5t99 47.5t34 120.5v84h49v-84q0 -90 -47 -156t-135 -66t-139 63.5t-51 160.5z" />
<glyph unicode="d" horiz-adv-x="563" d="M102 0v1145h203q39 0 65.5 -3.5t58.5 -17t51.5 -38.5t32.5 -71t13 -110v-667q0 -50 -10 -89.5t-24 -64t-37 -42t-40 -25.5t-43.5 -12t-37 -4.5t-29.5 -0.5h-203zM113 10h192q17 0 27.5 0.5t35.5 4.5t41.5 12t38.5 24.5t35.5 40t23 61.5t9.5 85v667q0 62 -12.5 106t-31 68 t-49 37t-56 16t-62.5 3h-192v-1125zM129 29v1087h176q34 0 57.5 -3t51.5 -15t44.5 -33.5t28 -62t11.5 -97.5v-667q0 -44 -9 -78.5t-21 -56t-32.5 -37t-35 -22.5t-38 -10.5t-32 -4t-25.5 -0.5h-176zM180 84h125q31 0 52.5 4.5t44.5 19t35 47.5t12 83v667q-1 54 -11 88t-32 49 t-43.5 19t-57.5 4h-125v-981zM197 102v945h108q32 0 50.5 -4t37.5 -17t28.5 -43t10.5 -78v-667q0 -44 -11 -73t-31 -41.5t-39.5 -17t-45.5 -4.5h-108zM207 113h98q24 0 42 4t36.5 16t28.5 38.5t10 66.5v667q-1 44 -9 72t-26 40t-35.5 15.5t-46.5 3.5h-98v-923z" />
<glyph unicode="e" horiz-adv-x="487" d="M98 0v1145h379v-107h-274v-635h217v-108h-217v-184h274v-111h-379zM109 10h358v90h-274v205h219v90h-219v654h274v86h-358v-1125zM127 29v1087h324v-49h-275v-692h217v-51h-217v-242h275v-53h-324z" />
<glyph unicode="f" horiz-adv-x="456" d="M98 0v1145h359v-107h-256v-635h217v-108h-217v-295h-103zM106 10h87v293h217v92h-217v654h253v86h-340v-1125zM123 29v1087h307v-49h-256v-692h217v-51h-217v-295h-51z" />
<glyph unicode="g" horiz-adv-x="530" d="M88 240v667q0 106 57.5 177t153.5 71q94 0 153.5 -69t59.5 -179v-121h-102v121q0 61 -29.5 101.5t-81.5 40.5q-47 0 -76.5 -40t-29.5 -102v-667q0 -55 29 -96.5t79 -41.5q48 0 78.5 40.5t30.5 97.5v63h-150v109h250v-172q0 -102 -57.5 -176t-151.5 -74t-153.5 71.5 t-59.5 178.5zM98 240q0 -104 56.5 -172t146.5 -68t145.5 71.5t55.5 168.5v163h-234v-90h150v-73q0 -62 -32 -104t-85 -42q-54 0 -86.5 43.5t-32.5 102.5v667q0 65 32.5 108.5t84.5 43.5q58 0 89.5 -43t31.5 -109v-110h84v110q0 105 -57.5 172.5t-147.5 67.5 q-93 0 -147 -68.5t-54 -171.5v-667zM115 240v667q0 95 49.5 157t134.5 62q82 0 134 -61t52 -158v-92h-47v92q0 72 -37 121t-102 49q-59 0 -96 -48t-37 -122v-667q0 -67 36 -116.5t99 -49.5q60 0 97.5 48.5t37.5 117.5v92h-149v51h196v-143q0 -90 -49.5 -156t-132.5 -66 q-82 0 -134 63.5t-52 158.5z" />
<glyph unicode="h" horiz-adv-x="575" d="M102 0v1145h105v-750h217v750h102v-1145h-102v285h-217v-285h-105zM113 10h84v283h235v-283h86v1125h-86v-750h-235v750h-84v-1125zM129 29v1087h51v-751h271v751h49v-1087h-49v284h-271v-284h-51z" />
<glyph unicode="i" horiz-adv-x="256" d="M102 0v1145h105v-1145h-105zM113 10h84v1125h-84v-1125zM129 29v1087h51v-1087h-51z" />
<glyph unicode="j" horiz-adv-x="526" d="M63 240v106h105v-106q0 -57 29.5 -99.5t81.5 -42.5q50 0 78 42t28 100v905h102v-905q0 -105 -54 -178.5t-154 -73.5q-96 0 -156 72.5t-60 179.5zM72 240q0 -103 57.5 -172.5t149.5 -69.5q96 0 148 71t52 171v897h-84v-897q0 -62 -31.5 -106t-84.5 -44q-57 0 -89 45 t-32 105v96h-86v-96zM90 240v77h51v-77q0 -68 36.5 -119t101.5 -51q63 0 98 49.5t35 120.5v876h49v-876q0 -92 -47.5 -157t-134.5 -65q-84 0 -136.5 64t-52.5 158z" />
<glyph unicode="k" horiz-adv-x="542" d="M102 0v1145h105v-619l252 619h112l-295 -717q31 -42 97 -132t120.5 -165t94.5 -131h-131l-230 317l-20 -45v-272h-105zM111 10h86v264l28 60l236 -324h106l-301 416l291 709h-90l-270 -656v656h-86v-1125zM129 29v1087h51v-725l297 725h53l-284 -692l284 -395h-61 l-246 342l-43 -92v-250h-51z" />
<glyph unicode="l" horiz-adv-x="421" d="M98 0v1145h99v-1036h215v-109h-314zM106 10h295v88h-213v1037h-82v-1125zM123 29v1087h49v-1036h213v-51h-262z" />
<glyph unicode="m" horiz-adv-x="686" d="M86 0l41 1147h123l117 -819l118 819h123l41 -1147h-106l-23 635l-96 -625h-113l-94 627l-27 -637h-104zM96 10h86l27 672v80l10 -88l100 -656h97l100 656l8 80l2 -72l27 -672h86l-39 1127h-106l-119 -820q-8 -40 -8 -57l-7 55l-118 822h-107zM115 29l39 1089h71l117 -805 q4 -40 12.5 -112.5t12.5 -104.5h2q3 24 7.5 67t8.5 79.5t8 70.5l117 805h72l39 -1089h-50l-26 653l-2 336h-4l-41 -340l-99 -639h-63l-98 639l-41 340h-4l-3 -336l-26 -653h-49z" />
<glyph unicode="n" horiz-adv-x="595" d="M102 0v1145h97l243 -783v783h105v-1145h-94l-246 768v-768h-105zM113 10h86v813l260 -813h80v1125h-86v-832l-263 832h-77v-1125zM131 29v1087h47l264 -833q7 -29 20 -80.5t19 -75.5h2q-9 78 -12 156v833h49v-1087h-47l-268 839q-14 45 -35 140h-2q7 -59 12 -142v-837 h-49z" />
<glyph unicode="o" horiz-adv-x="550" d="M88 238v671q0 103 57 174.5t158 71.5q95 0 152 -71t57 -175v-669q0 -105 -55 -178.5t-154 -73.5t-157 71t-58 179zM98 238q0 -104 55.5 -172t149.5 -68q96 0 148.5 70.5t52.5 171.5v669q0 99 -55 168.5t-146 69.5q-96 0 -150.5 -69.5t-54.5 -168.5v-671zM115 238v671 q0 91 50 154t138 63q84 0 133 -62t49 -155v-669q0 -92 -48 -157t-134 -65q-87 0 -137.5 62.5t-50.5 157.5zM166 238q0 -70 35.5 -118t101.5 -48t99.5 47t33.5 121v669q0 68 -34 117t-99 49q-66 0 -101.5 -47t-35.5 -119v-671zM182 238v671q0 64 31.5 106t89.5 42 q56 0 85.5 -44t29.5 -104v-669q0 -65 -29.5 -106.5t-85.5 -41.5q-57 0 -89 42t-32 104zM193 238q0 -58 28 -98t82 -40q53 0 80 39.5t27 100.5v669q0 56 -27.5 97t-79.5 41q-54 0 -82 -38.5t-28 -99.5v-671z" />
<glyph unicode="p" horiz-adv-x="552" d="M98 0v1145h213q85 0 149 -58.5t64 -179.5v-362q0 -101 -57.5 -173.5t-155.5 -72.5h-104v-299h-109zM109 10h88v299h114q93 0 148 70t55 166v362q0 116 -60 172t-143 56h-202v-1125zM127 29v1087h184q74 0 129.5 -51.5t55.5 -157.5v-362q0 -89 -50 -153t-135 -64h-133 v-299h-51zM178 381h133q56 0 97 44.5t41 119.5v362q0 74 -37 116t-101 42h-133v-684zM197 401v646h114q56 0 87.5 -37.5t31.5 -102.5v-362q0 -66 -35 -105t-84 -39h-114zM207 410h104q44 0 77.5 37t33.5 98v362q0 60 -29.5 94.5t-81.5 34.5h-104v-626z" />
<glyph unicode="q" horiz-adv-x="550" d="M88 238v675q0 104 57 176t158 72q95 0 152 -71.5t57 -176.5v-673q0 -90 -41.5 -157t-116.5 -87v-131h-100v129q-78 18 -122 84t-44 160zM98 238q0 -91 44.5 -156t119.5 -80v-127h84v129q75 14 116.5 80.5t41.5 155.5v673q0 100 -55 169t-146 69q-97 0 -151 -69t-54 -169 v-675zM115 238v675q0 92 50 156t138 64q83 0 132.5 -63.5t49.5 -156.5v-673q0 -85 -41.5 -148t-115.5 -72v-126h-47v126q-76 7 -121 68.5t-45 149.5zM166 238q0 -69 36 -117.5t101 -48.5t99 47.5t34 120.5v673q0 68 -34 118t-99 50q-66 0 -101.5 -47.5t-35.5 -120.5v-675z M182 238v675q0 64 31.5 106t89.5 42q56 0 85.5 -44t29.5 -104v-673q0 -65 -29.5 -106.5t-85.5 -41.5q-57 0 -89 42t-32 104zM193 238q0 -58 28 -97t82 -39q53 0 80 38.5t27 99.5v673q0 57 -27.5 98.5t-79.5 41.5q-54 0 -82 -39.5t-28 -100.5v-675z" />
<glyph unicode="r" horiz-adv-x="546" d="M98 0v1145h199q39 0 74.5 -13.5t67 -40.5t50.5 -75.5t19 -112.5v-371q0 -44 -17.5 -91.5t-48.5 -78.5q72 -54 72 -149v-213h-104v213q0 34 -20 55t-56 21h-129v-289h-107zM109 10h86v289h139q39 0 61.5 -23.5t22.5 -62.5v-203h88v203q0 46 -21 86t-59 63q36 29 54 76 t18 94v371q0 117 -60 174.5t-141 57.5h-188v-1125zM125 29v1087h172q74 0 129 -52.5t55 -160.5v-371q0 -53 -24.5 -103.5t-73.5 -72.5q104 -25 104 -143v-184h-51v184q0 48 -26.5 77t-75.5 29h-156v-290h-53zM178 369h119q49 0 92 45.5t43 117.5v371q0 75 -36.5 118.5 t-98.5 43.5h-119v-696zM195 389v658h102q54 0 86.5 -39t32.5 -105v-371q0 -64 -38 -103.5t-81 -39.5h-102zM205 399h92q40 0 74.5 36.5t34.5 96.5v371q0 61 -29.5 97t-79.5 36h-92v-637z" />
<glyph unicode="s" horiz-adv-x="538" d="M84 240v127h104v-129v-11q0 -51 26 -89q30 -42 85 -42q54 0 82.5 39.5t28.5 102.5v73q0 35 -30.5 64.5t-84.5 60.5q-52 32 -84 54.5t-64 53t-47 65t-16 75.5v225q0 109 52.5 176.5t150.5 67.5q93 0 144.5 -66.5t51.5 -173.5v-163h-102v161q0 131 -94 131q-43 0 -68.5 -34 t-25.5 -99v-221q1 -22 9 -39.5t30.5 -36.5t38 -30t57.5 -39q47 -29 70.5 -45t55 -45t45 -62t13.5 -74v-79q0 -109 -55 -179.5t-158 -70.5q-95 0 -155 69.5t-60 182.5zM94 240q-1 -108 57 -175t148 -67q99 0 151 67.5t52 172.5v79q0 39 -13.5 71t-43.5 60t-53 44t-68 43 q-45 30 -60 40.5t-40 32t-33 39.5t-9 41v221q0 69 29.5 106.5t75.5 37.5q102 0 102 -142v-153h86v155q0 103 -50 167.5t-138 64.5q-94 0 -143.5 -65.5t-49.5 -170.5v-225q1 -39 15 -72t46.5 -63t61.5 -51t82 -54q4 -2 11 -7q37 -24 55 -37t35.5 -37.5t17.5 -51.5v-73 q0 -66 -30.5 -108t-88.5 -42q-59 0 -91 44q-29 41 -28 97v11v116h-86v-116zM113 240v96h49v-96v-11q0 -65 34 -111q36 -50 103 -50q66 0 101.5 47.5t35.5 122.5v73q0 27 -9 48t-31.5 40.5t-38 30t-50.5 31.5q-99 62 -146.5 110t-47.5 113v225q0 95 45 155t129 60 q81 0 125.5 -58.5t44.5 -152.5v-135h-49v133q0 70 -29.5 115t-91.5 45q-56 0 -89.5 -41t-33.5 -121v-221q1 -20 5.5 -36.5t17 -32.5t21 -26t32 -26.5t33.5 -22.5t42 -26q42 -26 64.5 -41.5t50.5 -41.5t40.5 -55t12.5 -63v-79q0 -97 -46.5 -158.5t-137.5 -61.5q-83 0 -135 61 t-51 161z" />
<glyph unicode="t" horiz-adv-x="425" d="M49 1038v107h377v-107h-139v-1038h-99v1038h-139zM57 1049h140v-1039h82v1039h137v86h-359v-86zM76 1067v49h323v-49h-139v-1038h-45v1038h-139z" />
<glyph unicode="u" horiz-adv-x="569" d="M98 240v905h103v-905q0 -59 27.5 -101.5t80.5 -42.5q56 0 82.5 40t26.5 104v905h104v-905q0 -105 -56 -178.5t-157 -73.5q-96 0 -153.5 71.5t-57.5 180.5zM106 240q0 -105 55 -173.5t148 -68.5q97 0 150 70.5t53 171.5v897h-86v-897q0 -68 -28 -110t-89 -42 q-58 0 -87 44.5t-29 107.5v897h-87v-897zM125 240v876h49v-876q0 -70 34 -121t101 -51q70 0 102.5 47.5t32.5 124.5v876h50v-876q0 -93 -48 -157.5t-137 -64.5q-84 0 -134 63t-50 159z" />
<glyph unicode="v" horiz-adv-x="514" d="M63 1147h105l96 -692l17 -144l18 144l98 692h105l-164 -1147h-115zM74 1137l155 -1127h101l162 1127h-89l-96 -684l-26 -220l-25 220l-96 684h-86zM96 1118h47l95 -667l41 -355h4l43 355l94 667h49l-156 -1089h-67z" />
<glyph unicode="w" horiz-adv-x="854" d="M66 1147h110l107 -805l116 795h107l117 -793l108 803h111l-156 -1147h-121l-112 776l-113 -776h-123zM78 1137l147 -1127h109l119 832l118 -832h107l153 1127h-92l-114 -852q0 -2 -1 -3.5t-1 -2.5v4l-125 845h-90l-125 -847l-2 -11v11l-113 856h-90zM98 1118h54l110 -839 l17 -173h4l18 173l123 829h57l123 -827l19 -177h4l18 179l111 835h53l-147 -1089h-72l-137 942l-138 -942h-73z" />
<glyph unicode="x" horiz-adv-x="499" d="M33 1147h106l107 -422l22 -109l27 113q44 156 113 418h108l-192 -717l135 -430h-109l-82 274q-32 -109 -84 -274h-110l141 434q-27 109 -182 713zM43 1137q29 -113 91.5 -352.5t90.5 -352.5l-139 -422h92l90 293l88 -293h88l-131 420l193 707h-92q-73 -275 -109 -410 l-35 -152l-34 148l-103 414h-90zM68 1118h51l98 -399l51 -225q9 34 28 113.5t28 113.5q17 67 52 199t52 198h51l-184 -684q99 -315 123 -405h-47l-56 176l-47 172q-35 -127 -49 -172q-12 -35 -31 -97t-24 -79h-53l133 405z" />
<glyph unicode="y" horiz-adv-x="540" d="M39 1147h113l145 -627l147 627h113l-205 -858v-289h-110v289q-14 63 -35 150t-68 285.5t-100 422.5zM53 1137l199 -844v-283h90v283l201 844h-90l-156 -664l-154 664h-90zM78 1118h49l170 -735l170 735h53l-196 -821v-268h-54v268q-35 157 -108.5 468t-83.5 353z" />
<glyph unicode="z" horiz-adv-x="456" d="M45 0v86l301 950h-270v109h381v-82l-299 -950h295v-113h-408zM55 10h387v92h-297l304 965v68h-363v-88h272l-303 -965v-72zM74 29v53l309 983h-279v51h326v-49l-307 -983h301v-55h-350z" />
<glyph unicode="&#xa1;" horiz-adv-x="243" d="M86 -289v1178h107v-1178h-107zM86 946v199h107v-199h-107zM94 -279h88v1158h-88v-1158zM94 956h88v179h-88v-179zM113 -260v1120h51v-1120h-51zM113 975v141h51v-141h-51z" />
<glyph unicode="&#xa5;" horiz-adv-x="526" d="M37 1147h106l117 -494l31 -135l26 131l121 498h111l-184 -758h79v-100h-102v-23h102v-98h-102v-168h-106v168h-109v98h109v23h-109v100h86q-83 350 -176 758zM47 1137l178 -758h-88v-80h107v-43h-107v-80h107v-166h90v166h102v80h-102v39l2 4h100v80h-82l183 758h-93 l-118 -490l-35 -176l-39 180l-117 486h-88zM72 1118h49l112 -471l58 -266l53 262l115 475h53l-182 -758h88v-41h-96l-7 -22v-59h103v-41h-103v-168h-53v168h-106v41h106v59l-4 22h-102v41h92q-29 132 -90 389.5t-86 368.5z" />
<glyph unicode="&#xa8;" horiz-adv-x="282" d="M76 1321v115h80v-115h-80zM82 1327h68v103h-68v-103zM98 1339v76h35v-76h-35zM197 1321v115h79v-115h-79zM203 1327h67v103h-67v-103zM219 1339v76h35v-76h-35z" />
<glyph unicode="&#xad;" horiz-adv-x="385" d="M76 371v80h295v-80h-295zM82 377h283v67h-283v-67zM98 391v41h248v-41h-248z" />
<glyph unicode="&#xaf;" horiz-adv-x="296" d="M55 1378v56h224v-56h-224zM61 1384h211v43h-211v-43zM80 1395v22h176v-22h-176z" />
<glyph unicode="&#xb4;" horiz-adv-x="180" d="M37 1307l63 127h97l-76 -127h-84zM47 1313h70l67 114h-80zM70 1327l43 86h47l-51 -86h-39z" />
<glyph unicode="&#xb8;" horiz-adv-x="350" d="M82 -109h51l43 166h88l-22 -88q40 -6 64 -32.5t24 -69.5q0 -48 -31.5 -77.5t-75.5 -29.5h-37q-45 0 -74.5 32.5t-29.5 98.5zM90 -117q0 -56 27.5 -85t68.5 -29h37q41 0 70 27.5t29 70.5q0 41 -26 67t-65 29l23 86h-72l-39 -155h78q13 0 22 -7t9 -20t-9.5 -20t-21.5 -7 h-35q-26 0 -26 43h-70zM106 -133h37q0 -43 43 -43h35q19 0 33 10.5t14 32.5q0 21 -13 33t-34 12h-55l31 121h34l-22 -88h14q35 0 58.5 -21t23.5 -57t-23.5 -58t-58.5 -22h-37q-35 0 -57.5 20.5t-22.5 59.5zM168 -115q0 -37 18 -37h35q8 0 15.5 5.5t7.5 13.5q0 18 -23 18h-53 z" />
<glyph unicode="&#xbf;" horiz-adv-x="555" d="M74 -12v221q0 91 20.5 156t91.5 133q36 34 55 75t22 70t3 78v29l2 170h101v-170q0 -114 -21 -189.5t-96 -144.5q-33 -31 -51 -74t-21 -67.5t-4 -65.5v-219q0 -88 34 -127t87 -39q66 0 98.5 46.5t32.5 125.5v110h102v-114q0 -139 -68.5 -209t-164.5 -70q-90 0 -156.5 67 t-66.5 208zM82 -12q0 -136 63.5 -200t151.5 -64q93 0 158 67.5t65 200.5v104h-82v-100q0 -83 -35.5 -132.5t-105.5 -49.5q-131 0 -131 176v219q4 137 78 213q74 68 95 142.5t21 185.5v159h-84l-2 -159v-29q0 -39 -1.5 -61.5t-8.5 -55t-24.5 -61t-46.5 -54.5 q-69 -65 -89 -127t-22 -153v-221zM100 -12v221q2 85 21 144.5t84 121.5q20 19 35.5 38t24.5 40.5t15 36.5t8.5 41.5t3.5 37.5t1 41.5v39.5l2 141h47v-141q0 -108 -19.5 -177.5t-89.5 -134.5q-30 -28 -48.5 -58t-25 -64t-8 -53.5t-1.5 -53.5v-219q0 -197 147 -197 q80 0 119 55t39 148v80h47v-84q0 -123 -60 -186.5t-145 -63.5q-37 0 -70 13.5t-62.5 41t-47 77t-17.5 114.5zM268 956v203h99v-203h-99zM276 967h82v182h-82v-182zM295 987v143h45v-143h-45z" />
<glyph unicode="&#xc0;" horiz-adv-x="612" d="M66 0l206 1434h121l213 -1434h-112l-50 379h-215q-5 -38 -25 -174.5t-28 -204.5h-110zM78 10h90l53 379h232l51 -379h90l-209 1413h-104zM100 29l197 1376h72l204 -1376h-51l-55 379h-262l-53 -379h-52zM211 461h248l-125 862zM215 1636h94l62 -127h-80zM227 1630 l68 -114h65l-55 114h-78zM231 481l103 707q18 -126 50 -345.5t52 -361.5h-205zM242 492h186q-17 120 -45 302.5t-49 327.5zM254 1616h41l43 -86h-33z" />
<glyph unicode="&#xc1;" horiz-adv-x="612" d="M66 0l206 1434h121l213 -1434h-112l-50 379h-215q-5 -38 -25 -174.5t-28 -204.5h-110zM78 10h90l53 379h232l51 -379h90l-209 1413h-104zM100 29l197 1376h72l204 -1376h-51l-55 379h-262l-53 -379h-52zM211 461h248l-125 862zM231 481l103 707q18 -126 50 -345.5 t52 -361.5h-205zM242 492h186q-17 120 -45 302.5t-49 327.5zM281 1513l63 127h96l-75 -127h-84zM291 1520h69l68 114h-80zM313 1534l43 86h47l-51 -86h-39z" />
<glyph unicode="&#xc2;" horiz-adv-x="612" d="M66 0l206 1434h121l213 -1434h-112l-50 379h-215q-5 -38 -25 -174.5t-28 -204.5h-110zM78 10h90l53 379h232l51 -379h90l-209 1413h-104zM100 29l197 1376h72l204 -1376h-51l-55 379h-262l-53 -379h-52zM154 1518l141 112h76l141 -112h-123l-57 43l-60 -43h-118z M172 1524h98q7 5 29 21.5t33 23.5l61 -45h101l-127 100h-68zM211 461h248l-125 862zM217 1536l88 74h55l89 -74h-50l-67 49l-68 -49h-47zM231 481l103 707q18 -126 50 -345.5t52 -361.5h-205zM242 492h186q-17 120 -45 302.5t-49 327.5z" />
<glyph unicode="&#xc3;" horiz-adv-x="612" d="M66 0l206 1434h121l213 -1434h-112l-50 379h-215q-5 -38 -25 -174.5t-28 -204.5h-110zM78 10h90l53 379h232l51 -379h90l-209 1413h-104zM100 29l197 1376h72l204 -1376h-51l-55 379h-262l-53 -379h-52zM211 461h248l-125 862zM215 1509v80q60 40 135 8q21 -11 38 -12 t30.5 4t46.5 21v-80q-74 -37 -139 -2q-36 11 -57 6.5t-54 -25.5zM223 1524q30 19 52.5 21.5t54.5 -11.5q67 -27 127 4v61q-30 -15 -41.5 -19.5t-28.5 -3t-41 12.5q-67 35 -123 -6v-59zM231 481l103 707q18 -126 50 -345.5t52 -361.5h-205zM238 1548v29q46 26 102 2 q53 -29 100 -4v-31q-52 -24 -102 2q-56 27 -100 2zM242 492h186q-17 120 -45 302.5t-49 327.5z" />
<glyph unicode="&#xc4;" horiz-adv-x="612" d="M66 0l206 1434h121l213 -1434h-112l-50 379h-215q-5 -38 -25 -174.5t-28 -204.5h-110zM78 10h90l53 379h232l51 -379h90l-209 1413h-104zM100 29l197 1376h72l204 -1376h-51l-55 379h-262l-53 -379h-52zM211 461h248l-125 862zM231 481l103 707q18 -126 50 -345.5 t52 -361.5h-205zM236 1516v114h79v-114h-79zM242 492h186q-17 120 -45 302.5t-49 327.5zM242 1522h67v102h-67v-102zM258 1534v76h35v-76h-35zM356 1516v114h80v-114h-80zM362 1522h68v102h-68v-102zM379 1534v76h35v-76h-35z" />
<glyph unicode="&#xc5;" horiz-adv-x="612" d="M66 0l196 1368q-41 27 -41 90q0 49 34 79t79 30t78.5 -28.5t33.5 -80.5q0 -60 -43 -88q33 -222 101.5 -685t101.5 -685h-108l-56 381h-213q-7 -50 -27 -183t-28 -198h-108zM78 10h90l53 381h232l51 -381h90l-201 1366q43 26 43 82q0 48 -30 73t-72 25t-72.5 -25 t-30.5 -73q0 -65 43 -84zM100 29l193 1355q-43 17 -43 74q0 49 42 69.5t84 0.5t42 -70q0 -55 -45 -72l200 -1357h-51l-55 381h-262l-53 -381h-52zM211 463h248l-125 866zM231 483l103 709q17 -118 49.5 -340.5t52.5 -368.5h-205zM242 494h186q-18 128 -46 309.5t-48 320.5z M285 1456q0 -30 24.5 -41.5t49 0.5t24.5 41q0 30 -24.5 41.5t-49 -0.5t-24.5 -41zM303 1456q0 13 9 21t22 8q11 0 21 -8t10 -21q0 -26 -31 -26q-12 0 -21.5 7t-9.5 19zM311 1456q0 -8 7.5 -13t15.5 -5q22 0 22 18q0 19 -22 19q-8 0 -15.5 -5.5t-7.5 -13.5z" />
<glyph unicode="&#xc6;" horiz-adv-x="774" d="M63 0l336 1434h363v-107h-248v-840h213v-108h-213v-268h248v-111h-356v379h-138l-92 -379h-113zM78 10h92l90 379h156v-379h336v90h-246v289h213v88h-213v860h246v86h-346zM100 29l322 1376h311v-47h-246v-901h211v-49h-211v-328h246v-51h-299v379h-190l-90 -379h-54z M254 457h180v575l8 273l-57 -275zM276 477l140 602v-602h-140zM289 487h117v504z" />
<glyph unicode="&#xc7;" horiz-adv-x="667" d="M102 295v846q0 131 73 221t190 90q116 0 188 -89t72 -220v-139h-103l-2 137q0 83 -40 140.5t-111 57.5q-72 0 -115 -53t-43 -145v-846q0 -80 41.5 -138.5t116.5 -58.5q74 0 112.5 56t38.5 139v131h107v-131q0 -106 -54 -191.5t-149 -109.5l-8 -35q45 -6 72.5 -37.5 t27.5 -83.5q0 -55 -35 -89t-86 -34h-41q-50 0 -83 39.5t-33 112.5h57l31 125q-109 13 -166.5 96.5t-57.5 208.5zM113 295q0 -120 60 -202.5t165 -94.5l-31 -129h86q14 0 24.5 -9.5t10.5 -23.5t-11 -22.5t-24 -8.5h-39q-32 0 -32 54h-74q0 -65 30.5 -100t75.5 -35h41 q46 0 78.5 30.5t32.5 81.5q0 49 -29.5 79.5t-73.5 33.5q2 11 7 29t6 22q96 21 148 104.5t52 188.5v121h-86v-121q0 -88 -41 -146.5t-120 -58.5q-80 0 -124 61.5t-44 145.5v846q0 97 46.5 153t121.5 56q76 0 118.5 -60.5t42.5 -148.5l2 -127h84v129q0 127 -69.5 213 t-181.5 86q-113 0 -182.5 -87t-69.5 -214v-846zM131 295v846q0 120 64.5 200t169.5 80q104 0 168.5 -79.5t64.5 -198.5v-111h-47l-2 109q0 96 -47.5 161.5t-132.5 65.5q-84 0 -135.5 -60.5t-51.5 -166.5v-846q0 -92 49 -158.5t138 -66.5q88 0 134 63.5t46 159.5v100h49v-100 q0 -103 -51.5 -183.5t-145.5 -91.5l-22 -90h16q40 0 66 -24.5t26 -67.5q0 -42 -26.5 -68t-65.5 -26h-41q-38 0 -63 24.5t-25 69.5h41q0 -49 47 -49h39q21 0 37 12.5t16 36.5t-15.5 38.5t-37.5 14.5h-63l30 127q-106 3 -167.5 82t-61.5 197zM332 -139q0 -45 22 -45h39 q25 0 25 20q0 25 -25 25h-61z" />
<glyph unicode="&#xc8;" horiz-adv-x="591" d="M117 0v1434h461v-109h-355v-838h281v-108h-281v-268h357v-111h-463zM127 10h442v90h-356v289h283v88h-283v858h356v88h-442v-1413zM145 29v1376h406v-49h-354v-899h280v-49h-280v-328h354v-51h-406zM250 1649h94l62 -127h-80zM262 1642l68 -114h65l-55 114h-78zM289 1628 h41l43 -86h-33z" />
<glyph unicode="&#xc9;" horiz-adv-x="591" d="M117 0v1434h461v-109h-355v-838h281v-108h-281v-268h357v-111h-463zM127 10h442v90h-356v289h283v88h-283v858h356v88h-442v-1413zM145 29v1376h406v-49h-354v-899h280v-49h-280v-328h354v-51h-406zM301 1516l64 126h96l-76 -126h-84zM311 1522h70l68 114h-80zM334 1536 l43 86h47l-51 -86h-39z" />
<glyph unicode="&#xca;" horiz-adv-x="591" d="M117 0v1434h461v-109h-355v-838h281v-108h-281v-268h357v-111h-463zM127 10h442v90h-356v289h283v88h-283v858h356v88h-442v-1413zM145 29v1376h406v-49h-354v-899h280v-49h-280v-328h354v-51h-406zM176 1524l141 112h76l142 -112h-123l-58 43l-59 -43h-119zM195 1530h98 q7 5 28.5 21.5t32.5 23.5l62 -45h100l-127 100h-67zM240 1542l88 74h55l88 -74h-49l-68 49l-67 -49h-47z" />
<glyph unicode="&#xcb;" horiz-adv-x="591" d="M117 0v1434h461v-109h-355v-838h281v-108h-281v-268h357v-111h-463zM127 10h442v90h-356v289h283v88h-283v858h356v88h-442v-1413zM145 29v1376h406v-49h-354v-899h280v-49h-280v-328h354v-51h-406zM258 1516v114h80v-114h-80zM264 1522h68v102h-68v-102zM281 1534v76h34 v-76h-34zM379 1516v114h80v-114h-80zM385 1522h68v102h-68v-102zM401 1534v76h35v-76h-35z" />
<glyph unicode="&#xcc;" horiz-adv-x="290" d="M74 1647h94l61 -127h-79zM86 1640l68 -114h65l-55 114h-78zM113 1626h41l43 -86h-33zM121 0v1434h108v-1434h-108zM131 10h88v1413h-88v-1413zM150 29v1376h51v-1376h-51z" />
<glyph unicode="&#xcd;" horiz-adv-x="290" d="M117 1516l63 126h96l-75 -126h-84zM121 0v1434h108v-1434h-108zM127 1522h70l67 114h-80zM131 10h88v1413h-88v-1413zM150 29v1376h51v-1376h-51zM150 1536l43 86h47l-52 -86h-38z" />
<glyph unicode="&#xce;" horiz-adv-x="290" d="M6 1516l135 118h72l135 -118h-117l-55 45l-57 -45h-113zM23 1522h94q7 5 27.5 23t31.5 26l60 -49h94l-121 106h-64zM66 1536l84 78h53l84 -78h-47l-64 51l-65 -51h-45zM121 0v1434h108v-1434h-108zM131 10h88v1413h-88v-1413zM150 29v1376h51v-1376h-51z" />
<glyph unicode="&#xcf;" horiz-adv-x="290" d="M74 1518v114h80v-114h-80zM80 1524h67v102h-67v-102zM96 1536v76h35v-76h-35zM121 0v1434h108v-1434h-108zM131 10h88v1413h-88v-1413zM150 29v1376h51v-1376h-51zM195 1518v114h79v-114h-79zM201 1524h67v102h-67v-102zM217 1536v76h35v-76h-35z" />
<glyph unicode="&#xd0;" horiz-adv-x="698" d="M39 369v106h84v959h252q48 0 81 -4t72.5 -21t63.5 -47t40.5 -86t16.5 -135v-854q0 -60 -12.5 -107.5t-30 -77t-46 -50.5t-50.5 -31t-54 -15t-45 -5.5t-36 -0.5h-252v369h-84zM49 379h84v-369h242q22 0 34.5 0.5t44 5.5t52.5 14.5t49 30t45 48.5t29 74t12 104v854 q0 64 -10 112.5t-30.5 78.5t-43 49t-56 27.5t-60.5 11.5t-66 3h-242v-958h-84v-86zM68 399v47h84v959h223q44 0 73.5 -3.5t65 -18.5t57 -42.5t36 -78t14.5 -121.5v-854q0 -54 -11.5 -96.5t-27 -69t-41 -45.5t-45 -28t-48.5 -13.5t-40.5 -5t-32.5 -0.5h-223v370h-84zM203 84 h172q41 0 70 6t60.5 25t48.5 62.5t17 109.5v854q-1 58 -12 98.5t-26 62.5t-42.5 34t-52 15t-63.5 3h-172v-908h135v-47h-135v-315zM221 104v275h135v86h-135v868h154q35 0 57 -2.5t47 -13.5t39 -31t24 -56t11 -89v-854q0 -48 -11 -83t-27.5 -54t-42 -30t-47 -13.5 t-50.5 -2.5h-154zM231 115h144q28 0 48 2.5t44.5 12.5t39.5 27.5t25.5 50.5t10.5 79v854q-1 62 -13.5 100.5t-38 55.5t-50 21.5t-66.5 4.5h-144v-848h136v-106h-136v-254z" />
<glyph unicode="&#xd1;" horiz-adv-x="729" d="M121 0v1434h100l340 -1072v1072h107v-1434h-99l-340 1059v-1059h-108zM131 10h88v1112l356 -1112h82v1413h-86v-1122l-358 1122h-82v-1413zM150 29v1376h51l389 -1223v1223h49v-1376h-49l-389 1208v-1208h-51zM283 1511v76q62 38 139 6q21 -10 38.5 -10.5t31 4t47.5 19.5 v-74q-75 -33 -144 -2q-34 11 -57.5 6t-54.5 -25zM291 1526q30 18 53 20.5t55 -10.5q67 -25 131 2v57q-32 -14 -43 -18t-28.5 -2.5t-42.5 12.5q-69 32 -125 -6v-55zM305 1548v27q48 23 105 2q57 -26 104 -4v-29q-54 -20 -106 2q-54 26 -103 2z" />
<glyph unicode="&#xd2;" d="M102 287v858q0 126 70 213.5t195 87.5q118 0 188 -87.5t70 -213.5v-856q0 -126 -68 -214.5t-190 -88.5q-120 0 -192.5 86.5t-72.5 214.5zM113 287q0 -125 68.5 -208t185.5 -83q118 0 182.5 86t64.5 207v856q0 122 -67 206.5t-180 84.5q-120 0 -187 -84.5t-67 -206.5v-858 zM131 287v858q0 114 62 193t174 79q105 0 167 -79t62 -193v-856q0 -113 -60 -193t-169 -80q-107 0 -171.5 77.5t-64.5 193.5zM182 287q0 -94 47 -155.5t138 -61.5q87 0 133.5 62t46.5 157v856q0 90 -46 155.5t-134 65.5q-91 0 -138 -61.5t-47 -159.5v-858zM201 287v858 q0 88 42.5 145.5t123.5 57.5q79 0 120 -60.5t41 -142.5v-856q0 -88 -41.5 -144.5t-119.5 -56.5q-81 0 -123.5 57t-42.5 142zM211 287q0 -81 39.5 -136t116.5 -55q73 0 112 55t39 138v856q0 79 -38.5 135.5t-112.5 56.5q-78 0 -117 -53.5t-39 -138.5v-858zM258 1649h94 l62 -127h-80zM270 1642l68 -114h65l-55 114h-78zM297 1628h41l43 -86h-33z" />
<glyph unicode="&#xd3;" d="M102 287v858q0 126 70 213.5t195 87.5q118 0 188 -87.5t70 -213.5v-856q0 -126 -68 -214.5t-190 -88.5q-120 0 -192.5 86.5t-72.5 214.5zM113 287q0 -125 68.5 -208t185.5 -83q118 0 182.5 86t64.5 207v856q0 122 -67 206.5t-180 84.5q-120 0 -187 -84.5t-67 -206.5v-858 zM131 287v858q0 114 62 193t174 79q105 0 167 -79t62 -193v-856q0 -113 -60 -193t-169 -80q-107 0 -171.5 77.5t-64.5 193.5zM182 287q0 -94 47 -155.5t138 -61.5q87 0 133.5 62t46.5 157v856q0 90 -46 155.5t-134 65.5q-91 0 -138 -61.5t-47 -159.5v-858zM201 287v858 q0 88 42.5 145.5t123.5 57.5q79 0 120 -60.5t41 -142.5v-856q0 -88 -41.5 -144.5t-119.5 -56.5q-81 0 -123.5 57t-42.5 142zM211 287q0 -81 39.5 -136t116.5 -55q73 0 112 55t39 138v856q0 79 -38.5 135.5t-112.5 56.5q-78 0 -117 -53.5t-39 -138.5v-858zM303 1518l64 127 h96l-76 -127h-84zM313 1524h70l68 114h-80zM336 1538l43 86h47l-51 -86h-39z" />
<glyph unicode="&#xd4;" d="M102 287v858q0 126 70 213.5t195 87.5q118 0 188 -87.5t70 -213.5v-856q0 -126 -68 -214.5t-190 -88.5q-120 0 -192.5 86.5t-72.5 214.5zM113 287q0 -125 68.5 -208t185.5 -83q118 0 182.5 86t64.5 207v856q0 122 -67 206.5t-180 84.5q-120 0 -187 -84.5t-67 -206.5v-858 zM131 287v858q0 114 62 193t174 79q105 0 167 -79t62 -193v-856q0 -113 -60 -193t-169 -80q-107 0 -171.5 77.5t-64.5 193.5zM182 287q0 -94 47 -155.5t138 -61.5q87 0 133.5 62t46.5 157v856q0 90 -46 155.5t-134 65.5q-91 0 -138 -61.5t-47 -159.5v-858zM188 1524l142 112 h76l141 -112h-123l-57 43l-60 -43h-119zM201 287v858q0 88 42.5 145.5t123.5 57.5q79 0 120 -60.5t41 -142.5v-856q0 -88 -41.5 -144.5t-119.5 -56.5q-81 0 -123.5 57t-42.5 142zM207 1530h98q7 5 29 21.5t33 23.5l61 -45h100l-127 100h-67zM211 287q0 -81 39.5 -136 t116.5 -55q73 0 112 55t39 138v856q0 79 -38.5 135.5t-112.5 56.5q-78 0 -117 -53.5t-39 -138.5v-858zM252 1542l88 74h55l88 -74h-49l-67 49l-68 -49h-47z" />
<glyph unicode="&#xd5;" d="M102 287v858q0 126 70 213.5t195 87.5q118 0 188 -87.5t70 -213.5v-856q0 -126 -68 -214.5t-190 -88.5q-120 0 -192.5 86.5t-72.5 214.5zM113 287q0 -125 68.5 -208t185.5 -83q118 0 182.5 86t64.5 207v856q0 122 -67 206.5t-180 84.5q-120 0 -187 -84.5t-67 -206.5v-858 zM131 287v858q0 114 62 193t174 79q105 0 167 -79t62 -193v-856q0 -113 -60 -193t-169 -80q-107 0 -171.5 77.5t-64.5 193.5zM182 287q0 -94 47 -155.5t138 -61.5q87 0 133.5 62t46.5 157v856q0 90 -46 155.5t-134 65.5q-91 0 -138 -61.5t-47 -159.5v-858zM201 287v858 q0 88 42.5 145.5t123.5 57.5q79 0 120 -60.5t41 -142.5v-856q0 -88 -41.5 -144.5t-119.5 -56.5q-81 0 -123.5 57t-42.5 142zM211 287q0 -81 39.5 -136t116.5 -55q73 0 112 55t39 138v856q0 79 -38.5 135.5t-112.5 56.5q-78 0 -117 -53.5t-39 -138.5v-858zM252 1516v73 q55 37 129 6q32 -12 47.5 -9.5t58.5 22.5v-72q-69 -32 -131 -2q-51 20 -104 -18zM260 1530q27 18 48 20.5t50 -10.5q63 -25 121 2v55q-4 -1 -13 -5.5t-11.5 -5t-9.5 -3.5t-9.5 -3.5t-8.5 -1.5t-9 -0.5t-8.5 0.5t-10.5 2t-11 4t-13 5q-65 32 -115 -6v-53zM272 1552v27 q45 21 97 0q53 -23 96 -2v-29q-50 -20 -98 2q-49 25 -95 2z" />
<glyph unicode="&#xd6;" d="M102 287v858q0 126 70 213.5t195 87.5q118 0 188 -87.5t70 -213.5v-856q0 -126 -68 -214.5t-190 -88.5q-120 0 -192.5 86.5t-72.5 214.5zM113 287q0 -125 68.5 -208t185.5 -83q118 0 182.5 86t64.5 207v856q0 122 -67 206.5t-180 84.5q-120 0 -187 -84.5t-67 -206.5v-858 zM131 287v858q0 114 62 193t174 79q105 0 167 -79t62 -193v-856q0 -113 -60 -193t-169 -80q-107 0 -171.5 77.5t-64.5 193.5zM182 287q0 -94 47 -155.5t138 -61.5q87 0 133.5 62t46.5 157v856q0 90 -46 155.5t-134 65.5q-91 0 -138 -61.5t-47 -159.5v-858zM201 287v858 q0 88 42.5 145.5t123.5 57.5q79 0 120 -60.5t41 -142.5v-856q0 -88 -41.5 -144.5t-119.5 -56.5q-81 0 -123.5 57t-42.5 142zM211 287q0 -81 39.5 -136t116.5 -55q73 0 112 55t39 138v856q0 79 -38.5 135.5t-112.5 56.5q-78 0 -117 -53.5t-39 -138.5v-858zM266 1518v114h80 v-114h-80zM272 1524h68v102h-68v-102zM289 1536v76h35v-76h-35zM387 1518v114h80v-114h-80zM393 1524h68v102h-68v-102zM410 1536v76h34v-76h-34z" />
<glyph unicode="&#xd8;" d="M102 289v862q0 126 70 213.5t195 87.5q55 0 104 -22q18 80 25 106h100l-39 -176q66 -84 66 -211v-858q0 -126 -67 -215.5t-189 -89.5q-63 0 -107 20l-22 -102h-101l37 170q-72 84 -72 215zM113 289q0 -130 71 -213l-34 -162h79q3 17 12 53t13 53q50 -24 113 -24 q118 0 182.5 86t64.5 209v858q0 123 -67 209l37 168h-82q-8 -42 -23 -113q-53 29 -112 29q-120 0 -187 -84.5t-67 -206.5v-862zM131 289v862q0 113 62.5 192.5t173.5 79.5q66 0 122 -39l27 121h45l-35 -153q70 -79 70 -203v-858q0 -114 -60 -194.5t-169 -80.5q-74 0 -127 35 l-25 -119h-43l33 150q-74 77 -74 207zM182 289q0 -90 37 -146l260 1188q-48 41 -112 41q-91 0 -138 -61.5t-47 -159.5v-862zM201 289v862q0 88 42.5 144.5t123.5 56.5q40 0 92 -29l-248 -1122q-10 36 -10 88zM209 289q0 -29 2 -43q32 148 112 510t123 563q-40 22 -79 22 q-78 0 -118 -53t-40 -137v-862zM254 106q39 -36 113 -36q87 0 133.5 62.5t46.5 158.5v858q0 78 -35 137zM272 113q48 215 133 606.5t111 509.5q12 -37 12 -80v-858q0 -88 -41.5 -145.5t-119.5 -57.5q-60 0 -95 25zM285 119q42 -21 82 -21q73 0 112 55t39 138v858q0 25 -2 35 z" />
<glyph unicode="&#xd9;" horiz-adv-x="694" d="M115 291v1143h104v-1143q0 -80 40 -138.5t116 -58.5q80 0 117.5 54t37.5 141v1145h105v-1145q0 -81 -28 -148.5t-88.5 -112t-143.5 -44.5q-118 0 -189 88t-71 219zM123 291q0 -128 69 -212.5t183 -84.5q120 0 186 86.5t66 208.5v1136h-88v-1136q0 -92 -39.5 -148.5 t-124.5 -56.5q-82 0 -123 61.5t-41 145.5v1134h-88v-1134zM141 291v1114h52v-1114q0 -93 46 -159t136 -66q94 0 138 62t44 161v1116h49v-1116q0 -73 -24 -133.5t-78 -101t-129 -40.5q-106 0 -170 79t-64 198zM281 1642h94l61 -126h-80zM293 1636l67 -114h66l-55 114h-78z M319 1622h41l43 -86h-32z" />
<glyph unicode="&#xda;" horiz-adv-x="694" d="M115 291v1143h104v-1143q0 -80 40 -138.5t116 -58.5q80 0 117.5 54t37.5 141v1145h105v-1145q0 -81 -28 -148.5t-88.5 -112t-143.5 -44.5q-118 0 -189 88t-71 219zM123 291q0 -128 69 -212.5t183 -84.5q120 0 186 86.5t66 208.5v1136h-88v-1136q0 -92 -39.5 -148.5 t-124.5 -56.5q-82 0 -123 61.5t-41 145.5v1134h-88v-1134zM141 291v1114h52v-1114q0 -93 46 -159t136 -66q94 0 138 62t44 161v1116h49v-1116q0 -73 -24 -133.5t-78 -101t-129 -40.5q-106 0 -170 79t-64 198zM319 1511l64 127h96l-76 -127h-84zM330 1518h69l68 114h-80z M352 1532l43 86h47l-51 -86h-39z" />
<glyph unicode="&#xdb;" horiz-adv-x="694" d="M115 291v1143h104v-1143q0 -80 40 -138.5t116 -58.5q80 0 117.5 54t37.5 141v1145h105v-1145q0 -81 -28 -148.5t-88.5 -112t-143.5 -44.5q-118 0 -189 88t-71 219zM123 291q0 -128 69 -212.5t183 -84.5q120 0 186 86.5t66 208.5v1136h-88v-1136q0 -92 -39.5 -148.5 t-124.5 -56.5q-82 0 -123 61.5t-41 145.5v1134h-88v-1134zM141 291v1114h52v-1114q0 -93 46 -159t136 -66q94 0 138 62t44 161v1116h49v-1116q0 -73 -24 -133.5t-78 -101t-129 -40.5q-106 0 -170 79t-64 198zM203 1518l141 112h76l141 -112h-123l-57 43l-59 -43h-119z M221 1524h98q7 5 29 21.5t33 23.5l61 -45h101l-127 100h-68zM266 1536l88 74h56l88 -74h-49l-68 49l-68 -49h-47z" />
<glyph unicode="&#xdc;" horiz-adv-x="694" d="M115 291v1143h104v-1143q0 -80 40 -138.5t116 -58.5q80 0 117.5 54t37.5 141v1145h105v-1145q0 -81 -28 -148.5t-88.5 -112t-143.5 -44.5q-118 0 -189 88t-71 219zM123 291q0 -128 69 -212.5t183 -84.5q120 0 186 86.5t66 208.5v1136h-88v-1136q0 -92 -39.5 -148.5 t-124.5 -56.5q-82 0 -123 61.5t-41 145.5v1134h-88v-1134zM141 291v1114h52v-1114q0 -93 46 -159t136 -66q94 0 138 62t44 161v1116h49v-1116q0 -73 -24 -133.5t-78 -101t-129 -40.5q-106 0 -170 79t-64 198zM281 1520v114h79v-114h-79zM287 1526h67v102h-67v-102zM303 1538 v76h35v-76h-35zM401 1520v114h80v-114h-80zM408 1526h67v102h-67v-102zM424 1538v76h35v-76h-35z" />
<glyph unicode="&#xdd;" horiz-adv-x="657" d="M47 1436h113l196 -832l201 832h113l-258 -1078v-358h-109v358q-157 656 -256 1078zM59 1425q35 -149 254 -1063v-352h88v352l256 1063h-92l-209 -864l-204 864h-93zM84 1407h51l221 -926l224 926h55l-252 -1040v-338h-51v338zM313 1518l64 127h96l-76 -127h-84zM324 1524 h69l68 114h-80zM346 1538l43 86h47l-51 -86h-39z" />
<glyph unicode="&#xde;" horiz-adv-x="673" d="M117 0v1436h106v-197h154q48 0 92 -16t83 -48.5t62 -91t23 -135.5v-454q0 -121 -69.5 -209t-190.5 -88h-154v-197h-106zM127 10h88v197h162q115 0 183.5 86t68.5 201v454q0 74 -22 130.5t-59.5 88t-80.5 47t-90 15.5h-162v196h-88v-1415zM145 29v1378h52v-197h180 q43 0 82.5 -14.5t74.5 -44t55.5 -82t20.5 -121.5v-454q0 -109 -62.5 -189t-170.5 -80h-180v-196h-52zM197 276h180q74 0 129 60.5t55 157.5v454q0 99 -48.5 155t-135.5 56h-180v-883zM215 297v842h162q78 0 122 -50t44 -141v-454q0 -90 -49 -143.5t-117 -53.5h-162zM223 307 h154q63 0 109 51t46 136v454q0 86 -40 133t-115 47h-154v-821z" />
<glyph unicode="&#xe0;" horiz-adv-x="505" d="M59 0l164 1145h111l166 -1145h-107l-39 297h-147l-43 -297h-105zM70 10h86q8 51 23 155.5t20 139.5h161l41 -295h88l-161 1127h-99zM92 29l154 1087h65l158 -1087h-51l-41 295h-193l-43 -295h-49zM172 1409h94l62 -127h-80zM184 1403l68 -115h65l-55 115h-78zM186 369 h185l-92 653zM209 389l70 504l69 -504h-139zM211 1389h41l43 -86h-33zM219 397h119q-30 212 -59 428z" />
<glyph unicode="&#xe1;" horiz-adv-x="505" d="M59 0l164 1145h111l166 -1145h-107l-39 297h-147l-43 -297h-105zM70 10h86q8 51 23 155.5t20 139.5h161l41 -295h88l-161 1127h-99zM92 29l154 1087h65l158 -1087h-51l-41 295h-193l-43 -295h-49zM186 369h185l-92 653zM209 389l70 504l69 -504h-139zM219 397h119 q-30 212 -59 428zM223 1274l64 127h96l-76 -127h-84zM233 1280h70l68 115h-80zM256 1294l43 86h47l-51 -86h-39z" />
<glyph unicode="&#xe2;" horiz-adv-x="505" d="M59 0l164 1145h111l166 -1145h-107l-39 297h-147l-43 -297h-105zM70 10h86q8 51 23 155.5t20 139.5h161l41 -295h88l-161 1127h-99zM92 29l154 1087h65l158 -1087h-51l-41 295h-193l-43 -295h-49zM115 1280l129 115h69l129 -115h-112l-54 43l-53 -43h-108zM131 1286h90 q6 5 25.5 21.5t29.5 23.5l58 -45h92l-117 103h-61zM172 1298l80 76h51l80 -76h-45l-62 50l-61 -50h-43zM186 369h185l-92 653zM209 389l70 504l69 -504h-139zM219 397h119q-30 212 -59 428z" />
<glyph unicode="&#xe3;" horiz-adv-x="505" d="M59 0l164 1145h111l166 -1145h-107l-39 297h-147l-43 -297h-105zM70 10h86q8 51 23 155.5t20 139.5h161l41 -295h88l-161 1127h-99zM92 29l154 1087h65l158 -1087h-51l-41 295h-193l-43 -295h-49zM162 1305v77q59 38 129 7q19 -10 34 -11.5t25 2t38 16.5q2 1 3.5 1.5 t3.5 1.5l4 2v-76q-68 -32 -133 -2q-48 20 -104 -18zM170 1319q29 18 50 20.5t50 -10.5q62 -25 123 2v60q-46 -23 -60 -24q-17 0 -46 15q-65 31 -117 -6v-57zM182 1341v27q45 26 99 4q51 -28 96 -6v-29q-50 -20 -98 2q-50 26 -97 2zM186 369h185l-92 653zM209 389l70 504 l69 -504h-139zM219 397h119q-30 212 -59 428z" />
<glyph unicode="&#xe4;" horiz-adv-x="505" d="M59 0l164 1145h111l166 -1145h-107l-39 297h-147l-43 -297h-105zM70 10h86q8 51 23 155.5t20 139.5h161l41 -295h88l-161 1127h-99zM92 29l154 1087h65l158 -1087h-51l-41 295h-193l-43 -295h-49zM178 1303v114h80v-114h-80zM184 1309h68v102h-68v-102zM186 369h185 l-92 653zM201 1321v76h35v-76h-35zM209 389l70 504l69 -504h-139zM219 397h119q-30 212 -59 428zM299 1303v114h80v-114h-80zM305 1309h68v102h-68v-102zM322 1321v76h34v-76h-34z" />
<glyph unicode="&#xe5;" horiz-adv-x="505" d="M59 0l164 1145h111l166 -1145h-107l-39 297h-147l-43 -297h-105zM70 10h86q8 51 23 155.5t20 139.5h161l41 -295h88l-161 1127h-99zM92 29l154 1087h65l158 -1087h-51l-41 295h-193l-43 -295h-49zM186 369h185l-92 653zM186 1325q0 39 28 61.5t67 22.5q37 0 65.5 -22.5 t28.5 -61.5t-29 -62.5t-67 -23.5t-65.5 23t-27.5 63zM195 1325q0 -36 25 -57t59 -21t61 21.5t27 56.5q0 36 -25.5 56t-60.5 20t-60.5 -20t-25.5 -56zM209 389l70 504l69 -504h-139zM209 1325q0 28 22.5 44.5t49 17t49 -16t22.5 -45.5q0 -38 -36 -54.5t-71.5 -1t-35.5 55.5z M219 397h119q-30 212 -59 428zM238 1325q0 -23 21 -32t42 0.5t21 31.5t-21 31t-42 -0.5t-21 -30.5z" />
<glyph unicode="&#xe6;" horiz-adv-x="620" d="M49 0l262 1145h305v-107h-192v-635h166v-108h-166v-184h192v-111h-297v295h-90l-69 -295h-111zM61 10h93l67 295h107v-295h280v90h-192v205h166v90h-166v654h192v86h-289zM86 29l248 1087h256v-49h-193v-692h166v-51h-166v-242h193v-53h-244v295h-139l-68 -295h-53z M217 375h129v446l8 191h-4l-35 -195zM240 395l88 391v-391h-88zM254 403h65v299z" />
<glyph unicode="&#xe7;" horiz-adv-x="532" d="M82 244v665q0 107 59 180.5t154 73.5t153 -73t58 -181v-121h-100v121q0 59 -29 101.5t-80 42.5q-48 0 -80.5 -39.5t-32.5 -104.5v-665q0 -58 30 -100t83 -42q52 0 79 40t27 100v114h105v-114q0 -94 -41.5 -164t-124.5 -84l-8 -35q43 -6 71.5 -38.5t28.5 -84.5 q0 -54 -34 -87.5t-85 -33.5h-39q-48 0 -80 39.5t-32 112.5h55l31 127q-80 17 -124 84.5t-44 165.5zM90 244q0 -93 46.5 -160t123.5 -82l-31 -131h84q14 0 24.5 -9.5t10.5 -25.5q0 -13 -11 -21t-24 -8h-37q-28 0 -28 50h-76q0 -64 30 -97.5t74 -33.5h39q46 0 78.5 30.5 t32.5 79.5t-28.5 79.5t-71.5 33.5l12 53q79 16 119.5 84t40.5 156v104h-86v-104q0 -65 -29 -107.5t-86 -42.5t-89 45t-32 107v665q0 70 34 112t87 42q56 0 86.5 -45t30.5 -109v-112h82v112q0 105 -55.5 174.5t-145.5 69.5q-92 0 -148.5 -70t-56.5 -174v-665zM109 244v665 q0 96 51.5 161t134.5 65t133.5 -64.5t50.5 -161.5v-92h-47v92q0 71 -35.5 122.5t-99.5 51.5q-61 0 -100 -48t-39 -126v-665q0 -70 37 -121t102 -51t99 48.5t34 121.5v84h51v-84q0 -83 -41 -148.5t-116 -73.5l-23 -92h14q40 0 66.5 -24.5t26.5 -67.5q0 -40 -27 -66t-66 -26 h-39q-37 0 -61.5 24t-24.5 68h39q0 -24 13 -36.5t34 -12.5h37q22 0 38 13t16 36q0 25 -15.5 39t-38.5 14h-59l29 131q-81 3 -127.5 66t-46.5 158zM256 -139q0 -43 20 -43h37q10 0 18.5 5t8.5 13q0 11 -8 18t-19 7h-57z" />
<glyph unicode="&#xe8;" horiz-adv-x="487" d="M98 0v1145h379v-107h-274v-635h217v-108h-217v-184h274v-111h-379zM109 10h358v90h-274v205h219v90h-219v654h274v86h-358v-1125zM127 29v1087h324v-49h-275v-692h217v-51h-217v-242h275v-53h-324zM197 1411h94l61 -127h-80zM209 1405l67 -115h66l-55 115h-78zM236 1391 h40l43 -86h-32z" />
<glyph unicode="&#xe9;" horiz-adv-x="487" d="M98 0v1145h379v-107h-274v-635h217v-108h-217v-184h274v-111h-379zM109 10h358v90h-274v205h219v90h-219v654h274v86h-358v-1125zM127 29v1087h324v-49h-275v-692h217v-51h-217v-242h275v-53h-324zM233 1288l64 127h96l-76 -127h-84zM244 1294h69l68 115h-80zM266 1309 l43 86h47l-51 -86h-39z" />
<glyph unicode="&#xea;" horiz-adv-x="487" d="M98 0v1145h379v-107h-274v-635h217v-108h-217v-184h274v-111h-379zM109 10h358v90h-274v205h219v90h-219v654h274v86h-358v-1125zM127 29v1087h324v-49h-275v-692h217v-51h-217v-242h275v-53h-324zM131 1292l127 113h70l129 -113h-113l-51 43l-55 -43h-107zM147 1298h91 q6 5 25.5 21.5t29.5 23.5l55 -45h92l-116 101h-62zM188 1311l80 73h49l82 -73h-45l-61 49l-62 -49h-43z" />
<glyph unicode="&#xeb;" horiz-adv-x="487" d="M98 0v1145h379v-107h-274v-635h217v-108h-217v-184h274v-111h-379zM109 10h358v90h-274v205h219v90h-219v654h274v86h-358v-1125zM127 29v1087h324v-49h-275v-692h217v-51h-217v-242h275v-53h-324zM188 1288v115h80v-115h-80zM195 1294h67v103h-67v-103zM211 1307v75h35 v-75h-35zM309 1288v115h80v-115h-80zM315 1294h68v103h-68v-103zM332 1307v75h35v-75h-35z" />
<glyph unicode="&#xec;" horiz-adv-x="262" d="M53 1403h94l62 -127h-80zM66 1397l67 -115h66l-56 115h-77zM92 1382h41l43 -86h-33zM102 0v1145h105v-1145h-105zM113 10h84v1125h-84v-1125zM129 29v1087h51v-1087h-51z" />
<glyph unicode="&#xed;" horiz-adv-x="262" d="M94 1278l64 127h96l-76 -127h-84zM102 0v1145h105v-1145h-105zM104 1284h70l68 115h-80zM113 10h84v1125h-84v-1125zM127 1298l43 86h47l-51 -86h-39zM129 29v1087h51v-1087h-51z" />
<glyph unicode="&#xee;" horiz-adv-x="262" d="M20 1294l109 119h57l109 -119h-94l-43 45l-45 -45h-93zM35 1300h76q5 5 21.5 23.5t25.5 26.5l47 -50h76l-97 107h-51zM70 1315l67 78h43l68 -78h-39l-51 51l-52 -51h-36zM102 0v1145h105v-1145h-105zM113 10h84v1125h-84v-1125zM129 29v1087h51v-1087h-51z" />
<glyph unicode="&#xef;" horiz-adv-x="262" d="M53 1298v115h80v-115h-80zM59 1305h68v102h-68v-102zM76 1317v76h35v-76h-35zM102 0v1145h105v-1145h-105zM113 10h84v1125h-84v-1125zM129 29v1087h51v-1087h-51zM174 1298v115h80v-115h-80zM180 1305h68v102h-68v-102zM197 1317v76h34v-76h-34z" />
<glyph unicode="&#xf0;" horiz-adv-x="546" d="M84 240v645q0 109 54.5 178.5t133.5 69.5q6 0 41 -5q-4 8 -13 28t-15 32l-72 -47l-41 73l80 50l-84 174h111l57 -119l74 45l43 -72l-82 -51l94 -199q43 -98 43 -157v-643q0 -106 -55.5 -180t-155.5 -74q-97 0 -155 72t-58 180zM92 240q0 -104 55.5 -173t149.5 -69 q96 0 148.5 71.5t52.5 172.5v643q0 69 -39 153l-99 207l82 51l-32 58l-78 -49l-60 122h-90l80 -167l-78 -48l33 -57l72 45q3 -8 43 -84q-20 6 -60 6q-75 0 -127.5 -66.5t-52.5 -170.5v-645zM111 240v645q0 95 46 156t115 61q60 0 97 -25l-72 154l-74 -47l-12 20l74 47 l-74 158h51l62 -131l79 49l13 -22l-80 -52l106 -223q37 -69 37 -145v-643q0 -94 -47 -159t-135 -65q-85 0 -135.5 63.5t-50.5 158.5zM160 240q0 -71 35.5 -119.5t101.5 -48.5t99.5 48t33.5 122v643q0 69 -33.5 118.5t-99.5 49.5q-68 0 -102.5 -43.5t-34.5 -124.5v-645z M178 240v645q0 72 30 110.5t89 38.5q57 0 86 -44t29 -105v-643q0 -66 -29 -108t-86 -42t-88 42.5t-31 105.5zM186 240q0 -58 29 -98t82 -40t79.5 39.5t26.5 100.5v643q0 57 -27 98t-79 41q-55 0 -83 -36t-28 -103v-645z" />
<glyph unicode="&#xf1;" horiz-adv-x="595" d="M102 0v1145h97l243 -783v783h105v-1145h-94l-246 768v-768h-105zM113 10h86v813l260 -813h80v1125h-86v-832l-263 832h-77v-1125zM131 29v1087h47l264 -833q7 -29 20 -80.5t19 -75.5h2q-9 78 -12 156v833h49v-1087h-47l-268 839q-14 45 -35 140h-2q7 -59 12 -142v-837 h-49zM205 1300v76q62 38 139 6q21 -10 38.5 -10.5t31 4t47.5 19.5v-74q-75 -33 -144 -2q-34 11 -57.5 6t-54.5 -25zM213 1315q30 18 53.5 20.5t55.5 -10.5q67 -25 131 2v57q-32 -14 -43 -18t-29 -2.5t-43 12.5q-69 32 -125 -6v-55zM227 1337v27q48 23 105 2q57 -26 104 -4 v-29q-54 -20 -106 2q-54 26 -103 2z" />
<glyph unicode="&#xf2;" horiz-adv-x="550" d="M88 238v671q0 103 57 174.5t158 71.5q95 0 152 -71t57 -175v-669q0 -105 -55 -178.5t-154 -73.5t-157 71t-58 179zM98 238q0 -104 55.5 -172t149.5 -68q96 0 148.5 70.5t52.5 171.5v669q0 99 -55 168.5t-146 69.5q-96 0 -150.5 -69.5t-54.5 -168.5v-671zM115 238v671 q0 91 50 154t138 63q84 0 133 -62t49 -155v-669q0 -92 -48 -157t-134 -65q-87 0 -137.5 62.5t-50.5 157.5zM166 238q0 -70 35.5 -118t101.5 -48t99.5 47t33.5 121v669q0 68 -34 117t-99 49q-66 0 -101.5 -47t-35.5 -119v-671zM182 238v671q0 64 31.5 106t89.5 42 q56 0 85.5 -44t29.5 -104v-669q0 -65 -29.5 -106.5t-85.5 -41.5q-57 0 -89 42t-32 104zM193 238q0 -58 28 -98t82 -40q53 0 80 39.5t27 100.5v669q0 56 -27.5 97t-79.5 41q-54 0 -82 -38.5t-28 -99.5v-671zM197 1407h94l61 -127h-80zM209 1401l67 -115h66l-55 115h-78z M236 1386h40l43 -86h-32z" />
<glyph unicode="&#xf3;" horiz-adv-x="550" d="M88 238v671q0 103 57 174.5t158 71.5q95 0 152 -71t57 -175v-669q0 -105 -55 -178.5t-154 -73.5t-157 71t-58 179zM98 238q0 -104 55.5 -172t149.5 -68q96 0 148.5 70.5t52.5 171.5v669q0 99 -55 168.5t-146 69.5q-96 0 -150.5 -69.5t-54.5 -168.5v-671zM115 238v671 q0 91 50 154t138 63q84 0 133 -62t49 -155v-669q0 -92 -48 -157t-134 -65q-87 0 -137.5 62.5t-50.5 157.5zM166 238q0 -70 35.5 -118t101.5 -48t99.5 47t33.5 121v669q0 68 -34 117t-99 49q-66 0 -101.5 -47t-35.5 -119v-671zM182 238v671q0 64 31.5 106t89.5 42 q56 0 85.5 -44t29.5 -104v-669q0 -65 -29.5 -106.5t-85.5 -41.5q-57 0 -89 42t-32 104zM193 238q0 -58 28 -98t82 -40q53 0 80 39.5t27 100.5v669q0 56 -27.5 97t-79.5 41q-54 0 -82 -38.5t-28 -99.5v-671zM236 1280l63 127h96l-76 -127h-83zM246 1286h69l68 115h-80z M268 1300l43 86h47l-51 -86h-39z" />
<glyph unicode="&#xf4;" horiz-adv-x="550" d="M88 238v671q0 103 57 174.5t158 71.5q95 0 152 -71t57 -175v-669q0 -105 -55 -178.5t-154 -73.5t-157 71t-58 179zM98 238q0 -104 55.5 -172t149.5 -68q96 0 148.5 70.5t52.5 171.5v669q0 99 -55 168.5t-146 69.5q-96 0 -150.5 -69.5t-54.5 -168.5v-671zM115 238v671 q0 91 50 154t138 63q84 0 133 -62t49 -155v-669q0 -92 -48 -157t-134 -65q-87 0 -137.5 62.5t-50.5 157.5zM127 1290l141 113h76l141 -113h-123l-57 43l-59 -43h-119zM145 1296h99q7 5 28.5 21.5t32.5 23.5l62 -45h100l-127 101h-68zM166 238q0 -70 35.5 -118t101.5 -48 t99.5 47t33.5 121v669q0 68 -34 117t-99 49q-66 0 -101.5 -47t-35.5 -119v-671zM182 238v671q0 64 31.5 106t89.5 42q56 0 85.5 -44t29.5 -104v-669q0 -65 -29.5 -106.5t-85.5 -41.5q-57 0 -89 42t-32 104zM190 1309l89 73h55l88 -73h-49l-68 49l-67 -49h-48zM193 238 q0 -58 28 -98t82 -40q53 0 80 39.5t27 100.5v669q0 56 -27.5 97t-79.5 41q-54 0 -82 -38.5t-28 -99.5v-671z" />
<glyph unicode="&#xf5;" horiz-adv-x="550" d="M88 238v671q0 103 57 174.5t158 71.5q95 0 152 -71t57 -175v-669q0 -105 -55 -178.5t-154 -73.5t-157 71t-58 179zM98 238q0 -104 55.5 -172t149.5 -68q96 0 148.5 70.5t52.5 171.5v669q0 99 -55 168.5t-146 69.5q-96 0 -150.5 -69.5t-54.5 -168.5v-671zM115 238v671 q0 91 50 154t138 63q84 0 133 -62t49 -155v-669q0 -92 -48 -157t-134 -65q-87 0 -137.5 62.5t-50.5 157.5zM166 238q0 -70 35.5 -118t101.5 -48t99.5 47t33.5 121v669q0 68 -34 117t-99 49q-66 0 -101.5 -47t-35.5 -119v-671zM180 1298v76q62 38 139 6q21 -10 38.5 -10.5 t31 4t47.5 19.5v-74q-75 -32 -143 -2q-53 20 -113 -19zM182 238v671q0 64 31.5 106t89.5 42q56 0 85.5 -44t29.5 -104v-669q0 -65 -29.5 -106.5t-85.5 -41.5q-57 0 -89 42t-32 104zM188 1313q30 18 53.5 20.5t55.5 -10.5q67 -25 131 2v57q-32 -14 -43 -18t-29 -2.5t-43 12.5 q-69 32 -125 -6v-55zM193 238q0 -58 28 -98t82 -40q53 0 80 39.5t27 100.5v669q0 56 -27.5 97t-79.5 41q-54 0 -82 -38.5t-28 -99.5v-671zM203 1335v27q48 23 104 2q57 -26 105 -4v-29q-54 -20 -107 2q-53 26 -102 2z" />
<glyph unicode="&#xf6;" horiz-adv-x="550" d="M88 238v671q0 103 57 174.5t158 71.5q95 0 152 -71t57 -175v-669q0 -105 -55 -178.5t-154 -73.5t-157 71t-58 179zM98 238q0 -104 55.5 -172t149.5 -68q96 0 148.5 70.5t52.5 171.5v669q0 99 -55 168.5t-146 69.5q-96 0 -150.5 -69.5t-54.5 -168.5v-671zM115 238v671 q0 91 50 154t138 63q84 0 133 -62t49 -155v-669q0 -92 -48 -157t-134 -65q-87 0 -137.5 62.5t-50.5 157.5zM166 238q0 -70 35.5 -118t101.5 -48t99.5 47t33.5 121v669q0 68 -34 117t-99 49q-66 0 -101.5 -47t-35.5 -119v-671zM182 238v671q0 64 31.5 106t89.5 42 q56 0 85.5 -44t29.5 -104v-669q0 -65 -29.5 -106.5t-85.5 -41.5q-57 0 -89 42t-32 104zM193 238q0 -58 28 -98t82 -40q53 0 80 39.5t27 100.5v669q0 56 -27.5 97t-79.5 41q-54 0 -82 -38.5t-28 -99.5v-671zM203 1286v115h80v-115h-80zM209 1292h67v103h-67v-103zM225 1305 v75h35v-75h-35zM324 1286v115h79v-115h-79zM330 1292h67v103h-67v-103zM346 1305v75h35v-75h-35z" />
<glyph unicode="&#xf8;" horiz-adv-x="536" d="M82 240v673q0 104 57 177t158 73q34 0 63 -10q3 15 10 46.5t9 43.5h96l-29 -151q60 -73 60 -179v-671q0 -105 -55 -179.5t-154 -74.5q-37 0 -61 8l-17 -84h-96l27 137q-30 35 -49 86t-19 105zM90 240q0 -55 18.5 -104.5t49.5 -82.5l-27 -131h80q1 12 7.5 43.5t8.5 44.5 q37 -12 70 -12q95 0 147 71t52 173v671q0 116 -58 177l27 143h-80q-1 -6 -18 -94q-32 14 -70 14q-98 0 -152.5 -69.5t-54.5 -170.5v-673zM109 240v673q0 93 49.5 156.5t138.5 63.5q47 0 84 -21l20 102h41l-24 -131q61 -64 61 -170v-671q0 -94 -48 -159t-134 -65 q-38 0 -84 17l-16 -94h-41l22 120q-69 60 -69 179zM158 240q0 -72 32 -115l181 932q-29 26 -74 26q-67 0 -103 -48.5t-36 -121.5v-673zM176 240v673q0 66 31 108t90 42q33 0 55 -16q-5 -26 -170 -863q-6 24 -6 56zM184 242q116 585 156 800q-19 11 -43 11q-55 0 -84 -39 t-29 -101v-671zM225 92q30 -20 72 -20q64 0 97.5 48t33.5 122v671q0 58 -25 103zM244 104l166 840v-31v-671q0 -67 -28.5 -108.5t-84.5 -41.5q-29 0 -53 12zM254 109q24 -7 43 -7q52 0 78 39t26 101v620z" />
<glyph unicode="&#xf9;" horiz-adv-x="569" d="M98 240v905h103v-905q0 -59 27.5 -101.5t80.5 -42.5q56 0 82.5 40t26.5 104v905h104v-905q0 -105 -56 -178.5t-157 -73.5q-96 0 -153.5 71.5t-57.5 180.5zM106 240q0 -105 55 -173.5t148 -68.5q97 0 150 70.5t53 171.5v897h-86v-897q0 -68 -28 -110t-89 -42 q-58 0 -87 44.5t-29 107.5v897h-87v-897zM125 240v876h49v-876q0 -70 34 -121t101 -51q70 0 102.5 47.5t32.5 124.5v876h50v-876q0 -93 -48 -157.5t-137 -64.5q-84 0 -134 63t-50 159zM217 1411h94l62 -127h-80zM229 1405l68 -115h65l-55 115h-78zM256 1391h41l43 -86h-33z " />
<glyph unicode="&#xfa;" horiz-adv-x="569" d="M98 240v905h103v-905q0 -59 27.5 -101.5t80.5 -42.5q56 0 82.5 40t26.5 104v905h104v-905q0 -105 -56 -178.5t-157 -73.5q-96 0 -153.5 71.5t-57.5 180.5zM106 240q0 -105 55 -173.5t148 -68.5q97 0 150 70.5t53 171.5v897h-86v-897q0 -68 -28 -110t-89 -42 q-58 0 -87 44.5t-29 107.5v897h-87v-897zM125 240v876h49v-876q0 -70 34 -121t101 -51q70 0 102.5 47.5t32.5 124.5v876h50v-876q0 -93 -48 -157.5t-137 -64.5q-84 0 -134 63t-50 159zM268 1280l64 127h96l-76 -127h-84zM279 1286h69l68 115h-80zM301 1300l43 86h47l-51 -86 h-39z" />
<glyph unicode="&#xfb;" horiz-adv-x="569" d="M98 240v905h103v-905q0 -59 27.5 -101.5t80.5 -42.5q56 0 82.5 40t26.5 104v905h104v-905q0 -105 -56 -178.5t-157 -73.5q-96 0 -153.5 71.5t-57.5 180.5zM106 240q0 -105 55 -173.5t148 -68.5q97 0 150 70.5t53 171.5v897h-86v-897q0 -68 -28 -110t-89 -42 q-58 0 -87 44.5t-29 107.5v897h-87v-897zM125 240v876h49v-876q0 -70 34 -121t101 -51q70 0 102.5 47.5t32.5 124.5v876h50v-876q0 -93 -48 -157.5t-137 -64.5q-84 0 -134 63t-50 159zM135 1290l141 113h76l142 -113h-123l-58 43l-59 -43h-119zM154 1296h98q7 5 28.5 21.5 t32.5 23.5l62 -45h100l-127 101h-67zM199 1309l88 73h55l88 -73h-49l-68 49l-67 -49h-47z" />
<glyph unicode="&#xfc;" horiz-adv-x="569" d="M98 240v905h103v-905q0 -59 27.5 -101.5t80.5 -42.5q56 0 82.5 40t26.5 104v905h104v-905q0 -105 -56 -178.5t-157 -73.5q-96 0 -153.5 71.5t-57.5 180.5zM106 240q0 -105 55 -173.5t148 -68.5q97 0 150 70.5t53 171.5v897h-86v-897q0 -68 -28 -110t-89 -42 q-58 0 -87 44.5t-29 107.5v897h-87v-897zM125 240v876h49v-876q0 -70 34 -121t101 -51q70 0 102.5 47.5t32.5 124.5v876h50v-876q0 -93 -48 -157.5t-137 -64.5q-84 0 -134 63t-50 159zM215 1284v115h80v-115h-80zM221 1290h68v103h-68v-103zM238 1303v75h34v-75h-34z M336 1284v115h80v-115h-80zM342 1290h68v103h-68v-103zM358 1303v75h35v-75h-35z" />
<glyph unicode="&#xfd;" horiz-adv-x="540" d="M39 1147h113l145 -627l147 627h113l-205 -858v-289h-110v289q-14 63 -35 150t-68 285.5t-100 422.5zM53 1137l199 -844v-283h90v283l201 844h-90l-156 -664l-154 664h-90zM78 1118h49l170 -735l170 735h53l-196 -821v-268h-54v268q-35 157 -108.5 468t-83.5 353z M233 1284l64 127h96l-76 -127h-84zM244 1290h69l68 115h-80zM266 1305l43 86h47l-51 -86h-39z" />
<glyph unicode="&#xfe;" horiz-adv-x="538" d="M92 0v1145h105v-154h108q85 0 148 -58t63 -179v-363q0 -101 -57 -173.5t-154 -72.5h-108v-145h-105zM100 10h88v146h117q93 0 148 69.5t55 165.5v363q0 60 -18 106t-48.5 71t-65 37.5t-71.5 12.5h-117v154h-88v-1125zM119 29v1087h51v-153h135q74 0 129 -51.5t55 -157.5 v-363q0 -89 -49.5 -153t-134.5 -64h-135v-145h-51zM170 227h135q55 0 95 44.5t40 119.5v363q0 74 -35.5 115.5t-99.5 41.5h-135v-684zM188 248v645h117q57 0 88 -37t31 -102v-363q0 -66 -35 -104.5t-84 -38.5h-117zM197 256h108q44 0 76.5 36.5t32.5 98.5v363q0 61 -28.5 95 t-80.5 34h-108v-627z" />
<glyph unicode="&#xff;" horiz-adv-x="540" d="M39 1147h113l145 -627l147 627h113l-205 -858v-289h-110v289q-14 63 -35 150t-68 285.5t-100 422.5zM53 1137l199 -844v-283h90v283l201 844h-90l-156 -664l-154 664h-90zM78 1118h49l170 -735l170 735h53l-196 -821v-268h-54v268q-35 157 -108.5 468t-83.5 353z M197 1298v115h79v-115h-79zM203 1305h67v102h-67v-102zM219 1317v76h35v-76h-35zM317 1298v115h80v-115h-80zM324 1305h67v102h-67v-102zM340 1317v76h35v-76h-35z" />
<glyph unicode="&#x152;" horiz-adv-x="823" d="M104 287v858q0 126 72.5 213.5t200.5 87.5q50 0 82 -12h356v-107h-285v-840h228v-108h-228v-268h285v-111h-356q-37 -12 -82 -12q-124 0 -198.5 85.5t-74.5 213.5zM115 287q0 -125 71 -207t191 -82q43 0 78 12h352v90h-285v289h226v88h-226v860h285v88h-352 q-37 11 -78 11q-124 0 -193 -84.5t-69 -206.5v-858zM133 287v858q0 114 64.5 193t179.5 79q41 0 76 -12h335v-49h-284v-897h225v-49h-225v-330h284v-51h-335q-42 -11 -76 -11q-112 0 -178 76.5t-66 192.5zM186 287q0 -94 49 -155.5t142 -61.5q45 0 76 10v1274q-32 14 -76 14 q-94 0 -142.5 -62.5t-48.5 -160.5v-858zM205 287v858q0 90 44 146.5t128 56.5q30 0 57 -9v-1245q-18 -6 -57 -6q-83 0 -127.5 57t-44.5 142zM215 287q0 -81 41.5 -135t120.5 -54q33 0 47 4v1231q-12 4 -47 4q-80 0 -121 -54t-41 -138v-858z" />
<glyph unicode="&#x153;" horiz-adv-x="659" d="M86 238v671q0 103 57.5 174.5t161.5 71.5q35 0 66 -8h286v-109h-219v-632h176v-109h-176v-186h219v-111h-286q-30 -10 -66 -10q-103 0 -161 70t-58 178zM94 238q0 -104 57 -171t154 -67q38 0 68 10h274v90h-217v207h174v88h-174v654h217v88h-274q-30 10 -68 10 q-100 0 -155.5 -69.5t-55.5 -168.5v-671zM113 238v671q0 92 50.5 154.5t141.5 62.5q32 0 62 -10h262v-47h-217v-694h174v-47h-174v-246h217v-53h-262q-33 -11 -62 -11q-90 0 -141 62t-51 158zM164 238q0 -71 36.5 -118.5t104.5 -47.5q34 0 53 8v989q-24 8 -53 8 q-69 0 -105 -48t-36 -120v-671zM182 238v671q0 65 31.5 107.5t91.5 42.5q19 0 35 -4v-961q-8 -2 -35 -2q-60 0 -91.5 41.5t-31.5 104.5zM193 238q0 -59 28.5 -98.5t83.5 -39.5q12 0 17 -1.5t10 1.5v947q-3 0 -13 1t-14 1q-56 0 -84 -39.5t-28 -100.5v-671z" />
<glyph unicode="&#x178;" horiz-adv-x="657" d="M47 1436h113l196 -832l201 832h113l-258 -1078v-358h-109v358q-157 656 -256 1078zM59 1425q35 -149 254 -1063v-352h88v352l256 1063h-92l-209 -864l-204 864h-93zM84 1407h51l221 -926l224 926h55l-252 -1040v-338h-51v338zM254 1518v114h82v-114h-82zM260 1524h70v102 h-70v-102zM276 1536v76h37v-76h-37zM379 1518v114h84v-114h-84zM385 1524h70v102h-70v-102zM401 1536v76h37v-76h-37z" />
<glyph unicode="&#x2c6;" horiz-adv-x="315" d="M6 1321l141 113h76l142 -113h-123l-58 43l-59 -43h-119zM25 1327h98q7 5 28.5 21.5t32.5 23.5l62 -45h100l-127 100h-67zM70 1339l88 74h55l88 -74h-49l-68 50l-67 -50h-47z" />
<glyph unicode="&#x2dc;" horiz-adv-x="339" d="M78 1346v75q62 38 139 6q21 -10 38.5 -10.5t31 4t47.5 19.5v-74q-75 -33 -144 -2q-53 20 -112 -18zM86 1360q30 18 53.5 20.5t55.5 -10.5q67 -25 131 2v58q-33 -15 -43 -18.5t-28.5 -2.5t-43.5 12q-69 32 -125 -6v-55zM100 1382v27q48 23 105 2q57 -26 104 -4v-29 q-54 -20 -106 2q-54 26 -103 2z" />
<glyph unicode="&#x2000;" horiz-adv-x="824" />
<glyph unicode="&#x2001;" horiz-adv-x="1649" />
<glyph unicode="&#x2002;" horiz-adv-x="824" />
<glyph unicode="&#x2003;" horiz-adv-x="1649" />
<glyph unicode="&#x2004;" horiz-adv-x="549" />
<glyph unicode="&#x2005;" horiz-adv-x="412" />
<glyph unicode="&#x2006;" horiz-adv-x="274" />
<glyph unicode="&#x2007;" horiz-adv-x="274" />
<glyph unicode="&#x2008;" horiz-adv-x="206" />
<glyph unicode="&#x2009;" horiz-adv-x="329" />
<glyph unicode="&#x200a;" horiz-adv-x="91" />
<glyph unicode="&#x2010;" horiz-adv-x="385" d="M76 371v80h295v-80h-295zM82 377h283v67h-283v-67zM98 391v41h248v-41h-248z" />
<glyph unicode="&#x2011;" horiz-adv-x="385" d="M76 371v80h295v-80h-295zM82 377h283v67h-283v-67zM98 391v41h248v-41h-248z" />
<glyph unicode="&#x2012;" horiz-adv-x="385" d="M76 371v80h295v-80h-295zM82 377h283v67h-283v-67zM98 391v41h248v-41h-248z" />
<glyph unicode="&#x2013;" horiz-adv-x="1114" d="M76 371v80h1024v-80h-1024zM97 377h982v67h-982v-67zM152 391v41h861v-41h-861z" />
<glyph unicode="&#x2014;" horiz-adv-x="2138" d="M76 371v80h2048v-80h-2048zM118 377h1964v67h-1964v-67zM229 391v41h1721v-41h-1721z" />
<glyph unicode="&#x202f;" horiz-adv-x="329" />
<glyph unicode="&#x205f;" horiz-adv-x="412" />
<glyph unicode="&#x20ac;" horiz-adv-x="540" d="M23 379v102h59v27h-59v100h59v293q0 105 60.5 177.5t156.5 72.5t155.5 -79.5t59.5 -199.5h-102q0 76 -28.5 123t-80.5 47q-51 0 -83 -38t-32 -103v-293h170v-100h-170v-27h170v-102h-170v-137q0 -57 30 -99.5t85 -42.5q53 0 81 48t28 120h104q0 -54 -11.5 -102t-35.5 -89 t-66.5 -65t-99.5 -24q-101 0 -161 72.5t-60 181.5v137h-59zM33 389h59v-147q0 -106 57 -175t154 -69q66 0 113.5 39.5t68.5 96.5t21 124h-86q0 -71 -30 -118.5t-87 -47.5q-58 0 -91.5 44.5t-33.5 105.5v147h172v82h-172v47h172v82h-172v301q0 68 35 110t90 42q56 0 87.5 -49 t31.5 -123h82q0 113 -56.5 187.5t-148.5 74.5t-149.5 -70t-57.5 -172v-301h-59v-82h59v-47h-59v-82zM51 408v43h60v86h-60v43h60v321q0 94 52 157.5t136 63.5q85 0 136.5 -62.5t51.5 -158.5h-49q0 71 -35.5 120.5t-99.5 49.5q-62 0 -102.5 -46.5t-40.5 -123.5v-321h172v-43 h-172v-86h172v-43h-172v-166q0 -69 38 -119.5t105 -50.5q66 0 100.5 48t34.5 120h49q0 -90 -47.5 -156t-136.5 -66q-90 0 -141 63.5t-51 160.5v166h-60z" />
<glyph unicode="&#x25fc;" horiz-adv-x="1146" d="M0 0v1147h1147v-1147h-1147z" />
</font>
</defs>
</svg>
