<?xml version="1.0" standalone="no"?>
<!DOCTYPE svg PUBLIC "-//W3C//DTD SVG 1.1//EN" "http://www.w3.org/Graphics/SVG/1.1/DTD/svg11.dtd" >
<svg xmlns="http://www.w3.org/2000/svg">
<metadata></metadata>
<defs>
<font id="canterbold_3d" horiz-adv-x="724" >
<font-face units-per-em="2048" ascent="1536" descent="-512" />
<missing-glyph horiz-adv-x="325" />
<glyph horiz-adv-x="2048" />
<glyph horiz-adv-x="2048" />
<glyph unicode="&#xd;" horiz-adv-x="2048" />
<glyph unicode=" "  horiz-adv-x="325" />
<glyph unicode="&#x09;" horiz-adv-x="325" />
<glyph unicode="&#xa0;" horiz-adv-x="325" />
<glyph unicode="!" horiz-adv-x="364" d="M119 1446h127v-12l96 -97l-2 -1165h-94l92 -92v-186h-109l-96 96h-12v198h92l-80 80h-12zM129 1436l2 -1157h102l3 1157h-107zM131 0h100v178h-100v-178z" />
<glyph unicode="$" horiz-adv-x="655" d="M82 236v129h129v-13l65 -65v149q-11 8 -22 23l-43 41q-62 42 -95 89.5t-34 108.5v213q0 104 49.5 172t144.5 78v107h84v-13l97 -96v-45q31 -27 43 -55l63 -62q68 -68 68 -184v-162h-111l-63 64v-217q64 -50 84 -88l63 -62q58 -58 58 -125v-92q0 -101 -53 -170t-152 -78 v-108h-72l-96 96h-13v57l-18 17l-65 65q-53 31 -82.5 90t-28.5 136zM92 236q-1 -100 52.5 -166.5t142.5 -77.5v-111h63v109q99 7 152 75t53 168v93q1 38 -13 69t-49 60.5t-56 43t-72 43.5q-3 2 -5 3t-5 3t-5 3v498q72 -23 72 -136v-155h102v157q0 94 -46 158t-128 76v108 h-63v-106q-96 -7 -145.5 -73t-49.5 -167v-213q1 -70 49 -120t146 -107v-383q-44 13 -66.5 54t-19.5 94v118h-109v-118zM203 702v209q0 61 22.5 96.5t61.5 43.5v-461q-82 59 -84 112zM350 86v348q52 -32 76.5 -57.5t24.5 -57.5v-86q0 -59 -26 -99.5t-75 -47.5z" />
<glyph unicode="&#x26;" horiz-adv-x="737" d="M78 1059v82q0 134 70.5 220.5t201.5 86.5q143 0 211 -111l66 -63q80 -80 80 -234v-125h-111l-96 97h-13v131q0 49 -12 90q-8 2 -22 2q-74 0 -113 -52.5t-39 -144.5v-80q0 -59 10 -98q24 -6 54 -6h22v-12l37 -39l-2 39q33 25 69.5 28.5t67.5 -4.5q27 -5 45 -5.5t48 8.5 t61 32v-20l96 -95l4 -116q-39 -27 -86 -31v-487q0 -77 -24 -133t-64.5 -85.5t-84.5 -43t-93 -13.5q-112 0 -182 70l-64 61q-119 68 -119 246v293q0 67 27.5 131.5t73.5 109.5q-119 78 -119 271zM88 1059q0 -192 129 -268q-111 -83 -111 -244v-293q0 -133 71 -201.5 t181 -68.5q38 0 73 7.5t70.5 27t61.5 49t42 77.5t16 109v491q44 0 86 29l-5 107q-33 -25 -71.5 -29t-67.5 4t-65 6t-66 -24l8 -101q12 9 25 14t20 6t19 2t14 1v-504q0 -81 -42.5 -128.5t-117.5 -47.5q-64 0 -104.5 44.5t-40.5 129.5v293q0 82 41 140.5t113 62.5h10v94h-12 q-90 0 -130 60.5t-40 156.5v80q0 94 40 147t115 53q148 0 148 -198v-121h102v121q0 135 -65 215t-185 80q-127 0 -194.5 -83.5t-67.5 -213.5v-82zM319 152q0 -38 5 -58q10 -4 34 -4q71 0 110.5 45t39.5 121l-6 406l-19 20v-39h-14q-71 -4 -110.5 -61t-39.5 -138v-292z" />
<glyph unicode="," horiz-adv-x="262" d="M72 -152v338h123v-12l96 -96v-172l-25 -154h-86l-96 96h-12zM82 -141h78l24 149v168h-102v-317z" />
<glyph unicode="-" horiz-adv-x="501" d="M72 354v109h360v-12l96 -97v-96h-348l-96 96h-12zM82 365h340v88h-340v-88z" />
<glyph unicode="." horiz-adv-x="270" d="M72 -10v209h123v-13l96 -96v-196h-111l-96 96h-12zM82 0h102v188h-102v-188z" />
<glyph unicode="/" horiz-adv-x="565" d="M41 -10l348 1464h119l-4 -12l98 -96l-342 -1452h-108l-97 96h-14zM53 0h101l342 1444h-97z" />
<glyph unicode="0" horiz-adv-x="792" d="M100 283v866q0 128 78 217.5t217 89.5q75 0 134.5 -33t95.5 -90l63 -61q86 -89 86 -228v-862q0 -124 -72.5 -213.5t-203.5 -89.5q-123 0 -203 80l-59 59q-64 40 -100 110t-36 155zM111 283q0 -126 77 -211.5t207 -85.5q129 0 201 88t72 211v862q0 125 -74 212t-199 87 q-134 0 -209 -87t-75 -210v-866zM219 283v866q0 88 44.5 144.5t131.5 56.5q38 0 72 -17l-217 -1173q-31 54 -31 123zM317 98l213 1174q33 -53 33 -125v-862q0 -87 -43.5 -144t-124.5 -57q-46 0 -78 14zM326 627l110 606q-55 -18 -82.5 -68t-27.5 -118v-420zM440 100 q55 17 84 67.5t29 117.5v417z" />
<glyph unicode="1" horiz-adv-x="407" d="M41 1327v117h246v-12l96 -97v-1441h-113l-96 96h-12v1241h-12l-97 96h-12zM51 1337h121v-1337h104v1434h-225v-97z" />
<glyph unicode="2" horiz-adv-x="718" d="M84 -10v411q7 142 248 338l41 37q44 37 66.5 57.5t44.5 52.5t22 60v219q0 40 -8 64q-24 4 -35 4q-73 0 -112.5 -48.5t-39.5 -127.5v-109h-108l-97 96h-12v119q0 72 23 127.5t62 88t85 49t96 16.5q64 0 126.5 -29t101.5 -88l67 -67q72 -72 72 -195v-221q0 -37 -12 -69.5 t-43 -67.5t-52.5 -55t-70.5 -62l-39 -35q-92 -79 -145 -140.5t-56 -115.5v-190h322v-13l96 -96v-106h-534l-97 96h-12zM94 0h527v98h-418v303q3 57 55.5 118t147.5 143q12 11 45 38.5t46 39t38.5 36t36.5 40t24.5 38.5t19 45.5t5.5 46.5v221q0 71 -24.5 125t-64.5 83.5 t-83.5 44t-88.5 14.5q-49 0 -93 -15.5t-81.5 -47t-59.5 -85.5t-22 -123v-108h101v104q0 81 40.5 130.5t114.5 49.5q65 0 110.5 -41.5t45.5 -132.5v-219q0 -15 -4.5 -30t-16.5 -31.5t-22 -29t-30.5 -31.5t-31.5 -29t-37 -32t-36 -30q-68 -57 -114.5 -102.5t-86.5 -109 t-43 -120.5v-401z" />
<glyph unicode="3" horiz-adv-x="737" d="M66 279v131h122v-13l97 -96v-125q0 -45 8 -76q24 -8 61 -8q72 0 114 52t42 137v77q0 65 -16 109q-24 4 -41 4h-84l-97 96h-12v119h88q68 4 106 56.5t38 129.5v295q0 23 -9 64q-16 4 -22 4q-74 0 -116 -46.5t-42 -125.5v-111h-113l-96 97h-12v118q0 78 25 135t67 87 t87.5 43.5t96.5 13.5q148 0 217 -109l68 -67q72 -72 72 -203v-297q0 -154 -109 -235l43 -46l-6 7l12 -11q76 -76 76 -227v-80q0 -129 -74 -216t-200 -87q-121 0 -199 78l-65 63q-59 40 -93 109t-34 154zM76 279q0 -131 77.5 -214t200.5 -83q125 0 198 85.5t73 213.5v79 q0 196 -140 271q123 76 123 241v297q0 131 -71 199t-179 68q-49 0 -93 -13t-84.5 -42t-64.5 -84t-24 -130v-108h105v106q0 81 42.5 128.5t118.5 47.5q64 0 104 -44.5t40 -129.5v-295q0 -80 -41 -136t-113 -60h-78v-98h80q90 0 130 -61.5t40 -158.5v-77q0 -89 -44.5 -144 t-121.5 -55q-82 0 -129 53.5t-47 143.5v120h-102v-120z" />
<glyph unicode="4" d="M53 381v86l234 1014h125l-4 -13l84 -82h67v-12l96 -96v-799l97 -96v-98h-97v-391h-112l-97 96h-12v295h-272l-96 96h-13zM63 391h381v-391h105v391h96v90h-96v895h-105v-895h-272l227 989h-102l-234 -1005v-74zM301 492h133v567z" />
<glyph unicode="5" horiz-adv-x="768" d="M104 274v105h127v-12l97 -97v-98q0 -43 8 -70q30 -10 61 -10q76 0 116 50.5t40 131.5v170q0 56 -12 93q-24 4 -41 4q-53 0 -105 -43.5t-69 -106.5h-113l-96 96h-13v955h541v-12l96 -97v-102h-413v-492q43 15 69 15q162 0 232 -113l67 -66q78 -78 78 -233v-170 q0 -127 -72 -211t-202 -84t-205 78l-62 61q-63 39 -96 106t-33 152zM115 274q0 -125 74.5 -207.5t207.5 -82.5q129 0 200 82t71 208v170q0 151 -71.5 225t-199.5 74q-47 0 -96.5 -24t-79.5 -64v682h414v95h-520v-934h104q17 63 70.5 106t107.5 43q166 0 166 -203v-170 q0 -86 -42.5 -139t-123.5 -53q-82 0 -129 54t-47 138v95h-106v-95z" />
<glyph unicode="6" horiz-adv-x="774" d="M100 283v872q0 135 80.5 219t212.5 84q156 0 228 -119l63 -61q80 -80 80 -227v-76h-113l-96 96h-12v82q0 39 -15 90q-20 4 -32 4q-78 0 -123.5 -51.5t-48.5 -142.5v-326q35 14 71 14q156 0 228 -114l67 -66q80 -80 80 -229v-152q-3 -133 -74.5 -216t-201.5 -83 q-123 0 -201 78l-62 59q-62 39 -96.5 109.5t-34.5 155.5zM111 283q0 -127 75 -211t205 -84q129 0 199.5 81.5t73.5 213.5v151q0 142 -72.5 219.5t-196.5 77.5q-48 0 -98.5 -26t-79.5 -74v524q3 93 50 146t126 53t119.5 -54.5t40.5 -146.5v-72h104v72q0 135 -69.5 215 t-194.5 80q-127 0 -204.5 -81t-77.5 -212v-872zM219 283v147q0 89 47.5 148t128.5 59q164 0 164 -203v-149q0 -84 -44 -140.5t-124 -56.5q-81 0 -126.5 56.5t-45.5 138.5zM326 180q0 -43 8 -74q21 -8 57 -8q75 0 116.5 54t41.5 133v149q0 54 -12 92q-24 4 -39 4 q-80 0 -126 -57.5t-46 -144.5v-148z" />
<glyph unicode="7" horiz-adv-x="663" d="M51 1331v113h539v-12l96 -97v-84l-186 -782l84 -82v-96l-127 2q-1 -2 -23 -100l-12 -58l-19 -82l-18 -78q-7 -29 -16 -81h-119l-96 96h-15l76 321l-74 76h-12v109h127l86 354l14 57l78 328h-274l-97 96h-12zM61 1341h410l-104 -436q-58 -234 -101 -420h-127v-88h107 l-94 -397h110q5 25 17.5 78t17.5 78l18 82q33 146 37 161v-2h125v88h-102l205 869v80h-519v-93z" />
<glyph unicode="8" horiz-adv-x="763" d="M86 279v147q0 159 121 248q-55 51 -88 127t-33 151v164q0 149 74.5 245.5t214.5 96.5q155 0 229 -119l62 -61q88 -88 88 -264v-164q-4 -95 -27.5 -165.5t-85.5 -113.5l29 -28q84 -87 84 -219v-152q-3 -128 -77.5 -209.5t-197.5 -81.5q-122 0 -203 78l-67 66 q-58 39 -90.5 105t-32.5 149zM96 279q0 -130 78.5 -210.5t202.5 -80.5q121 0 194 79.5t76 206.5v152q0 74 -31.5 139.5t-87.5 106.5q111 72 119 280v164q0 154 -70 243t-202 89q-135 0 -207 -94t-72 -238v-164q0 -82 34.5 -158.5t94.5 -121.5q-129 -82 -129 -246v-147z M199 952v164q0 107 47 172.5t129 65.5q85 0 126.5 -64.5t41.5 -173.5v-164q0 -93 -43 -164t-123 -71q-56 0 -98 38t-61 90t-19 107zM203 279v147q0 85 48.5 138.5t125.5 53.5q79 -4 122.5 -54.5t43.5 -137.5v-147q0 -89 -44.5 -141t-121.5 -52q-82 0 -128 53t-46 140z M305 850q0 -60 21 -115q19 -8 51 -8q52 0 88 35t51.5 84.5t15.5 105.5v164q0 74 -20 127q-24 4 -35 4q-81 0 -126.5 -63.5t-45.5 -169.5v-164zM309 176q0 -41 8 -72q24 -8 60 -8q72 0 113.5 49t41.5 134v147q0 43 -12 80l-41 6q-75 0 -122.5 -52.5t-47.5 -135.5v-148z" />
<glyph unicode="9" horiz-adv-x="757" d="M70 885v200q0 54 10 105t32.5 98.5t55.5 82.5t82.5 56t109.5 21q150 0 224 -121l59 -57q96 -96 96 -289v-799q0 -132 -76.5 -216.5t-207.5 -84.5q-111 0 -187 76l-59 59q-65 39 -101 111.5t-36 159.5v80h125v-13l96 -96v-74q0 -47 8 -80q24 -6 51 -6q81 0 124.5 52.5 t43.5 134.5v143q-29 -10 -69 -10q-105 0 -172 67l-68 66q-72 48 -106.5 139t-34.5 195zM80 885q0 -67 14.5 -128t45 -115t84 -86t124.5 -32q60 0 109 34t73 89v-362q0 -87 -46 -142t-132 -55q-79 0 -122.5 56t-43.5 143v69h-104v-69q0 -125 74 -212t196 -87q129 0 205 83.5 t76 213.5v798q0 72 -15.5 134t-47 112.5t-85.5 79.5t-125 29q-72 0 -128 -30.5t-88 -82t-48 -112.5t-16 -128v-200zM186 885v200q0 66 16.5 121t57.5 94t100 39q47 0 81 -22t51.5 -60.5t25.5 -81t8 -92.5v-196q0 -60 -15.5 -117.5t-55 -102t-95.5 -44.5q-51 0 -87.5 25.5 t-54 68t-25 83.5t-7.5 85zM293 782q0 -76 20 -143q21 -6 47 -6q53 0 90 43t51.5 98.5t14.5 112.5v196q0 87 -22 146q-20 4 -31 4q-58 0 -98 -38.5t-56 -92.5t-16 -119v-201z" />
<glyph unicode=":" horiz-adv-x="264" d="M72 -10v209h123v-13l96 -96v-196h-111l-96 96h-12zM72 446v209h123v-12l96 -96v-197h-111l-96 96h-12zM82 0h102v188h-102v-188zM82 457h102v188h-102v-188z" />
<glyph unicode=";" horiz-adv-x="264" d="M72 -154v338h123v-12l96 -96v-172l-17 -154h-94l-96 96h-12zM72 446v209h123v-12l96 -96v-197h-111l-96 96h-12zM82 -143h86l16 149v168h-102v-317zM82 457h102v188h-102v-188z" />
<glyph unicode="?" horiz-adv-x="669" d="M66 1059v119q0 72 23 127.5t61 87.5t83 48.5t95 16.5q62 0 118 -27t91 -83l67 -66q72 -72 72 -203v-221q-2 -82 -29.5 -152.5t-97.5 -134.5q-52 -48 -69 -108t-17 -150v-145h-92l92 -92v-182h-109l-96 96h-12v194h90l-80 80h-12v152q0 208 131 336q38 44 58 101.5 t22 107.5v219q0 37 -9 67h-16q-72 0 -107.5 -47.5t-35.5 -128.5v-108h-113l-96 96h-12zM76 1069h104v105q0 82 37 131t111 49q61 0 99 -40.5t38 -133.5v-219q-4 -130 -84 -216q-76 -67 -101.5 -145t-25.5 -184v-142h102v142q0 92 17 152t71 108q121 114 125 285v221 q0 71 -21.5 125t-57 83.5t-76.5 43.5t-86 14q-48 0 -91.5 -15.5t-80 -46.5t-58.5 -85t-22 -123v-109zM256 0h100v174h-100v-174zM340 1335l90 -88l-88 88h-2z" />
<glyph unicode="A" d="M63 -10l222 1454h145l2 -14l94 -95l224 -1441h-115l-96 96h-13l-45 286q-67 3 -133 3q-9 -63 -29.5 -192.5t-29.5 -192.5h-117l-96 96h-13zM74 0h108l60 385v-2h235v2l60 -385h106l-223 1434h-125zM254 481l53 348l51 424l52 -424l55 -348h-211zM375 492h78l-39 239v-4z " />
<glyph unicode="B" horiz-adv-x="788" d="M117 -10v1454h266q173 0 248 -121l63 -63q78 -78 78 -216l-2 -409q0 -136 -100 -215l51 -49q53 -53 53 -150v-100q0 -113 -64.5 -170t-152.5 -57h-332l-96 96h-12zM127 0h328q86 0 149.5 56t63.5 167v101q0 148 -123 188q119 74 119 225l2 410q0 132 -74 209.5t-209 77.5 h-256v-1434zM236 96v350h190q61 -2 98 -32.5t37 -89.5v-101q0 -14 -2 -28.5t-8.5 -33t-17.5 -32.5t-31 -23.5t-47 -9.5h-219zM236 541v794h147q96 -1 137 -50.5t41 -137.5v-408q0 -86 -56 -142t-118 -56h-151zM342 106h113q29 0 50 13t30 33t12.5 37t3.5 34v101v12 q-16 4 -23 4h-186v-234zM342 551h45q58 0 111 53t53 135v408q0 38 -10 76q-24 6 -56 6h-143v-678z" />
<glyph unicode="C" horiz-adv-x="786" d="M100 291v852q0 143 80 229t213 86q160 0 236 -121l63 -61q84 -84 84 -234v-135h-110l-97 97h-12v139q0 55 -12 96q-28 4 -47 4q-76 0 -124 -54.5t-48 -148.5v-854q0 -52 12 -82q27 -10 57 -10q79 0 119.5 56t40.5 137v133h125v-12l96 -97v-127q0 -58 -17 -111.5t-50 -97 t-87.5 -70t-123.5 -26.5q-121 0 -201 80l-59 57q-66 41 -102 114t-36 161zM111 291q0 -130 77 -217.5t207 -87.5q68 0 122 26t86.5 69.5t49.5 96t17 109.5v123h-105v-123q0 -86 -43.5 -144.5t-126.5 -58.5t-129.5 61t-46.5 144v854q0 95 49 151t127 56q172 0 172 -207v-129 h103v131q0 141 -75 222t-202 81q-129 0 -205.5 -83.5t-76.5 -221.5v-852z" />
<glyph unicode="D" horiz-adv-x="808" d="M121 -10v1454h276q43 0 75.5 -3.5t68.5 -13.5t64 -32t48 -56l70 -67q70 -70 70 -230v-862q0 -60 -13.5 -107.5t-32 -76.5t-49.5 -50.5t-54 -31t-58 -14.5t-48.5 -5.5t-37.5 -0.5h-271l-96 96h-12zM131 0h266q24 0 37.5 0.5t47.5 5.5t57 14.5t53.5 30.5t48.5 50t31.5 76 t13.5 106v862q0 56 -9 100.5t-23 74.5t-37 51.5t-46 33.5t-54.5 18.5t-58 8.5t-61.5 2h-266v-1434zM240 100v1237h157q46 0 73.5 -5t56 -23t42 -58.5t13.5 -105.5v-862q0 -48 -11.5 -83t-28.5 -54t-44 -30t-49 -13.5t-52 -2.5h-157zM346 111h51q36 0 62 5t54 21t43 53t15 93 v862q0 40 -8 80q-30 6 -63 6h-154v-1120z" />
<glyph unicode="E" horiz-adv-x="710" d="M119 -10v1454h518v-12l96 -97v-102h-389v-746h213v-12l96 -96v-103h-309v-170h293v-12l96 -96v-104h-506l-96 96h-12zM129 0h498v96h-389v287h309v94h-309v862h389v95h-498v-1434z" />
<glyph unicode="F" horiz-adv-x="671" d="M117 -10v1454h497v-12l97 -97v-102h-369v-748h217v-12l96 -96v-105h-313v-378h-117l-96 96h-12zM127 0h109v379h313v96h-313v864h368v95h-477v-1434z" />
<glyph unicode="G" horiz-adv-x="763" d="M100 287v850q0 133 79 223t210 90q158 0 236 -121l65 -63q84 -84 84 -230v-135h-110l-97 96h-12v142q0 51 -14 92q-21 6 -47 6q-76 0 -122 -56.5t-46 -146.5v-850q0 -47 8 -80q24 -8 59 -8q75 0 116.5 47t41.5 142h-100l-97 96h-12v115h334v-13l96 -96v-205 q0 -132 -74 -216.5t-202 -84.5q-124 0 -205 78l-62 59q-61 37 -95 106t-34 163zM111 287q0 -140 77 -219.5t205 -79.5q126 0 199.5 83t73.5 214v200h-314v-94h209v-106q0 -100 -44.5 -149.5t-123.5 -49.5q-84 0 -129 54t-45 147v850q0 91 47.5 148.5t124.5 57.5 q88 0 131 -56.5t43 -147.5v-131h103v131q0 134 -75 217.5t-204 83.5q-127 0 -202.5 -87t-75.5 -216v-850z" />
<glyph unicode="H" horiz-adv-x="827" d="M121 -10v1454h129v-12l96 -97v-862h227v971h125v-12l97 -97v-1441h-113l-96 96h-13v270h-227v-366h-117l-96 96h-12zM131 0h109v367h344v-367h104v1434h-104v-971h-344v971h-109v-1434z" />
<glyph unicode="I" horiz-adv-x="364" d="M119 -10v1454h129v-12l96 -97v-1441h-117l-96 96h-12zM129 0h109v1434h-109v-1434z" />
<glyph unicode="J" horiz-adv-x="755" d="M63 287v125h130v-13l96 -96v-119q0 -55 10 -84q24 -8 61 -8q75 0 116.5 53t41.5 142l-2 1157h127v-12l96 -97v-1151q0 -135 -71 -220t-205 -85q-131 0 -209 78l-61 59q-130 78 -130 271zM74 287q0 -144 76.5 -222.5t209.5 -78.5t203 83.5t70 217.5v1147h-107l2 -1147 q0 -94 -44 -149.5t-124 -55.5q-87 0 -132.5 54t-45.5 151v114h-108v-114z" />
<glyph unicode="K" horiz-adv-x="772" d="M117 -10v1454h129v-12l96 -97v-497l262 606h141l-6 -12l99 -97l-400 -911q9 -12 22 -29t41 -52.5t67 -84.5t115 -146.5t169 -217.5h-145l-97 96h-8l-237 297l-23 -47v-346h-117l-96 96h-12zM127 0h109v344l38 74l332 -418h135q-394 505 -409 526l397 908h-117l-280 -648 l-96 -237v885h-109v-1434z" />
<glyph unicode="L" horiz-adv-x="630" d="M117 -10v1454h129v-12l96 -97v-1229h217v-12l96 -96v-104h-430l-96 96h-12zM127 0h422v96h-313v1338h-109v-1434z" />
<glyph unicode="M" horiz-adv-x="958" d="M98 -10l56 1456h159l2 -14l95 -95l116 -784q3 28 9 59l127 834h153v-12l96 -97l56 -1443h-117l-96 96h-13l-18 420l-80 -494h-123l-96 96h-12l-72 441l-21 -559h-112l-96 96h-13zM109 0h104l27 702l6 449h4l59 -438l113 -690h115l114 690l70 440h4l-2 -451l29 -702h108 l-55 1436h-133l-127 -824l-62 -413l-55 413l-125 824h-139z" />
<glyph unicode="N" horiz-adv-x="851" d="M121 -10v1454h121l4 -17l94 -92l256 -753v862h127v-12l96 -97v-1441h-108l-97 96h-10l-258 749v-845h-117l-96 96h-12zM131 0h109v862l-17 312l88 -300l301 -874h101v1434h-107v-889l17 -297l-82 284l-308 902h-102v-1434z" />
<glyph unicode="O" horiz-adv-x="790" d="M100 283v866q0 128 78 217.5t217 89.5q75 0 134.5 -33t95.5 -90l63 -61q86 -89 86 -228v-862q0 -124 -72.5 -213.5t-203.5 -89.5q-123 0 -203 80l-59 59q-64 40 -100 110t-36 155zM111 283q0 -126 77 -211.5t207 -85.5q129 0 201 88t72 211v862q0 125 -74 212t-199 87 q-134 0 -209 -87t-75 -210v-866zM219 283v866q0 88 44.5 144.5t131.5 56.5q82 0 125 -60t43 -143v-862q0 -87 -43.5 -144t-124.5 -57q-86 0 -131 57.5t-45 141.5zM326 180q0 -45 8 -76q30 -10 61 -10q76 0 117 55t41 136v862q0 46 -16 92q-24 4 -39 4q-85 0 -128.5 -54.5 t-43.5 -141.5v-867z" />
<glyph unicode="P" horiz-adv-x="794" d="M117 -10v1454h289q72 0 137 -30.5t104 -92.5l66 -64q78 -78 78 -213v-469q0 -116 -77.5 -205t-205.5 -89h-166v-387h-117l-96 96h-12zM127 0h109v387h170q85 0 150 43.5t96.5 108.5t31.5 139v469q0 76 -24.5 133.5t-66 90t-88.5 48t-99 15.5h-279v-1434zM236 483v854h170 q83 0 128.5 -50t45.5 -140v-469q0 -88 -52 -141.5t-122 -53.5h-170zM342 494h64q65 0 114 50t49 134v469q0 32 -12 78q-21 6 -49 6h-166v-737z" />
<glyph unicode="Q" horiz-adv-x="790" d="M100 283v866q0 128 78 217.5t217 89.5q75 0 134.5 -33t95.5 -90l63 -61q86 -89 86 -228v-862q0 -110 -57.5 -195t-161.5 -104v-168h-113l-96 97h-12v114q-21 15 -39 33l-64 61q-63 41 -97 110t-34 153zM111 283q0 -112 62.5 -194t170.5 -99v-168h105v168 q104 18 161.5 102t57.5 193v862q0 125 -74 212t-199 87q-134 0 -209 -87t-75 -210v-866zM219 283v866q0 88 44.5 144.5t131.5 56.5q82 0 125 -60t43 -143v-862q0 -87 -43.5 -144t-124.5 -57q-86 0 -131 57.5t-45 141.5zM326 180q0 -45 8 -76q30 -10 61 -10q76 0 117 55 t41 136v862q0 46 -16 92q-24 4 -39 4q-85 0 -128.5 -54.5t-43.5 -141.5v-867z" />
<glyph unicode="R" horiz-adv-x="786" d="M117 -10v1454h270q175 -3 244 -119l65 -63q74 -74 74 -211v-11v-477q0 -58 -27 -117t-73 -98l43 -45l-6 6l12 -10q59 -59 59 -149v-256h-114l-97 96h-12v262q0 10 -2 16h-12h-199v-374h-117l-96 96h-12zM127 0h109v375h202q59 0 93 -33.5t34 -89.5v-252h107v252 q0 63 -31.5 113.5t-93.5 74.5q55 35 86 99t31 127v477v11q0 140 -74 208q-76 70 -203 72h-260v-1434zM236 471v866h151q85 0 128.5 -51.5t43.5 -142.5v-477q0 -88 -54.5 -141.5t-117.5 -53.5h-151zM342 481h45q59 0 110.5 50.5t51.5 134.5v477q0 47 -12 84q-28 4 -48 4h-147 v-750z" />
<glyph unicode="S" horiz-adv-x="774" d="M96 287v149h127v-12l96 -96v-144q-1 -9 -1 -17q0 -35 10 -67q30 -10 63 -10q76 0 118 54.5t42 138.5v96q0 24 -8 43l-37 22l-27 15l-20 12q-7 4 -28.5 16.5t-30.5 17.5t-28 17t-30 20.5t-25.5 20t-25.5 23.5l-49 49q-132 91 -142 227v287q0 135 69.5 220t203.5 85 q144 0 217 -117l61 -61q82 -82 82 -225v-191h-112l-97 96h-12v195q0 47 -12 84q-16 4 -25 4q-70 0 -109.5 -48t-39.5 -144v-283q0 -28 8 -47q46 -28 63 -35l37 -20h-2q82 -45 134 -83t81 -87l58 -56q67 -67 67 -151v-105q0 -130 -72 -216.5t-206 -86.5q-125 0 -205 80 l-62 61q-63 39 -97.5 109.5t-33.5 159.5zM106 287q-1 -136 78.5 -219.5t206.5 -83.5q133 0 204 85.5t71 213.5v104q0 21 -4.5 41t-9.5 36t-18 33.5t-21.5 28.5t-29 27t-31 24.5t-37 24.5t-38 22.5t-42.5 24t-42 23.5q-38 21 -63 37.5t-52.5 41t-42 53t-16.5 62.5v283 q0 97 41.5 147t112.5 50q77 0 113 -54t36 -141v-184h105v186q0 128 -67.5 209.5t-186.5 81.5q-129 0 -195.5 -82.5t-66.5 -212.5v-287q3 -44 19.5 -82.5t39 -66t56.5 -53.5t63 -43.5t68 -39.5q15 -8 22 -12q8 -4 31.5 -17.5t31.5 -18t27.5 -16t26.5 -18t21 -18t19 -21 t12.5 -22t10 -26.5t2.5 -29v-96q0 -89 -44 -146t-126 -57q-89 0 -135 61q-44 57 -43 136v10v139h-107v-139z" />
<glyph unicode="T" horiz-adv-x="622" d="M41 1329v115h524v-12l97 -97v-102h-199v-1339h-113l-96 96h-12v1243h-92l-97 96h-12zM51 1339h201v-1339h104v1339h199v95h-504v-95z" />
<glyph unicode="U" horiz-adv-x="817" d="M113 287v1157h129v-12l96 -97v-1151q0 -54 10 -88q24 -6 53 -6q86 0 125 54.5t39 140.5v1159h125v-12l96 -97v-1153q0 -80 -30 -147.5t-95.5 -112.5t-156.5 -45q-117 0 -195 78l-61 59q-64 41 -99.5 113t-35.5 160zM123 287q0 -128 76 -215.5t202 -87.5q90 0 155 44.5 t94.5 111t29.5 145.5v1149h-105v-1149q0 -91 -41.5 -148t-132.5 -57q-85 0 -127.5 61t-42.5 146v1147h-108v-1147z" />
<glyph unicode="V" horiz-adv-x="737" d="M68 1446h129l2 -14l94 -95l110 -723l3 13l124 819h132l-3 -10l99 -99l-226 -1443h-137l-96 96h-12zM78 1436l219 -1436h129l225 1436h-110l-125 -809l-51 -434h-5l-49 434l-125 809h-108z" />
<glyph unicode="W" horiz-adv-x="1159" d="M61 1446h129l3 -14l94 -95l104 -751q0 11 4 35l123 825h127l2 -14l94 -95l117 -778l8 64l115 823h125l-2 -12l98 -97l-201 -1443h-143l-96 96h-12l-109 717l-119 -813h-147l-96 96h-13zM72 1436l204 -1436h140l139 946l29 273l32 -273l144 -946h135l201 1436h-105 l-114 -813l-52 -461h-4l-61 461l-125 813h-107l-122 -815l-54 -457h-6l-51 457l-115 815h-108z" />
<glyph unicode="X" horiz-adv-x="712" d="M23 1446h135l4 -14l94 -95l121 -471l162 580h133l-4 -12l98 -97l-260 -903l176 -540h-121l-96 96h-10l-52 160q-12 -35 -42.5 -121t-45.5 -135h-120l-97 96h-14l195 545q-196 695 -256 911zM37 1436l252 -901l-191 -535h111l133 387l121 -387h110l-174 537l258 899h-110 l-205 -754l-192 754h-113z" />
<glyph unicode="Y" horiz-adv-x="763" d="M39 1446h131l2 -14l96 -95l135 -530l13 -62l37 168l133 533h137l-4 -12l98 -97l-278 -1081v-362h-115l-96 96h-13v366q-21 88 -68.5 270.5t-68.5 270.5q-99 383 -139 549zM53 1436l273 -1078v-358h106v358l277 1078h-113q-20 -85 -133 -525l-84 -391l-82 389l-135 527 h-109z" />
<glyph unicode="Z" horiz-adv-x="661" d="M39 -10v96l395 1145h-239l-97 96h-12v117h514v-12l96 -97v-84l-387 -1140h287v-13l96 -96v-108h-545l-96 96h-12zM49 0h537v100h-422l426 1256v78h-494v-97h385l-432 -1255v-82z" />
<glyph unicode="\" horiz-adv-x="565" d="M45 1434h125l4 -17l92 -92l338 -1431h-106l-97 96h-12zM57 1423l342 -1423h99l-338 1423h-103z" />
<glyph unicode="`" horiz-adv-x="311" d="M20 1446h144l6 -19l92 -90l68 -161h-115l-72 71h-10zM39 1436l100 -179h92l-75 179h-117z" />
<glyph unicode="a" horiz-adv-x="616" d="M57 -10l176 1165h138l2 -14l94 -94l178 -1153h-115l-96 96h-12l-31 203h-63q-7 -49 -23.5 -149.5t-23.5 -149.5h-115l-96 96h-13zM68 0h106l47 299h166v2l45 -301h107l-179 1145h-116zM229 389l27 170l47 369l45 -369l25 -170h-144z" />
<glyph unicode="b" horiz-adv-x="667" d="M100 -10v1165h222q149 0 208 -104l70 -68q62 -62 62 -174l-3 -322q0 -115 -79 -168l34 -34q45 -42 45 -121v-82q0 -93 -53 -140.5t-125 -47.5h-272l-96 96h-13zM111 0h268q71 0 122.5 46.5t51.5 137.5v82q0 50 -24.5 91t-73.5 59q51 25 74.5 74t23.5 100l2 321 q0 117 -64 175.5t-169 58.5h-211v-1145zM219 98v262h137q39 0 67 -27.5t28 -66.5v-82q0 -30 -16 -58t-56 -28h-160zM219 446v601h103q61 0 95 -34t34 -102v-319q0 -64 -40.5 -105t-84.5 -41h-107zM326 109h53q33 0 47 24.5t14 50.5v70h-114v-145zM326 457q41 0 77.5 37.5 t36.5 97.5v319q0 5 -1 14.5t-1 14.5h-14h-98v-483z" />
<glyph unicode="c" horiz-adv-x="665" d="M86 238v669q0 116 67 187t177 71q135 0 198 -102l68 -68q68 -68 68 -190v-117h-111l-96 96h-13v123q0 17 -4 45h-6q-55 0 -89 -38t-34 -109v-670v-37h21q58 0 84 34t26 104v114h127v-12l97 -96v-109q0 -108 -59.5 -180t-172.5 -72q-106 0 -170 64l-67 67 q-111 66 -111 226zM96 238q0 -114 63.5 -182t172.5 -68q111 0 169 70.5t58 177.5v104h-106v-104q0 -148 -121 -148q-61 0 -94 41t-33 109v669q0 73 35.5 112.5t91.5 39.5q60 0 91.5 -41t31.5 -111v-112h102v112q0 116 -61 182t-166 66t-169.5 -68.5t-64.5 -179.5v-669z" />
<glyph unicode="d" horiz-adv-x="684" d="M102 -10v1165h232q162 0 217 -102l67 -66q60 -63 60 -180v-676q0 -55 -13.5 -97t-37.5 -66.5t-48.5 -40.5t-55.5 -22.5t-49 -8.5t-38 -2h-225l-96 96h-13zM113 0h221q24 0 46.5 2.5t60 15.5t64 35.5t46.5 69t20 110.5v676q0 72 -19.5 121t-56 73t-74.5 33t-87 9h-221 v-1145zM221 100v949h113q64 0 97 -27.5t36 -112.5v-676q0 -74 -38.5 -103.5t-94.5 -29.5h-113zM328 111h6q123 0 123 122v676q0 13 -4 33h-125v-831z" />
<glyph unicode="e" horiz-adv-x="606" d="M100 -10v1165h435v-12l96 -96v-103h-305v-538h147v-13l96 -96v-104h-243v-84h209v-13l96 -96v-106h-422l-96 96h-13zM111 0h413v98h-305v201h244v96h-244v656h305v94h-413v-1145z" />
<glyph unicode="f" horiz-adv-x="573" d="M98 -10v1165h416v-12l96 -96v-103h-284v-538h145v-13l96 -96v-107h-241v-296h-119l-96 96h-13zM109 0h110v297h242v98h-242v656h285v94h-395v-1145z" />
<glyph unicode="g" horiz-adv-x="647" d="M86 236v673q0 111 65 183.5t183 72.5q63 0 113 -27t79 -77l68 -66q70 -70 70 -188v-117h-109l-96 96h-13v123q0 17 -4 45h-6q-61 0 -93 -40t-32 -107v-395h254v-13l97 -96v-170q0 -112 -62.5 -181t-169.5 -69q-102 0 -166 64l-65 65q-53 31 -83 89t-30 135zM96 236 q0 -113 64 -179.5t168 -66.5q106 0 166.5 67.5t60.5 178.5v165h-250v-92h152v-73q0 -71 -35 -108.5t-94 -37.5t-91 40t-32 106v673q0 68 33 110t96 42q59 0 91 -43t32 -109v-112h100v112q0 109 -62 177.5t-161 68.5q-114 0 -176 -69.5t-62 -176.5v-673zM311 100h17 q46 0 77.5 26t38.5 77h-41l-92 92v-162v-33z" />
<glyph unicode="h" horiz-adv-x="698" d="M102 -10v1165h129v-12l97 -96v-652h129v760h127v-12l96 -96v-1153h-115l-96 96h-12v190h-129v-286h-117l-96 96h-13zM113 0h108v287h246v-287h106v1145h-106v-760h-246v760h-108v-1145z" />
<glyph unicode="i" horiz-adv-x="327" d="M100 -10v1165h127v-12l97 -96v-1153h-115l-96 96h-13zM111 0h106v1145h-106v-1145z" />
<glyph unicode="j" horiz-adv-x="641" d="M57 236v108h129v-12l97 -96v-103q0 -25 2 -37h18q51 0 81 41.5t30 98.5v919h125v-12l96 -96v-914q0 -105 -59.5 -178.5t-169.5 -73.5q-100 0 -168 68l-66 63q-54 34 -84.5 93.5t-30.5 130.5zM68 236q0 -104 65 -176t170 -72q109 0 167 72.5t58 175.5v909h-104v-909 q0 -62 -32.5 -106t-88.5 -44q-60 0 -93.5 44.5t-33.5 105.5v98h-108v-98z" />
<glyph unicode="k" horiz-adv-x="655" d="M100 -10v1165h129v-12l97 -96v-275q0 4 2 6l108 252l53 125h138l-6 -12l98 -96l-309 -709l325 -444h-139l-96 96h-8l-162 205l-4 -7v-294h-117l-96 96h-13zM111 0h108v293l25 47l88 -129l164 -211h129l-324 440l309 705h-112q-17 -40 -74 -171t-86 -200l-129 -315l10 317 v369h-108v-1145z" />
<glyph unicode="l" horiz-adv-x="540" d="M100 -10v1165h127v-12l97 -96v-941h149v-12l96 -96v-104h-360l-96 96h-13zM111 0h352v96h-246v1049h-106v-1145z" />
<glyph unicode="m" horiz-adv-x="821" d="M82 -10l43 1167h141l2 -16l94 -92l84 -488l97 596h145v-12l96 -96l43 -1155h-112l-97 96h-12l-6 121l-33 -191h-112l-97 96h-12l-35 195l-12 -317h-109l-96 96h-12zM92 0h101l20 516l4 369h4l47 -365l88 -493h105l88 499l51 353h4l-10 -361l22 -518h105l-43 1147h-125 l-117 -723l-26 -238l-25 240l-129 721h-121z" />
<glyph unicode="n" horiz-adv-x="718" d="M102 -10v1165h119l4 -16l94 -92l156 -463v571h129v-12l96 -96v-1153h-108l-96 96h-11l-157 456v-552h-117l-96 96h-13zM113 0h108v600l-18 297l82 -291l209 -606h100v1145h-109v-602l23 -312l-88 299l-207 615h-100v-1145z" />
<glyph unicode="o" horiz-adv-x="669" d="M86 233v678q0 106 64.5 180t179.5 74q128 0 198 -108l64 -64q72 -72 72 -184v-676q0 -104 -61 -178t-171 -74q-100 0 -166 66l-63 63q-56 32 -86.5 91t-30.5 132zM96 233q0 -104 64 -174.5t170 -70.5q108 0 167.5 72.5t59.5 175.5v675q0 102 -62.5 173t-164.5 71 q-110 0 -172 -71t-62 -173v-678zM205 233v678q0 65 32.5 106.5t92.5 41.5t90.5 -43t30.5 -105v-675q0 -65 -30.5 -106.5t-90.5 -41.5t-92.5 41.5t-32.5 103.5zM311 98h19q55 0 82.5 38.5t27.5 99.5v675q0 13 -4 41h-4q-59 0 -90 -40t-31 -103v-678v-33z" />
<glyph unicode="p" horiz-adv-x="671" d="M98 -10v1165h242q62 0 117.5 -26.5t87.5 -81.5l67 -66q64 -64 64 -172v-369q0 -99 -64 -171t-170 -72h-116v-303h-119l-96 96h-13zM109 0h110v303h121q104 0 166.5 71t62.5 169v368q0 62 -20.5 109t-54.5 73t-73 39t-81 13h-231v-1145zM219 401v648h121q60 0 92.5 -36.5 t32.5 -101.5v-368q0 -64 -37.5 -103t-87.5 -39h-121zM326 412h14q46 0 80.5 35.5t34.5 95.5v368q0 5 -1 15.5t-1 15.5h-127v-530z" />
<glyph unicode="q" horiz-adv-x="669" d="M86 233v678q0 106 64.5 180t179.5 74q128 0 198 -108l64 -64q72 -72 72 -184v-676q0 -89 -46 -158.5t-129 -87.5v-161h-110l-96 96h-13v119l-4 2l-61 61q-56 30 -87.5 91.5t-31.5 137.5zM96 233q0 -93 49.5 -159.5t135.5 -81.5v-160h102v162q83 17 128.5 85t45.5 157v675 q0 102 -62.5 173t-164.5 71q-110 0 -172 -71t-62 -173v-678zM205 233v678q0 65 32.5 106.5t92.5 41.5t90.5 -43t30.5 -105v-675q0 -65 -30.5 -106.5t-90.5 -41.5t-92.5 41.5t-32.5 103.5zM311 98h19q55 0 82.5 38.5t27.5 99.5v675q0 13 -4 41h-4q-59 0 -90 -40t-31 -103 v-678v-33z" />
<glyph unicode="r" horiz-adv-x="665" d="M98 -10v1165h228q61 0 115.5 -26t86.5 -80l66 -66q65 -65 65 -178v-375q0 -120 -67 -172l31 -31q45 -45 45 -121v-212h-117l-96 96h-13v196h-116v-292h-119l-96 96h-13zM109 0h110v293h148q40 0 63 -23t23 -61v-209h108v209q0 102 -86 147q78 52 78 176v375 q0 120 -68 179t-159 59h-217v-1145zM219 389v660h107q56 0 89.5 -38t33.5 -104v-375q0 -64 -39 -103.5t-84 -39.5h-107zM326 399q41 0 76.5 36.5t35.5 96.5v375q0 11 -4 35h-108v-543z" />
<glyph unicode="s" horiz-adv-x="655" d="M82 236v129h129v-13l96 -96v-123q-3 -21 0 -39h19q56 0 85 38.5t29 100.5v86q0 3 -4 15l-14 10q-119 70 -166 117l-47 45q-127 93 -127 192v213q0 112 59 182t172 70q127 0 187 -102l63 -64q68 -68 68 -184v-162h-111l-96 97h-12v165q0 23 -2 35q-46 -3 -73.5 -38 t-27.5 -101v-209v-8q24 -18 51 -33q4 -2 28 -17t31.5 -20t28 -18.5t30 -22t24 -21.5t24 -25.5t17.5 -26.5l61 -60q58 -58 58 -125v-92q0 -108 -60.5 -179t-173.5 -71q-102 0 -168 66l-67 65q-54 33 -83 91t-28 133zM92 236q-1 -111 65 -179.5t169 -68.5q112 0 170.5 69.5 t58.5 175.5v93q0 20 -3 38t-14.5 35.5t-18.5 29.5t-28 28.5t-28.5 24t-36 25t-34.5 20.5t-38 22q-78 47 -113 79.5t-38 73.5v209q0 71 30.5 107.5t79.5 36.5q55 0 82 -39.5t27 -102.5v-155h102v157q0 106 -56 172t-155 66q-108 0 -164.5 -67t-56.5 -175v-213q0 -28 7.5 -52 t25.5 -46.5t33.5 -38.5t48 -38t52.5 -34.5t63 -37.5q36 -21 53.5 -32.5t38.5 -29t29 -34t8 -36.5v-86q0 -66 -32 -107.5t-93 -41.5q-62 0 -95 44q-30 41 -30 98v10v118h-109v-118z" />
<glyph unicode="t" horiz-adv-x="534" d="M41 1040v115h436v-12l96 -96v-103h-155v-1050h-111l-96 96h-12v954h-49l-97 96h-12zM51 1051h158v-1051h102v1051h156v94h-416v-94z" />
<glyph unicode="u" horiz-adv-x="690" d="M96 236v919h129v-12l97 -96v-914q0 -27 2 -39h12q115 0 115 142v919h127v-12l96 -96v-914q0 -104 -62 -178t-174 -74q-101 0 -162 64l-69 67q-52 34 -81.5 93t-29.5 131zM106 236q0 -105 63.5 -176.5t166.5 -71.5q111 0 171 72.5t60 175.5v909h-106v-909 q0 -152 -125 -152q-60 0 -90.5 44.5t-30.5 107.5v909h-109v-909z" />
<glyph unicode="v" horiz-adv-x="626" d="M61 1157h127l2 -14l95 -94l59 -410l80 518h127l-2 -10l98 -98l-176 -1155h-129l-96 96h-13zM72 1147l172 -1147h121l176 1147h-107l-98 -639l-27 -350h-4l-29 348l-98 641h-106z" />
<glyph unicode="w" horiz-adv-x="964" d="M59 1157h125l2 -14l95 -94l55 -433l84 531h129l2 -14l94 -95l60 -426l38 283q2 17 17 127l18 135h129l-2 -12l99 -96l-154 -1155h-137l-97 96h-12l-63 430l-80 -526h-129l-96 96h-13zM70 1147l163 -1147h121l105 676q12 84 24 264q18 -191 29 -260l102 -680h129l154 1147 h-109q-16 -120 -40 -298.5t-33 -242.5l-35 -426h-2l-62 420l-77 537h-109l-84 -529l-49 -422h-2l-49 420l-72 541h-104z" />
<glyph unicode="x" horiz-adv-x="606" d="M20 1157h134l4 -14l94 -94l72 -275l8 29l100 354h135l-4 -12l99 -96l-211 -721l143 -434h-117l-96 96h-10l-19 55l-49 -151h-125l-96 96h-14l157 440zM35 1147l201 -717l-154 -430h115l49 150l43 157l41 -160l49 -147h106l-141 430l209 717h-113l-98 -346 q-51 -198 -51 -246l-51 246l-95 346h-110z" />
<glyph unicode="y" horiz-adv-x="647" d="M39 1157h123l4 -14l94 -94l94 -359q4 30 8 43l109 424h135l-4 -12l98 -96l-223 -865v-290h-115l-96 96h-12v297l-107 430q-6 25 -108 440zM51 1147l213 -858v-289h107v289l221 858h-113l-106 -416l-54 -276l-55 278l-108 414h-105z" />
<glyph unicode="z" horiz-adv-x="565" d="M39 -10v92l299 860h-156l-96 96h-12v117h432v-12l96 -96v-80l-295 -856h193v-13l96 -96v-108h-449l-96 96h-12zM49 0h440v100h-327l334 971v74h-412v-96h303l-338 -971v-78z" />
<glyph unicode="&#xa1;" horiz-adv-x="364" d="M119 -287l2 1180h84l-70 70h-12v194h121v-12l96 -96v-183h-82l82 -82l2 -1167h-115l-96 96h-12zM129 -276h107l-3 1159h-102zM133 973h100v174h-100v-174z" />
<glyph unicode="&#xa5;" horiz-adv-x="630" d="M31 1157h123l4 -14l94 -94l94 -359q4 30 8 43l109 424h135l-4 -12l98 -96l-182 -697l74 -71v-78h-64l64 -64v-76h-115v-169h-115l-96 96h-12v73h-4l-97 97h-12v88h64l-52 51h-12v90h86zM43 1147l190 -768h-90v-70h107l6 -20v-51h-113v-68h113v-170h106v170h115v68h-115 v51l5 20h110v70h-92l199 768h-113l-106 -416l-54 -276l-55 278l-109 414h-104z" />
<glyph unicode="&#xa8;" horiz-adv-x="378" d="M57 1260v186h109v-12l55 -56v68h107v-12l96 -97v-143h-123l-39 37v-37h-127l-65 66h-13zM68 1270h88v166h-88v-166zM231 1270h86v166h-86v-166z" />
<glyph unicode="&#xad;" horiz-adv-x="501" d="M72 354v109h360v-12l96 -97v-96h-348l-96 96h-12zM82 365h340v88h-340v-88z" />
<glyph unicode="&#xaf;" horiz-adv-x="409" d="M53 1339v103h299v-12l97 -97v-65h-312l-71 71h-13zM63 1350h279v82h-279v-82z" />
<glyph unicode="&#xb4;" horiz-adv-x="292" d="M43 1247l88 197h143l-8 -12l99 -97l-97 -161h-135l-74 73h-16zM59 1257h91l104 177h-115z" />
<glyph unicode="&#xb8;" horiz-adv-x="473" d="M86 -160h100q0 -10 2 -14v-2l25 -23h4h23l-70 70h-14l53 190h100l-4 -12l98 -96l-16 -55v-2l78 -78q33 -38 33 -82q0 -50 -37 -88.5t-99 -38.5h-43q-57 0 -90 33l-77 77q-63 27 -66 121zM96 -170q3 -60 36 -87.5t85 -27.5h43q80 0 115 59.5t3.5 118.5t-110.5 58l27 100 h-78l-47 -170h88q27 0 37.5 -22.5t-0.5 -45t-37 -22.5h-41q-16 0 -28 10t-13 29h-80z" />
<glyph unicode="&#xbf;" horiz-adv-x="669" d="M76 -37v221q4 173 129 291q50 47 67 107.5t17 146.5v152h92l-80 80h-12v194h121v-12l96 -96v-183h-90l92 -92v-145q0 -100 -28 -182t-101 -150q-41 -45 -60.5 -103t-21.5 -110v-219q0 -42 4 -60q8 -2 27 -2q69 0 103 46t34 124v115h125v-12l96 -97v-112q0 -70 -22 -124.5 t-59.5 -86.5t-81.5 -48t-93 -16q-106 0 -174 68l-66 66q-114 71 -114 239zM86 -37q0 -71 21.5 -125t57.5 -83.5t77 -43.5t86 -14q48 0 91.5 15.5t80 46.5t58.5 85t22 123v109h-105v-105q0 -82 -37 -131t-110 -49q-61 0 -99.5 40.5t-38.5 133.5v219q4 129 84 215 q76 67 101.5 145.5t25.5 184.5v141h-102v-141q0 -92 -17 -152t-71 -108q-121 -114 -125 -285v-221zM299 971h100v174h-100v-174z" />
<glyph unicode="&#xc0;" d="M63 -10l222 1454h145l2 -14l94 -95l224 -1441h-115l-96 96h-13l-45 286q-67 3 -133 3q-9 -63 -29.5 -192.5t-29.5 -192.5h-117l-96 96h-13zM74 0h108l60 385v-2h235v2l60 -385h106l-223 1434h-125zM195 1716h151l6 -16l99 -84l71 -152h-121l-75 68h-13zM213 1708 l106 -168h99l-80 168h-125zM254 481l53 348l51 424l52 -424l55 -348h-211zM375 492h78l-39 239v-4z" />
<glyph unicode="&#xc1;" d="M63 -10l222 1454h145l2 -14l94 -95l224 -1441h-115l-96 96h-13l-45 286q-67 3 -133 3q-9 -63 -29.5 -192.5t-29.5 -192.5h-117l-96 96h-13zM74 0h108l60 385v-2h235v2l60 -385h106l-223 1434h-125zM254 481l53 348l51 424l52 -424l55 -348h-211zM287 1532l94 194h154 l-11 -12l105 -96l-103 -158h-143l-78 72h-18zM305 1542h96l111 174h-123zM375 492h78l-39 239v-4z" />
<glyph unicode="&#xc2;" d="M63 -10l222 1454h145l2 -14l94 -95l224 -1441h-115l-96 96h-13l-45 286q-67 3 -133 3q-9 -63 -29.5 -192.5t-29.5 -192.5h-117l-96 96h-13zM74 0h108l60 385v-2h235v2l60 -385h106l-223 1434h-125zM147 1526l166 168h90l222 -226h-117l-53 48l-54 -50h-174l-59 60h-21z M170 1536h100l88 78l91 -78h98l-146 150h-86zM254 481l53 348l51 424l52 -424l55 -348h-211zM375 492h78l-39 239v-4z" />
<glyph unicode="&#xc3;" d="M63 -10l222 1454h145l2 -14l94 -95l224 -1441h-115l-96 96h-13l-45 286q-67 3 -133 3q-9 -63 -29.5 -192.5t-29.5 -192.5h-117l-96 96h-13zM74 0h108l60 385v-2h235v2l60 -385h106l-223 1434h-125zM199 1509v107q43 49 100 49q37 0 70 -23l-2 3q34 -19 55 -19q44 0 92 51 v-20l96 -96v-56q-30 -33 -73.5 -42.5t-85.5 14.5q-92 57 -175 -29l-67 72q-9 -9 -10 -11zM209 1532q66 69 141 20q33 -25 78.5 -19t75.5 42v80q-67 -70 -142 -21q-33 25 -78 19.5t-75 -41.5v-80zM254 481l53 348l51 424l52 -424l55 -348h-211zM375 492h78l-39 239v-4z" />
<glyph unicode="&#xc4;" d="M63 -10l222 1454h145l2 -14l94 -95l224 -1441h-115l-96 96h-13l-45 286q-67 3 -133 3q-9 -63 -29.5 -192.5t-29.5 -192.5h-117l-96 96h-13zM74 0h108l60 385v-2h235v2l60 -385h106l-223 1434h-125zM223 1528v186h109v-12l55 -55v67h107v-12l96 -96v-144h-123l-39 37v-37 h-127l-65 66h-13zM233 1538h89v166h-89v-166zM254 481l53 348l51 424l52 -424l55 -348h-211zM375 492h78l-39 239v-4zM397 1538h86v166h-86v-166z" />
<glyph unicode="&#xc5;" d="M63 -10l213 1390q-59 38 -59 105q0 58 41.5 91.5t99.5 33.5q41 0 77 -19t52 -55l76 -74q33 -33 33 -82q0 -35 -18 -61t-46 -39l218 -1386h-115l-96 96h-13l-45 286h-133q-9 -63 -29.5 -191t-29.5 -191h-117l-96 96h-13zM74 0h108l60 383h235v2l60 -385h106l-217 1384 q63 27 63 99q0 57 -39 86.5t-92 29.5q-54 0 -92.5 -30t-38.5 -84q0 -68 60 -99zM254 481l53 348l51 441l52 -441l55 -348h-211zM301 1483q0 26 16.5 39.5t40.5 13.5t41 -13.5t17 -39.5q0 -23 -17 -36t-41 -13t-40.5 13t-16.5 36zM375 492h78l-39 239v-4z" />
<glyph unicode="&#xc6;" horiz-adv-x="884" d="M61 -10l349 1454h397v-12l96 -97v-96h-258v-752h127v-12l96 -96v-96h-223v-179h162v-12l96 -96v-102h-375l-96 96h-12v289h-35l-98 -385h-115l-96 96h-15zM74 0h108l99 385v-2h149v-383h367v94h-258v295h223v88h-223v869h258v88h-377zM295 477l147 682h7l-19 -436v-246 h-135z" />
<glyph unicode="&#xc7;" horiz-adv-x="786" d="M100 291v852q0 143 80 229t213 86q160 0 236 -121l63 -61q84 -84 84 -234v-135h-110l-97 97h-12v139q0 55 -12 96q-28 4 -47 4q-76 0 -124 -54.5t-48 -148.5v-854q0 -52 12 -82q27 -10 57 -10q79 0 119.5 56t40.5 137v133h125v-12l96 -97v-127q0 -109 -57.5 -195.5 t-165.5 -105.5l-8 -26l4 -9l74 -73q32 -37 32 -82q0 -50 -36.5 -88.5t-98.5 -38.5h-43q-57 0 -90 33l-78 77q-62 27 -65 121h100q0 -10 2 -14l25 -25h4h22l-69 70h-15l27 96q-27 17 -45 35l-62 59q-64 41 -98.5 112.5t-34.5 160.5zM111 291q0 -124 69 -209t189 -94l-41 -150 h88q27 0 37.5 -22.5t-0.5 -45t-37 -22.5h-41q-16 0 -28 10t-13 29h-80q3 -60 36 -87.5t85 -27.5h43q80 0 115 59.5t3.5 118.5t-110.5 58l20 82q108 18 166 103.5t58 193.5v123h-105v-123q0 -86 -43.5 -144.5t-126.5 -58.5t-129.5 61t-46.5 144v854q0 95 49 151t127 56 q172 0 172 -207v-129h103v131q0 141 -75 222t-202 81q-129 0 -205.5 -83.5t-76.5 -221.5v-852z" />
<glyph unicode="&#xc8;" horiz-adv-x="710" d="M119 -10v1454h518v-12l96 -97v-102h-389v-746h213v-12l96 -96v-103h-309v-170h293v-12l96 -96v-104h-506l-96 96h-12zM129 0h498v96h-389v287h309v94h-309v862h389v95h-498v-1434zM238 1731h143l6 -19l92 -90l68 -162h-115l-72 72h-10zM256 1720l100 -178h93l-76 178 h-117z" />
<glyph unicode="&#xc9;" horiz-adv-x="710" d="M119 -10v1454h518v-12l96 -97v-102h-389v-746h213v-12l96 -96v-103h-309v-170h293v-12l96 -96v-104h-506l-96 96h-12zM129 0h498v96h-389v287h309v94h-309v862h389v95h-498v-1434zM311 1532l88 197h144l-8 -13l98 -96l-96 -162h-136l-73 74h-17zM328 1542h90l104 176 h-114z" />
<glyph unicode="&#xca;" horiz-adv-x="710" d="M119 -10v1454h518v-12l96 -97v-102h-389v-746h213v-12l96 -96v-103h-309v-170h293v-12l96 -96v-104h-506l-96 96h-12zM129 0h498v96h-389v287h309v94h-309v862h389v95h-498v-1434zM164 1532l168 154h90l221 -207h-117l-53 43l-53 -43h-176l-60 53h-20zM186 1540h101 l88 74l92 -74h98l-145 137h-86z" />
<glyph unicode="&#xcb;" horiz-adv-x="710" d="M119 -10v1454h518v-12l96 -97v-102h-389v-746h213v-12l96 -96v-103h-309v-170h293v-12l96 -96v-104h-506l-96 96h-12zM129 0h498v96h-389v287h309v94h-309v862h389v95h-498v-1434zM252 1526v186h108v-12l56 -55v67h106v-12l96 -96v-144h-122l-39 37v-37h-127l-66 66h-12z M262 1536h88v166h-88v-166zM426 1536h86v166h-86v-166z" />
<glyph unicode="&#xcc;" horiz-adv-x="364" d="M29 1735h143l6 -19l92 -90l68 -162h-115l-71 72h-11zM47 1724l100 -178h93l-76 178h-117zM119 -10v1454h129v-12l96 -97v-1441h-117l-96 96h-12zM129 0h109v1434h-109v-1434z" />
<glyph unicode="&#xcd;" horiz-adv-x="364" d="M111 1530l88 196h143l-8 -12l98 -96l-96 -162h-135l-74 74h-16zM119 -10v1454h129v-12l96 -97v-1441h-117l-96 96h-12zM127 1540h90l105 176h-115zM129 0h109v1434h-109v-1434z" />
<glyph unicode="&#xce;" horiz-adv-x="364" d="M-33 1524l170 178h92l226 -238h-119l-55 49l-54 -51h-178l-61 62h-21zM-10 1534h102l90 84l92 -84h101l-148 158h-88zM119 -10v1454h129v-12l96 -97v-1441h-117l-96 96h-12zM129 0h109v1434h-109v-1434z" />
<glyph unicode="&#xcf;" horiz-adv-x="364" d="M49 1524v186h109v-12l55 -56v68h106v-12l97 -96v-144h-123l-39 37v-37h-127l-66 66h-12zM59 1534h88v166h-88v-166zM119 -10v1454h129v-12l96 -97v-1441h-117l-96 96h-12zM129 0h109v1434h-109v-1434zM223 1534h86v166h-86v-166z" />
<glyph unicode="&#xd0;" horiz-adv-x="808" d="M23 362v113h98v969h274q43 0 75.5 -3.5t69 -13.5t65 -32t48.5 -56l66 -63l4 -4q70 -70 70 -230v-862q0 -60 -13.5 -107.5t-32 -76.5t-50 -50.5t-54 -31t-58 -14.5t-49 -5.5t-38.5 -0.5h-269l-96 96h-12v286l-86 86h-12zM33 373h98v-373h264h28.5t35.5 2.5t42.5 7t42.5 14 t43.5 23t38 35.5t32.5 49.5t20 66.5t8 85v862q0 77 -17.5 132.5t-43 85.5t-67.5 46.5t-77 20.5t-86 4h-264v-969h-98v-92zM240 100v273h143v92h-143v872h155q37 0 59.5 -2.5t48.5 -13.5t40.5 -31t25 -56t11.5 -89v-862q0 -48 -11.5 -83t-28.5 -54t-43.5 -30t-49 -13.5 t-52.5 -2.5h-155zM346 111h49q29 0 50 2.5t46 12.5t41 28t26.5 50.5t10.5 78.5v862q-3 57 -10 82q-18 4 -61 4h-152v-756h47v-12l96 -96v-101h-143v-155z" />
<glyph unicode="&#xd1;" horiz-adv-x="851" d="M121 -10v1454h121l4 -17l94 -92l256 -753v862h127v-12l96 -97v-1441h-108l-97 96h-10l-258 749v-845h-117l-96 96h-12zM131 0h109v862l-17 312l88 -300l301 -874h101v1434h-107v-889l17 -297l-82 284l-308 902h-102v-1434zM266 1516v106q43 49 101 49q38 0 69 -22l-2 2 q34 -19 55 -19q45 0 93 51v-20l96 -96v-56q-30 -33 -74 -42.5t-86 14.5q-91 57 -174 -29l-68 72zM276 1538q67 70 142 21q33 -25 78 -19.5t75 41.5v80q-66 -69 -141 -21q-33 25 -78.5 19.5t-75.5 -41.5v-80z" />
<glyph unicode="&#xd2;" horiz-adv-x="790" d="M100 283v866q0 128 78 217.5t217 89.5q75 0 134.5 -33t95.5 -90l63 -61q86 -89 86 -228v-862q0 -124 -72.5 -213.5t-203.5 -89.5q-123 0 -203 80l-59 59q-64 40 -100 110t-36 155zM111 283q0 -126 77 -211.5t207 -85.5q129 0 201 88t72 211v862q0 125 -74 212t-199 87 q-134 0 -209 -87t-75 -210v-866zM219 283v866q0 88 44.5 144.5t131.5 56.5q82 0 125 -60t43 -143v-862q0 -87 -43.5 -144t-124.5 -57q-86 0 -131 57.5t-45 141.5zM254 1731h143l6 -19l93 -90l67 -162h-114l-72 72h-10zM272 1720l101 -178h92l-76 178h-117zM326 180 q0 -45 8 -76q30 -10 61 -10q76 0 117 55t41 136v862q0 46 -16 92q-24 4 -39 4q-85 0 -128.5 -54.5t-43.5 -141.5v-867z" />
<glyph unicode="&#xd3;" horiz-adv-x="790" d="M100 283v866q0 128 78 217.5t217 89.5q75 0 134.5 -33t95.5 -90l63 -61q86 -89 86 -228v-862q0 -124 -72.5 -213.5t-203.5 -89.5q-123 0 -203 80l-59 59q-64 40 -100 110t-36 155zM111 283q0 -126 77 -211.5t207 -85.5q129 0 201 88t72 211v862q0 125 -74 212t-199 87 q-134 0 -209 -87t-75 -210v-866zM219 283v866q0 88 44.5 144.5t131.5 56.5q82 0 125 -60t43 -143v-862q0 -87 -43.5 -144t-124.5 -57q-86 0 -131 57.5t-45 141.5zM319 1538l89 197h143l-8 -13l98 -96l-96 -162h-135l-74 74h-17zM326 180q0 -45 8 -76q30 -10 61 -10 q76 0 117 55t41 136v862q0 46 -16 92q-24 4 -39 4q-85 0 -128.5 -54.5t-43.5 -141.5v-867zM336 1548l80 176h114l-104 -176h-90z" />
<glyph unicode="&#xd4;" horiz-adv-x="790" d="M100 283v866q0 128 78 217.5t217 89.5q75 0 134.5 -33t95.5 -90l63 -61q86 -89 86 -228v-862q0 -124 -72.5 -213.5t-203.5 -89.5q-123 0 -203 80l-59 59q-64 40 -100 110t-36 155zM111 283q0 -126 77 -211.5t207 -85.5q129 0 201 88t72 211v862q0 125 -74 212t-199 87 q-134 0 -209 -87t-75 -210v-866zM180 1536l170 178h92l226 -237h-119l-55 49l-54 -51h-178l-61 61h-21zM203 1546l149 158h88l148 -158h-101l-92 84l-90 -84h-102zM219 283v866q0 88 44.5 144.5t131.5 56.5q82 0 125 -60t43 -143v-862q0 -87 -43.5 -144t-124.5 -57 q-86 0 -131 57.5t-45 141.5zM326 180q0 -45 8 -76q30 -10 61 -10q76 0 117 55t41 136v862q0 46 -16 92q-24 4 -39 4q-85 0 -128.5 -54.5t-43.5 -141.5v-867z" />
<glyph unicode="&#xd5;" horiz-adv-x="790" d="M100 283v866q0 128 78 217.5t217 89.5q75 0 134.5 -33t95.5 -90l63 -61q86 -89 86 -228v-862q0 -124 -72.5 -213.5t-203.5 -89.5q-123 0 -203 80l-59 59q-64 40 -100 110t-36 155zM111 283q0 -126 77 -211.5t207 -85.5q129 0 201 88t72 211v862q0 125 -74 212t-199 87 q-134 0 -209 -87t-75 -210v-866zM219 283v866q0 88 44.5 144.5t131.5 56.5q82 0 125 -60t43 -143v-862q0 -87 -43.5 -144t-124.5 -57q-86 0 -131 57.5t-45 141.5zM240 1522v106q43 49 100 49q39 0 70 -22l-2 2q34 -19 55 -19q43 0 92 52v-21l96 -96v-55q-30 -33 -73.5 -43 t-85.5 14q-92 57 -175 -29l-67 72zM250 1544q66 69 141 21q33 -25 78.5 -19.5t75.5 41.5v80q-66 -69 -142 -20q-33 25 -78 19t-75 -42v-80zM326 180q0 -45 8 -76q30 -10 61 -10q76 0 117 55t41 136v862q0 46 -16 92q-24 4 -39 4q-85 0 -128.5 -54.5t-43.5 -141.5v-867z" />
<glyph unicode="&#xd6;" horiz-adv-x="790" d="M100 283v866q0 128 78 217.5t217 89.5q75 0 134.5 -33t95.5 -90l63 -61q86 -89 86 -228v-862q0 -124 -72.5 -213.5t-203.5 -89.5q-123 0 -203 80l-59 59q-64 40 -100 110t-36 155zM111 283q0 -126 77 -211.5t207 -85.5q129 0 201 88t72 211v862q0 125 -74 212t-199 87 q-134 0 -209 -87t-75 -210v-866zM219 283v866q0 88 44.5 144.5t131.5 56.5q82 0 125 -60t43 -143v-862q0 -87 -43.5 -144t-124.5 -57q-86 0 -131 57.5t-45 141.5zM258 1534v186h109v-12l55 -55v67h106v-12l97 -96v-144h-123l-39 37v-37h-127l-66 66h-12zM268 1544h88v166 h-88v-166zM326 180q0 -45 8 -76q30 -10 61 -10q76 0 117 55t41 136v862q0 46 -16 92q-24 4 -39 4q-85 0 -128.5 -54.5t-43.5 -141.5v-867zM432 1544h86v166h-86v-166z" />
<glyph unicode="&#xd8;" horiz-adv-x="790" d="M100 283v866q0 128 78 217.5t217 89.5q63 0 97 -14l22 104h104l-2 -12l97 -96l-33 -162q41 -45 67.5 -107.5t26.5 -124.5v-862q0 -124 -72.5 -213.5t-203.5 -89.5q-52 0 -111 19l-20 -95h-95l-96 97h-14l33 151q-42 45 -68.5 107.5t-26.5 124.5zM111 283q0 -145 94 -230 l-31 -143h86l21 96q55 -20 114 -20q129 0 201 88t72 211v862q0 142 -95 231l33 158h-82l-24 -111q-46 21 -105 21q-134 0 -209 -87t-75 -210v-866zM219 283v866q0 88 44.5 144.5t131.5 56.5q46 0 84 -23l-246 -1134q-14 38 -14 90zM301 109l244 1138q18 -46 18 -100v-862 q0 -87 -43.5 -144t-124.5 -57q-52 0 -94 25zM326 664l22 104q48 228 101 469q-62 -14 -92.5 -65.5t-30.5 -124.5v-383zM428 96q61 12 93 64t32 125v397z" />
<glyph unicode="&#xd9;" horiz-adv-x="817" d="M113 287v1157h129v-12l96 -97v-1151q0 -54 10 -88q24 -6 53 -6q86 0 125 54.5t39 140.5v1159h125v-12l96 -97v-1153q0 -80 -30 -147.5t-95.5 -112.5t-156.5 -45q-117 0 -195 78l-61 59q-64 41 -99.5 113t-35.5 160zM123 287q0 -128 76 -215.5t202 -87.5q90 0 155 44.5 t94.5 111t29.5 145.5v1149h-105v-1149q0 -91 -41.5 -148t-132.5 -57q-85 0 -127.5 61t-42.5 146v1147h-108v-1147zM238 1724h143l6 -18l92 -90l68 -162h-115l-72 72h-10zM256 1714l100 -178h93l-76 178h-117z" />
<glyph unicode="&#xda;" horiz-adv-x="817" d="M113 287v1157h129v-12l96 -97v-1151q0 -54 10 -88q24 -6 53 -6q86 0 125 54.5t39 140.5v1159h125v-12l96 -97v-1153q0 -80 -30 -147.5t-95.5 -112.5t-156.5 -45q-117 0 -195 78l-61 59q-64 41 -99.5 113t-35.5 160zM123 287q0 -128 76 -215.5t202 -87.5q90 0 155 44.5 t94.5 111t29.5 145.5v1149h-105v-1149q0 -91 -41.5 -148t-132.5 -57q-85 0 -127.5 61t-42.5 146v1147h-108v-1147zM315 1528l88 196h144l-8 -12l98 -96l-96 -162h-135l-74 74h-17zM332 1538h90l104 176h-114z" />
<glyph unicode="&#xdb;" horiz-adv-x="817" d="M113 287v1157h129v-12l96 -97v-1151q0 -54 10 -88q24 -6 53 -6q86 0 125 54.5t39 140.5v1159h125v-12l96 -97v-1153q0 -80 -30 -147.5t-95.5 -112.5t-156.5 -45q-117 0 -195 78l-61 59q-64 41 -99.5 113t-35.5 160zM123 287q0 -128 76 -215.5t202 -87.5q90 0 155 44.5 t94.5 111t29.5 145.5v1149h-105v-1149q0 -91 -41.5 -148t-132.5 -57q-85 0 -127.5 61t-42.5 146v1147h-108v-1147zM178 1532l170 178h92l226 -237h-119l-55 49l-54 -52h-178l-61 62h-21zM201 1542h102l90 84l92 -84h101l-148 158h-88z" />
<glyph unicode="&#xdc;" horiz-adv-x="817" d="M113 287v1157h129v-12l96 -97v-1151q0 -54 10 -88q24 -6 53 -6q86 0 125 54.5t39 140.5v1159h125v-12l96 -97v-1153q0 -80 -30 -147.5t-95.5 -112.5t-156.5 -45q-117 0 -195 78l-61 59q-64 41 -99.5 113t-35.5 160zM123 287q0 -128 76 -215.5t202 -87.5q90 0 155 44.5 t94.5 111t29.5 145.5v1149h-105v-1149q0 -91 -41.5 -148t-132.5 -57q-85 0 -127.5 61t-42.5 146v1147h-108v-1147zM246 1530v186h108v-12l56 -55v67h106v-12l96 -96v-144h-123l-38 37v-37h-127l-66 66h-12zM256 1540h88v166h-88v-166zM420 1540h86v166h-86v-166z" />
<glyph unicode="&#xdd;" horiz-adv-x="763" d="M39 1446h131l2 -14l96 -95l135 -530l13 -62l37 168l133 533h137l-4 -12l98 -97l-278 -1081v-362h-115l-96 96h-13v366q-21 88 -68.5 270.5t-68.5 270.5q-99 383 -139 549zM53 1436l273 -1078v-358h106v358l277 1078h-113q-20 -85 -133 -525l-84 -391l-82 389l-135 527 h-109zM293 1526l88 196h143l-8 -12l98 -96l-96 -162h-135l-74 74h-16zM309 1536h90l105 176h-115z" />
<glyph unicode="&#xde;" horiz-adv-x="794" d="M117 -10v1456h129v-12l96 -97v-90h64q72 0 137 -30.5t104 -92.5l66 -63q78 -78 78 -213v-459q0 -120 -77 -208.5t-206 -88.5h-166v-198h-117l-96 96h-12zM127 0h109v199h170q127 0 202.5 87.5t75.5 205.5v458q0 76 -24.5 133.5t-66 90t-88.5 48t-99 15.5h-170v199h-109 v-1436zM236 295v846h170q83 0 128.5 -50t45.5 -141v-458q0 -90 -52 -143.5t-122 -53.5h-170zM342 305h64q65 0 114 51t49 136v458q0 32 -12 78q-24 6 -49 6h-166v-729z" />
<glyph unicode="&#xe0;" horiz-adv-x="600" d="M49 -10l176 1165h137l3 -14l94 -94l178 -1153h-115l-96 96h-12l-31 203h-64q-7 -49 -23.5 -149.5t-23.5 -149.5h-114l-97 96h-12zM59 0h107l47 299h166v2l45 -301h106l-178 1145h-116zM137 1440h144l6 -19l92 -90l67 -162h-114l-72 72h-10zM156 1430l100 -179h92l-76 179 h-116zM221 389l27 170l47 369l45 -369l25 -170h-144z" />
<glyph unicode="&#xe1;" horiz-adv-x="600" d="M49 -10l176 1165h137l3 -14l94 -94l178 -1153h-115l-96 96h-12l-31 203h-64q-7 -49 -23.5 -149.5t-23.5 -149.5h-114l-97 96h-12zM59 0h107l47 299h166v2l45 -301h106l-178 1145h-116zM221 389l27 170l47 369l45 -369l25 -170h-144zM225 1243l88 197h144l-8 -13l98 -96 l-96 -162h-136l-73 74h-17zM242 1253h90l104 177h-114z" />
<glyph unicode="&#xe2;" horiz-adv-x="600" d="M49 -10l176 1165h137l3 -14l94 -94l178 -1153h-115l-96 96h-12l-31 203h-64q-7 -49 -23.5 -149.5t-23.5 -149.5h-114l-97 96h-12zM59 0h107l47 299h166v2l45 -301h106l-178 1145h-116zM92 1260l160 184h86l211 -246h-113l-51 51l-49 -53h-166l-57 64h-21zM113 1270h96 l84 88l86 -88h94l-137 164h-82zM221 389l27 170l47 369l45 -369l25 -170h-144z" />
<glyph unicode="&#xe3;" horiz-adv-x="600" d="M49 -10l176 1165h137l3 -14l94 -94l178 -1153h-115l-96 96h-12l-31 203h-64q-7 -49 -23.5 -149.5t-23.5 -149.5h-114l-97 96h-12zM59 0h107l47 299h166v2l45 -301h106l-178 1145h-116zM152 1286v107q40 49 92 49q33 0 63 -23l-2 2q29 -18 49 -18q39 0 84 51v-20l86 -97 v-55q-27 -33 -66.5 -43t-76.5 14q-84 59 -158 -28l-61 71zM162 1309q60 69 127 20q30 -25 71 -19t68 42v80q-60 -70 -127 -21q-30 25 -71 19.5t-68 -41.5v-80zM221 389l27 170l47 369l45 -369l25 -170h-144z" />
<glyph unicode="&#xe4;" horiz-adv-x="600" d="M49 -10l176 1165h137l3 -14l94 -94l178 -1153h-115l-96 96h-12l-31 203h-64q-7 -49 -23.5 -149.5t-23.5 -149.5h-114l-97 96h-12zM59 0h107l47 299h166v2l45 -301h106l-178 1145h-116zM158 1253v187h108v-13l56 -55v68h106v-13l96 -96v-143h-123l-39 37v-37h-126l-66 65 h-12zM168 1264h88v166h-88v-166zM221 389l27 170l47 369l45 -369l25 -170h-144zM332 1264h86v166h-86v-166z" />
<glyph unicode="&#xe5;" horiz-adv-x="600" d="M49 -10l176 1165h137l3 -14l94 -94l178 -1153h-115l-96 96h-12l-31 203h-64q-7 -49 -23.5 -149.5t-23.5 -149.5h-114l-97 96h-12zM59 0h107l47 299h166v2l45 -301h106l-178 1145h-116zM156 1339q0 56 40.5 87.5t96.5 31.5q40 0 75.5 -17t51.5 -52l39 -37q30 -28 30 -78 q0 -55 -40 -83t-95 -28q-61 0 -92 31l-45 43q-61 33 -61 102zM164 1339q0 -51 38 -79.5t89 -28.5q52 0 90.5 26.5t38.5 79.5q0 54 -38 82.5t-89 28.5t-90 -29t-39 -80zM221 389l27 170l47 369l45 -369l25 -170h-144zM238 1337q0 25 16 38.5t39 13.5t39 -13.5t16 -38.5 q0 -22 -16 -33.5t-39 -11.5t-39 11.5t-16 33.5z" />
<glyph unicode="&#xe6;" horiz-adv-x="722" d="M45 -10l248 1165h362v-12l97 -96v-101h-203v-540h80v-13l96 -96v-100h-176v-91h106v-12l97 -96v-104h-308l-96 96h-12v203q-9 -49 -30 -149.5t-30 -149.5h-120l-97 96h-14zM57 0h113l59 299h117v-299h299v96h-203v207h176v92h-176v658h203v92h-342zM248 395l110 576h4 l-16 -418v-158h-98z" />
<glyph unicode="&#xe7;" horiz-adv-x="665" d="M86 238v669q0 116 67 187t177 71q135 0 198 -102l68 -68q68 -68 68 -190v-117h-111l-96 96h-13v123q0 17 -4 45h-6q-55 0 -89 -38t-34 -109v-670v-37h21q58 0 84 34t26 104v114h127v-12l97 -96v-109q0 -92 -44 -159.5t-128 -86.5q-6 -18 -9 -24l4 -6l74 -74 q33 -38 33 -82q0 -50 -36.5 -88.5t-98.5 -38.5h-43q-57 0 -90 33l-78 78q-63 27 -66 120h101q0 -10 2 -16l24 -22h4h23l-70 69h-14l25 94l-15 15l-63 63q-115 62 -115 230zM96 238q0 -107 56 -174t155 -74l-39 -144h88q27 0 37.5 -22.5t-0.5 -45t-37 -22.5h-41q-16 0 -28 10 t-13 29h-79q5 -114 120 -114h43q80 0 115 59t4 118t-110 58l20 78q84 17 128 83.5t44 158.5v104h-106v-104q0 -148 -121 -148q-61 0 -94 41t-33 109v669q0 73 35.5 112.5t91.5 39.5q60 0 91.5 -41t31.5 -111v-112h102v112q0 116 -61 182t-166 66t-169.5 -68.5t-64.5 -179.5 v-669z" />
<glyph unicode="&#xe8;" horiz-adv-x="589" d="M92 -10v1165h434v-12l97 -96v-103h-306v-538h148v-13l96 -96v-104h-244v-84h209v-13l97 -96v-106h-422l-97 96h-12zM102 0h414v98h-305v201h244v96h-244v656h305v94h-414v-1145zM170 1444h143l6 -19l93 -90l67 -161h-114l-72 71h-10zM188 1434l101 -179h92l-76 179h-117z " />
<glyph unicode="&#xe9;" horiz-adv-x="589" d="M92 -10v1165h434v-12l97 -96v-103h-306v-538h148v-13l96 -96v-104h-244v-84h209v-13l97 -96v-106h-422l-97 96h-12zM102 0h414v98h-305v201h244v96h-244v656h305v94h-414v-1145zM233 1251l89 197h143l-8 -12l98 -97l-96 -161h-135l-74 73h-17zM250 1262h90l104 176h-114z " />
<glyph unicode="&#xea;" horiz-adv-x="589" d="M92 -10v1165h434v-12l97 -96v-103h-306v-538h148v-13l96 -96v-104h-244v-84h209v-13l97 -96v-106h-422l-97 96h-12zM102 0h414v98h-305v201h244v96h-244v656h305v94h-414v-1145zM113 1251l155 189h84l207 -252h-108l-52 51l-49 -53h-162l-57 65h-18zM133 1262h94l82 88 l84 -88h92l-135 165h-80z" />
<glyph unicode="&#xeb;" horiz-adv-x="589" d="M92 -10v1165h434v-12l97 -96v-103h-306v-538h148v-13l96 -96v-104h-244v-84h209v-13l97 -96v-106h-422l-97 96h-12zM102 0h414v98h-305v201h244v96h-244v656h305v94h-414v-1145zM178 1249v187h109v-13l55 -55v68h107v-13l96 -96v-143h-123l-39 37v-37h-127l-66 65h-12z M188 1260h88v165h-88v-165zM352 1260h86v165h-86v-165z" />
<glyph unicode="&#xec;" horiz-adv-x="311" d="M12 1444h138l6 -19l86 -90l63 -161h-108l-68 71h-8zM31 1434l94 -179h88l-72 179h-110zM92 -10v1165h127v-12l96 -96v-1153h-114l-97 96h-12zM102 0h107v1145h-107v-1145z" />
<glyph unicode="&#xed;" horiz-adv-x="311" d="M76 1247l78 197h129l-9 -12l88 -97l-86 -161h-120l-66 73h-14zM90 1257h80l94 177h-102zM92 -10v1165h127v-12l96 -96v-1153h-114l-97 96h-12zM102 0h107v1145h-107v-1145z" />
<glyph unicode="&#xee;" horiz-adv-x="311" d="M-27 1241l144 195h78l188 -260h-98l-47 55l-45 -57h-150l-51 67h-19zM-6 1253h86l76 93l77 -93h84l-124 172h-74zM92 -10v1165h127v-12l96 -96v-1153h-114l-97 96h-12zM102 0h107v1145h-107v-1145z" />
<glyph unicode="&#xef;" horiz-adv-x="311" d="M18 1255v187h109v-12l55 -56v68h107v-12l96 -97v-143h-123l-39 37v-37h-127l-65 65h-13zM29 1266h88v166h-88v-166zM92 -10v1165h127v-12l96 -96v-1153h-114l-97 96h-12zM102 0h107v1145h-107v-1145zM193 1266h86v166h-86v-166z" />
<glyph unicode="&#xf0;" horiz-adv-x="665" d="M80 233v646q0 105 58 173.5t145 73.5l-52 52l-6 -4l-39 69l68 41l-39 72q-1 2 -20.5 38t-26.5 52h141l10 -21l64 -67q7 4 26.5 16t28.5 19l17 -31l84 -82l34 -55l-84 -49q23 -47 67.5 -131.5t57.5 -110.5q43 -93 43 -158v-643q0 -104 -60.5 -178t-168.5 -74 q-102 0 -168 66l-65 63q-55 34 -85 92.5t-30 130.5zM90 233q0 -104 64.5 -174.5t171.5 -70.5t166 73t59 175v643q0 62 -43 155l-127 246l84 49l-31 47l-80 -49l-51 109h-117l84 -156l-69 -41l28 -49l66 39l59 -115q-28 4 -57 4q-87 0 -147 -67t-60 -172v-646zM199 233v646 q0 70 32 108.5t95 38.5q59 0 88.5 -43t29.5 -104v-643q0 -65 -29.5 -106.5t-88.5 -41.5q-61 0 -94 41.5t-33 103.5zM305 98h21q54 0 81 38.5t27 99.5v643q0 13 -4 41h-2q-123 0 -123 -144v-645v-33z" />
<glyph unicode="&#xf1;" horiz-adv-x="702" d="M94 -10v1165h119l4 -16l94 -92l156 -463v571h129v-12l96 -96v-1153h-108l-97 96h-10l-158 456v-552h-116l-97 96h-12zM104 0h109v600l-18 297l81 -291l209 -606h101v1145h-109v-602l23 -312l-88 299l-207 615h-101v-1145zM193 1270v106q43 49 100 49q38 0 69 -22l-2 2 q34 -19 56 -19q43 0 92 52v-21l96 -96v-55q-30 -33 -74 -43t-86 14q-91 57 -174 -29l-67 72zM203 1292q66 69 141 21q33 -25 78.5 -19.5t75.5 41.5v80q-66 -69 -142 -20q-33 25 -78 19t-75 -42v-80z" />
<glyph unicode="&#xf2;" horiz-adv-x="653" d="M78 233v678q0 106 64.5 180t179.5 74q128 0 198 -108l64 -64q71 -71 71 -184v-676q0 -104 -61 -178t-170 -74q-100 0 -166 66l-63 63q-56 32 -86.5 91t-30.5 132zM88 233q0 -104 64 -174.5t170 -70.5q108 0 167.5 72.5t59.5 175.5v675q0 102 -62.5 173t-164.5 71 q-110 0 -172 -71t-62 -173v-678zM172 1442h143l7 -17l92 -88l67 -155h-114l-72 69h-10zM190 1432l101 -170h92l-76 170h-117zM197 233v678q0 65 32.5 106.5t92.5 41.5t90 -43t30 -105v-675q0 -66 -30 -107t-90 -41t-92.5 41.5t-32.5 103.5zM303 98h19q55 0 82.5 38.5 t27.5 99.5v675q0 13 -4 41h-4q-59 0 -90 -40t-31 -103v-678v-33z" />
<glyph unicode="&#xf3;" horiz-adv-x="653" d="M78 233v678q0 106 64.5 180t179.5 74q128 0 198 -108l64 -64q71 -71 71 -184v-676q0 -104 -61 -178t-170 -74q-100 0 -166 66l-63 63q-56 32 -86.5 91t-30.5 132zM88 233q0 -104 64 -174.5t170 -70.5q108 0 167.5 72.5t59.5 175.5v675q0 102 -62.5 173t-164.5 71 q-110 0 -172 -71t-62 -173v-678zM197 233v678q0 65 32.5 106.5t92.5 41.5t90 -43t30 -105v-675q0 -66 -30 -107t-90 -41t-92.5 41.5t-32.5 103.5zM240 1257l86 193h141l-8 -12l98 -95l-96 -159h-133l-72 73h-16zM256 1268h88l102 172h-112zM303 98h19q55 0 82.5 38.5 t27.5 99.5v675q0 13 -4 41h-4q-59 0 -90 -40t-31 -103v-678v-33z" />
<glyph unicode="&#xf4;" horiz-adv-x="653" d="M78 233v678q0 106 64.5 180t179.5 74q128 0 198 -108l64 -64q71 -71 71 -184v-676q0 -104 -61 -178t-170 -74q-100 0 -166 66l-63 63q-56 32 -86.5 91t-30.5 132zM88 233q0 -104 64 -174.5t170 -70.5q108 0 167.5 72.5t59.5 175.5v675q0 102 -62.5 173t-164.5 71 q-110 0 -172 -71t-62 -173v-678zM106 1260l170 178h93l225 -238h-119l-55 49l-53 -51h-179l-61 62h-21zM129 1270h102l91 84l92 -84h100l-147 157h-88zM197 233v678q0 65 32.5 106.5t92.5 41.5t90 -43t30 -105v-675q0 -66 -30 -107t-90 -41t-92.5 41.5t-32.5 103.5zM303 98 h19q55 0 82.5 38.5t27.5 99.5v675q0 13 -4 41h-4q-59 0 -90 -40t-31 -103v-678v-33z" />
<glyph unicode="&#xf5;" horiz-adv-x="653" d="M78 233v678q0 106 64.5 180t179.5 74q128 0 198 -108l64 -64q71 -71 71 -184v-676q0 -104 -61 -178t-170 -74q-100 0 -166 66l-63 63q-56 32 -86.5 91t-30.5 132zM88 233q0 -104 64 -174.5t170 -70.5q108 0 167.5 72.5t59.5 175.5v675q0 102 -62.5 173t-164.5 71 q-110 0 -172 -71t-62 -173v-678zM164 1272v106q43 49 100 49q39 0 70 -22l-2 2q32 -18 55 -18q44 0 92 51v-21l96 -96v-55q-30 -33 -73.5 -43t-85.5 14q-91 57 -174 -29l-68 72zM174 1294q66 69 141 21q33 -25 78.5 -19.5t75.5 41.5v80q-66 -69 -141 -20q-33 25 -78.5 19 t-75.5 -42v-80zM197 233v678q0 65 32.5 106.5t92.5 41.5t90 -43t30 -105v-675q0 -66 -30 -107t-90 -41t-92.5 41.5t-32.5 103.5zM303 98h19q55 0 82.5 38.5t27.5 99.5v675q0 13 -4 41h-4q-59 0 -90 -40t-31 -103v-678v-33z" />
<glyph unicode="&#xf6;" horiz-adv-x="653" d="M78 233v678q0 106 64.5 180t179.5 74q128 0 198 -108l64 -64q71 -71 71 -184v-676q0 -104 -61 -178t-170 -74q-100 0 -166 66l-63 63q-56 32 -86.5 91t-30.5 132zM88 233q0 -104 64 -174.5t170 -70.5q108 0 167.5 72.5t59.5 175.5v675q0 102 -62.5 173t-164.5 71 q-110 0 -172 -71t-62 -173v-678zM186 1262v186h109v-12l55 -56v68h107v-12l96 -97v-143h-123l-39 37v-37h-127l-65 66h-13zM197 233v678q0 65 32.5 106.5t92.5 41.5t90 -43t30 -105v-675q0 -66 -30 -107t-90 -41t-92.5 41.5t-32.5 103.5zM197 1272h88v166h-88v-166zM303 98 h19q55 0 82.5 38.5t27.5 99.5v675q0 13 -4 41h-4q-59 0 -90 -40t-31 -103v-678v-33zM360 1272h86v166h-86v-166z" />
<glyph unicode="&#xf8;" horiz-adv-x="669" d="M86 233v678q0 106 64.5 180t179.5 74q31 0 47 -4l8 45q2 25 8 60h92l-2 -11l99 -98l-23 -133l31 -29q74 -74 74 -186v-676q0 -104 -61 -178t-171 -74q-36 0 -63 6l-17 -94h-82l-96 96h-12l20 134q-45 34 -70.5 89.5t-25.5 120.5zM96 233q0 -134 97 -206l-21 -127h74 l16 96q27 -8 68 -8q108 0 167.5 72.5t59.5 175.5v675q0 65 -27.5 121t-76.5 88l22 135h-72l-18 -106q-27 6 -55 6q-110 0 -172 -71t-62 -173v-678zM205 233v678q0 65 32.5 106.5t92.5 41.5q21 0 39 -6l-152 -887q-12 30 -12 67zM279 96l153 901q19 -40 19 -86v-675 q0 -65 -30.5 -106.5t-90.5 -41.5q-32 0 -51 8z" />
<glyph unicode="&#xf9;" horiz-adv-x="673" d="M88 236v919h129v-12l96 -96v-914q0 -27 2 -39h13q114 0 114 142v919h127v-12l97 -96v-914q0 -104 -62 -178t-174 -74q-101 0 -162 64l-69 67q-52 34 -81.5 93t-29.5 131zM98 236q0 -105 63.5 -176.5t166.5 -71.5q111 0 171 72.5t60 175.5v909h-106v-909q0 -152 -125 -152 q-60 0 -90.5 44.5t-30.5 107.5v909h-109v-909zM174 1448h143l7 -18l92 -91l67 -161h-114l-72 71h-10zM193 1438l100 -178h92l-76 178h-116z" />
<glyph unicode="&#xfa;" horiz-adv-x="673" d="M88 236v919h129v-12l96 -96v-914q0 -27 2 -39h13q114 0 114 142v919h127v-12l97 -96v-914q0 -104 -62 -178t-174 -74q-101 0 -162 64l-69 67q-52 34 -81.5 93t-29.5 131zM98 236q0 -105 63.5 -176.5t166.5 -71.5q111 0 171 72.5t60 175.5v909h-106v-909q0 -152 -125 -152 q-60 0 -90.5 44.5t-30.5 107.5v909h-109v-909zM240 1249l88 197h143l-8 -12l98 -97l-96 -161h-135l-74 73h-16zM256 1260h90l105 176h-115z" />
<glyph unicode="&#xfb;" horiz-adv-x="673" d="M88 236v919h129v-12l96 -96v-914q0 -27 2 -39h13q114 0 114 142v919h127v-12l97 -96v-914q0 -104 -62 -178t-174 -74q-101 0 -162 64l-69 67q-52 34 -81.5 93t-29.5 131zM98 236q0 -105 63.5 -176.5t166.5 -71.5q111 0 171 72.5t60 175.5v909h-106v-909q0 -152 -125 -152 q-60 0 -90.5 44.5t-30.5 107.5v909h-109v-909zM117 1257l170 179h92l225 -238h-119l-55 49l-53 -51h-178l-62 61h-20zM139 1268h103l90 84l92 -84h100l-147 157h-88z" />
<glyph unicode="&#xfc;" horiz-adv-x="673" d="M88 236v919h129v-12l96 -96v-914q0 -27 2 -39h13q114 0 114 142v919h127v-12l97 -96v-914q0 -104 -62 -178t-174 -74q-101 0 -162 64l-69 67q-52 34 -81.5 93t-29.5 131zM98 236q0 -105 63.5 -176.5t166.5 -71.5q111 0 171 72.5t60 175.5v909h-106v-909q0 -152 -125 -152 q-60 0 -90.5 44.5t-30.5 107.5v909h-109v-909zM186 1255v187h109v-12l55 -56v68h107v-12l96 -97v-143h-123l-39 37v-37h-127l-65 65h-13zM197 1266h88v166h-88v-166zM360 1266h86v166h-86v-166z" />
<glyph unicode="&#xfd;" horiz-adv-x="630" d="M31 1157h123l4 -14l94 -94l94 -359q4 30 8 43l109 424h135l-4 -12l98 -96l-223 -865v-290h-115l-96 96h-12v297l-107 430q-6 25 -108 440zM43 1147l213 -858v-289h106v289l222 858h-113l-106 -416l-54 -276l-55 278l-109 414h-104zM227 1245l88 197h144l-8 -12l98 -97 l-96 -162h-136l-73 74h-17zM244 1255h90l104 177h-114z" />
<glyph unicode="&#xfe;" horiz-adv-x="655" d="M90 -10v1165h131v-12l96 -96v-48h15q62 0 117.5 -26.5t87.5 -81.5l67 -66q-1 0 -2 1t-2 1l4 -2q64 -61 64 -172v-366q0 -100 -64 -173t-170 -73h-117v-147h-118l-97 96h-12zM100 0h111v147h121q104 0 166.5 71.5t62.5 170.5v367q0 62 -20 108.5t-54 73t-73 39t-82 12.5 h-121v156h-111v-1145zM211 246v647h121q60 0 92.5 -36t32.5 -101v-367q0 -66 -37.5 -104.5t-87.5 -38.5h-121zM317 256h15q46 0 80 36t34 97v367q0 5 -1 15t-1 15h-127v-530z" />
<glyph unicode="&#xff;" horiz-adv-x="630" d="M31 1157h123l4 -14l94 -94l94 -359q4 30 8 43l109 424h135l-4 -12l98 -96l-223 -865v-290h-115l-96 96h-12v297l-107 430q-6 25 -108 440zM43 1147l213 -858v-289h106v289l222 858h-113l-106 -416l-54 -276l-55 278l-109 414h-104zM164 1257v187h108v-12l56 -56v68h106 v-12l96 -97v-143h-122l-39 37v-37h-127l-66 65h-12zM174 1268h88v166h-88v-166zM338 1268h86v166h-86v-166z" />
<glyph unicode="&#x152;" horiz-adv-x="935" d="M102 283v866q0 128 78 217.5t217 89.5q53 0 90 -12h375v-12l96 -97v-102h-296v-746h141v-12l96 -96v-103h-237v-170h200v-12l96 -96v-104h-370q-41 -13 -88 -13q-125 0 -205 80l-62 59q-63 39 -97 108.5t-34 154.5zM113 283q0 -126 76.5 -210.5t207.5 -84.5q49 0 86 12 h369v96h-297v287h238v94h-238v862h297v95h-369q-38 12 -86 12q-134 0 -209 -87t-75 -210v-866zM221 283v866q0 89 45 146t131 57q31 0 52 -6v-1258q-12 -4 -37 -4h-15q-86 0 -131 57.5t-45 141.5zM328 180q0 -45 8 -76q30 -10 61 -10h23q10 0 18 2v1139q-55 -20 -82.5 -69.5 t-27.5 -118.5v-867z" />
<glyph unicode="&#x153;" horiz-adv-x="763" d="M82 233v678q0 124 61.5 189t182.5 65q51 0 84 -10h284v-12l97 -96v-103h-222v-538h80v-13l96 -96v-102h-176v-86h125v-13l97 -96v-106h-283q-50 -11 -84 -11q-106 0 -168 62l-68 67q-106 62 -106 221zM92 233q0 -77 27 -131t71 -78.5t100.5 -32t115.5 8.5h278v98h-221 v203h176v94h-176v656h221v94h-278q-33 10 -80 10q-116 0 -175 -62.5t-59 -181.5v-678zM197 233v678q0 78 32 114t97 36q23 0 39 -4v-969q-74 -14 -121 21.5t-47 123.5zM303 92q27 -3 51 2v842q-51 -29 -51 -127v-678v-39z" />
<glyph unicode="&#x178;" horiz-adv-x="763" d="M39 1446h131l2 -14l96 -95l135 -530l13 -62l37 168l133 533h137l-4 -12l98 -97l-278 -1081v-362h-115l-96 96h-13v366q-21 88 -68.5 270.5t-68.5 270.5q-99 383 -139 549zM53 1436l273 -1078v-358h106v358l277 1078h-113q-20 -85 -133 -525l-84 -391l-82 389l-135 527 h-109zM229 1540v186h109v-12l55 -55v67h107v-12l96 -96v-143h-123l-39 36v-36h-127l-65 65h-13zM240 1550h88v166h-88v-166zM403 1550h86v166h-86v-166z" />
<glyph unicode="&#x2c6;" horiz-adv-x="419" d="M-6 1268l170 178h92l225 -238h-119l-55 49l-53 -51h-178l-62 62h-20zM16 1278h103l90 84l92 -84h100l-147 158h-88z" />
<glyph unicode="&#x2dc;" horiz-adv-x="448" d="M76 1290v107q43 49 100 49q37 0 70 -23l-2 2q32 -18 55 -18q44 0 92 51v-20l96 -97v-55q-30 -33 -73.5 -43t-85.5 14q-92 57 -174 -28l-68 71zM86 1313q66 69 141 20q33 -25 78.5 -19t75.5 42v80q-66 -69 -141 -21q-33 25 -78.5 19.5t-75.5 -41.5v-80z" />
<glyph unicode="&#x2000;" horiz-adv-x="867" />
<glyph unicode="&#x2001;" horiz-adv-x="1735" />
<glyph unicode="&#x2002;" horiz-adv-x="867" />
<glyph unicode="&#x2003;" horiz-adv-x="1735" />
<glyph unicode="&#x2004;" horiz-adv-x="578" />
<glyph unicode="&#x2005;" horiz-adv-x="433" />
<glyph unicode="&#x2006;" horiz-adv-x="289" />
<glyph unicode="&#x2007;" horiz-adv-x="289" />
<glyph unicode="&#x2008;" horiz-adv-x="216" />
<glyph unicode="&#x2009;" horiz-adv-x="347" />
<glyph unicode="&#x200a;" horiz-adv-x="96" />
<glyph unicode="&#x2010;" horiz-adv-x="501" d="M72 354v109h360v-12l96 -97v-96h-348l-96 96h-12zM82 365h340v88h-340v-88z" />
<glyph unicode="&#x2011;" horiz-adv-x="501" d="M72 354v109h360v-12l96 -97v-96h-348l-96 96h-12zM82 365h340v88h-340v-88z" />
<glyph unicode="&#x2012;" horiz-adv-x="501" d="M72 354v109h360v-12l96 -97v-96h-348l-96 96h-12zM82 365h340v88h-340v-88z" />
<glyph unicode="&#x2013;" horiz-adv-x="1069" d="M72 354v109h808v-12l216 -97v-96h-781l-216 96h-27zM94 365h764v88h-764v-88z" />
<glyph unicode="&#x2014;" horiz-adv-x="2093" d="M72 354v109h1617v-12l431 -97v-96h-1563l-431 96h-54zM117 365h1527v88h-1527v-88z" />
<glyph unicode="&#x202f;" horiz-adv-x="347" />
<glyph unicode="&#x205f;" horiz-adv-x="433" />
<glyph unicode="&#x20ac;" horiz-adv-x="649" d="M14 375v86h62l-49 49h-13v88h64v305q0 108 67.5 183t173.5 75q134 0 195 -102l70 -68q71 -68 71 -209h-110l-96 97h-13q0 39 -6 69h-4q-55 0 -89 -38t-34 -109v-203h88v-12l96 -97v-75h-61l61 -62v-73h-184v-144q0 -25 2 -37h19q114 0 114 170h123v-12l96 -96 q0 -135 -57.5 -207t-173.5 -72q-102 0 -168 66l-68 65q-53 33 -82.5 93t-29.5 133v86l-51 51h-13zM25 385h63v-147q0 -106 64.5 -178t171.5 -72q115 0 171 70t56 200h-102q0 -170 -125 -170q-60 0 -93.5 44.5t-33.5 105.5v147h184v66h-184v69h184v68h-184v315 q0 73 35.5 112.5t91.5 39.5q122 0 122 -166h103q0 124 -62 193t-168 69q-102 0 -166.5 -72t-64.5 -176v-315h-63v-68h63v-69h-63v-66z" />
<glyph unicode="&#x25fc;" horiz-adv-x="1157" d="M0 0v1157h1157v-1157h-1157z" />
</font>
</defs>
</svg>
