<?xml version="1.0" standalone="no"?>
<!DOCTYPE svg PUBLIC "-//W3C//DTD SVG 1.1//EN" "http://www.w3.org/Graphics/SVG/1.1/DTD/svg11.dtd" >
<svg xmlns="http://www.w3.org/2000/svg">
<metadata></metadata>
<defs>
<font id="mohaveitalic" horiz-adv-x="1013" >
<font-face units-per-em="2048" ascent="1845" descent="-203" />
<missing-glyph horiz-adv-x="409" />
<glyph horiz-adv-x="2048" />
<glyph horiz-adv-x="2048" />
<glyph unicode="&#xd;" horiz-adv-x="2048" />
<glyph unicode=" "  horiz-adv-x="409" />
<glyph unicode="&#x09;" horiz-adv-x="409" />
<glyph unicode="&#xa0;" horiz-adv-x="409" />
<glyph unicode="!" horiz-adv-x="376" d="M-37 0l33 176h154l-33 -176h-154zM41 334l209 1339h172l-266 -1339h-115z" />
<glyph unicode="&#x22;" horiz-adv-x="714" d="M119 1440l41 233h176l-41 -233l-88 -135h-76l88 135h-100zM399 1440l41 233h176l-41 -233l-88 -135h-75l88 135h-101z" />
<glyph unicode="#" horiz-adv-x="1085" d="M-59 0l155 457h-110l20 135h148q23 70 64 186.5t65 190.5h-160l24 135h197l205 569h139l-205 -569h348q32 92 103.5 288t101.5 281h142l-205 -569h96l-25 -135h-133l-129 -377h150l-23 -135h-184q-33 -96 -90 -255.5t-72 -201.5h-137l158 457h-348q-96 -280 -160 -457 h-135zM295 592h348q19 55 59 174t68 203q-54 0 -165 -1t-183 -1z" />
<glyph unicode="$" horiz-adv-x="837" d="M-25 303l27 164h135l-28 -164q-9 -51 27 -101t102 -83l114 645q-125 27 -195 106t-53 179l48 268q22 119 121 213.5t237 126.5l18 108h117l-18 -108q126 -31 191.5 -125t43.5 -215l-28 -170h-136l29 170q11 59 -21 107.5t-108 78.5l-115 -657q118 -31 191.5 -108 t56.5 -173l-47 -262q-22 -119 -121.5 -213.5t-234.5 -128.5l-21 -111h-117l21 111q-123 34 -189.5 129.5t-46.5 212.5zM242 1049q-7 -49 28 -89t105 -65l106 606q-79 -31 -130.5 -80t-61.5 -104zM354 119q73 33 128.5 83.5t64.5 100.5l47 262q7 49 -28 89t-105 67z" />
<glyph unicode="%" horiz-adv-x="1183" d="M70 -51l934 1724h118l-934 -1724h-118zM102 1036l66 369q15 86 89.5 146.5t160.5 60.5q85 0 138 -60.5t38 -146.5l-66 -369q-15 -88 -88 -147.5t-159 -59.5q-88 0 -141 59.5t-38 147.5zM215 1036q-8 -43 16 -70.5t68 -27.5q40 0 76 28.5t43 69.5l65 369q7 40 -21.5 69 t-62.5 29q-45 0 -77.5 -27.5t-40.5 -70.5zM569 156l66 370q15 87 87.5 147t162.5 60q86 0 137.5 -60t36.5 -147l-66 -370q-15 -87 -88.5 -147t-159.5 -60q-88 0 -139.5 59t-36.5 148zM680 156q-8 -43 16 -70t70 -27q43 0 77 29.5t40 67.5l65 370q6 37 -20 67t-64 30 q-44 0 -78 -27t-41 -70z" />
<glyph unicode="&#x26;" horiz-adv-x="1083" d="M31 324l47 266q24 138 166 252q-97 131 -78 248l47 266q18 100 85 182.5t160 128t189 45.5q153 0 238.5 -121t56.5 -313h-160q11 129 -31.5 203.5t-132.5 74.5q-92 0 -162 -56t-85 -144l-47 -266q-4 -74 53 -129.5t127 -55.5h213l26 154h160l-26 -154h129l-23 -133h-129 l-80 -448q-27 -150 -157.5 -253.5t-278.5 -103.5q-96 0 -172.5 46t-114 128.5t-20.5 182.5zM188 324q-15 -88 36 -144.5t143 -56.5t162 56.5t85 144.5l80 448h-213q-91 0 -161.5 -51.5t-83.5 -130.5z" />
<glyph unicode="'" horiz-adv-x="436" d="M121 1440l41 233h176l-41 -233l-88 -135h-76l88 135h-100z" />
<glyph unicode="(" horiz-adv-x="745" d="M2 119l248 1403q28 160 145.5 241.5t276.5 81.5h133l-27 -143q-58 0 -101 -3t-92.5 -14t-83 -29.5t-59.5 -52.5t-34 -81l-236 -1327q-8 -45 -8.5 -79t5 -61t21.5 -45.5t38.5 -31.5t58.5 -20.5t79 -11t103 -3.5l-27 -144h-133q-75 0 -135.5 19.5t-104.5 57.5t-62 100.5 t-5 142.5z" />
<glyph unicode=")" horiz-adv-x="745" d="M-53 -201l26 144q105 1 168 11t108.5 38.5t68.5 75.5t36 127l236 1327q8 47 -6 81t-41 52.5t-73 29.5t-88.5 14t-100.5 3l26 143h133q76 0 137 -19.5t105 -57.5t62 -101t4 -145l-248 -1403q-28 -157 -146.5 -238.5t-275.5 -81.5h-131z" />
<glyph unicode="*" horiz-adv-x="604" d="M80 1378l117 68l-93 72q15 13 36.5 36t27.5 29l96 -70l29 158h94l-31 -158q61 35 125 70q7 -12 21.5 -32t21.5 -31l-125 -74q82 -57 99 -70q-30 -29 -64 -67l-100 67l-27 -153h-94l29 153q-36 -20 -63.5 -34.5t-39.5 -20.5t-18 -10z" />
<glyph unicode="+" horiz-adv-x="835" d="M20 752l21 116h330l57 326h117l-58 -326h328l-20 -116h-328l-59 -330h-117l59 330h-330z" />
<glyph unicode="," horiz-adv-x="333" d="M68 -98l55 307h156l-33 -186z" />
<glyph unicode="-" horiz-adv-x="831" d="M104 752l23 116h596l-23 -116h-596z" />
<glyph unicode="." horiz-adv-x="393" d="M96 0l35 209h156l-35 -209h-156z" />
<glyph unicode="/" horiz-adv-x="856" d="M-98 -27l929 1725h121l-934 -1725h-116z" />
<glyph unicode="0" horiz-adv-x="1030" d="M23 381l157 893q20 111 93.5 203t177 144t213.5 52q167 0 269.5 -115.5t72.5 -283.5l-158 -893q-20 -111 -93 -203t-176 -144t-212 -52q-110 0 -195.5 52t-126.5 144t-22 203zM139 289l676 1175q-71 78 -174 78q-112 0 -210 -77.5t-118 -190.5zM215 203q56 -90 174 -90 q111 0 207.5 77.5t116.5 190.5l176 999z" />
<glyph unicode="1" horiz-adv-x="567" d="M154 1341l20 115h68q37 0 52.5 0.5t50.5 2t53 6t40.5 12.5t34 21.5t14.5 31.5l27 143h135l-297 -1673h-135l240 1352q-34 -6 -77 -9t-72.5 -3t-82 0.5t-71.5 0.5z" />
<glyph unicode="2" horiz-adv-x="933" d="M-2 0l25 145q17 93 38 158t60.5 129.5t102 117t155.5 101.5q57 36 86 55.5t72 51t66.5 56.5t49.5 58.5t41 70.5t23 81l49 305q13 89 -41 150t-139 61t-163 -64t-91 -147l-47 -264h-135l47 264q16 94 79 174t152 125t182 45q144 0 230 -102.5t61 -241.5 q-24 -139 -36.5 -213t-14.5 -86q-11 -63 -31 -117.5t-51.5 -98t-60.5 -76t-74.5 -65.5t-75 -51.5t-80.5 -48.5q-134 -86 -223 -200t-88 -240h557l-25 -133h-700z" />
<glyph unicode="3" horiz-adv-x="913" d="M6 334l45 260h139l-45 -260q-17 -92 40.5 -151.5t146.5 -59.5q96 0 169.5 59.5t90.5 151.5l47 266q8 49 2 85.5t-23 56t-41 32.5t-51 15.5t-53.5 4.5t-48.5 -1h-98l20 112h96q2 0 32 -0.5t40.5 0t40 3.5t44.5 9t38.5 17.5t37 28t26 41.5t18.5 57l47 266 q17 92 -36.5 151.5t-149.5 59.5q-90 0 -167 -60.5t-94 -150.5l-45 -262h-139l45 262q26 145 152.5 245.5t271.5 100.5q147 0 236 -99.5t63 -246.5l-47 -266q-5 -30 -16 -55.5t-20.5 -41.5t-36.5 -40.5t-39.5 -34t-53.5 -41.5q111 -97 86 -248l-47 -266 q-26 -147 -150.5 -246.5t-271.5 -99.5q-145 0 -235 100.5t-66 245.5z" />
<glyph unicode="4" horiz-adv-x="929" d="M-43 342l20 117l758 1214h183l-216 -1216h115l-20 -115h-115l-61 -342h-136l62 342h-590zM104 457h463l181 1030q-56 -90 -280.5 -447t-363.5 -583z" />
<glyph unicode="5" horiz-adv-x="1011" d="M16 395l21 113h133l-20 -113q-20 -110 49 -192t180 -82q110 0 206.5 82t116.5 192l60 330q19 110 -49 193t-178 83q-108 0 -206 -89t-128 -218h-131l172 979h821l-23 -135h-688l-92 -522q139 119 299 119q170 0 268.5 -120t69.5 -290l-59 -330q-19 -112 -90.5 -206 t-175.5 -148.5t-216 -54.5q-172 0 -270.5 118.5t-69.5 290.5z" />
<glyph unicode="6" horiz-adv-x="1024" d="M18 381l158 893q20 111 93.5 203t177 144t212.5 52q167 0 271 -116t74 -283l-17 -94h-135l16 94q20 115 -49 191.5t-182 76.5t-208 -76t-116 -192l-49 -273q149 99 295 99q166 0 269.5 -117.5t74.5 -282.5l-57 -319q-20 -111 -94 -203t-177.5 -144t-212.5 -52 q-81 0 -151.5 31t-117.5 83.5t-68 127t-7 157.5zM156 381q-21 -116 47.5 -192t181.5 -76t209.5 77t116.5 191l57 319q20 113 -50 190t-183 77t-207.5 -76t-114.5 -191z" />
<glyph unicode="7" horiz-adv-x="841" d="M49 0l721 1538h-602l25 135h751l-33 -176l-718 -1497h-144z" />
<glyph unicode="8" horiz-adv-x="1019" d="M10 350l35 199q33 177 201 299q-60 56 -85.5 132.5t-8.5 166.5l22 133q20 110 93.5 201t177 141.5t212.5 50.5q168 0 270 -112.5t72 -280.5l-22 -133q-17 -89 -69 -166.5t-130 -132.5q60 -55 84.5 -132.5t7.5 -166.5l-34 -199q-27 -154 -159.5 -259t-287.5 -105h-59 q-155 0 -250.5 105t-69.5 259zM145 350q-17 -99 45.5 -167t161.5 -68h60q98 0 184.5 68t103.5 167l35 199q20 103 -50.5 172.5t-182.5 69.5t-207 -69.5t-115 -172.5zM287 1147q-18 -103 52.5 -172.5t182.5 -69.5t207 69.5t113 172.5l22 133q20 111 -49.5 187.5t-179.5 76.5 q-112 0 -209 -76.5t-117 -187.5z" />
<glyph unicode="9" horiz-adv-x="1021" d="M16 381l17 94h135l-16 -94q-20 -115 49 -191.5t182 -76.5t208 76t116 192l49 272q-148 -98 -295 -98q-166 0 -269.5 117t-74.5 282l57 320q20 111 93.5 203t177 144t212.5 52q167 0 270.5 -116t73.5 -283l-157 -893q-20 -111 -94 -203t-177.5 -144t-212.5 -52 q-81 0 -151.5 31t-117.5 83.5t-68 127t-7 157.5zM252 954q-20 -113 50 -189.5t183 -76.5t207.5 75.5t114.5 190.5l57 320q21 116 -47.5 192t-181.5 76t-209.5 -77t-116.5 -191z" />
<glyph unicode=":" horiz-adv-x="346" d="M20 0l37 209h156l-37 -209h-156zM133 635l37 209h156l-37 -209h-156z" />
<glyph unicode=";" horiz-adv-x="346" d="M10 -119l58 328h155l-33 -186zM143 635l37 209h156l-37 -209h-156z" />
<glyph unicode="&#x3c;" horiz-adv-x="876" d="M35 729l31 166l825 291l-27 -144l-655 -231q554 -220 575 -229l-26 -144z" />
<glyph unicode="=" horiz-adv-x="800" d="M43 555l23 137h630l-22 -137h-631zM109 926l22 137h631l-23 -137h-630z" />
<glyph unicode="&#x3e;" horiz-adv-x="876" d="M-14 438l24 144q119 43 371 130.5t283 98.5l-574 231l27 144l723 -291l-31 -166z" />
<glyph unicode="?" horiz-adv-x="792" d="M41 0l33 176h155l-32 -176h-156zM94 1149l31 168q26 148 149 252t271 104q129 0 202.5 -104.5t47.5 -251.5l-37 -207q-12 -66 -43 -124.5t-72.5 -102t-89 -83.5t-95.5 -79t-88.5 -79t-71 -92t-40.5 -110l-18 -104h-117l18 104q14 76 67 154.5t120.5 142.5t134.5 124 t117 120.5t59 110.5l39 225q15 88 -32.5 154.5t-125.5 66.5q-94 0 -168.5 -63.5t-91.5 -157.5l-31 -168h-135z" />
<glyph unicode="@" horiz-adv-x="1368" d="M-14 463l69 405q24 137 98.5 260.5t179 213t237 142t268.5 52.5h256q113 0 198.5 -55t123.5 -149.5t18 -207.5l-78 -442q-14 -80 -49.5 -155t-89 -138t-130 -101t-163.5 -38q-64 0 -103 10q-59 -38 -128.5 -63t-121.5 -25q-135 0 -210 91t-52 226q8 45 20 90.5 t30.5 107.5t25.5 89q39 137 160.5 235.5t257.5 98.5h180q63 0 99 -44.5t28 -107.5l-152 -579q108 19 178 106.5t91 196.5l78 442q20 112 -50.5 197.5t-183.5 85.5h-256q-142 0 -279 -73.5t-232 -198t-120 -267.5l-71 -405q-25 -143 26.5 -266.5t162.5 -196t253 -72.5h158 q117 0 338 176l-37 -204q-180 -101 -324 -101h-158q-136 0 -250 52t-187 140.5t-103 211.5t-6 260zM438 489q-13 -80 33.5 -134t122.5 -54q97 0 169 65t105 162l119 457l-209 -4q-86 0 -165 -65t-101 -150z" />
<glyph unicode="A" horiz-adv-x="952" d="M-106 0l632 1673h183l53 -1673h-141l-15 455h-399l-174 -455h-139zM246 571h362l-33 869q-59 -155 -172 -453.5t-157 -415.5z" />
<glyph unicode="B" horiz-adv-x="974" d="M-53 0l295 1673h399q149 0 233 -110q63 -83 63 -191q0 -36 -7 -74l-37 -211q-25 -143 -191 -256q86 -57 126 -143q28 -60 27 -127q0 -28 -5 -57l-19 -98q-29 -170 -163.5 -288t-294.5 -118h-426zM104 135h293q102 0 187 61.5t100 147.5l29 160q4 22 4 43q-1 75 -49 133 q-62 74 -162 74h-293zM233 868h265q88 0 165.5 65.5t92.5 153.5l49 273q2 13 2 25q-1 57 -47 100q-56 53 -144 53h-264z" />
<glyph unicode="C" horiz-adv-x="983" d="M18 342l170 975q26 146 169.5 251t312.5 105q157 0 248 -104q71 -81 71 -188q0 -31 -6 -64l-18 -111h-138l19 111q4 19 4 38q0 65 -48 117q-60 66 -155 66q-110 0 -207 -66.5t-114 -154.5l-170 -975q-3 -17 -3 -32q1 -67 59 -122q72 -67 183 -67q95 0 179.5 66.5 t101.5 154.5l20 119h138l-21 -119q-26 -148 -154.5 -252t-285.5 -104q-110 0 -197 48q-88 48 -131 130q-31 60 -31 127q0 25 4 51z" />
<glyph unicode="D" horiz-adv-x="897" d="M-51 0l295 1673h356q69 0 129.5 -25.5t101.5 -69.5t59 -108q10 -37 10 -77q0 -28 -5 -58l-174 -997q-26 -143 -150.5 -240.5t-267.5 -97.5h-354zM106 131h222q87 0 163 59t93 148l174 997q4 20 4 39q0 62 -43 108q-56 60 -144 60h-221z" />
<glyph unicode="E" horiz-adv-x="796" d="M-51 0l295 1673h643l-25 -135h-508l-118 -668h452l-18 -114h-453l-111 -621h508l-24 -135h-641z" />
<glyph unicode="F" horiz-adv-x="751" d="M-49 0l295 1673h643l-25 -135h-508l-118 -668h452l-18 -114h-453l-135 -756h-133z" />
<glyph unicode="G" horiz-adv-x="1001" d="M14 324l176 997q26 145 168.5 248.5t311.5 103.5q155 0 248 -103q73 -80 73 -187q0 -30 -6 -62l-43 -242h-135l43 242q3 17 3 33q0 66 -49 118q-62 66 -157 66q-111 0 -207.5 -65.5t-111.5 -151.5l-176 -997q-3 -15 -3 -29q0 -69 61 -119q74 -59 185 -59q96 0 180 59.5 t99 147.5l78 438h-209l18 112h344l-96 -550q-26 -142 -155.5 -240t-280.5 -98q-166 0 -275 98q-88 80 -88 190q0 24 4 50z" />
<glyph unicode="H" horiz-adv-x="921" d="M-49 0l295 1673h137l-143 -803h448l143 803h138l-297 -1673h-137l135 756h-449l-135 -756h-135z" />
<glyph unicode="I" horiz-adv-x="405" d="M-20 0l294 1673h144l-297 -1673h-141z" />
<glyph unicode="J" horiz-adv-x="595" d="M-133 0l22 123h16q171 0 257 43q89 44 106 147l242 1360h135l-242 -1360q-18 -104 -79 -176t-144.5 -104.5t-183.5 -32.5h-129z" />
<glyph unicode="K" horiz-adv-x="1028" d="M-45 0l295 1673h135l-133 -747q463 503 692 747h166l-596 -649l258 -1024h-131l-244 920l-178 -183l-131 -737h-133z" />
<glyph unicode="L" horiz-adv-x="698" d="M-45 0l295 1673h135l-272 -1538h411l-24 -135h-545z" />
<glyph unicode="M" horiz-adv-x="1241" d="M-45 0l295 1673h151l117 -1468l639 1468h127l-297 -1673h-137l197 1114l-478 -1114h-176l-106 1122l-199 -1122h-133z" />
<glyph unicode="N" horiz-adv-x="980" d="M-43 0l295 1673h151l254 -1290l230 1290h135l-297 -1673h-121l-276 1343l-238 -1343h-133z" />
<glyph unicode="O" d="M4 326l178 1009q26 142 166 240t305 98q167 0 273 -98q85 -79 86 -186q0 -26 -6 -54l-179 -1009q-17 -94 -88 -172.5t-172.5 -122t-210.5 -43.5q-164 0 -270 98q-86 80 -86 189q0 25 4 51zM139 326q-3 -15 -2 -30q-1 -69 59 -118q72 -59 183 -59q112 0 205 59.5 t108 147.5l178 1009q3 15 3 30q1 69 -59 118q-72 59 -183 59t-205 -59.5t-109 -147.5z" />
<glyph unicode="P" horiz-adv-x="841" d="M-41 0l295 1673h356q147 -1 233 -105q66 -80 66 -185q0 -32 -6 -66l-45 -250q-26 -148 -148 -251t-270 -103h-219l-127 -713h-135zM244 848h219q88 0 165.5 65.5t92.5 153.5l45 250q3 19 3 37q0 66 -42 118q-54 66 -141 66h-219z" />
<glyph unicode="Q" horiz-adv-x="995" d="M8 324l176 1009q17 95 88.5 173.5t173.5 121.5t211 43q170 0 273 -97q83 -78 83 -185q0 -27 -5 -56l-177 -1009q-18 -98 -92 -175.5t-198 -119.5l10 -217h-117l-12 176h-62q-167 0 -272 96q-84 78 -84 188q0 25 4 52zM143 324q-3 -16 -3 -32q0 -67 58 -116 q70 -59 222 -59l-17 264h109l20 -236q142 66 164 179l176 1009q3 16 3 32q0 66 -59 115q-74 60 -183 60q-108 0 -202.5 -59.5t-111.5 -147.5z" />
<glyph unicode="R" horiz-adv-x="929" d="M-41 0l295 1673h356q148 0 234 -104q67 -80 67 -186q0 -32 -6 -66l-45 -250q-12 -67 -63 -133t-127 -117q66 -50 96 -122q21 -51 21 -104q0 -22 -3 -44l-98 -547h-137l98 547q2 15 2 30q0 64 -46 115q-57 62 -146 62h-230l-133 -754h-135zM248 868h227q89 0 160.5 59.5 t85.5 139.5l45 250q6 30 6 58q0 56 -24 99q-35 64 -101 64h-280z" />
<glyph unicode="S" horiz-adv-x="923" d="M0 348l29 162h135l-29 -162q-3 -17 -3 -34q0 -66 49 -120q61 -66 157 -67q100 0 180.5 66t95.5 155l41 240q2 12 2 24q0 56 -52 95q-63 47 -161 47q-152 0 -246 92q-75 73 -76 172q0 25 5 53l43 246q26 148 154.5 252t285.5 104q158 0 248 -104q70 -81 70 -188 q0 -31 -6 -64l-29 -168h-135l28 168q4 20 4 39q0 68 -47 118q-60 64 -157 64q-101 0 -182.5 -66t-96.5 -155l-43 -246q-2 -14 -2 -27q0 -62 51 -104q62 -50 162 -55q148 -11 244 -93q78 -66 78 -160q0 -21 -4 -44l-41 -240q-26 -147 -155.5 -251.5t-283.5 -104.5 q-156 0 -247 104q-71 82 -71 190q0 30 5 62z" />
<glyph unicode="T" horiz-adv-x="882" d="M201 1538l24 135h725l-24 -135h-291l-273 -1538h-135l273 1538h-299z" />
<glyph unicode="U" horiz-adv-x="956" d="M16 340l236 1333h135l-235 -1333q-3 -17 -3 -34q-1 -64 47 -116q60 -64 154 -64.5t177 64t98 150.5l235 1333h137l-235 -1333q-25 -144 -153.5 -247t-282.5 -103q-152 0 -242 102q-72 82 -73 191q0 28 5 57z" />
<glyph unicode="V" horiz-adv-x="972" d="M201 1673h139l31 -1503l557 1503h139l-598 -1673h-258z" />
<glyph unicode="W" horiz-adv-x="1378" d="M174 0l49 1673h139l-24 -1233l434 1233h129l-4 -1233l414 1233h139l-545 -1673h-149l2 1235l-434 -1235h-150z" />
<glyph unicode="X" horiz-adv-x="1142" d="M-57 0l536 811q-43 149 -127 455.5t-112 406.5h153l197 -731q84 139 250.5 405t203.5 326h154q-402 -643 -545 -860l250 -813h-151l-207 688q-83 -138 -237 -363.5t-216 -324.5h-149z" />
<glyph unicode="Y" horiz-adv-x="1036" d="M186 1673h154l205 -680q80 124 236.5 361.5t209.5 318.5h154l-567 -866l-144 -807h-135l143 807q-40 129 -127 429t-129 437z" />
<glyph unicode="Z" horiz-adv-x="1019" d="M-23 0l27 158l875 1380h-672l24 135h830l-29 -157l-878 -1381h655l-25 -135h-807z" />
<glyph unicode="[" horiz-adv-x="608" d="M-94 -203l360 2048h436l-24 -137h-299l-313 -1774h299l-25 -137h-434z" />
<glyph unicode="\" horiz-adv-x="856" d="M205 1698h121l321 -1725h-119z" />
<glyph unicode="]" horiz-adv-x="608" d="M-94 -203l24 137h297l314 1774h-299l24 137h436l-362 -2048h-434z" />
<glyph unicode="^" horiz-adv-x="888" d="M12 1280l404 401h135l250 -401h-160l-182 270l-291 -270h-156z" />
<glyph unicode="_" horiz-adv-x="1181" d="M109 -102l14 82h946l-14 -82h-946z" />
<glyph unicode="`" horiz-adv-x="491" d="M82 1673h201l77 -291h-139z" />
<glyph unicode="a" horiz-adv-x="970" d="M-96 0l633 1673h182l53 -1673h-141l-23 291h-440l-125 -291h-139zM207 408h403l-24 1032q-309 -842 -379 -1032z" />
<glyph unicode="b" horiz-adv-x="1015" d="M-53 0l295 1673h399q149 0 233 -110q63 -83 63 -191q0 -36 -7 -74l-37 -211q-25 -143 -191 -256q86 -57 126 -143q28 -60 27 -127q0 -28 -5 -57l-19 -98q-29 -170 -163.5 -288t-294.5 -118h-426zM104 135h293q102 0 187 61.5t100 147.5l29 160q4 22 4 43q-1 75 -49 133 q-62 74 -162 74h-293zM233 868h265q88 0 165.5 65.5t92.5 153.5l49 273q2 13 2 25q-1 57 -47 100q-56 53 -144 53h-264z" />
<glyph unicode="c" horiz-adv-x="983" d="M18 342l170 975q26 146 169.5 251t312.5 105q157 0 248 -104q71 -81 71 -188q0 -31 -6 -64l-18 -111h-138l19 111q4 19 4 38q0 65 -48 117q-60 66 -155 66q-110 0 -207 -66.5t-114 -154.5l-170 -975q-3 -17 -3 -32q1 -67 59 -122q72 -67 183 -67q95 0 179.5 66.5 t101.5 154.5l20 119h138l-21 -119q-26 -148 -154.5 -252t-285.5 -104q-110 0 -197 48q-88 48 -131 130q-31 60 -31 127q0 25 4 51z" />
<glyph unicode="d" horiz-adv-x="897" d="M-51 0l295 1673h356q69 0 129.5 -25.5t101.5 -69.5t59 -108q10 -37 10 -77q0 -28 -5 -58l-174 -997q-26 -143 -150.5 -240.5t-267.5 -97.5h-354zM106 131h222q87 0 163 59t93 148l174 997q4 20 4 39q0 62 -43 108q-56 60 -144 60h-221z" />
<glyph unicode="e" horiz-adv-x="827" d="M-31 0l295 1673h643l-24 -135h-508l-88 -504h452l-20 -114h-453l-139 -785h508l-25 -135h-641z" />
<glyph unicode="f" horiz-adv-x="772" d="M-31 0l295 1673h643l-24 -135h-508l-148 -831h453l-21 -115h-452l-105 -592h-133z" />
<glyph unicode="g" horiz-adv-x="1001" d="M14 324l176 997q26 145 168.5 248.5t311.5 103.5q155 0 248 -103q73 -80 73 -187q0 -30 -6 -62l-43 -242h-135l43 242q3 17 3 33q0 66 -49 118q-62 66 -157 66q-111 0 -207.5 -65.5t-111.5 -151.5l-176 -997q-3 -15 -3 -29q0 -69 61 -119q74 -59 185 -59q96 0 180 59.5 t99 147.5l49 274h-209l18 113h345l-68 -387q-26 -142 -155.5 -240t-280.5 -98q-166 0 -275 98q-88 80 -88 190q0 24 4 50z" />
<glyph unicode="h" horiz-adv-x="921" d="M-49 0l295 1673h137l-143 -803h448l143 803h138l-297 -1673h-137l135 756h-449l-135 -756h-135z" />
<glyph unicode="i" horiz-adv-x="405" d="M-20 0l294 1673h144l-297 -1673h-141z" />
<glyph unicode="j" horiz-adv-x="595" d="M-133 0l22 123h16q171 0 257 43q89 44 106 147l242 1360h135l-242 -1360q-18 -104 -79 -176t-144.5 -104.5t-183.5 -32.5h-129z" />
<glyph unicode="k" horiz-adv-x="1028" d="M-45 0l295 1673h135l-133 -747q463 503 692 747h166l-596 -649l258 -1024h-131l-244 920l-178 -183l-131 -737h-133z" />
<glyph unicode="l" horiz-adv-x="698" d="M-45 0l295 1673h135l-272 -1538h411l-24 -135h-545z" />
<glyph unicode="m" horiz-adv-x="1241" d="M-45 0l295 1673h151l117 -1468l639 1468h127l-297 -1673h-137l194 1094l-475 -1094h-176l-110 1102l-195 -1102h-133z" />
<glyph unicode="n" horiz-adv-x="980" d="M-43 0l295 1673h151l254 -1290l230 1290h135l-297 -1673h-121l-280 1323l-234 -1323h-133z" />
<glyph unicode="o" d="M4 326l178 1009q26 142 166 240t305 98q167 0 273 -98q85 -79 86 -186q0 -26 -6 -54l-179 -1009q-17 -94 -88 -172.5t-172.5 -122t-210.5 -43.5q-164 0 -270 98q-86 80 -86 189q0 25 4 51zM139 326q-3 -15 -2 -30q-1 -69 59 -118q72 -59 183 -59q112 0 205 59.5 t108 147.5l178 1009q3 15 3 30q1 69 -59 118q-72 59 -183 59t-205 -59.5t-109 -147.5z" />
<glyph unicode="p" horiz-adv-x="866" d="M-31 0l295 1673h357q147 0 233 -105q65 -80 65 -185q0 -32 -6 -66l-73 -414q-26 -148 -148 -251t-270 -103h-219l-99 -549h-135zM225 684h219q88 0 165.5 65.5t92.5 153.5l74 414q3 19 3 37q0 65 -42 118q-54 66 -141 66h-219z" />
<glyph unicode="q" horiz-adv-x="995" d="M8 324l176 1009q17 95 88.5 173.5t173.5 121.5t211 43q170 0 273 -97q83 -78 83 -185q0 -27 -5 -56l-177 -1009q-18 -98 -92 -175.5t-198 -119.5l10 -217h-117l-12 176h-62q-167 0 -272 96q-84 78 -84 188q0 25 4 52zM143 324q-3 -16 -3 -32q0 -67 58 -116 q70 -59 222 -59l-17 264h109l20 -236q142 66 164 179l176 1009q3 16 3 32q0 66 -59 115q-74 60 -183 60q-108 0 -202.5 -59.5t-111.5 -147.5z" />
<glyph unicode="r" horiz-adv-x="950" d="M-31 0l295 1673h357q148 0 234 -104q66 -80 66 -186q0 -32 -6 -66l-73 -414q-12 -67 -63.5 -133t-127.5 -117q67 -51 97 -123q20 -49 20 -100q0 -24 -4 -47l-68 -383h-137l68 383q3 17 3 34q0 62 -45 111q-57 62 -147 62h-229l-105 -590h-135zM229 705h228q89 0 160 59 t85 139l74 414q4 23 4 45q0 64 -38 112q-52 64 -146 64h-219z" />
<glyph unicode="s" horiz-adv-x="923" d="M0 348l29 162h135l-29 -162q-3 -17 -3 -34q0 -66 49 -120q61 -66 157 -67q100 0 180.5 66t95.5 155l41 240q2 12 2 24q0 56 -52 95q-63 47 -161 47q-152 0 -246 92q-75 73 -76 172q0 25 5 53l43 246q26 148 154.5 252t285.5 104q158 0 248 -104q70 -81 70 -188 q0 -31 -6 -64l-29 -168h-135l28 168q4 20 4 39q0 68 -47 118q-60 64 -157 64q-101 0 -182.5 -66t-96.5 -155l-43 -246q-2 -14 -2 -27q0 -62 51 -104q62 -50 162 -55q148 -11 244 -93q78 -66 78 -160q0 -21 -4 -44l-41 -240q-26 -147 -155.5 -251.5t-283.5 -104.5 q-156 0 -247 104q-71 82 -71 190q0 30 5 62z" />
<glyph unicode="t" horiz-adv-x="882" d="M201 1538l24 135h725l-24 -135h-291l-273 -1538h-135l273 1538h-299z" />
<glyph unicode="u" horiz-adv-x="956" d="M16 340l236 1333h135l-235 -1333q-3 -17 -3 -34q-1 -64 47 -116q60 -64 154 -64.5t177 64t98 150.5l235 1333h137l-235 -1333q-25 -144 -153.5 -247t-282.5 -103q-152 0 -242 102q-72 82 -73 191q0 28 5 57z" />
<glyph unicode="v" horiz-adv-x="972" d="M201 1673h139l31 -1503l557 1503h139l-598 -1673h-258z" />
<glyph unicode="w" horiz-adv-x="1378" d="M174 0l49 1673h139l-24 -1233l434 1233h129l-4 -1233l414 1233h139l-545 -1673h-149l2 1235l-434 -1235h-150z" />
<glyph unicode="x" horiz-adv-x="1142" d="M-57 0l536 811q-43 149 -127 455.5t-112 406.5h153l193 -751q87 144 261.5 429.5t196.5 321.5h154q-402 -643 -545 -860l250 -813h-151l-205 709q-85 -145 -241 -380.5t-214 -328.5h-149z" />
<glyph unicode="y" horiz-adv-x="1036" d="M186 1673h154l205 -680q80 124 236.5 361.5t209.5 318.5h154l-567 -866l-144 -807h-135l143 807q-40 129 -127 429t-129 437z" />
<glyph unicode="z" horiz-adv-x="1019" d="M-23 0l27 158l875 1380h-672l24 135h830l-29 -157l-878 -1381h655l-25 -135h-807z" />
<glyph unicode="{" horiz-adv-x="634" d="M43 776l25 144q77 0 114.5 20t44.5 68l84 475q26 149 54 211q62 136 219 151q21 2 45 2h133l-23 -123h-69q-37 0 -54 -0.5t-44 -2.5t-39.5 -7.5t-28 -15t-23 -24.5t-10.5 -36q-26 -145 -60.5 -351.5t-50.5 -295.5q-10 -53 -34 -85.5t-80 -57.5q51 -26 63.5 -62t-0.5 -81 l-123 -703q-2 -13 -3 -23t2 -18t5 -14t9.5 -10.5t12.5 -8t18 -5.5t20.5 -3t25 -1.5t28 -0.5h32.5h8h78l-21 -115q-81 -6 -135 -6q-121 0 -175 63.5t-34 182.5l115 645q9 50 -21.5 69t-107.5 19z" />
<glyph unicode="|" horiz-adv-x="346" d="M-70 -184l353 2007h114l-354 -2007h-113z" />
<glyph unicode="}" horiz-adv-x="634" d="M-127 -197l21 115h77q40 0 54.5 0.5t41 2.5t36 7t23.5 14t20 24t10 36l120 682q10 62 30 98.5t69 65.5q-35 28 -44 69t3 95q23 136 63 347.5t52 278.5q7 41 -16 60.5t-53 22.5t-101 3h-70l22 123h134q62 0 105 -13t64.5 -43t32.5 -58t8 -78t-7.5 -81.5t-16.5 -90.5 l-84 -475q-7 -50 23.5 -69t107.5 -19l-25 -144q-77 0 -114.5 -20t-46.5 -68l-115 -645q-20 -119 -97 -182.5t-198 -63.5q-48 0 -129 6z" />
<glyph unicode="~" horiz-adv-x="825" d="M8 791q93 78 158.5 115.5t140.5 37.5q48 0 122.5 -37t117.5 -37t151 93l76 -93q-95 -83 -158 -120t-137 -37q-52 1 -130 37t-111 36q-45 0 -158 -94z" />
<glyph unicode="&#xa1;" horiz-adv-x="376" d="M-45 -410l264 1340h115l-209 -1340h-170zM225 1087l33 177h156l-33 -177h-156z" />
<glyph unicode="&#xa2;" horiz-adv-x="749" d="M-20 168l114 217q-41 47 -61 109t-10 120l69 387q25 139 140 237.5t253 98.5q69 0 119 -12q2 4 5.5 10.5t14 27.5t27.5 52h127l-86 -162q19 -17 33 -34t22 -38.5t14 -37t6.5 -43t1 -41t-4.5 -48t-7 -47t-9 -53.5h-117l8 47q8 39 7.5 99.5t-13.5 89.5l-412 -729 q42 -25 98 -25q88 0 166 66.5t93 154.5l18 99h117l-19 -99q-25 -139 -140 -237t-255 -98q-68 0 -127 16q-8 -13 -16 -28t-22.5 -42.5t-29.5 -56.5h-124zM144 589q-1 -39 17 -47q4 -1 9 -3l379 675q-50 9 -82 9q-86 0 -164.5 -67t-93.5 -155q-64 -359 -65 -412z" />
<glyph unicode="&#xa3;" horiz-adv-x="831" d="M-70 66q50 41 58 51l116 671h-90l21 117h90l72 402q25 147 147.5 251.5t269.5 104.5q148 0 234 -104t61 -252l-20 -111h-137l20 111q15 88 -39 154.5t-141 66.5q-86 0 -165.5 -67.5t-92.5 -153.5l-72 -402h402l-21 -117h-401l-111 -620q57 9 107.5 0t81 -23.5t68.5 -28.5 t69 -14q38 0 71.5 12.5t102.5 51.5l65 -76q-89 -71 -137.5 -95t-124.5 -24q-51 0 -133.5 37t-128.5 37q-49 0 -158 -94z" />
<glyph unicode="&#xa4;" horiz-adv-x="829" d="M-72 418l187 241q-42 93 -23 199q8 50 33 103.5t61 95.5q-1 4 -6.5 16.5t-31 71.5t-64.5 153h129l72 -149q97 43 186 43q97 0 170 -47l125 153h135l-192 -243q44 -86 26 -197q-19 -110 -96 -199q76 -166 109 -241h-132l-73 147q-86 -41 -189 -41q-102 0 -174 41 l-123 -147h-129zM217 858q-15 -84 30.5 -150.5t127.5 -66.5t150.5 66t84.5 151q14 83 -31.5 150t-127.5 67t-151 -67t-83 -150z" />
<glyph unicode="&#xa5;" horiz-adv-x="1036" d="M141 489l23 138h246l30 172h-245l24 137h160l-193 737h154l197 -721q324 513 454 721h154l-457 -737h162l-25 -137h-245l-31 -172h246l-23 -138h-246l-88 -489h-139l88 489h-246z" />
<glyph unicode="&#xa6;" horiz-adv-x="395" d="M-37 -184l137 790h115l-139 -790h-113zM176 1032l139 791h115l-139 -791h-115z" />
<glyph unicode="&#xa7;" horiz-adv-x="755" d="M-53 150l22 137h123l-22 -137q-13 -72 39.5 -119t128.5 -47q75 0 144.5 47t82.5 119l35 202q8 46 -49.5 72.5t-135.5 26.5q-145 0 -218.5 82.5t-47.5 226.5q25 177 135 268q-70 77 -53 186l37 207q15 83 75 149.5t140 101t160 34.5q124 0 209 -80t63 -205l-24 -143h-125 l24 143q13 74 -39.5 122t-128.5 48t-146 -48.5t-83 -121.5l-37 -207q-7 -44 49 -70t133 -26q75 0 142.5 -33t107.5 -98t25 -145l-19 -105q-20 -116 -129 -198q82 -75 62 -187l-35 -202q-22 -120 -137.5 -200.5t-237.5 -80.5q-123 0 -207.5 80t-62.5 201zM170 723 q-11 -65 46 -111.5t124 -46.5q76 0 145 48.5t82 123.5l19 105q13 70 -43 117t-127 47q-77 0 -146 -50t-82 -125z" />
<glyph unicode="&#xa8;" horiz-adv-x="624" d="M125 1509l27 162h114l-26 -162h-115zM356 1509l27 162h115l-27 -162h-115z" />
<glyph unicode="&#xa9;" horiz-adv-x="1773" d="M59 807q29 168 121.5 321.5t223 264t295.5 176t333 65.5t310 -65.5t233 -176t129.5 -264t9.5 -321.5q-30 -168 -123 -321.5t-223.5 -264t-295.5 -176t-333 -65.5t-309.5 65.5t-232.5 176t-129 264t-9 321.5zM139 807q-27 -153 7.5 -291.5t116.5 -238.5t210 -159t281 -59 q204 0 393.5 100t320 272t166.5 376q27 153 -8 291t-117.5 238t-210 159t-280.5 59t-301.5 -59t-266.5 -159t-201 -238.5t-110 -290.5zM481 621q-23 -137 72.5 -236.5t247.5 -99.5q138 0 254 99t139 237l18 98h-116l-19 -98q-15 -90 -91 -156t-167 -66q-104 0 -170 66.5 t-51 155.5l64 360q17 89 107 155t194 66q92 0 143.5 -65.5t34.5 -155.5l-15 -90h117l14 90q25 138 -56.5 237t-219.5 99q-152 0 -281.5 -99.5t-154.5 -236.5z" />
<glyph unicode="&#xab;" horiz-adv-x="989" d="M68 672l22 133l508 467l-31 -185l-372 -350q185 -257 247 -348l-30 -184zM471 672l23 133l507 467l-30 -185l-373 -350q202 -281 248 -348l-31 -184z" />
<glyph unicode="&#xac;" horiz-adv-x="964" d="M102 772l23 137h774l-63 -370h-138l41 233h-637z" />
<glyph unicode="&#xad;" horiz-adv-x="831" d="M104 752l23 116h596l-23 -116h-596z" />
<glyph unicode="&#xae;" horiz-adv-x="1773" d="M59 807q29 168 121.5 321.5t223 264t295.5 176t333 65.5t310 -65.5t233 -176t129.5 -264t9.5 -321.5q-30 -168 -123 -321.5t-223.5 -264t-295.5 -176t-333 -65.5t-309.5 65.5t-232.5 176t-129 264t-9 321.5zM139 807q-27 -153 7.5 -291.5t116.5 -238.5t210 -159t281 -59 q204 0 393.5 100t320 272t166.5 376q27 153 -8 291t-117.5 238t-210 159t-280.5 59t-301.5 -59t-266.5 -159t-201 -238.5t-110 -290.5zM496 260h137l65 371h138q87 0 141 -59t39 -138l-31 -174h137l31 174q14 74 -11.5 146.5t-84.5 124.5q69 52 115.5 117.5t58.5 131.5 l10 52q25 142 -60.5 244t-228.5 102h-264zM719 745l84 472h127q89 0 138 -60.5t34 -150.5l-10 -52q-14 -84 -83.5 -146.5t-154.5 -62.5h-135z" />
<glyph unicode="&#xb0;" horiz-adv-x="591" d="M80 1458q17 92 89 153.5t163 61.5q89 0 141 -63t35 -152q-15 -90 -88.5 -151.5t-163.5 -61.5q-92 0 -141.5 60.5t-34.5 152.5zM172 1458q-8 -47 22.5 -84t77.5 -37q49 0 92.5 37t51.5 84q9 49 -21 86t-80 37q-48 0 -91 -37t-52 -86z" />
<glyph unicode="&#xb1;" horiz-adv-x="907" d="M-37 0l21 117h768l-21 -117h-768zM92 752l21 116h329l58 326h116l-57 -326h328l-21 -116h-327l-60 -330h-117l60 330h-330z" />
<glyph unicode="&#xb2;" horiz-adv-x="901" d="M117 610l10 64q22 119 69 194t154 138q51 29 81 48t64.5 46.5t53 57t24.5 63.5l35 206q6 43 -21 76t-67 33q-44 0 -84.5 -34.5t-48.5 -74.5l-31 -174h-112l30 174q17 92 95.5 156t169.5 64q89 0 143 -66t39 -154l-35 -202q-10 -58 -32.5 -104t-58 -79.5t-62.5 -52.5 t-72 -45q-75 -42 -128 -100t-63 -123h344l-18 -111h-479z" />
<glyph unicode="&#xb3;" horiz-adv-x="878" d="M145 831l29 168h113l-29 -168q-7 -47 23 -77.5t75 -30.5t83.5 31t47.5 77l27 154q2 25 -7 42t-20.5 25.5t-35.5 13t-39 5t-43 0.5h-78l18 111h109q60 2 100 25t47 65l27 153q7 43 -21.5 76t-72.5 33q-45 0 -87 -33.5t-49 -75.5l-30 -172h-113l31 172q17 94 96.5 158 t171.5 64t148 -64t39 -158l-27 -153q-15 -87 -80 -146q45 -54 29 -141l-27 -154q-17 -94 -94.5 -157.5t-169.5 -63.5q-93 0 -150.5 64t-40.5 157z" />
<glyph unicode="&#xb4;" horiz-adv-x="491" d="M51 1382l180 291h201l-242 -291h-139z" />
<glyph unicode="&#xb6;" horiz-adv-x="1138" d="M166 -295l205 1161q-106 13 -161 98t-36 199q23 126 124.5 212.5t227.5 86.5h693l-23 -135h-145l-287 -1622h-135l286 1622h-327l-287 -1622h-135z" />
<glyph unicode="&#xb7;" horiz-adv-x="393" d="M96 694l35 209h156l-35 -209h-156z" />
<glyph unicode="&#xb8;" horiz-adv-x="299" d="M0 -244l45 64q44 -23 74 -23q31 0 55.5 15t28.5 45q5 27 -19 41.5t-53.5 13.5t-50.5 -2l22 125h68l-12 -66q59 5 93 -22.5t23 -93.5q-11 -62 -57 -92.5t-108 -30.5q-52 0 -109 26z" />
<glyph unicode="&#xb9;" horiz-adv-x="542" d="M127 1413l20 113h58q91 0 110 8q11 6 13 14l18 101h111l-183 -1037h-110l141 803q-21 -2 -129 -2h-49z" />
<glyph unicode="&#xbb;" horiz-adv-x="989" d="M-12 205l28 184q56 53 183.5 172t187.5 176l-246 350l31 185l344 -467l-22 -133zM389 205l31 184q56 53 183.5 172t187.5 176l-246 350l30 185l345 -467l-23 -133z" />
<glyph unicode="&#xbc;" horiz-adv-x="1353" d="M-53 -27h100l1358 1725h-105zM199 1413l20 113h55q94 0 113 8q13 5 14 14l19 101h110l-184 -1037h-110l141 803q-22 -2 -129 -2h-49zM553 205l20 114l451 717h135l-127 -721h68l-21 -110h-67l-35 -205h-111l35 205h-348zM696 315h226l92 521q-28 -45 -95.5 -151.5 t-120.5 -193.5t-102 -176z" />
<glyph unicode="&#xbd;" horiz-adv-x="1392" d="M-49 -27l1354 1725h104l-1358 -1725h-100zM203 1413l20 113h58q92 0 112 8q11 6 13 14l18 101h111l-185 -1037h-110l141 803q-20 -2 -129 -2h-49zM711 0l10 63q22 119 69 194t154 138q51 29 81 48t64.5 46.5t53 57t24.5 63.5l35 207q6 42 -22 75.5t-68 33.5 q-44 0 -84.5 -34.5t-46.5 -74.5l-31 -174h-112l30 174q15 91 94 155t171 64q89 0 143 -65.5t39 -153.5l-37 -203q-10 -58 -32.5 -104t-57.5 -79t-62.5 -52.5t-72.5 -44.5q-73 -43 -126 -101t-63 -122h344l-18 -111h-479z" />
<glyph unicode="&#xbe;" horiz-adv-x="1411" d="M-2 -27l1354 1725h104l-1358 -1725h-100zM63 858l31 168h113l-31 -168q-6 -48 23.5 -78t74.5 -30q46 0 85.5 31t46.5 77l28 154q1 25 -8 42t-21 25.5t-36 13t-39 5t-43 0.5h-78l20 110h109q60 2 99 25t46 65l29 154q7 43 -21.5 76t-72.5 33q-45 0 -86.5 -33.5 t-48.5 -75.5l-31 -172h-113l31 172q17 94 96 157.5t172 63.5q92 0 148 -63.5t39 -157.5l-29 -154q-15 -85 -78 -145q42 -50 29 -141l-29 -154q-15 -93 -93 -157t-171 -64q-92 0 -149 63.5t-42 157.5zM604 205l21 114l450 717h135l-127 -721h68l-21 -110h-67l-35 -205h-110 l34 205h-348zM748 315h225l92 521q-26 -42 -95 -151t-121 -195t-101 -175z" />
<glyph unicode="&#xbf;" horiz-adv-x="792" d="M-4 -53l35 207q12 66 43 124.5t72 101.5t89 83.5t95.5 79t88 78.5t71 92t40.5 110l19 105h117l-19 -105q-14 -76 -67 -154.5t-120.5 -142.5t-134 -123.5t-116.5 -120t-59 -110.5l-39 -225q-15 -88 32 -154.5t125 -66.5q94 0 168.5 63.5t91.5 157.5l31 168h135l-30 -168 q-26 -148 -149 -252.5t-271 -104.5q-129 0 -201.5 104.5t-46.5 252.5zM559 1087l33 177h156l-33 -177h-156z" />
<glyph unicode="&#xc0;" horiz-adv-x="952" d="M-139 0l631 1673h182l55 -1673h-141l-17 455h-399l-172 -455h-139zM211 571h362l-30 869q-55 -142 -163 -426.5t-169 -442.5zM391 2052h201l78 -291h-140z" />
<glyph unicode="&#xc1;" horiz-adv-x="952" d="M-139 0l631 1673h182l55 -1673h-141l-17 455h-399l-172 -455h-139zM211 571h362l-30 869q-55 -142 -163 -426.5t-169 -442.5zM528 1763l181 291h200l-241 -291h-140z" />
<glyph unicode="&#xc2;" horiz-adv-x="952" d="M-131 0h139l172 455h400l16 -455h141l-55 1673h-182zM219 571q61 158 169 442.5t163 426.5l31 -869h-363zM391 1761l207 203h109l127 -203h-103l-92 127l-139 -127h-109z" />
<glyph unicode="&#xc3;" horiz-adv-x="952" d="M-131 0l633 1673h182l53 -1673h-141l-14 455h-400l-174 -455h-139zM221 571h363l-33 869q-26 -67 -141.5 -371.5t-188.5 -497.5zM371 1841q36 34 53 49.5t50 33.5t61 18q34 0 99.5 -26t117.5 -26q44 0 98 62l39 -66q-79 -88 -178 -88q-27 0 -97.5 25.5t-93.5 25.5 q-19 0 -37.5 -8t-28.5 -15.5t-27 -23.5t-21 -20z" />
<glyph unicode="&#xc4;" horiz-adv-x="952" d="M-129 0l631 1673h182l55 -1673h-141l-16 455h-400l-172 -455h-139zM221 571h363l-31 869q-136 -351 -332 -869zM444 1782l29 162h115l-29 -162h-115zM676 1782l29 162h114l-28 -162h-115z" />
<glyph unicode="&#xc5;" horiz-adv-x="952" d="M-141 0l630 1673h183l55 -1673h-141l-15 455h-399l-172 -455h-141zM211 571h362l-32 869q-26 -67 -141.5 -371.5t-188.5 -497.5zM473 1915q12 66 65 111t119 45q65 0 102 -46t25 -110q-10 -66 -63.5 -111t-118.5 -45q-68 0 -104.5 44.5t-24.5 111.5zM539 1915 q-6 -37 15 -63.5t58 -26.5t69 26.5t38 63.5t-15.5 63.5t-58.5 26.5t-68.5 -26.5t-37.5 -63.5z" />
<glyph unicode="&#xc6;" horiz-adv-x="1466" d="M-111 0l988 1673h647l-25 -135h-526q-33 -190 -59 -340t-36.5 -211t-21.5 -117h469l-18 -114h-469q-21 -118 -56 -302.5t-59 -318.5h528l-24 -135h-668l74 414h-338l-262 -414h-144zM379 551h280l121 686z" />
<glyph unicode="&#xc7;" horiz-adv-x="983" d="M41 342l170 975q17 96 89.5 178.5t177 130t214.5 47.5q157 0 248.5 -104t65.5 -252l-19 -111h-137l18 111q17 88 -43 154.5t-155 66.5q-110 0 -207.5 -66.5t-114.5 -154.5l-170 -975q-15 -88 58.5 -154.5t183.5 -66.5q95 0 179 66.5t99 154.5l21 119h137l-20 -119 q-25 -139 -143 -241t-265 -113l-4 -19q59 5 94.5 -23t22.5 -93q-10 -62 -56 -92.5t-108 -30.5q-51 0 -111 26l39 64q44 -23 82 -23q29 0 54 16.5t28 39.5q9 50 -44 51q-21 1 -81 -10l16 94q-104 7 -183 57t-115.5 129t-20.5 168z" />
<glyph unicode="&#xc8;" horiz-adv-x="796" d="M-84 0l293 1673h643l-23 -135h-507l-119 -668h452l-20 -114h-453l-108 -621h508l-25 -135h-641zM377 2052h201l77 -291h-139z" />
<glyph unicode="&#xc9;" horiz-adv-x="796" d="M-84 0l293 1673h643l-23 -135h-507l-119 -668h452l-20 -114h-453l-108 -621h508l-25 -135h-641zM471 1761l180 291h201l-242 -291h-139z" />
<glyph unicode="&#xca;" horiz-adv-x="796" d="M-76 0h641l25 135h-508l108 621h453l21 114h-453l117 668h508l24 135h-643zM313 1761l207 203h109l127 -203h-103l-92 127l-139 -127h-109z" />
<glyph unicode="&#xcb;" horiz-adv-x="796" d="M-74 0l293 1673h643l-24 -135h-508l-117 -668h453l-21 -114h-452l-111 -621h508l-23 -135h-641zM385 1782l29 162h114l-28 -162h-115zM616 1782l29 162h115l-29 -162h-115z" />
<glyph unicode="&#xcc;" horiz-adv-x="405" d="M-53 0l293 1673h143l-295 -1673h-141zM106 2052h201l78 -291h-139z" />
<glyph unicode="&#xcd;" horiz-adv-x="405" d="M-53 0l293 1673h143l-295 -1673h-141zM252 1761l180 291h201l-242 -291h-139z" />
<glyph unicode="&#xce;" horiz-adv-x="405" d="M-45 0h141l295 1673h-143zM119 1763l207 203h108l127 -203h-102l-92 127l-140 -127h-108z" />
<glyph unicode="&#xcf;" horiz-adv-x="405" d="M-43 0l293 1673h143l-295 -1673h-141zM172 1784l29 162h114l-28 -162h-115zM403 1784l29 162h115l-29 -162h-115z" />
<glyph unicode="&#xd0;" horiz-adv-x="985" d="M35 0l133 752h-131l20 116h131l144 805h356q69 0 129.5 -25.5t101.5 -70t59 -108t5 -134.5l-174 -997q-26 -143 -150.5 -240.5t-267.5 -97.5h-356zM195 131h221q87 0 163 59t93 148l174 997q17 88 -38.5 147.5t-143.5 59.5h-222l-118 -674h270l-21 -116h-270z" />
<glyph unicode="&#xd1;" horiz-adv-x="980" d="M-68 0l293 1673h152l256 -1290l227 1290h135l-295 -1673h-120l-277 1343l-237 -1343h-134zM385 1843q36 34 53 49.5t50 33.5t61 18q34 0 99.5 -26t117.5 -26q44 0 98 62l39 -66q-79 -88 -178 -88q-27 0 -97 25.5t-93 25.5q-19 0 -38 -8t-28.5 -15t-27 -24t-21.5 -20z" />
<glyph unicode="&#xd2;" d="M-27 326l177 1009q16 94 88 172.5t174 122t209 43.5q167 0 271.5 -97.5t80.5 -240.5l-178 -1009q-17 -94 -88 -172.5t-172.5 -122t-210.5 -43.5q-107 0 -193.5 43.5t-130.5 122t-27 172.5zM106 326q-17 -88 56 -147.5t184 -59.5t203.5 59t109.5 148l179 1009 q15 89 -57.5 148t-184.5 59q-111 0 -203.5 -59.5t-107.5 -147.5zM406 2052h200l78 -291h-139z" />
<glyph unicode="&#xd3;" d="M-27 326l177 1009q16 94 88 172.5t174 122t209 43.5q167 0 271.5 -97.5t80.5 -240.5l-178 -1009q-17 -94 -88 -172.5t-172.5 -122t-210.5 -43.5q-107 0 -193.5 43.5t-130.5 122t-27 172.5zM106 326q-17 -88 56 -147.5t184 -59.5t203.5 59t109.5 148l179 1009 q15 89 -57.5 148t-184.5 59q-111 0 -203.5 -59.5t-107.5 -147.5zM555 1761l180 291h201l-242 -291h-139z" />
<glyph unicode="&#xd4;" d="M-18 326q-17 -94 26 -172.5t129 -122t193 -43.5q109 0 211 43.5t173.5 122t88.5 172.5l176 1009q17 94 -26 172.5t-129 122t-195 43.5q-165 0 -306 -98t-167 -240zM115 326l176 1009q17 89 110 148t203 59q112 0 184.5 -59.5t55.5 -147.5l-176 -1009q-17 -89 -110 -148 t-204 -59t-183.5 59.5t-55.5 147.5zM422 1761l209 203h108l125 -203h-102l-92 127l-140 -127h-108z" />
<glyph unicode="&#xd5;" d="M-18 326l176 1009q26 142 166 240t305 98q167 0 272.5 -98t79.5 -240l-178 -1009q-17 -94 -88 -172.5t-172.5 -122t-210.5 -43.5q-107 0 -193.5 43.5t-130 122t-26.5 172.5zM115 326q-15 -89 57 -148t182 -59q112 0 205.5 59.5t108.5 147.5l178 1009q15 89 -57 148 t-183 59t-204.5 -59.5t-108.5 -147.5zM403 1841q38 37 53 50.5t48 32t61 18.5q34 0 100.5 -26t118.5 -26q45 0 97 62l39 -66q-79 -88 -177 -88q-27 0 -98 25.5t-94 25.5q-19 0 -37.5 -7.5t-28.5 -16t-26 -23.5t-23 -20z" />
<glyph unicode="&#xd6;" d="M-18 326l176 1009q26 142 166 240t305 98q167 0 272.5 -98t79.5 -240l-178 -1009q-24 -142 -164 -240t-307 -98q-164 0 -269 98t-81 240zM115 326q-15 -88 58 -147.5t183 -59.5q112 0 204.5 59t107.5 148l178 1009q17 88 -55.5 147.5t-184.5 59.5q-110 0 -203 -59 t-110 -148zM477 1782l29 162h115l-29 -162h-115zM709 1782l28 162h115l-29 -162h-114z" />
<glyph unicode="&#xd7;" horiz-adv-x="835" d="M59 578l275 233l-191 229l97 82l192 -229l273 231l67 -82l-272 -231l192 -233l-100 -84l-191 233l-274 -233z" />
<glyph unicode="&#xd8;" d="M-125 -27l139 217q-22 64 -10 136l178 1009q16 94 88 172.5t174 122t209 43.5q158 0 262 -90l74 115h119l-127 -197q40 -77 25 -166l-179 -1009q-17 -94 -88 -172.5t-172.5 -122t-210.5 -43.5q-87 0 -161.5 29.5t-122.5 80.5l-80 -125h-117zM154 410l651 1030 q-1 44 -56 73t-120 29q-111 0 -204 -59.5t-108 -147.5zM190 254q6 -59 59.5 -97t129.5 -38q111 0 203.5 59t109.5 148l176 1003z" />
<glyph unicode="&#xd9;" horiz-adv-x="956" d="M-14 340l233 1333h135l-235 -1333q-15 -86 43.5 -150.5t152.5 -64.5t178 64.5t99 150.5l235 1333h138l-236 -1333q-26 -145 -154 -247.5t-282 -102.5q-152 0 -242.5 102.5t-64.5 247.5zM387 2054h201l78 -291h-140z" />
<glyph unicode="&#xda;" horiz-adv-x="956" d="M-14 340l233 1333h135l-235 -1333q-15 -86 43.5 -150.5t152.5 -64.5t178 64.5t99 150.5l235 1333h138l-236 -1333q-26 -145 -154 -247.5t-282 -102.5q-152 0 -242.5 102.5t-64.5 247.5zM526 1761l181 291h200l-241 -291h-140z" />
<glyph unicode="&#xdb;" horiz-adv-x="956" d="M-6 340q-26 -145 64.5 -247.5t242.5 -102.5q154 0 282 102.5t154 247.5l234 1333h-137l-234 -1333q-15 -86 -98.5 -150.5t-177.5 -64.5t-153 64.5t-44 150.5l233 1333h-135zM393 1761l207 203h109l127 -203h-103l-92 127l-139 -127h-109z" />
<glyph unicode="&#xdc;" horiz-adv-x="956" d="M-4 340l231 1333h135l-233 -1333q-15 -86 44 -150.5t153 -64.5t177.5 64.5t98.5 150.5l234 1333h137l-234 -1333q-17 -95 -82.5 -175.5t-160 -127.5t-195.5 -47q-152 0 -241.5 102.5t-63.5 247.5zM449 1782l28 162h115l-29 -162h-114zM680 1782l29 162h114l-28 -162h-115 z" />
<glyph unicode="&#xdd;" horiz-adv-x="1036" d="M152 1673h153l207 -680q65 101 218 334t226 346h154l-565 -866l-144 -807h-135l144 807q-39 128 -127 428t-131 438zM569 1761l181 291h200l-241 -291h-140z" />
<glyph unicode="&#xde;" horiz-adv-x="845" d="M-31 0l295 1673h137l-69 -389h219q146 0 232.5 -105t60.5 -251l-43 -252q-26 -147 -149 -250.5t-271 -103.5h-219l-58 -322h-135zM186 459h220q89 0 165 63t93 154l43 252q15 88 -39 153.5t-142 65.5h-219z" />
<glyph unicode="&#xdf;" horiz-adv-x="1763" d="M0 348l29 162h135l-29 -162q-15 -88 46 -154.5t157 -66.5q100 0 180.5 66t95.5 155l41 240q13 72 -50 119t-161 47q-152 0 -246.5 91.5t-70.5 225.5l43 246q26 148 154.5 252t285.5 104t247.5 -104t64.5 -252l-29 -168h-135l28 168q17 92 -43 156.5t-157 64.5 q-101 0 -182.5 -66t-96.5 -155l-43 -246q-13 -80 49 -130.5t162 -55.5q148 -11 244 -92.5t74 -204.5l-41 -240q-26 -147 -155.5 -251.5t-283.5 -104.5q-156 0 -247 104t-66 252zM844 348l28 162h136l-29 -162q-15 -88 46 -154.5t157 -66.5q100 0 180.5 66t95.5 155l41 240 q13 72 -50 119t-161 47q-152 0 -246.5 91.5t-70.5 225.5l43 246q26 148 154.5 252t285.5 104q156 0 246.5 -104t64.5 -252l-28 -168h-135l28 168q17 92 -43 156.5t-157 64.5q-101 0 -182.5 -66t-96.5 -155l-43 -246q-13 -80 49 -130.5t162 -55.5q148 -11 243.5 -92.5 t73.5 -204.5l-41 -240q-26 -147 -155 -251.5t-283 -104.5q-157 0 -248 104t-65 252z" />
<glyph unicode="&#xe0;" horiz-adv-x="970" d="M-129 0l631 1673h182l55 -1673h-141l-25 291h-440l-123 -291h-139zM172 408h403l-22 1032q-127 -340 -381 -1032zM393 2052h201l78 -291h-140z" />
<glyph unicode="&#xe1;" horiz-adv-x="970" d="M-129 0l631 1673h182l55 -1673h-141l-25 291h-440l-123 -291h-139zM172 408h403l-22 1032q-127 -340 -381 -1032zM535 1761l180 291h200l-241 -291h-139z" />
<glyph unicode="&#xe2;" horiz-adv-x="970" d="M-121 0h139l123 291h441l24 -291h142l-56 1673h-182zM180 408q254 692 381 1032l23 -1032h-404zM395 1761l207 203h109l127 -203h-103l-92 127l-139 -127h-109z" />
<glyph unicode="&#xe3;" horiz-adv-x="970" d="M-121 0l633 1673h182l54 -1673h-142l-22 291h-441l-125 -291h-139zM182 408h404l-25 1032q-309 -842 -379 -1032zM379 1841q36 34 53 49.5t50 33.5t61 18q34 0 99.5 -26t117.5 -26q44 0 98 62l39 -66q-79 -88 -178 -88q-27 0 -97.5 25.5t-93.5 25.5q-19 0 -37.5 -8 t-28.5 -15.5t-27 -23.5t-21 -20z" />
<glyph unicode="&#xe4;" horiz-adv-x="970" d="M-119 0l631 1673h182l56 -1673h-142l-24 291h-441l-123 -291h-139zM182 408h404l-23 1032q-127 -340 -381 -1032zM453 1782l28 162h115l-29 -162h-114zM684 1782l29 162h114l-28 -162h-115z" />
<glyph unicode="&#xe5;" horiz-adv-x="970" d="M-131 0l631 1673h182l55 -1673h-141l-25 291h-440l-123 -291h-139zM170 408h403l-22 1032q-127 -340 -381 -1032zM483 1917q12 66 65.5 111t119.5 45q65 0 102 -46t25 -110q-10 -65 -64 -110.5t-119 -45.5q-67 0 -103.5 44t-25.5 112zM549 1917q-6 -37 16.5 -63.5 t59.5 -26.5t67.5 26.5t36.5 63.5q7 37 -15 63.5t-59 26.5t-67.5 -26.5t-38.5 -63.5z" />
<glyph unicode="&#xe6;" horiz-adv-x="1466" d="M-111 0l988 1673h647l-25 -135h-526q-33 -190 -59 -340t-36.5 -211t-21.5 -117h469l-18 -114h-469q-21 -118 -56 -302.5t-59 -318.5h528l-24 -135h-668l74 414h-338l-262 -414h-144zM379 551h280l121 686z" />
<glyph unicode="&#xe7;" horiz-adv-x="983" d="M41 342l170 975q17 96 89.5 178.5t177 130t214.5 47.5q157 0 248.5 -104t65.5 -252l-19 -111h-137l18 111q17 88 -43 154.5t-155 66.5q-110 0 -207.5 -66.5t-114.5 -154.5l-170 -975q-15 -88 58.5 -154.5t183.5 -66.5q95 0 179 66.5t99 154.5l21 119h137l-20 -119 q-25 -139 -143 -241t-265 -113l-4 -19q59 5 94.5 -23t22.5 -93q-10 -62 -56 -92.5t-108 -30.5q-51 0 -111 26l39 64q44 -23 82 -23q29 0 54 16.5t28 39.5q9 50 -44 51q-21 1 -81 -10l16 94q-104 7 -183 57t-115.5 129t-20.5 168z" />
<glyph unicode="&#xe8;" horiz-adv-x="827" d="M-63 0l292 1673h643l-22 -135h-508l-90 -504h453l-21 -114h-453l-137 -785h508l-24 -135h-641zM387 2052h201l78 -291h-140z" />
<glyph unicode="&#xe9;" horiz-adv-x="827" d="M-63 0l292 1673h643l-24 -135h-508l-88 -504h453l-21 -114h-453l-137 -785h508l-24 -135h-641zM467 1763l180 291h201l-242 -291h-139z" />
<glyph unicode="&#xea;" horiz-adv-x="827" d="M-55 0h641l24 135h-508l138 785h452l21 114h-453l88 504h508l25 135h-643zM362 1761l207 203h109l127 -203h-103l-92 127l-139 -127h-109z" />
<glyph unicode="&#xeb;" horiz-adv-x="827" d="M-53 0l293 1673h643l-25 -135h-508l-88 -504h453l-21 -114h-452l-140 -785h508l-22 -135h-641zM412 1782l28 162h115l-29 -162h-114zM643 1782l29 162h114l-28 -162h-115z" />
<glyph unicode="&#xec;" horiz-adv-x="405" d="M-53 0l293 1673h143l-295 -1673h-141zM106 2052h201l78 -291h-139z" />
<glyph unicode="&#xed;" horiz-adv-x="405" d="M-53 0l293 1673h143l-295 -1673h-141zM252 1761l180 291h201l-242 -291h-139z" />
<glyph unicode="&#xee;" horiz-adv-x="405" d="M-45 0h141l295 1673h-143zM119 1763l207 203h108l127 -203h-102l-92 127l-140 -127h-108z" />
<glyph unicode="&#xef;" horiz-adv-x="405" d="M-43 0l293 1673h143l-295 -1673h-141zM172 1784l29 162h114l-28 -162h-115zM403 1784l29 162h115l-29 -162h-115z" />
<glyph unicode="&#xf0;" horiz-adv-x="985" d="M35 0l133 752h-131l20 116h131l144 805h356q69 0 129.5 -25.5t101.5 -70t59 -108t5 -134.5l-174 -997q-26 -143 -150.5 -240.5t-267.5 -97.5h-356zM195 131h221q87 0 163 59t93 148l174 997q17 88 -38.5 147.5t-143.5 59.5h-222l-118 -674h270l-21 -116h-270z" />
<glyph unicode="&#xf1;" horiz-adv-x="980" d="M-68 0l293 1673h152l256 -1290l227 1290h135l-295 -1673h-120l-277 1343l-237 -1343h-134zM385 1843q36 34 53 49.5t50 33.5t61 18q34 0 99.5 -26t117.5 -26q44 0 98 62l39 -66q-79 -88 -178 -88q-27 0 -97 25.5t-93 25.5q-19 0 -38 -8t-28.5 -15t-27 -24t-21.5 -20z" />
<glyph unicode="&#xf2;" d="M-27 326l177 1009q16 94 88 172.5t174 122t209 43.5q167 0 271.5 -97.5t80.5 -240.5l-178 -1009q-17 -94 -88 -172.5t-172.5 -122t-210.5 -43.5q-107 0 -193.5 43.5t-130.5 122t-27 172.5zM106 326q-17 -88 56 -147.5t184 -59.5t203.5 59t109.5 148l179 1009 q15 89 -57.5 148t-184.5 59q-111 0 -203.5 -59.5t-107.5 -147.5zM406 2052h200l78 -291h-139z" />
<glyph unicode="&#xf3;" d="M-27 326l177 1009q16 94 88 172.5t174 122t209 43.5q167 0 271.5 -97.5t80.5 -240.5l-178 -1009q-17 -94 -88 -172.5t-172.5 -122t-210.5 -43.5q-107 0 -193.5 43.5t-130.5 122t-27 172.5zM106 326q-17 -88 56 -147.5t184 -59.5t203.5 59t109.5 148l179 1009 q15 89 -57.5 148t-184.5 59q-111 0 -203.5 -59.5t-107.5 -147.5zM555 1761l180 291h201l-242 -291h-139z" />
<glyph unicode="&#xf4;" d="M-18 326q-17 -94 26 -172.5t129 -122t193 -43.5q109 0 211 43.5t173.5 122t88.5 172.5l176 1009q17 94 -26 172.5t-129 122t-195 43.5q-165 0 -306 -98t-167 -240zM115 326l176 1009q17 89 110 148t203 59q112 0 184.5 -59.5t55.5 -147.5l-176 -1009q-17 -89 -110 -148 t-204 -59t-183.5 59.5t-55.5 147.5zM422 1761l209 203h108l125 -203h-102l-92 127l-140 -127h-108z" />
<glyph unicode="&#xf5;" d="M-18 326l176 1009q26 142 166 240t305 98q167 0 272.5 -98t79.5 -240l-178 -1009q-17 -94 -88 -172.5t-172.5 -122t-210.5 -43.5q-107 0 -193.5 43.5t-130 122t-26.5 172.5zM115 326q-15 -89 57 -148t182 -59q112 0 205.5 59.5t108.5 147.5l178 1009q15 89 -57 148 t-183 59t-204.5 -59.5t-108.5 -147.5zM403 1841q38 37 53 50.5t48 32t61 18.5q34 0 100.5 -26t118.5 -26q45 0 97 62l39 -66q-79 -88 -177 -88q-27 0 -98 25.5t-94 25.5q-19 0 -37.5 -7.5t-28.5 -16t-26 -23.5t-23 -20z" />
<glyph unicode="&#xf6;" d="M-18 326l176 1009q26 142 166 240t305 98q167 0 272.5 -98t79.5 -240l-178 -1009q-24 -142 -164 -240t-307 -98q-164 0 -269 98t-81 240zM115 326q-15 -88 58 -147.5t183 -59.5q112 0 204.5 59t107.5 148l178 1009q17 88 -55.5 147.5t-184.5 59.5q-110 0 -203 -59 t-110 -148zM477 1782l29 162h115l-29 -162h-115zM709 1782l28 162h115l-29 -162h-114z" />
<glyph unicode="&#xf7;" horiz-adv-x="831" d="M104 752l21 116h596l-21 -116h-596zM254 391l37 209h155l-36 -209h-156zM367 1026l36 209h156l-37 -209h-155z" />
<glyph unicode="&#xf8;" d="M-125 -27l139 217q-22 64 -10 136l178 1009q16 94 88 172.5t174 122t209 43.5q158 0 262 -90l74 115h119l-127 -197q40 -77 25 -166l-179 -1009q-17 -94 -88 -172.5t-172.5 -122t-210.5 -43.5q-87 0 -161.5 29.5t-122.5 80.5l-80 -125h-117zM154 410l651 1030 q-1 44 -56 73t-120 29q-111 0 -204 -59.5t-108 -147.5zM190 254q6 -59 59.5 -97t129.5 -38q111 0 203.5 59t109.5 148l176 1003z" />
<glyph unicode="&#xf9;" horiz-adv-x="956" d="M-14 340l233 1333h135l-235 -1333q-15 -86 43.5 -150.5t152.5 -64.5t178 64.5t99 150.5l235 1333h138l-236 -1333q-26 -145 -154 -247.5t-282 -102.5q-152 0 -242.5 102.5t-64.5 247.5zM387 2054h201l78 -291h-140z" />
<glyph unicode="&#xfa;" horiz-adv-x="956" d="M-14 340l233 1333h135l-235 -1333q-15 -86 43.5 -150.5t152.5 -64.5t178 64.5t99 150.5l235 1333h138l-236 -1333q-26 -145 -154 -247.5t-282 -102.5q-152 0 -242.5 102.5t-64.5 247.5zM526 1761l181 291h200l-241 -291h-140z" />
<glyph unicode="&#xfb;" horiz-adv-x="956" d="M-6 340q-26 -145 64.5 -247.5t242.5 -102.5q154 0 282 102.5t154 247.5l234 1333h-137l-234 -1333q-15 -86 -98.5 -150.5t-177.5 -64.5t-153 64.5t-44 150.5l233 1333h-135zM393 1761l207 203h109l127 -203h-103l-92 127l-139 -127h-109z" />
<glyph unicode="&#xfc;" horiz-adv-x="956" d="M-4 340l231 1333h135l-233 -1333q-15 -86 44 -150.5t153 -64.5t177.5 64.5t98.5 150.5l234 1333h137l-234 -1333q-17 -95 -82.5 -175.5t-160 -127.5t-195.5 -47q-152 0 -241.5 102.5t-63.5 247.5zM449 1782l28 162h115l-29 -162h-114zM680 1782l29 162h114l-28 -162h-115 z" />
<glyph unicode="&#xfd;" horiz-adv-x="1036" d="M152 1673h153l207 -680q65 101 218 334t226 346h154l-565 -866l-144 -807h-135l144 807q-39 128 -127 428t-131 438zM569 1761l181 291h200l-241 -291h-140z" />
<glyph unicode="&#xfe;" horiz-adv-x="845" d="M-31 0l295 1673h137l-69 -389h219q146 0 232.5 -105t60.5 -251l-43 -252q-26 -147 -149 -250.5t-271 -103.5h-219l-58 -322h-135zM186 459h220q89 0 165 63t93 154l43 252q15 88 -39 153.5t-142 65.5h-219z" />
<glyph unicode="&#xff;" horiz-adv-x="1036" d="M162 1673h153l205 -680q79 122 234.5 357.5t212.5 322.5h153l-567 -866l-141 -807h-136l142 807q-40 129 -127 429t-129 437zM485 1784l29 162h115l-29 -162h-115zM717 1784l28 162h115l-29 -162h-114z" />
<glyph unicode="&#x152;" horiz-adv-x="1468" d="M20 338l175 997q26 142 167 240t306 98q118 0 204 -51l11 51h643l-25 -135h-508l-119 -668h453l-18 -114h-453l-111 -621h508l-24 -135h-643l10 49q-104 -49 -225 -49q-164 0 -269.5 98t-81.5 240zM156 338q-17 -88 55.5 -147.5t183.5 -59.5q88 0 161.5 59t90.5 148 l176 1003q12 86 -41.5 143.5t-138.5 57.5q-110 0 -203 -59t-110 -148z" />
<glyph unicode="&#x153;" horiz-adv-x="1468" d="M20 338l175 997q26 142 167 240t306 98q118 0 204 -51l11 51h643l-25 -135h-508l-119 -668h453l-22 -135h-453l-107 -600h508l-24 -135h-643l10 49q-104 -49 -225 -49q-164 0 -269.5 98t-81.5 240zM156 338q-17 -88 55.5 -147.5t183.5 -59.5q88 0 161.5 59t90.5 148 l176 1003q12 86 -41.5 143.5t-138.5 57.5q-110 0 -203 -59t-110 -148z" />
<glyph unicode="&#x178;" horiz-adv-x="1036" d="M162 1673h153l205 -680q79 122 234.5 357.5t212.5 322.5h153l-567 -866l-141 -807h-136l142 807q-40 129 -127 429t-129 437zM485 1784l29 162h115l-29 -162h-115zM717 1784l28 162h115l-29 -162h-114z" />
<glyph unicode="&#x2c6;" horiz-adv-x="561" d="M41 1470l207 203h108l127 -203h-102l-92 127l-139 -127h-109z" />
<glyph unicode="&#x2dc;" horiz-adv-x="690" d="M82 1538q34 33 52.5 49t51 33.5t60.5 17.5q34 0 100.5 -25.5t118.5 -25.5q42 0 96 62l39 -66q-79 -88 -176 -88q-27 0 -98.5 25.5t-94.5 25.5q-19 0 -37.5 -8t-28.5 -15.5t-27 -23.5t-21 -20z" />
<glyph unicode="&#x2000;" horiz-adv-x="1036" />
<glyph unicode="&#x2001;" horiz-adv-x="2073" />
<glyph unicode="&#x2002;" horiz-adv-x="1036" />
<glyph unicode="&#x2003;" horiz-adv-x="2073" />
<glyph unicode="&#x2004;" horiz-adv-x="691" />
<glyph unicode="&#x2005;" horiz-adv-x="518" />
<glyph unicode="&#x2006;" horiz-adv-x="345" />
<glyph unicode="&#x2007;" horiz-adv-x="345" />
<glyph unicode="&#x2008;" horiz-adv-x="259" />
<glyph unicode="&#x2009;" horiz-adv-x="414" />
<glyph unicode="&#x200a;" horiz-adv-x="115" />
<glyph unicode="&#x2010;" horiz-adv-x="831" d="M104 752l23 116h596l-23 -116h-596z" />
<glyph unicode="&#x2011;" horiz-adv-x="831" d="M104 752l23 116h596l-23 -116h-596z" />
<glyph unicode="&#x2012;" horiz-adv-x="831" d="M104 752l23 116h596l-23 -116h-596z" />
<glyph unicode="&#x2013;" horiz-adv-x="964" d="M82 752l22 116h775l-23 -116h-774z" />
<glyph unicode="&#x2014;" horiz-adv-x="1210" d="M104 752l23 116h975l-23 -116h-975z" />
<glyph unicode="&#x2018;" horiz-adv-x="436" d="M98 1305l41 233l88 135h76l-88 -135h100l-41 -233h-176z" />
<glyph unicode="&#x2019;" horiz-adv-x="436" d="M121 1440l41 233h176l-41 -233l-88 -135h-76l88 135h-100z" />
<glyph unicode="&#x201a;" horiz-adv-x="430" d="M119 0l41 233h176l-41 -233l-84 -115h-76l84 115h-100z" />
<glyph unicode="&#x201c;" horiz-adv-x="714" d="M96 1305l41 233l88 135h76l-88 -135h100l-41 -233h-176zM377 1305l41 233l88 135h76l-88 -135h100l-41 -233h-176z" />
<glyph unicode="&#x201d;" horiz-adv-x="714" d="M119 1440l41 233h176l-41 -233l-88 -135h-76l88 135h-100zM399 1440l41 233h176l-41 -233l-88 -135h-75l88 135h-101z" />
<glyph unicode="&#x201e;" horiz-adv-x="714" d="M117 0l41 233h176l-41 -233l-84 -115h-76l84 115h-100zM397 0l41 233h176l-41 -233l-84 -115h-75l84 115h-101z" />
<glyph unicode="&#x2022;" horiz-adv-x="532" d="M104 807q10 64 66 112t121 48q68 0 107.5 -46.5t29.5 -113.5q-12 -68 -68.5 -116t-123.5 -48t-105.5 48t-26.5 116z" />
<glyph unicode="&#x2026;" horiz-adv-x="1179" d="M96 0l35 209h156l-35 -209h-156zM489 0l35 209h156l-35 -209h-156zM883 0l35 209h155l-35 -209h-155z" />
<glyph unicode="&#x202f;" horiz-adv-x="414" />
<glyph unicode="&#x2039;" horiz-adv-x="518" d="M33 672l22 133l508 467l-31 -185l-372 -350q202 -281 248 -348l-31 -184z" />
<glyph unicode="&#x203a;" horiz-adv-x="518" d="M-47 205l31 184q66 63 201.5 191t166.5 157l-246 350l31 185l344 -467l-22 -133z" />
<glyph unicode="&#x205f;" horiz-adv-x="518" />
<glyph unicode="&#x20ac;" horiz-adv-x="1087" d="M37 596l20 117h131l35 192h-131l21 117h131l51 295q17 96 89.5 178.5t177 130t214.5 47.5q157 0 248.5 -104t65.5 -252l-25 -150h-137l24 150q17 88 -43 154.5t-155 66.5q-110 0 -207.5 -66.5t-114.5 -154.5l-51 -295h362l-20 -117h-363l-34 -192h362l-20 -117h-363 l-43 -254q-17 -87 56 -154t184 -67q95 0 179 66.5t101 154.5l25 141h137l-24 -141q-26 -148 -155 -252t-286 -104q-110 0 -197.5 47.5t-130.5 130t-26 178.5l43 254h-131z" />
<glyph unicode="&#x2122;" horiz-adv-x="1343" d="M174 1595l14 78h437l-15 -78h-178l-164 -927h-78l164 927h-180zM530 668l179 1005h86l69 -903l391 903h74l-178 -1005h-80l123 694l-295 -694h-104l-66 694l-123 -694h-76z" />
<glyph unicode="&#x25fc;" horiz-adv-x="1669" d="M0 0v1669h1669v-1669h-1669z" />
</font>
</defs>
</svg>
